<?xml version="1.0" encoding="utf-8"?>
<!-- Generator: Adobe Illustrator 22.1.0, SVG Export Plug-In . SVG Version: 6.00 Build 0)  -->
<svg version="1.1" id="OBJECTS" xmlns="http://www.w3.org/2000/svg" xmlns:xlink="http://www.w3.org/1999/xlink" x="0px" y="0px"
	 viewBox="0 0 750 500" style="enable-background:new 0 0 750 500;" xml:space="preserve">
<style type="text/css">
	.st0{fill:#CDBFBC;}
	.st1{fill:#E3D7D5;}
	.st2{fill:#E3390F;}
	.st3{fill:#FC8068;}
	.st4{fill:#AF9F9D;}
	.st5{fill:#FFFFFF;}
	.st6{opacity:0.3;}
	.st7{fill:#FF5325;}
	.st8{fill:#002029;}
	.st9{fill:#0C4E73;}
	.st10{fill:#173953;}
	.st11{fill:#DFEDF7;}
	.st12{fill:#DFDFDF;}
	.st13{fill:#2A5B74;}
	.st14{fill:#393C3D;}
	.st15{fill:#616263;}
	.st16{fill:#151516;}
	.st17{fill:#06080A;}
	.st18{fill:#FDBB92;}
	.st19{fill:#070303;}
	.st20{fill:#110808;}
	.st21{fill:#211A18;}
	.st22{fill:#FD967D;}


.st75{
fill:none;
}

.move{
stroke: #FD4448;
    animation: link-anim2 5s linear infinite;
    stroke-dasharray: 64;
    stroke-width: 1px;
}



@keyframes link-anim2 {
  0% {
    stroke-dashoffset: 368;
  }
  100% {
    stroke-dashoffset: 32;
  }
}


</style>
<g class="move">
	<g>
		<path class="st0" d="M499.1,339.2c-1,0-1.9,0-2.9,0c-0.4,0-0.7-0.3-0.7-0.8c0-0.4,0.3-0.7,0.8-0.7c0,0,0,0,0,0c1.9,0,3.8,0,5.7,0
			c0,0,0,0,0,0c0.4,0,0.7,0.3,0.8,0.7c0,0.4-0.3,0.8-0.7,0.8C501,339.2,500,339.2,499.1,339.2z M490.7,339
			C490.7,339,490.7,339,490.7,339c-2-0.1-3.9-0.2-5.8-0.3c-0.4,0-0.7-0.4-0.7-0.8c0-0.4,0.4-0.7,0.8-0.7c1.9,0.1,3.8,0.3,5.7,0.3
			c0.4,0,0.7,0.4,0.7,0.8C491.4,338.7,491.1,339,490.7,339z M507.5,339c-0.4,0-0.7-0.3-0.7-0.7c0-0.4,0.3-0.8,0.7-0.8
			c1.9-0.1,3.8-0.2,5.7-0.3c0.4,0,0.8,0.3,0.8,0.7c0,0.4-0.3,0.8-0.7,0.8C511.4,338.8,509.4,339,507.5,339
			C507.5,339,507.5,339,507.5,339z M479.4,338.2C479.4,338.2,479.4,338.2,479.4,338.2c-2-0.2-3.9-0.4-5.8-0.7
			c-0.4-0.1-0.7-0.4-0.6-0.8c0.1-0.4,0.4-0.7,0.8-0.6c1.9,0.2,3.8,0.5,5.7,0.7c0.4,0,0.7,0.4,0.7,0.8
			C480.1,337.9,479.8,338.2,479.4,338.2z M518.7,338.2c-0.4,0-0.7-0.3-0.7-0.7c0-0.4,0.3-0.8,0.7-0.8c1.9-0.2,3.8-0.4,5.7-0.7
			c0.4-0.1,0.8,0.2,0.8,0.6c0.1,0.4-0.2,0.8-0.6,0.8C522.7,337.7,520.7,338,518.7,338.2C518.8,338.2,518.8,338.2,518.7,338.2z
			 M468.2,336.8c0,0-0.1,0-0.1,0c-1.9-0.3-3.8-0.6-5.7-1c-0.4-0.1-0.7-0.5-0.6-0.9c0.1-0.4,0.5-0.7,0.9-0.6c1.9,0.3,3.8,0.7,5.7,1
			c0.4,0.1,0.7,0.4,0.6,0.9C468.9,336.5,468.6,336.8,468.2,336.8z M529.9,336.6c-0.4,0-0.7-0.3-0.7-0.6c-0.1-0.4,0.2-0.8,0.6-0.9
			c1.9-0.3,3.8-0.7,5.6-1.1c0.4-0.1,0.8,0.2,0.9,0.6c0.1,0.4-0.2,0.8-0.6,0.9c-1.9,0.4-3.8,0.8-5.7,1.1
			C530,336.6,529.9,336.6,529.9,336.6z M457.1,334.8c-0.1,0-0.1,0-0.2,0c-1.9-0.4-3.8-0.8-5.6-1.3c-0.4-0.1-0.7-0.5-0.6-0.9
			c0.1-0.4,0.5-0.7,0.9-0.6c1.9,0.4,3.7,0.9,5.6,1.2c0.4,0.1,0.7,0.5,0.6,0.9C457.8,334.5,457.5,334.8,457.1,334.8z M540.9,334.3
			c-0.3,0-0.6-0.2-0.7-0.6c-0.1-0.4,0.1-0.8,0.6-0.9c1.9-0.5,3.7-0.9,5.6-1.5c0.4-0.1,0.8,0.1,0.9,0.5c0.1,0.4-0.1,0.8-0.5,0.9
			c-1.8,0.5-3.7,1-5.6,1.5C541.1,334.3,541,334.3,540.9,334.3z M446.1,332.2c-0.1,0-0.1,0-0.2,0c-1.8-0.5-3.7-1-5.6-1.5
			c-0.4-0.1-0.6-0.5-0.5-0.9c0.1-0.4,0.5-0.6,0.9-0.5c1.8,0.5,3.7,1,5.5,1.5c0.4,0.1,0.6,0.5,0.5,0.9
			C446.8,332,446.5,332.2,446.1,332.2z M551.8,331.2c-0.3,0-0.6-0.2-0.7-0.5c-0.1-0.4,0.1-0.8,0.5-0.9c1.8-0.6,3.6-1.2,5.4-1.9
			c0.4-0.1,0.8,0.1,1,0.4c0.1,0.4-0.1,0.8-0.4,1c-1.8,0.7-3.6,1.3-5.5,1.9C552,331.2,551.9,331.2,551.8,331.2z M435.3,329.1
			c-0.1,0-0.1,0-0.2,0c-1.8-0.6-3.7-1.2-5.5-1.8c-0.4-0.1-0.6-0.6-0.5-1c0.1-0.4,0.6-0.6,1-0.5c1.8,0.6,3.6,1.2,5.5,1.8
			c0.4,0.1,0.6,0.5,0.5,0.9C435.9,328.9,435.6,329.1,435.3,329.1z M562.4,327.4c-0.3,0-0.6-0.2-0.7-0.5c-0.2-0.4,0-0.8,0.4-1
			c1.8-0.7,3.5-1.5,5.3-2.3c0.4-0.2,0.8,0,1,0.4c0.2,0.4,0,0.8-0.4,1c-1.7,0.8-3.5,1.6-5.3,2.3C562.6,327.4,562.5,327.4,562.4,327.4
			z M424.6,325.5c-0.1,0-0.2,0-0.3,0c-1.8-0.6-3.6-1.3-5.4-1.9c-0.4-0.1-0.6-0.6-0.5-1c0.1-0.4,0.6-0.6,1-0.5
			c1.8,0.6,3.6,1.3,5.5,1.9c0.4,0.1,0.6,0.6,0.5,1C425.2,325.3,424.9,325.5,424.6,325.5z M572.7,322.7c-0.3,0-0.5-0.2-0.7-0.4
			c-0.2-0.4,0-0.8,0.3-1c1.7-0.9,3.4-1.8,5.1-2.7c0.4-0.2,0.8-0.1,1,0.3c0.2,0.4,0.1,0.8-0.3,1c-1.7,0.9-3.4,1.8-5.1,2.7
			C572.9,322.7,572.8,322.7,572.7,322.7z M413.9,321.8c-0.1,0-0.2,0-0.2,0c-1.8-0.6-3.7-1.2-5.5-1.8c-0.4-0.1-0.6-0.6-0.5-0.9
			c0.1-0.4,0.6-0.6,0.9-0.5c1.8,0.6,3.6,1.2,5.5,1.8c0.4,0.1,0.6,0.6,0.5,0.9C414.5,321.6,414.2,321.8,413.9,321.8z M403.2,318.3
			c-0.1,0-0.1,0-0.2,0c-1.8-0.6-3.7-1.1-5.5-1.7c-0.4-0.1-0.6-0.5-0.5-0.9c0.1-0.4,0.5-0.6,0.9-0.5c1.8,0.5,3.7,1.1,5.5,1.7
			c0.4,0.1,0.6,0.5,0.5,0.9C403.8,318.1,403.5,318.3,403.2,318.3z M582.6,317.3c-0.3,0-0.5-0.1-0.6-0.4c-0.2-0.4-0.1-0.8,0.3-1
			c1.6-1,3.3-2,4.8-3.1c0.3-0.2,0.8-0.1,1,0.2c0.2,0.3,0.1,0.8-0.2,1c-1.6,1.1-3.2,2.1-4.9,3.1C582.9,317.3,582.7,317.3,582.6,317.3
			z M169.5,316C169.4,316,169.4,316,169.5,316c-1.9-0.1-3.9-0.2-5.8-0.4c-0.4,0-0.7-0.4-0.7-0.8c0-0.4,0.4-0.7,0.8-0.7
			c1.9,0.2,3.8,0.3,5.7,0.3c0.4,0,0.7,0.4,0.7,0.8C170.2,315.6,169.9,316,169.5,316z M175,316c-0.4,0-0.7-0.3-0.7-0.7
			c0-0.4,0.3-0.8,0.7-0.8c1.9-0.1,3.8-0.2,5.7-0.4c0.4,0,0.8,0.3,0.8,0.7c0,0.4-0.3,0.8-0.7,0.8C178.9,315.8,176.9,315.9,175,316
			C175,316,175,316,175,316z M392.4,315.1c-0.1,0-0.1,0-0.2,0c-1.9-0.5-3.7-1.1-5.5-1.6c-0.4-0.1-0.6-0.5-0.5-0.9
			c0.1-0.4,0.5-0.6,0.9-0.5c1.8,0.5,3.7,1,5.6,1.6c0.4,0.1,0.6,0.5,0.5,0.9C393,314.9,392.7,315.1,392.4,315.1z M158.2,314.9
			c0,0-0.1,0-0.1,0c-1.9-0.3-3.8-0.7-5.7-1.1c-0.4-0.1-0.7-0.5-0.6-0.9c0.1-0.4,0.5-0.7,0.9-0.6c1.9,0.4,3.7,0.8,5.6,1.1
			c0.4,0.1,0.7,0.4,0.6,0.9C158.9,314.7,158.6,314.9,158.2,314.9z M186.2,314.9c-0.4,0-0.7-0.3-0.7-0.6c-0.1-0.4,0.2-0.8,0.6-0.9
			c1.9-0.3,3.8-0.7,5.6-1.1c0.4-0.1,0.8,0.2,0.9,0.6c0.1,0.4-0.2,0.8-0.6,0.9c-1.9,0.4-3.8,0.8-5.7,1.1
			C186.3,314.9,186.2,314.9,186.2,314.9z M197.2,312.6c-0.3,0-0.7-0.2-0.7-0.6c-0.1-0.4,0.2-0.8,0.6-0.9c1.9-0.4,3.8-0.8,5.6-1.2
			c0.4-0.1,0.8,0.2,0.9,0.6c0.1,0.4-0.2,0.8-0.6,0.9c-1.8,0.4-3.7,0.8-5.6,1.2C197.4,312.6,197.3,312.6,197.2,312.6z M147.2,312.5
			c-0.1,0-0.1,0-0.2,0c-1.9-0.5-3.7-1.1-5.5-1.8c-0.4-0.1-0.6-0.6-0.5-1c0.1-0.4,0.6-0.6,1-0.5c1.8,0.6,3.6,1.2,5.5,1.7
			c0.4,0.1,0.6,0.5,0.5,0.9C147.9,312.3,147.6,312.5,147.2,312.5z M381.5,312.1c-0.1,0-0.1,0-0.2,0c-1.9-0.5-3.7-1-5.6-1.4
			c-0.4-0.1-0.6-0.5-0.5-0.9c0.1-0.4,0.5-0.6,0.9-0.5c1.9,0.5,3.7,0.9,5.6,1.4c0.4,0.1,0.6,0.5,0.5,0.9
			C382.1,311.9,381.8,312.1,381.5,312.1z M592,311.1c-0.2,0-0.5-0.1-0.6-0.3c-0.2-0.3-0.2-0.8,0.2-1c1.5-1.1,3.1-2.3,4.5-3.5
			c0.3-0.3,0.8-0.2,1.1,0.1c0.3,0.3,0.2,0.8-0.1,1.1c-1.5,1.2-3,2.4-4.6,3.5C592.3,311,592.1,311.1,592,311.1z M208.3,310.2
			c-0.3,0-0.7-0.2-0.7-0.6c-0.1-0.4,0.2-0.8,0.6-0.9c1.9-0.4,3.8-0.8,5.7-1.2c0.4-0.1,0.8,0.2,0.9,0.6c0.1,0.4-0.2,0.8-0.6,0.9
			c-1.8,0.4-3.7,0.8-5.6,1.2C208.4,310.2,208.3,310.2,208.3,310.2z M370.5,309.4c-0.1,0-0.1,0-0.2,0c-1.9-0.4-3.8-0.9-5.6-1.3
			c-0.4-0.1-0.7-0.5-0.6-0.9c0.1-0.4,0.5-0.7,0.9-0.6c1.9,0.4,3.8,0.8,5.6,1.3c0.4,0.1,0.7,0.5,0.6,0.9
			C371.2,309.1,370.9,309.4,370.5,309.4z M136.6,308.8c-0.1,0-0.2,0-0.3-0.1c-1.8-0.7-3.6-1.6-5.3-2.4c-0.4-0.2-0.5-0.6-0.3-1
			c0.2-0.4,0.6-0.5,1-0.3c1.7,0.8,3.5,1.6,5.2,2.4c0.4,0.2,0.6,0.6,0.4,1C137.2,308.6,136.9,308.8,136.6,308.8z M219.3,308
			c-0.4,0-0.7-0.2-0.7-0.6c-0.1-0.4,0.2-0.8,0.6-0.9c1.9-0.4,3.8-0.7,5.7-1.1c0.4-0.1,0.8,0.2,0.9,0.6c0.1,0.4-0.2,0.8-0.6,0.9
			c-1.8,0.3-3.7,0.7-5.7,1.1C219.4,307.9,219.4,308,219.3,308z M359.5,307c0,0-0.1,0-0.2,0c-1.9-0.4-3.8-0.8-5.6-1.1
			c-0.4-0.1-0.7-0.5-0.6-0.9c0.1-0.4,0.5-0.7,0.9-0.6c1.9,0.4,3.8,0.7,5.7,1.1c0.4,0.1,0.7,0.5,0.6,0.9
			C360.2,306.7,359.9,307,359.5,307z M230.4,305.9c-0.4,0-0.7-0.3-0.7-0.6c-0.1-0.4,0.2-0.8,0.6-0.9c1.9-0.3,3.8-0.6,5.7-1
			c0.4-0.1,0.8,0.2,0.9,0.6c0.1,0.4-0.2,0.8-0.6,0.9c-1.9,0.3-3.8,0.6-5.7,0.9C230.5,305.9,230.5,305.9,230.4,305.9z M348.4,304.9
			c0,0-0.1,0-0.1,0c-1.9-0.3-3.8-0.6-5.7-0.9c-0.4-0.1-0.7-0.4-0.6-0.9c0.1-0.4,0.4-0.7,0.9-0.6c1.9,0.3,3.8,0.6,5.7,0.9
			c0.4,0.1,0.7,0.5,0.6,0.9C349.1,304.6,348.8,304.9,348.4,304.9z M241.6,304.1c-0.4,0-0.7-0.3-0.7-0.6c-0.1-0.4,0.2-0.8,0.6-0.9
			c1.9-0.3,3.8-0.6,5.7-0.8c0.4-0.1,0.8,0.2,0.8,0.6c0.1,0.4-0.2,0.8-0.6,0.8c-1.9,0.3-3.8,0.5-5.7,0.8
			C241.7,304.1,241.6,304.1,241.6,304.1z M600.8,304c-0.2,0-0.4-0.1-0.6-0.3c-0.3-0.3-0.2-0.8,0.1-1.1c1.4-1.3,2.8-2.6,4.2-3.9
			c0.3-0.3,0.8-0.3,1.1,0c0.3,0.3,0.3,0.8,0,1.1c-1.4,1.3-2.8,2.7-4.2,4C601.1,303.9,600.9,304,600.8,304z M126.5,303.9
			c-0.1,0-0.3,0-0.4-0.1c-1.7-0.9-3.4-2-5-3c-0.3-0.2-0.4-0.7-0.2-1c0.2-0.3,0.7-0.4,1-0.2c1.6,1,3.3,2,4.9,3c0.4,0.2,0.5,0.7,0.3,1
			C127,303.7,126.7,303.9,126.5,303.9z M337.3,303.1c0,0-0.1,0-0.1,0c-1.9-0.3-3.8-0.5-5.7-0.7c-0.4-0.1-0.7-0.4-0.7-0.8
			c0-0.4,0.4-0.7,0.8-0.7c1.9,0.2,3.8,0.5,5.7,0.7c0.4,0.1,0.7,0.4,0.6,0.8C338,302.9,337.7,303.1,337.3,303.1z M252.8,302.6
			c-0.4,0-0.7-0.3-0.7-0.7c0-0.4,0.2-0.8,0.7-0.8c1.9-0.2,3.8-0.4,5.7-0.6c0.4,0,0.8,0.3,0.8,0.7c0,0.4-0.3,0.8-0.7,0.8
			C256.7,302.2,254.8,302.4,252.8,302.6C252.8,302.6,252.8,302.6,252.8,302.6z M326.1,301.8C326.1,301.8,326,301.8,326.1,301.8
			c-2-0.2-3.9-0.4-5.8-0.5c-0.4,0-0.7-0.4-0.7-0.8c0-0.4,0.4-0.7,0.8-0.7c1.9,0.2,3.8,0.3,5.8,0.5c0.4,0,0.7,0.4,0.7,0.8
			C326.8,301.5,326.5,301.8,326.1,301.8z M264,301.4c-0.4,0-0.7-0.3-0.7-0.7c0-0.4,0.3-0.8,0.7-0.8c1.9-0.2,3.8-0.3,5.8-0.5
			c0.4,0,0.8,0.3,0.8,0.7c0,0.4-0.3,0.8-0.7,0.8C267.9,301.1,266,301.3,264,301.4C264,301.4,264,301.4,264,301.4z M314.8,300.8
			C314.8,300.8,314.8,300.8,314.8,300.8c-2-0.1-3.9-0.2-5.8-0.3c-0.4,0-0.7-0.4-0.7-0.8c0-0.4,0.4-0.7,0.8-0.7
			c1.9,0.1,3.9,0.2,5.8,0.3c0.4,0,0.7,0.4,0.7,0.8C315.6,300.5,315.2,300.8,314.8,300.8z M275.2,300.6c-0.4,0-0.7-0.3-0.7-0.7
			c0-0.4,0.3-0.8,0.7-0.8c1.9-0.1,3.9-0.2,5.8-0.3c0.4,0,0.8,0.3,0.8,0.7c0,0.4-0.3,0.8-0.7,0.8
			C279.1,300.4,277.2,300.5,275.2,300.6C275.3,300.6,275.3,300.6,275.2,300.6z M303.6,300.2C303.6,300.2,303.6,300.2,303.6,300.2
			c-1.9-0.1-3.9-0.1-5.8-0.1c-0.4,0-0.7-0.3-0.7-0.8c0-0.4,0.3-0.7,0.8-0.7c0,0,0,0,0,0c1.9,0,3.9,0.1,5.8,0.1
			c0.4,0,0.7,0.4,0.7,0.8C304.3,299.9,304,300.2,303.6,300.2z M286.5,300.2c-0.4,0-0.7-0.3-0.7-0.7c0-0.4,0.3-0.8,0.7-0.8
			c1.9,0,3.9-0.1,5.8-0.1c0,0,0,0,0,0c0.4,0,0.7,0.3,0.8,0.7c0,0.4-0.3,0.8-0.7,0.8C290.4,300.1,288.4,300.1,286.5,300.2
			C286.5,300.2,286.5,300.2,286.5,300.2z M116.9,297.8c-0.2,0-0.3,0-0.4-0.1c-1.6-1.1-3.1-2.3-4.6-3.5c-0.3-0.3-0.4-0.7-0.1-1.1
			c0.3-0.3,0.7-0.4,1.1-0.1c1.5,1.2,3,2.4,4.5,3.5c0.3,0.2,0.4,0.7,0.2,1C117.4,297.7,117.2,297.8,116.9,297.8z M608.8,296.1
			c-0.2,0-0.4-0.1-0.5-0.2c-0.3-0.3-0.3-0.8,0-1.1l0.2-0.3c1.3-1.4,2.6-2.9,3.9-4.3c0.3-0.3,0.7-0.3,1.1-0.1
			c0.3,0.3,0.3,0.7,0.1,1.1c-1.3,1.4-2.6,2.9-3.9,4.3l-0.2,0.3C609.2,296,609,296.1,608.8,296.1z M108.2,290.6
			c-0.2,0-0.4-0.1-0.5-0.2c-1.4-1.3-2.8-2.7-4.2-4c-0.3-0.3-0.3-0.8,0-1.1c0.3-0.3,0.8-0.3,1.1,0c1.3,1.4,2.7,2.7,4.1,4
			c0.3,0.3,0.3,0.8,0.1,1.1C108.6,290.6,108.4,290.6,108.2,290.6z M616.5,287.4c-0.2,0-0.3-0.1-0.5-0.2c-0.3-0.3-0.4-0.7-0.1-1.1
			c1.2-1.5,2.5-2.9,3.7-4.4c0.3-0.3,0.7-0.4,1.1-0.1c0.3,0.3,0.4,0.7,0.1,1.1c-1.2,1.5-2.5,3-3.7,4.4
			C617,287.3,616.8,287.4,616.5,287.4z M100.2,282.6c-0.2,0-0.4-0.1-0.6-0.3c-1.3-1.4-2.5-2.9-3.7-4.5c-0.3-0.3-0.2-0.8,0.1-1.1
			c0.3-0.3,0.8-0.2,1.1,0.1c1.2,1.5,2.4,3,3.7,4.4c0.3,0.3,0.2,0.8-0.1,1.1C100.6,282.5,100.4,282.6,100.2,282.6z M623.7,278.7
			c-0.2,0-0.3-0.1-0.5-0.2c-0.3-0.3-0.4-0.7-0.1-1.1c1.2-1.5,2.4-3,3.5-4.5c0.3-0.3,0.7-0.4,1.1-0.1c0.3,0.3,0.4,0.7,0.1,1.1
			c-1.2,1.5-2.4,3-3.6,4.6C624.2,278.6,624,278.7,623.7,278.7z M93.2,273.8c-0.2,0-0.5-0.1-0.6-0.3c-1.1-1.6-2.2-3.2-3.2-4.8
			c-0.2-0.4-0.1-0.8,0.2-1c0.4-0.2,0.8-0.1,1,0.2c1,1.6,2.1,3.2,3.2,4.8c0.2,0.3,0.2,0.8-0.2,1C93.5,273.7,93.4,273.8,93.2,273.8z
			 M630.6,269.7c-0.2,0-0.3,0-0.4-0.1c-0.3-0.2-0.4-0.7-0.2-1c1.1-1.6,2.3-3.1,3.4-4.7c0.2-0.3,0.7-0.4,1-0.2c0.3,0.2,0.4,0.7,0.2,1
			c-1.1,1.6-2.2,3.1-3.4,4.7C631,269.6,630.8,269.7,630.6,269.7z M87.2,264.2c-0.3,0-0.5-0.1-0.7-0.4c-0.9-1.7-1.9-3.4-2.7-5.1
			c-0.2-0.4,0-0.8,0.3-1c0.4-0.2,0.8,0,1,0.3c0.8,1.7,1.7,3.4,2.7,5.1c0.2,0.4,0.1,0.8-0.3,1C87.4,264.2,87.3,264.2,87.2,264.2z
			 M637.1,260.5c-0.1,0-0.3,0-0.4-0.1c-0.3-0.2-0.4-0.7-0.2-1c1.1-1.6,2.1-3.2,3.1-4.8c0.2-0.4,0.7-0.5,1-0.2c0.4,0.2,0.5,0.7,0.2,1
			c-1,1.6-2.1,3.2-3.2,4.9C637.5,260.4,637.3,260.5,637.1,260.5z M82.2,254.1c-0.3,0-0.6-0.2-0.7-0.5c-0.8-1.8-1.5-3.6-2.2-5.4
			c-0.1-0.4,0.1-0.8,0.4-1c0.4-0.1,0.8,0.1,1,0.4c0.7,1.8,1.4,3.6,2.1,5.3c0.2,0.4,0,0.8-0.4,1C82.4,254.1,82.3,254.1,82.2,254.1z
			 M643.1,251c-0.1,0-0.3,0-0.4-0.1c-0.4-0.2-0.5-0.7-0.3-1c1-1.6,2-3.3,2.9-5c0.2-0.4,0.7-0.5,1-0.3c0.4,0.2,0.5,0.7,0.3,1
			c-0.9,1.7-1.9,3.3-2.9,5C643.6,250.8,643.4,251,643.1,251z M78.3,243.5c-0.3,0-0.6-0.2-0.7-0.5c-0.6-1.8-1.1-3.7-1.6-5.6
			c-0.1-0.4,0.1-0.8,0.5-0.9c0.4-0.1,0.8,0.1,0.9,0.5c0.5,1.8,1,3.7,1.6,5.5c0.1,0.4-0.1,0.8-0.5,0.9
			C78.4,243.5,78.3,243.5,78.3,243.5z M648.7,241.1c-0.1,0-0.2,0-0.4-0.1c-0.4-0.2-0.5-0.6-0.3-1c0.9-1.7,1.8-3.4,2.6-5.1
			c0.2-0.4,0.6-0.5,1-0.3c0.4,0.2,0.5,0.6,0.3,1c-0.8,1.7-1.7,3.4-2.6,5.2C649.2,241,649,241.1,648.7,241.1z M75.4,232.6
			c-0.3,0-0.7-0.2-0.7-0.6c-0.4-1.9-0.7-3.8-1-5.7c-0.1-0.4,0.2-0.8,0.6-0.9c0.4-0.1,0.8,0.2,0.9,0.6c0.3,1.9,0.6,3.8,1,5.6
			c0.1,0.4-0.2,0.8-0.6,0.9C75.5,232.6,75.5,232.6,75.4,232.6z M653.7,231c-0.1,0-0.2,0-0.3-0.1c-0.4-0.2-0.5-0.6-0.4-1
			c0.8-1.7,1.6-3.5,2.3-5.3c0.2-0.4,0.6-0.6,1-0.4c0.4,0.2,0.6,0.6,0.4,1c-0.7,1.8-1.5,3.5-2.3,5.3C654.3,230.8,654,231,653.7,231z
			 M73.8,221.5c-0.4,0-0.7-0.3-0.7-0.7c-0.2-1.9-0.3-3.9-0.4-5.8c0-0.4,0.3-0.8,0.7-0.8c0.4,0,0.8,0.3,0.8,0.7
			c0.1,1.9,0.2,3.8,0.4,5.7C74.5,221.1,74.2,221.4,73.8,221.5C73.8,221.5,73.8,221.5,73.8,221.5z M658.1,220.6c-0.1,0-0.2,0-0.3,0
			c-0.4-0.1-0.6-0.6-0.4-1c0.7-1.8,1.3-3.6,2-5.4c0.1-0.4,0.6-0.6,1-0.5c0.4,0.1,0.6,0.6,0.5,1c-0.6,1.8-1.3,3.6-2,5.5
			C658.7,220.4,658.4,220.6,658.1,220.6z M73.2,210.2c-0.4,0-0.7-0.3-0.8-0.7l0-0.4c0-1.8,0-3.6,0.1-5.4c0-0.4,0.4-0.7,0.8-0.7
			c0.4,0,0.7,0.4,0.7,0.8c-0.1,1.8-0.1,3.6-0.1,5.3l0,0.4C73.9,209.9,73.6,210.2,73.2,210.2C73.2,210.2,73.2,210.2,73.2,210.2z
			 M661.7,209.9c-0.1,0-0.1,0-0.2,0c-0.4-0.1-0.6-0.5-0.5-0.9c0.6-1.8,1.1-3.7,1.6-5.5c0.1-0.4,0.5-0.6,0.9-0.5
			c0.4,0.1,0.6,0.5,0.5,0.9c-0.5,1.8-1,3.7-1.6,5.6C662.3,209.7,662,209.9,661.7,209.9z M664.6,199c-0.1,0-0.1,0-0.2,0
			c-0.4-0.1-0.7-0.5-0.6-0.9c0.4-1.9,0.8-3.8,1.1-5.6c0.1-0.4,0.5-0.7,0.9-0.6c0.4,0.1,0.7,0.5,0.6,0.9c-0.3,1.9-0.7,3.8-1.1,5.7
			C665.2,198.7,664.9,199,664.6,199z M73.7,198.9C73.6,198.9,73.6,198.9,73.7,198.9c-0.5,0-0.8-0.4-0.7-0.8c0.2-1.9,0.4-3.9,0.7-5.8
			c0.1-0.4,0.4-0.7,0.8-0.6c0.4,0.1,0.7,0.4,0.6,0.8c-0.3,1.9-0.5,3.8-0.7,5.7C74.4,198.6,74,198.9,73.7,198.9z M666.5,187.9
			C666.5,187.9,666.4,187.9,666.5,187.9c-0.5-0.1-0.8-0.4-0.7-0.8c0.2-1.9,0.5-3.8,0.6-5.7c0-0.4,0.4-0.7,0.8-0.7
			c0.4,0,0.7,0.4,0.7,0.8c-0.2,1.9-0.4,3.8-0.6,5.8C667.2,187.6,666.9,187.9,666.5,187.9z M75.2,187.8c0,0-0.1,0-0.1,0
			c-0.4-0.1-0.7-0.5-0.6-0.9c0.3-1.9,0.7-3.8,1.2-5.7c0.1-0.4,0.5-0.7,0.9-0.6c0.4,0.1,0.7,0.5,0.6,0.9c-0.4,1.9-0.8,3.8-1.2,5.6
			C75.9,187.5,75.5,187.8,75.2,187.8z M77.7,176.8c-0.1,0-0.1,0-0.2,0c-0.4-0.1-0.6-0.5-0.5-0.9c0.5-1.8,1.1-3.7,1.6-5.6
			c0.1-0.4,0.5-0.6,0.9-0.5c0.4,0.1,0.6,0.5,0.5,0.9c-0.6,1.8-1.1,3.7-1.6,5.5C78.3,176.5,78,176.8,77.7,176.8z M667.5,176.6
			C667.4,176.6,667.4,176.6,667.5,176.6c-0.4,0-0.8-0.4-0.8-0.8c0.1-1.6,0.1-3.2,0.1-4.7c0-0.3,0-0.7,0-1c0-0.4,0.3-0.8,0.7-0.8
			c0,0,0,0,0,0c0.4,0,0.7,0.3,0.8,0.7c0,0.3,0,0.7,0,1c0,1.6,0,3.2-0.1,4.8C668.2,176.3,667.9,176.6,667.5,176.6z M81.1,166
			c-0.1,0-0.2,0-0.3,0c-0.4-0.1-0.6-0.6-0.5-1c0.6-1.8,1.3-3.6,2.1-5.4c0.2-0.4,0.6-0.6,1-0.4c0.4,0.2,0.6,0.6,0.4,1
			c-0.7,1.8-1.4,3.6-2,5.4C81.7,165.8,81.4,166,81.1,166z M667.4,165.4c-0.4,0-0.7-0.3-0.7-0.7c-0.1-1.2-0.1-2.3-0.2-3.5
			c0-0.6-0.1-1.2-0.2-1.8c0-0.2,0-0.3,0-0.5c0-0.4,0.3-0.8,0.7-0.8c0.4,0,0.8,0.3,0.8,0.7c0,0.2,0,0.3,0,0.5
			c0.1,0.6,0.1,1.2,0.2,1.8c0.1,1.2,0.2,2.4,0.2,3.5C668.1,165,667.8,165.3,667.4,165.4C667.4,165.4,667.4,165.4,667.4,165.4z
			 M85.3,155.5c-0.1,0-0.2,0-0.3-0.1c-0.4-0.2-0.5-0.6-0.4-1c0.8-1.8,1.6-3.5,2.5-5.2c0.2-0.4,0.6-0.5,1-0.3c0.4,0.2,0.5,0.6,0.3,1
			c-0.8,1.7-1.7,3.4-2.4,5.2C85.9,155.4,85.6,155.5,85.3,155.5z M666.1,154.1c-0.4,0-0.7-0.2-0.7-0.6c-0.4-1.8-0.8-3.7-1.3-5.5
			c-0.1-0.4,0.1-0.8,0.5-0.9c0.4-0.1,0.8,0.1,0.9,0.5c0.5,1.9,1,3.8,1.4,5.7c0.1,0.4-0.2,0.8-0.6,0.9
			C666.2,154.1,666.2,154.1,666.1,154.1z M90.3,145.4c-0.1,0-0.2,0-0.4-0.1c-0.4-0.2-0.5-0.7-0.3-1c0.9-1.7,1.9-3.4,2.9-5
			c0.2-0.4,0.7-0.5,1-0.2c0.4,0.2,0.5,0.7,0.2,1c-1,1.6-2,3.3-2.9,4.9C90.8,145.3,90.6,145.4,90.3,145.4z M663,143.3
			c-0.3,0-0.6-0.2-0.7-0.5c-0.7-1.7-1.4-3.5-2.2-5.3c-0.2-0.4,0-0.8,0.4-1c0.4-0.2,0.8,0,1,0.4c0.8,1.8,1.6,3.6,2.3,5.4
			c0.1,0.4-0.1,0.8-0.4,1C663.2,143.3,663.1,143.3,663,143.3z M96.2,135.8c-0.1,0-0.3,0-0.4-0.1c-0.3-0.2-0.4-0.7-0.2-1
			c1.1-1.6,2.3-3.2,3.4-4.7c0.3-0.3,0.7-0.4,1.1-0.1c0.3,0.3,0.4,0.7,0.1,1.1c-1.1,1.5-2.3,3-3.4,4.6
			C96.7,135.7,96.5,135.8,96.2,135.8z M658.3,133.1c-0.3,0-0.5-0.1-0.7-0.4c-0.9-1.6-1.9-3.3-2.9-4.9c-0.2-0.3-0.1-0.8,0.2-1
			c0.4-0.2,0.8-0.1,1,0.2c1,1.6,2,3.3,3,5c0.2,0.4,0.1,0.8-0.3,1C658.6,133,658.4,133.1,658.3,133.1z M364.4,129.2
			c-1.2,0-2.5,0-3.8-0.1c-0.4,0-0.7-0.4-0.7-0.8c0-0.4,0.4-0.7,0.8-0.7c1.9,0.1,3.9,0.1,5.7,0.1c0.4,0,0.8,0.3,0.8,0.7
			c0,0.4-0.3,0.8-0.7,0.8C365.7,129.2,365.1,129.2,364.4,129.2z M371.9,128.9c-0.4,0-0.7-0.3-0.7-0.7c0-0.4,0.3-0.8,0.7-0.8
			c1.9-0.2,3.8-0.4,5.7-0.7c0.4-0.1,0.8,0.2,0.9,0.6c0.1,0.4-0.2,0.8-0.6,0.9C375.8,128.5,373.9,128.7,371.9,128.9
			C371.9,128.9,371.9,128.9,371.9,128.9z M355.1,128.8C355.1,128.8,355.1,128.8,355.1,128.8c-1.9-0.2-3.9-0.4-5.8-0.6
			c-0.4-0.1-0.7-0.4-0.6-0.8c0.1-0.4,0.4-0.7,0.8-0.6c1.9,0.3,3.8,0.5,5.7,0.6c0.4,0,0.7,0.4,0.7,0.8
			C355.8,128.5,355.5,128.8,355.1,128.8z M343.9,127.3c0,0-0.1,0-0.1,0c-1.9-0.3-3.8-0.7-5.7-1.1c-0.4-0.1-0.7-0.5-0.6-0.9
			c0.1-0.4,0.5-0.7,0.9-0.6c1.9,0.4,3.8,0.8,5.6,1.1c0.4,0.1,0.7,0.5,0.6,0.9C344.6,127.1,344.3,127.3,343.9,127.3z M383,127.2
			c-0.3,0-0.7-0.2-0.7-0.6c-0.1-0.4,0.2-0.8,0.6-0.9c1.8-0.4,3.7-0.9,5.5-1.5c0.4-0.1,0.8,0.1,0.9,0.5c0.1,0.4-0.1,0.8-0.5,0.9
			c-1.8,0.6-3.7,1.1-5.6,1.5C383.1,127.2,383.1,127.2,383,127.2z M103.1,126.9c-0.2,0-0.3-0.1-0.5-0.2c-0.3-0.3-0.3-0.7-0.1-1.1
			c1.3-1.5,2.6-2.9,3.9-4.3c0.3-0.3,0.8-0.3,1.1,0c0.3,0.3,0.3,0.8,0,1.1c-1.3,1.3-2.6,2.8-3.9,4.2
			C103.5,126.8,103.3,126.9,103.1,126.9z M332.9,125c-0.1,0-0.1,0-0.2,0c-1.8-0.4-3.7-0.9-5.6-1.4c-0.4-0.1-0.6-0.5-0.5-0.9
			c0.1-0.4,0.5-0.6,0.9-0.5c1.9,0.5,3.7,1,5.6,1.4c0.4,0.1,0.7,0.5,0.6,0.9C333.5,124.8,333.2,125,332.9,125z M393.8,124
			c-0.3,0-0.6-0.2-0.7-0.5c-0.1-0.4,0-0.8,0.4-1c1.7-0.7,3.5-1.4,5.3-2.2c0.4-0.2,0.8,0,1,0.4c0.2,0.4,0,0.8-0.4,1
			c-1.8,0.8-3.6,1.6-5.4,2.2C394,124,393.9,124,393.8,124z M652.3,123.5c-0.2,0-0.5-0.1-0.6-0.3c-1.1-1.5-2.3-3.1-3.5-4.6
			c-0.3-0.3-0.2-0.8,0.1-1.1c0.3-0.3,0.8-0.2,1.1,0.1c1.2,1.5,2.4,3.1,3.5,4.6c0.2,0.3,0.2,0.8-0.2,1
			C652.6,123.5,652.4,123.5,652.3,123.5z M322,122.1c-0.1,0-0.1,0-0.2,0c-1.8-0.5-3.7-1.1-5.5-1.6c-0.4-0.1-0.6-0.5-0.5-0.9
			c0.1-0.4,0.5-0.6,0.9-0.5c1.8,0.5,3.7,1.1,5.5,1.6c0.4,0.1,0.6,0.5,0.5,0.9C322.6,121.8,322.3,122.1,322,122.1z M404,119.3
			c-0.3,0-0.5-0.1-0.7-0.4c-0.2-0.4-0.1-0.8,0.3-1c1.6-0.9,3.3-1.8,5-2.8c0.4-0.2,0.8-0.1,1,0.3c0.2,0.4,0.1,0.8-0.3,1
			c-1.8,1-3.4,1.9-5.1,2.8C404.3,119.3,404.2,119.3,404,119.3z M311.2,118.9c-0.1,0-0.1,0-0.2,0c-1.8-0.5-3.7-1.1-5.5-1.6
			c-0.4-0.1-0.6-0.5-0.5-0.9c0.1-0.4,0.5-0.6,0.9-0.5c1.8,0.5,3.7,1.1,5.5,1.6c0.4,0.1,0.6,0.5,0.5,0.9
			C311.8,118.7,311.5,118.9,311.2,118.9z M111,118.8c-0.2,0-0.4-0.1-0.6-0.2c-0.3-0.3-0.3-0.8,0.1-1.1c1.4-1.3,2.9-2.6,4.4-3.8
			c0.3-0.3,0.8-0.2,1.1,0.1c0.3,0.3,0.2,0.8-0.1,1.1c-1.5,1.2-2.9,2.4-4.4,3.7C111.3,118.8,111.2,118.8,111,118.8z M300.3,115.8
			c-0.1,0-0.1,0-0.2,0c-1.8-0.5-3.7-1.1-5.5-1.6c-0.4-0.1-0.6-0.5-0.5-0.9c0.1-0.4,0.5-0.6,0.9-0.5c1.9,0.5,3.7,1.1,5.6,1.6
			c0.4,0.1,0.6,0.5,0.5,0.9C300.9,115.6,300.6,115.8,300.3,115.8z M645.2,114.7c-0.2,0-0.4-0.1-0.6-0.2c-1.3-1.4-2.6-2.8-3.9-4.2
			c-0.3-0.3-0.3-0.8,0-1.1c0.3-0.3,0.8-0.3,1.1,0c1.4,1.4,2.7,2.8,4,4.2c0.3,0.3,0.3,0.8-0.1,1.1
			C645.6,114.7,645.4,114.7,645.2,114.7z M413.8,113.7c-0.2,0-0.5-0.1-0.6-0.4c-0.2-0.4-0.1-0.8,0.2-1c1.5-0.9,3.1-2,4.8-3.1
			c0.3-0.2,0.8-0.1,1,0.2c0.2,0.3,0.1,0.8-0.2,1c-1.8,1.2-3.4,2.2-4.9,3.1C414.1,113.6,413.9,113.7,413.8,113.7z M289.5,112.7
			c-0.1,0-0.1,0-0.2,0c-1.9-0.5-3.7-1-5.6-1.5c-0.4-0.1-0.6-0.5-0.5-0.9c0.1-0.4,0.5-0.6,0.9-0.5c1.9,0.5,3.7,1,5.6,1.5
			c0.4,0.1,0.6,0.5,0.5,0.9C290.1,112.5,289.8,112.7,289.5,112.7z M119.8,111.8c-0.2,0-0.5-0.1-0.6-0.3c-0.2-0.3-0.2-0.8,0.2-1
			c1.6-1.1,3.2-2.2,4.9-3.2c0.4-0.2,0.8-0.1,1,0.3c0.2,0.4,0.1,0.8-0.3,1c-1.6,1-3.2,2-4.8,3.1C120.1,111.8,120,111.8,119.8,111.8z
			 M278.6,109.7c-0.1,0-0.1,0-0.2,0c-1.9-0.5-3.8-1-5.6-1.5c-0.4-0.1-0.6-0.5-0.5-0.9c0.1-0.4,0.5-0.6,0.9-0.5
			c1.8,0.5,3.7,1,5.6,1.5c0.4,0.1,0.6,0.5,0.5,0.9C279.2,109.5,278.9,109.7,278.6,109.7z M423.2,107.5c-0.2,0-0.5-0.1-0.6-0.3
			c-0.2-0.3-0.1-0.8,0.2-1c0.9-0.6,1.9-1.3,2.8-1.9l2-1.3c0.3-0.2,0.8-0.1,1,0.2c0.2,0.3,0.1,0.8-0.2,1l-2,1.3
			c-0.9,0.6-1.9,1.3-2.8,1.9C423.5,107.5,423.4,107.5,423.2,107.5z M267.6,106.8c-0.1,0-0.1,0-0.2,0c-1.9-0.5-3.8-1-5.6-1.4
			c-0.4-0.1-0.6-0.5-0.5-0.9c0.1-0.4,0.5-0.6,0.9-0.5c1.8,0.5,3.7,0.9,5.6,1.4c0.4,0.1,0.6,0.5,0.5,0.9
			C268.3,106.6,268,106.8,267.6,106.8z M637.3,106.7c-0.2,0-0.4-0.1-0.5-0.2c-1.4-1.3-2.8-2.5-4.3-3.8c-0.3-0.3-0.4-0.7-0.1-1.1
			c0.3-0.3,0.7-0.4,1.1-0.1c1.5,1.2,3,2.5,4.4,3.8c0.3,0.3,0.3,0.8,0,1.1C637.7,106.7,637.5,106.7,637.3,106.7z M129.4,106
			c-0.3,0-0.5-0.1-0.7-0.4c-0.2-0.4,0-0.8,0.3-1c1.7-0.9,3.5-1.7,5.2-2.5c0.4-0.2,0.8,0,1,0.4c0.2,0.4,0,0.8-0.4,1
			c-1.7,0.8-3.5,1.6-5.1,2.5C129.7,105.9,129.6,106,129.4,106z M256.7,104.1c-0.1,0-0.1,0-0.2,0c-1.9-0.5-3.8-0.9-5.6-1.3
			c-0.4-0.1-0.7-0.5-0.6-0.9c0.1-0.4,0.5-0.7,0.9-0.6c1.8,0.4,3.7,0.9,5.6,1.3c0.4,0.1,0.7,0.5,0.6,0.9
			C257.3,103.9,257,104.1,256.7,104.1z M245.7,101.6c-0.1,0-0.1,0-0.2,0c-1.9-0.4-3.8-0.8-5.6-1.2c-0.4-0.1-0.7-0.5-0.6-0.9
			c0.1-0.4,0.5-0.7,0.9-0.6c1.8,0.4,3.7,0.8,5.7,1.2c0.4,0.1,0.7,0.5,0.6,0.9C246.3,101.4,246,101.6,245.7,101.6z M139.7,101.4
			c-0.3,0-0.6-0.2-0.7-0.5c-0.1-0.4,0.1-0.8,0.4-1c1.8-0.7,3.6-1.3,5.5-1.9c0.4-0.1,0.8,0.1,0.9,0.5c0.1,0.4-0.1,0.8-0.5,0.9
			c-1.8,0.6-3.7,1.2-5.4,1.9C139.9,101.4,139.8,101.4,139.7,101.4z M432.6,101.2c-0.2,0-0.5-0.1-0.6-0.3c-0.2-0.3-0.1-0.8,0.2-1
			c1.7-1.2,3.3-2.2,4.8-3.2c0.3-0.2,0.8-0.1,1,0.2c0.2,0.3,0.1,0.8-0.2,1c-1.5,1-3.1,2-4.8,3.1C432.9,101.1,432.7,101.2,432.6,101.2
			z M628.6,99.5c-0.2,0-0.3,0-0.5-0.2c-1.5-1.1-3.1-2.3-4.6-3.4c-0.3-0.2-0.4-0.7-0.2-1c0.2-0.3,0.7-0.4,1-0.2
			c1.6,1.1,3.2,2.2,4.7,3.4c0.3,0.3,0.4,0.7,0.1,1.1C629,99.4,628.8,99.5,628.6,99.5z M234.6,99.3c0,0-0.1,0-0.1,0
			c-1.9-0.4-3.8-0.7-5.7-1c-0.4-0.1-0.7-0.5-0.6-0.9c0.1-0.4,0.5-0.7,0.9-0.6c1.9,0.3,3.8,0.7,5.7,1c0.4,0.1,0.7,0.5,0.6,0.9
			C235.3,99.1,235,99.3,234.6,99.3z M150.5,98c-0.3,0-0.6-0.2-0.7-0.6c-0.1-0.4,0.1-0.8,0.5-0.9c1.8-0.5,3.7-0.9,5.7-1.3
			c0.4-0.1,0.8,0.2,0.9,0.6c0.1,0.4-0.2,0.8-0.6,0.9c-1.9,0.4-3.8,0.8-5.6,1.3C150.6,98,150.6,98,150.5,98z M223.5,97.4
			c0,0-0.1,0-0.1,0c-1.9-0.3-3.8-0.6-5.7-0.9c-0.4-0.1-0.7-0.4-0.6-0.8c0.1-0.4,0.4-0.7,0.8-0.6c1.9,0.3,3.8,0.6,5.7,0.9
			c0.4,0.1,0.7,0.5,0.6,0.9C224.2,97.1,223.8,97.4,223.5,97.4z M212.3,95.8C212.3,95.8,212.2,95.8,212.3,95.8
			c-2-0.2-3.9-0.5-5.8-0.6c-0.4,0-0.7-0.4-0.7-0.8c0-0.4,0.4-0.7,0.8-0.7c1.9,0.2,3.8,0.4,5.7,0.6c0.4,0.1,0.7,0.4,0.7,0.8
			C213,95.5,212.7,95.8,212.3,95.8z M161.6,95.7c-0.4,0-0.7-0.3-0.7-0.6c-0.1-0.4,0.2-0.8,0.6-0.9c1.9-0.3,3.8-0.6,5.7-0.8
			c0.4,0,0.8,0.3,0.8,0.7c0,0.4-0.2,0.8-0.7,0.8c-1.9,0.2-3.8,0.5-5.7,0.8C161.6,95.7,161.6,95.7,161.6,95.7z M442.1,95.1
			c-0.3,0-0.5-0.1-0.6-0.4c-0.2-0.4-0.1-0.8,0.2-1c1.7-1,3.4-2,5-3c0.4-0.2,0.8-0.1,1,0.3c0.2,0.4,0.1,0.8-0.3,1
			c-1.6,0.9-3.3,1.9-4.9,2.9C442.3,95.1,442.2,95.1,442.1,95.1z M201.1,94.7C201.1,94.7,201,94.7,201.1,94.7c-2-0.2-3.9-0.3-5.8-0.4
			c-0.4,0-0.7-0.4-0.7-0.8c0-0.4,0.4-0.7,0.8-0.7c1.9,0.1,3.8,0.2,5.8,0.4c0.4,0,0.7,0.4,0.7,0.8C201.8,94.4,201.5,94.7,201.1,94.7z
			 M172.8,94.5c-0.4,0-0.7-0.3-0.7-0.7c0-0.4,0.3-0.8,0.7-0.8c1.9-0.1,3.8-0.2,5.8-0.3c0.4,0,0.8,0.3,0.8,0.7c0,0.4-0.3,0.8-0.7,0.8
			C176.6,94.2,174.7,94.3,172.8,94.5C172.8,94.5,172.8,94.5,172.8,94.5z M189.8,94.1C189.8,94.1,189.8,94.1,189.8,94.1
			c-2,0-3.9-0.1-5.8-0.1c0,0,0,0,0,0c-0.4,0-0.7-0.3-0.8-0.7c0-0.4,0.3-0.8,0.7-0.8c1.9,0,3.8,0,5.8,0.1c0.4,0,0.7,0.4,0.7,0.8
			C190.5,93.8,190.2,94.1,189.8,94.1z M619.3,93.1c-0.1,0-0.3,0-0.4-0.1c-1.6-1-3.3-2-4.9-3c-0.4-0.2-0.5-0.7-0.3-1
			c0.2-0.4,0.7-0.5,1-0.3c1.7,1,3.3,2,5,3c0.4,0.2,0.5,0.7,0.2,1C619.8,93,619.6,93.1,619.3,93.1z M451.8,89.5
			c-0.3,0-0.5-0.1-0.7-0.4c-0.2-0.4-0.1-0.8,0.3-1c1.7-0.9,3.4-1.8,5.2-2.6c0.4-0.2,0.8,0,1,0.3c0.2,0.4,0,0.8-0.3,1
			c-1.7,0.8-3.4,1.7-5.1,2.6C452.1,89.5,452,89.5,451.8,89.5z M609.6,87.4c-0.1,0-0.2,0-0.3-0.1c-1.7-0.9-3.4-1.7-5.1-2.6
			c-0.4-0.2-0.5-0.6-0.4-1c0.2-0.4,0.6-0.5,1-0.4c1.7,0.8,3.5,1.7,5.2,2.6c0.4,0.2,0.5,0.6,0.3,1C610.1,87.3,609.8,87.4,609.6,87.4z
			 M462,84.5c-0.3,0-0.6-0.2-0.7-0.4c-0.2-0.4,0-0.8,0.4-1c1.8-0.8,3.5-1.6,5.3-2.3c0.4-0.2,0.8,0,1,0.4c0.2,0.4,0,0.8-0.4,1
			c-1.8,0.7-3.5,1.5-5.3,2.2C462.2,84.5,462.1,84.5,462,84.5z M599.4,82.6c-0.1,0-0.2,0-0.3-0.1c-1.7-0.7-3.5-1.5-5.3-2.2
			c-0.4-0.1-0.6-0.6-0.4-1c0.1-0.4,0.6-0.6,1-0.4c1.8,0.7,3.6,1.4,5.4,2.2c0.4,0.2,0.6,0.6,0.4,1C599.9,82.4,599.7,82.6,599.4,82.6z
			 M472.4,80.3c-0.3,0-0.6-0.2-0.7-0.5c-0.1-0.4,0.1-0.8,0.4-1c1.8-0.7,3.6-1.3,5.5-1.9c0.4-0.1,0.8,0.1,0.9,0.5
			c0.1,0.4-0.1,0.8-0.5,0.9c-1.8,0.6-3.6,1.2-5.4,1.9C472.6,80.3,472.5,80.3,472.4,80.3z M588.8,78.5c-0.1,0-0.2,0-0.2,0
			c-1.8-0.6-3.6-1.2-5.5-1.8c-0.4-0.1-0.6-0.5-0.5-0.9c0.1-0.4,0.5-0.6,0.9-0.5c1.8,0.6,3.7,1.2,5.5,1.8c0.4,0.1,0.6,0.6,0.5,1
			C589.4,78.4,589.1,78.5,588.8,78.5z M483.1,76.8c-0.3,0-0.6-0.2-0.7-0.5c-0.1-0.4,0.1-0.8,0.5-0.9c1.8-0.5,3.7-1,5.6-1.5
			c0.4-0.1,0.8,0.1,0.9,0.5c0.1,0.4-0.1,0.8-0.5,0.9c-1.9,0.5-3.7,1-5.5,1.5C483.3,76.8,483.2,76.8,483.1,76.8z M578,75.3
			c-0.1,0-0.1,0-0.2,0c-1.8-0.5-3.7-0.9-5.6-1.4c-0.4-0.1-0.7-0.5-0.6-0.9c0.1-0.4,0.5-0.7,0.9-0.6c1.9,0.4,3.8,0.9,5.6,1.4
			c0.4,0.1,0.6,0.5,0.5,0.9C578.7,75.1,578.4,75.3,578,75.3z M494.1,74.1c-0.3,0-0.7-0.2-0.7-0.6c-0.1-0.4,0.2-0.8,0.6-0.9
			c1.9-0.4,3.8-0.8,5.7-1.1c0.4-0.1,0.8,0.2,0.9,0.6c0.1,0.4-0.2,0.8-0.6,0.9c-1.9,0.3-3.8,0.7-5.6,1.1
			C494.2,74.1,494.1,74.1,494.1,74.1z M567,72.8c0,0-0.1,0-0.1,0c-1.9-0.4-3.8-0.7-5.7-1c-0.4-0.1-0.7-0.4-0.6-0.9
			c0.1-0.4,0.4-0.7,0.9-0.6c1.9,0.3,3.8,0.6,5.7,1c0.4,0.1,0.7,0.5,0.6,0.9C567.7,72.5,567.4,72.8,567,72.8z M505.1,72.1
			c-0.4,0-0.7-0.3-0.7-0.6c-0.1-0.4,0.2-0.8,0.6-0.9c0.3,0,0.6-0.1,1-0.1c1.6-0.2,3.2-0.5,4.8-0.7c0.4-0.1,0.8,0.2,0.8,0.7
			c0.1,0.4-0.2,0.8-0.7,0.8c-1.6,0.2-3.2,0.4-4.7,0.6c-0.3,0-0.6,0.1-1,0.1C505.2,72,505.2,72.1,505.1,72.1z M555.9,71
			C555.9,71,555.8,71,555.9,71c-2-0.2-3.9-0.4-5.8-0.6c-0.4,0-0.7-0.4-0.7-0.8c0-0.4,0.4-0.7,0.8-0.7c1.9,0.2,3.9,0.4,5.8,0.6
			c0.4,0.1,0.7,0.4,0.7,0.8C556.6,70.8,556.3,71,555.9,71z M516.3,70.6c-0.4,0-0.7-0.3-0.7-0.7c0-0.4,0.3-0.8,0.7-0.8
			c1.9-0.2,3.9-0.3,5.8-0.5c0.4,0,0.8,0.3,0.8,0.7c0,0.4-0.3,0.8-0.7,0.8C520.2,70.3,518.3,70.5,516.3,70.6
			C516.4,70.6,516.4,70.6,516.3,70.6z M544.6,70C544.6,70,544.6,70,544.6,70c-1.9-0.1-3.9-0.2-5.8-0.2c-0.4,0-0.7-0.4-0.7-0.8
			c0-0.4,0.4-0.7,0.8-0.7c1.9,0,3.9,0.1,5.8,0.2c0.4,0,0.7,0.4,0.7,0.8C545.4,69.7,545,70,544.6,70z M527.6,69.9
			c-0.4,0-0.7-0.3-0.7-0.7c0-0.4,0.3-0.8,0.7-0.8c1.9-0.1,3.9-0.1,5.8-0.1c0.4,0,0.8,0.3,0.8,0.7c0,0.4-0.3,0.8-0.7,0.8
			C531.5,69.8,529.5,69.8,527.6,69.9C527.6,69.9,527.6,69.9,527.6,69.9z"/>
	</g>
</g>
<g>
	<g>
		<g>
			<path class="st1" d="M416,96.1l2-10l-9.4-1.8c0-2.5-0.4-4.9-1.2-7.3l7.7-5.2l-5.7-8.5l-7.4,5c-2.2-2.2-4.8-4-7.6-5.1l1.8-9.4
				l-10-2l-1.9,9.7c-2.1,0.1-4.1,0.5-6.1,1.2l-5.2-7.7l-8.5,5.7l5,7.4c-2.2,2.2-4,4.8-5.1,7.6l-8.2-1.6l-2,10l8.5,1.7
				c0.1,2.6,0.7,5.2,1.8,7.7l-7.4,5l5.7,8.5l7.7-5.2c2.2,1.9,4.8,3.4,7.5,4.3l-1.9,9.4l10,2l2-10.2c2.2-0.2,4.4-0.8,6.5-1.7l5,7.4
				l8.5-5.7l-5.2-7.7c1.4-1.6,2.5-3.3,3.4-5.2L416,96.1z M390.9,92.1c-4.3,2.9-10.1,1.7-13-2.5c-2.9-4.3-1.7-10.1,2.5-13
				c4.3-2.9,10.1-1.7,13,2.5C396.3,83.3,395.2,89.2,390.9,92.1z"/>
		</g>
	</g>
	<g>
		<g>
			<path class="st1" d="M456.6,136.6l1.1-5.4l-5-1c0-1.3-0.2-2.6-0.7-3.9l4.1-2.8l-3-4.5l-4,2.7c-1.2-1.2-2.6-2.1-4.1-2.7l1-5
				l-5.4-1.1l-1,5.2c-1.1,0.1-2.2,0.3-3.3,0.6l-2.8-4.1l-4.5,3l2.7,4c-1.2,1.2-2.1,2.6-2.7,4.1l-4.4-0.9l-1.1,5.4l4.5,0.9
				c0.1,1.4,0.4,2.8,1,4.1l-4,2.7l3,4.5l4.1-2.8c1.2,1,2.5,1.8,4,2.3l-1,5.1l5.4,1.1l1.1-5.5c1.2-0.1,2.3-0.4,3.5-0.9l2.7,4l4.5-3
				l-2.8-4.1c0.7-0.8,1.3-1.8,1.8-2.8L456.6,136.6z M443.1,134.5c-2.3,1.5-5.4,0.9-6.9-1.4c-1.5-2.3-0.9-5.4,1.4-6.9
				c2.3-1.5,5.4-0.9,6.9,1.4C446,129.8,445.4,133,443.1,134.5z"/>
		</g>
	</g>
	<g>
		<g>
			<path class="st1" d="M106.9,160.8l1.8-7l-6.6-1.7c0.1-1.7-0.1-3.5-0.6-5.2l5.7-3.4l-3.7-6.2l-5.4,3.2c-1.5-1.7-3.2-3-5.2-3.9
				l1.7-6.6l-7-1.8l-1.7,6.8c-1.5,0-2.9,0.2-4.4,0.6l-3.4-5.7l-6.2,3.7l3.2,5.4c-1.7,1.5-3,3.2-3.9,5.2l-5.7-1.4l-1.8,7l5.9,1.5
				c0,1.9,0.3,3.7,1,5.5l-5.4,3.2l3.7,6.2l5.7-3.4c1.5,1.5,3.2,2.6,5.1,3.3l-1.7,6.6l7,1.8l1.8-7.2c1.6-0.1,3.1-0.4,4.7-1l3.2,5.4
				l6.2-3.7l-3.4-5.7c1-1.1,1.9-2.3,2.6-3.5L106.9,160.8z M89.3,157c-3.1,1.9-7.2,0.8-9.1-2.3c-1.9-3.1-0.8-7.2,2.3-9.1
				c3.1-1.9,7.2-0.8,9.1,2.3C93.4,151,92.4,155.1,89.3,157z"/>
		</g>
	</g>
	<g>
		<g>
			<path class="st1" d="M714.4,226l1.4-7.1l-6.7-1.3c0-1.7-0.3-3.5-0.9-5.2l5.5-3.7l-4-6l-5.2,3.5c-1.6-1.6-3.4-2.8-5.4-3.6l1.3-6.7
				l-7.1-1.4l-1.3,6.9c-1.5,0.1-2.9,0.4-4.3,0.8l-3.7-5.5l-6,4l3.5,5.2c-1.6,1.6-2.8,3.4-3.6,5.4l-5.8-1.1l-1.4,7.1l6,1.2
				c0.1,1.9,0.5,3.7,1.3,5.5l-5.2,3.5l4,6l5.5-3.7c1.6,1.4,3.4,2.4,5.3,3.1l-1.3,6.7l7.1,1.4l1.4-7.3c1.6-0.2,3.1-0.6,4.6-1.2
				l3.5,5.2l6-4l-3.7-5.5c1-1.1,1.8-2.4,2.4-3.7L714.4,226z M696.6,223.2c-3,2-7.2,1.2-9.2-1.8c-2-3-1.2-7.2,1.8-9.2
				c3-2,7.2-1.2,9.2,1.8C700.4,217,699.6,221.2,696.6,223.2z"/>
		</g>
	</g>
</g>
<g>
	<g>
		<g>
			<g>
				<g>
					<g>
						<path class="st2" d="M653.6,72.6h1.1c0.2,0,0.4-0.1,0.5-0.3c0.1-0.2,0.1-0.4,0-0.6l-0.6-1c-0.2-0.3-0.5-0.4-0.8-0.2
							c-0.3,0.2-0.4,0.5-0.2,0.8l0.1,0.1h-0.1c-0.3,0-0.6,0.2-0.6,0.6C653,72.3,653.3,72.6,653.6,72.6z"/>
					</g>
				</g>
				<g>
					<g>
						<path class="st2" d="M652.7,69.6l-1-1.7c-0.2-0.3-0.1-0.6,0.2-0.8c0.3-0.2,0.6-0.1,0.8,0.2l1,1.7c0.2,0.3,0.1,0.6-0.2,0.8
							c-0.1,0.1-0.2,0.1-0.3,0.1C652.9,69.9,652.8,69.8,652.7,69.6z M650.7,66.2l-1-1.7c-0.2-0.3-0.1-0.6,0.2-0.8
							c0.3-0.2,0.6-0.1,0.8,0.2l1,1.7c0.2,0.3,0.1,0.6-0.2,0.8c-0.1,0.1-0.2,0.1-0.3,0.1C651,66.5,650.8,66.4,650.7,66.2z
							 M648.7,62.8l-1-1.7c-0.2-0.3-0.1-0.6,0.2-0.8c0.3-0.2,0.6-0.1,0.8,0.2l1,1.7c0.2,0.3,0.1,0.6-0.2,0.8
							c-0.1,0.1-0.2,0.1-0.3,0.1C649,63.1,648.8,63,648.7,62.8z"/>
					</g>
				</g>
				<g>
					<g>
						<path class="st2" d="M646.1,59.7c0.2,0,0.4-0.1,0.5-0.3l0.1-0.1l0.1,0.1c0.2,0.3,0.5,0.4,0.8,0.2c0.3-0.2,0.4-0.5,0.2-0.8
							l-0.6-1c-0.1-0.2-0.3-0.3-0.5-0.3c-0.2,0-0.4,0.1-0.5,0.3l-0.6,1c-0.2,0.3-0.1,0.6,0.2,0.8C645.9,59.7,646,59.7,646.1,59.7z"
							/>
					</g>
				</g>
				<g>
					<g>
						<path class="st2" d="M640,69.8c-0.3-0.2-0.4-0.5-0.2-0.8l1-1.7c0.2-0.3,0.5-0.4,0.8-0.2c0.3,0.2,0.4,0.5,0.2,0.8l-1,1.7
							c-0.1,0.2-0.3,0.3-0.5,0.3C640.1,69.9,640,69.9,640,69.8z M641.9,66.4c-0.3-0.2-0.4-0.5-0.2-0.8l1-1.7
							c0.2-0.3,0.5-0.4,0.8-0.2c0.3,0.2,0.4,0.5,0.2,0.8l-1,1.7c-0.1,0.2-0.3,0.3-0.5,0.3C642.1,66.5,642,66.5,641.9,66.4z
							 M643.9,63c-0.3-0.2-0.4-0.5-0.2-0.8l1-1.7c0.2-0.3,0.5-0.4,0.8-0.2c0.3,0.2,0.4,0.5,0.2,0.8l-1,1.7c-0.1,0.2-0.3,0.3-0.5,0.3
							C644.1,63.1,644,63.1,643.9,63z"/>
					</g>
				</g>
				<g>
					<g>
						<path class="st2" d="M638.7,72.6h1.1c0.3,0,0.6-0.2,0.6-0.6c0-0.3-0.2-0.6-0.6-0.6h-0.1l0.1-0.1c0.2-0.3,0.1-0.6-0.2-0.8
							c-0.3-0.2-0.6-0.1-0.8,0.2l-0.6,1c-0.1,0.2-0.1,0.4,0,0.6C638.3,72.4,638.5,72.6,638.7,72.6z"/>
					</g>
				</g>
				<g>
					<g>
						<path class="st2" d="M641.2,72c0-0.3,0.2-0.6,0.6-0.6h2c0.3,0,0.6,0.2,0.6,0.6c0,0.3-0.2,0.6-0.6,0.6h-2
							C641.5,72.6,641.2,72.3,641.2,72z M645.1,72c0-0.3,0.2-0.6,0.6-0.6h2c0.3,0,0.6,0.2,0.6,0.6c0,0.3-0.2,0.6-0.6,0.6h-2
							C645.4,72.6,645.1,72.3,645.1,72z M649.1,72c0-0.3,0.2-0.6,0.6-0.6h2c0.3,0,0.6,0.2,0.6,0.6c0,0.3-0.2,0.6-0.6,0.6h-2
							C649.3,72.6,649.1,72.3,649.1,72z"/>
					</g>
				</g>
			</g>
			<g>
				<g>
					<path class="st3" d="M619,79.3c0-0.3,0.2-0.6,0.5-0.6c0.7-0.1,1.3-0.3,2-0.6c0.3-0.1,0.6,0,0.7,0.3c0.1,0.3,0,0.6-0.3,0.7
						c-0.7,0.3-1.5,0.6-2.3,0.7c0,0-0.1,0-0.1,0C619.3,79.8,619.1,79.6,619,79.3z M617.3,79.8c-0.8-0.1-1.5-0.3-2.3-0.7
						c-0.3-0.1-0.4-0.5-0.3-0.7c0.1-0.3,0.5-0.4,0.7-0.3c0.6,0.3,1.3,0.5,2,0.6c0.3,0,0.5,0.3,0.5,0.6
						C617.9,79.6,617.6,79.8,617.3,79.8C617.3,79.8,617.3,79.8,617.3,79.8z M613,77.8c-0.6-0.5-1.1-1.1-1.5-1.8
						c-0.2-0.3-0.1-0.6,0.2-0.8c0.3-0.2,0.6-0.1,0.8,0.2c0.4,0.6,0.8,1.1,1.3,1.5c0.2,0.2,0.3,0.5,0.1,0.8c-0.1,0.1-0.3,0.2-0.4,0.2
						C613.3,77.9,613.1,77.9,613,77.8z M623.1,77.8c-0.2-0.2-0.2-0.6,0.1-0.8c0.5-0.5,1-1,1.3-1.5c0.2-0.3,0.5-0.3,0.8-0.2
						c0.3,0.2,0.3,0.5,0.2,0.8c-0.4,0.7-0.9,1.3-1.5,1.8c-0.1,0.1-0.2,0.1-0.4,0.1C623.4,77.9,623.2,77.9,623.1,77.8z M610.5,73.9
						c-0.2-0.8-0.3-1.5-0.3-2.3c0-0.3,0.2-0.6,0.6-0.6c0.3,0,0.6,0.2,0.6,0.6c0,0.7,0.1,1.4,0.3,2c0.1,0.3-0.1,0.6-0.4,0.7
						c-0.1,0-0.1,0-0.2,0C610.8,74.3,610.6,74.1,610.5,73.9z M625.8,74.3c-0.3-0.1-0.5-0.4-0.4-0.7c0.2-0.7,0.3-1.3,0.3-2
						c0-0.3,0.2-0.6,0.6-0.6c0.3,0,0.6,0.2,0.6,0.6c0,0.8-0.1,1.6-0.3,2.3c-0.1,0.2-0.3,0.4-0.5,0.4
						C625.9,74.3,625.8,74.3,625.8,74.3z M610.9,69.9c-0.3-0.1-0.5-0.4-0.4-0.7c0.2-0.8,0.6-1.5,1-2.1c0.2-0.3,0.5-0.3,0.8-0.2
						c0.3,0.2,0.3,0.5,0.2,0.8c-0.4,0.6-0.7,1.2-0.9,1.9c-0.1,0.2-0.3,0.4-0.5,0.4C611,69.9,610.9,69.9,610.9,69.9z M625.4,69.5
						c-0.2-0.7-0.5-1.3-0.9-1.9c-0.2-0.3-0.1-0.6,0.2-0.8c0.3-0.2,0.6-0.1,0.8,0.2c0.4,0.7,0.8,1.4,1,2.1c0.1,0.3-0.1,0.6-0.4,0.7
						c-0.1,0-0.1,0-0.2,0C625.7,69.9,625.4,69.8,625.4,69.5z M613,66c-0.2-0.2-0.2-0.6,0.1-0.8c0.6-0.5,1.3-0.9,2-1.3
						c0.3-0.1,0.6,0,0.7,0.3c0.1,0.3,0,0.6-0.3,0.7c-0.6,0.3-1.2,0.7-1.7,1.1c-0.1,0.1-0.2,0.1-0.4,0.1
						C613.2,66.2,613.1,66.2,613,66z M623.2,66.1c-0.5-0.5-1.1-0.8-1.7-1.1c-0.3-0.1-0.4-0.5-0.3-0.7c0.1-0.3,0.5-0.4,0.7-0.3
						c0.7,0.3,1.4,0.8,2,1.3c0.2,0.2,0.3,0.5,0.1,0.8c-0.1,0.1-0.3,0.2-0.4,0.2C623.4,66.2,623.3,66.2,623.2,66.1z M616.8,63.9
						c0-0.3,0.2-0.6,0.5-0.6c0.8-0.1,1.6-0.1,2.4,0c0.3,0,0.5,0.3,0.5,0.6c0,0.3-0.3,0.5-0.6,0.5c-0.7-0.1-1.4-0.1-2,0
						c0,0-0.1,0-0.1,0C617.1,64.4,616.9,64.2,616.8,63.9z"/>
				</g>
			</g>
			<g>
				<g>
					<path class="st3" d="M658.1,102.5c0-0.3,0.2-0.6,0.5-0.6c0.7-0.1,1.3-0.3,2-0.6c0.3-0.1,0.6,0,0.7,0.3c0.1,0.3,0,0.6-0.3,0.7
						c-0.7,0.3-1.5,0.6-2.3,0.7c0,0-0.1,0-0.1,0C658.4,102.9,658.2,102.8,658.1,102.5z M656.4,102.9c-0.8-0.1-1.5-0.3-2.3-0.7
						c-0.3-0.1-0.4-0.5-0.3-0.7c0.1-0.3,0.5-0.4,0.7-0.3c0.6,0.3,1.3,0.5,2,0.6c0.3,0,0.5,0.3,0.5,0.6
						C657,102.8,656.7,102.9,656.4,102.9C656.4,102.9,656.4,102.9,656.4,102.9z M652.1,101c-0.6-0.5-1.1-1.1-1.5-1.8
						c-0.2-0.3-0.1-0.6,0.2-0.8c0.3-0.2,0.6-0.1,0.8,0.2c0.4,0.6,0.8,1.1,1.3,1.5c0.2,0.2,0.3,0.5,0.1,0.8c-0.1,0.1-0.3,0.2-0.4,0.2
						C652.4,101.1,652.2,101.1,652.1,101z M662.2,100.9c-0.2-0.2-0.2-0.6,0.1-0.8c0.5-0.5,1-1,1.3-1.5c0.2-0.3,0.5-0.3,0.8-0.2
						c0.3,0.2,0.3,0.5,0.2,0.8c-0.4,0.7-0.9,1.3-1.5,1.8c-0.1,0.1-0.2,0.1-0.4,0.1C662.5,101.1,662.3,101.1,662.2,100.9z
						 M649.6,97.1c-0.2-0.8-0.3-1.5-0.3-2.3c0-0.3,0.2-0.6,0.6-0.6c0.3,0,0.6,0.2,0.6,0.6c0,0.7,0.1,1.4,0.3,2
						c0.1,0.3-0.1,0.6-0.4,0.7c-0.1,0-0.1,0-0.2,0C649.9,97.5,649.7,97.3,649.6,97.1z M664.8,97.4c-0.3-0.1-0.5-0.4-0.4-0.7
						c0.2-0.7,0.3-1.3,0.3-2c0-0.3,0.2-0.6,0.6-0.6c0.3,0,0.6,0.2,0.6,0.6c0,0.8-0.1,1.6-0.3,2.3c-0.1,0.2-0.3,0.4-0.5,0.4
						C664.9,97.5,664.9,97.5,664.8,97.4z M650,93.1c-0.3-0.1-0.5-0.4-0.4-0.7c0.2-0.8,0.6-1.5,1-2.1c0.2-0.3,0.5-0.3,0.8-0.2
						c0.3,0.2,0.3,0.5,0.2,0.8c-0.4,0.6-0.7,1.2-0.9,1.9c-0.1,0.2-0.3,0.4-0.5,0.4C650.1,93.1,650,93.1,650,93.1z M664.5,92.7
						c-0.2-0.7-0.5-1.3-0.9-1.9c-0.2-0.3-0.1-0.6,0.2-0.8c0.3-0.2,0.6-0.1,0.8,0.2c0.4,0.7,0.8,1.4,1,2.1c0.1,0.3-0.1,0.6-0.4,0.7
						c-0.1,0-0.1,0-0.2,0C664.8,93.1,664.5,92.9,664.5,92.7z M652.1,89.2c-0.2-0.2-0.2-0.6,0.1-0.8c0.6-0.5,1.3-1,2-1.3
						c0.3-0.1,0.6,0,0.7,0.3c0.1,0.3,0,0.6-0.3,0.7c-0.6,0.3-1.2,0.7-1.7,1.1c-0.1,0.1-0.2,0.1-0.4,0.1
						C652.3,89.4,652.2,89.4,652.1,89.2z M662.3,89.3c-0.5-0.5-1.1-0.8-1.7-1.1c-0.3-0.1-0.4-0.5-0.3-0.7c0.1-0.3,0.5-0.4,0.7-0.3
						c0.7,0.3,1.4,0.8,2,1.3c0.2,0.2,0.3,0.5,0.1,0.8c-0.1,0.1-0.3,0.2-0.4,0.2C662.5,89.4,662.4,89.4,662.3,89.3z M655.9,87.1
						c0-0.3,0.2-0.6,0.5-0.6c0.8-0.1,1.6-0.1,2.4,0c0.3,0,0.5,0.3,0.5,0.6c0,0.3-0.3,0.5-0.6,0.5c-0.7-0.1-1.4-0.1-2,0
						c0,0-0.1,0-0.1,0C656.2,87.6,655.9,87.4,655.9,87.1z"/>
				</g>
			</g>
		</g>
	</g>
	<g>
		<g>
			<g>
				<g>
					<g>
						<path class="st2" d="M94,317.7h1.1c0.2,0,0.4-0.1,0.5-0.3c0.1-0.2,0.1-0.4,0-0.6l-0.6-1c-0.2-0.3-0.5-0.4-0.8-0.2
							c-0.3,0.2-0.4,0.5-0.2,0.8l0.1,0.1H94c-0.3,0-0.6,0.2-0.6,0.6C93.5,317.5,93.7,317.7,94,317.7z"/>
					</g>
				</g>
				<g>
					<g>
						<path class="st2" d="M93.1,314.8l-1-1.7c-0.2-0.3-0.1-0.6,0.2-0.8c0.3-0.2,0.6-0.1,0.8,0.2l1,1.7c0.2,0.3,0.1,0.6-0.2,0.8
							c-0.1,0.1-0.2,0.1-0.3,0.1C93.4,315.1,93.2,315,93.1,314.8z M91.2,311.4l-1-1.7c-0.2-0.3-0.1-0.6,0.2-0.8
							c0.3-0.2,0.6-0.1,0.8,0.2l1,1.7c0.2,0.3,0.1,0.6-0.2,0.8c-0.1,0.1-0.2,0.1-0.3,0.1C91.5,311.7,91.3,311.6,91.2,311.4z
							 M89.2,308l-1-1.7c-0.2-0.3-0.1-0.6,0.2-0.8c0.3-0.2,0.6-0.1,0.8,0.2l1,1.7c0.2,0.3,0.1,0.6-0.2,0.8c-0.1,0.1-0.2,0.1-0.3,0.1
							C89.5,308.3,89.3,308.2,89.2,308z"/>
					</g>
				</g>
				<g>
					<g>
						<path class="st2" d="M86.6,304.9c0.2,0,0.4-0.1,0.5-0.3l0.1-0.1l0.1,0.1c0.2,0.3,0.5,0.4,0.8,0.2c0.3-0.2,0.4-0.5,0.2-0.8
							l-0.6-1c-0.1-0.2-0.3-0.3-0.5-0.3c-0.2,0-0.4,0.1-0.5,0.3l-0.6,1c-0.2,0.3-0.1,0.6,0.2,0.8C86.4,304.9,86.5,304.9,86.6,304.9z
							"/>
					</g>
				</g>
				<g>
					<g>
						<path class="st2" d="M80.4,315c-0.3-0.2-0.4-0.5-0.2-0.8l1-1.7c0.2-0.3,0.5-0.4,0.8-0.2c0.3,0.2,0.4,0.5,0.2,0.8l-1,1.7
							c-0.1,0.2-0.3,0.3-0.5,0.3C80.6,315.1,80.5,315.1,80.4,315z M82.4,311.6c-0.3-0.2-0.4-0.5-0.2-0.8l1-1.7
							c0.2-0.3,0.5-0.4,0.8-0.2c0.3,0.2,0.4,0.5,0.2,0.8l-1,1.7c-0.1,0.2-0.3,0.3-0.5,0.3C82.6,311.7,82.5,311.7,82.4,311.6z
							 M84.4,308.2c-0.3-0.2-0.4-0.5-0.2-0.8l1-1.7c0.2-0.3,0.5-0.4,0.8-0.2c0.3,0.2,0.4,0.5,0.2,0.8l-1,1.7
							c-0.1,0.2-0.3,0.3-0.5,0.3C84.6,308.3,84.5,308.3,84.4,308.2z"/>
					</g>
				</g>
				<g>
					<g>
						<path class="st2" d="M79.2,317.7h1.1c0.3,0,0.6-0.2,0.6-0.6c0-0.3-0.2-0.6-0.6-0.6h-0.1l0.1-0.1c0.2-0.3,0.1-0.6-0.2-0.8
							c-0.3-0.2-0.6-0.1-0.8,0.2l-0.6,1c-0.1,0.2-0.1,0.4,0,0.6C78.8,317.6,79,317.7,79.2,317.7z"/>
					</g>
				</g>
				<g>
					<g>
						<path class="st2" d="M81.7,317.2c0-0.3,0.2-0.6,0.6-0.6h2c0.3,0,0.6,0.2,0.6,0.6c0,0.3-0.2,0.6-0.6,0.6h-2
							C82,317.7,81.7,317.5,81.7,317.2z M85.6,317.2c0-0.3,0.2-0.6,0.6-0.6h2c0.3,0,0.6,0.2,0.6,0.6c0,0.3-0.2,0.6-0.6,0.6h-2
							C85.9,317.7,85.6,317.5,85.6,317.2z M89.6,317.2c0-0.3,0.2-0.6,0.6-0.6h2c0.3,0,0.6,0.2,0.6,0.6c0,0.3-0.2,0.6-0.6,0.6h-2
							C89.8,317.7,89.6,317.5,89.6,317.2z"/>
					</g>
				</g>
			</g>
			<g>
				<g>
					<path class="st3" d="M59.5,324.5c0-0.3,0.2-0.6,0.5-0.6c0.7-0.1,1.3-0.3,2-0.6c0.3-0.1,0.6,0,0.7,0.3c0.1,0.3,0,0.6-0.3,0.7
						c-0.7,0.3-1.5,0.6-2.3,0.7c0,0-0.1,0-0.1,0C59.8,325,59.6,324.8,59.5,324.5z M57.8,324.9c-0.8-0.1-1.5-0.3-2.3-0.7
						c-0.3-0.1-0.4-0.5-0.3-0.7c0.1-0.3,0.5-0.4,0.7-0.3c0.6,0.3,1.3,0.5,2,0.6c0.3,0,0.5,0.3,0.5,0.6
						C58.4,324.8,58.1,325,57.8,324.9C57.8,325,57.8,324.9,57.8,324.9z M53.5,323c-0.6-0.5-1.1-1.1-1.5-1.8
						c-0.2-0.3-0.1-0.6,0.2-0.8c0.3-0.2,0.6-0.1,0.8,0.2c0.4,0.6,0.8,1.1,1.3,1.5c0.2,0.2,0.3,0.5,0.1,0.8c-0.1,0.1-0.3,0.2-0.4,0.2
						C53.8,323.1,53.6,323.1,53.5,323z M51,319.1c-0.2-0.8-0.3-1.5-0.3-2.3c0-0.3,0.2-0.6,0.6-0.6c0.3,0,0.6,0.2,0.6,0.6
						c0,0.7,0.1,1.4,0.3,2c0.1,0.3-0.1,0.6-0.4,0.7c-0.1,0-0.1,0-0.2,0C51.3,319.5,51.1,319.3,51,319.1z M66.2,319.4
						c-0.3-0.1-0.5-0.4-0.4-0.7c0.2-0.7,0.3-1.3,0.3-2c0-0.3,0.2-0.6,0.6-0.6c0.3,0,0.6,0.2,0.6,0.6c0,0.8-0.1,1.6-0.3,2.3
						c-0.1,0.2-0.3,0.4-0.5,0.4C66.3,319.5,66.3,319.5,66.2,319.4z M51.4,315.1c-0.3-0.1-0.5-0.4-0.4-0.7c0.2-0.8,0.6-1.5,1-2.1
						c0.2-0.3,0.5-0.3,0.8-0.2c0.3,0.2,0.3,0.5,0.2,0.8c-0.4,0.6-0.7,1.2-0.9,1.9c-0.1,0.2-0.3,0.4-0.5,0.4
						C51.5,315.1,51.4,315.1,51.4,315.1z M65.9,314.7c-0.2-0.7-0.5-1.3-0.9-1.9c-0.2-0.3-0.1-0.6,0.2-0.8c0.3-0.2,0.6-0.1,0.8,0.2
						c0.4,0.7,0.8,1.4,1,2.1c0.1,0.3-0.1,0.6-0.4,0.7c-0.1,0-0.1,0-0.2,0C66.2,315.1,65.9,314.9,65.9,314.7z M53.5,311.2
						c-0.2-0.2-0.2-0.6,0.1-0.8c0.6-0.5,1.3-1,2-1.3c0.3-0.1,0.6,0,0.7,0.3c0.1,0.3,0,0.6-0.3,0.7c-0.6,0.3-1.2,0.7-1.7,1.1
						c-0.1,0.1-0.2,0.1-0.4,0.1C53.7,311.4,53.6,311.4,53.5,311.2z M63.7,311.3c-0.5-0.5-1.1-0.8-1.7-1.1c-0.3-0.1-0.4-0.5-0.3-0.7
						c0.1-0.3,0.5-0.4,0.7-0.3c0.7,0.3,1.4,0.8,2,1.3c0.2,0.2,0.3,0.5,0.1,0.8c-0.1,0.1-0.3,0.2-0.4,0.2
						C63.9,311.4,63.8,311.4,63.7,311.3z M57.3,309.1c0-0.3,0.2-0.6,0.5-0.6c0.8-0.1,1.6-0.1,2.4,0c0.3,0,0.5,0.3,0.5,0.6
						c0,0.3-0.3,0.5-0.6,0.5c-0.7-0.1-1.4-0.1-2,0c0,0-0.1,0-0.1,0C57.6,309.6,57.4,309.4,57.3,309.1z"/>
				</g>
			</g>
			<g>
				<g>
					<path class="st3" d="M98.6,347.7c0-0.3,0.2-0.6,0.5-0.6c0.7-0.1,1.3-0.3,2-0.6c0.3-0.1,0.6,0,0.7,0.3c0.1,0.3,0,0.6-0.3,0.7
						c-0.7,0.3-1.5,0.6-2.3,0.7c0,0-0.1,0-0.1,0C98.9,348.1,98.6,347.9,98.6,347.7z M96.9,348.1c-0.8-0.1-1.5-0.3-2.3-0.7
						c-0.3-0.1-0.4-0.5-0.3-0.7c0.1-0.3,0.5-0.4,0.7-0.3c0.6,0.3,1.3,0.5,2,0.6c0.3,0,0.5,0.3,0.5,0.6
						C97.5,347.9,97.2,348.1,96.9,348.1C96.9,348.1,96.9,348.1,96.9,348.1z M92.6,346.2c-0.6-0.5-1.1-1.1-1.5-1.8
						c-0.2-0.3-0.1-0.6,0.2-0.8c0.3-0.2,0.6-0.1,0.8,0.2c0.4,0.6,0.8,1.1,1.3,1.5c0.2,0.2,0.3,0.5,0.1,0.8c-0.1,0.1-0.3,0.2-0.4,0.2
						C92.8,346.3,92.7,346.3,92.6,346.2z M102.7,346.1c-0.2-0.2-0.2-0.6,0.1-0.8c0.5-0.5,1-1,1.3-1.5c0.2-0.3,0.5-0.3,0.8-0.2
						c0.3,0.2,0.3,0.5,0.2,0.8c-0.4,0.7-0.9,1.3-1.5,1.8c-0.1,0.1-0.2,0.1-0.4,0.1C103,346.3,102.8,346.3,102.7,346.1z M90.1,342.3
						c-0.2-0.8-0.3-1.5-0.3-2.3c0-0.3,0.2-0.6,0.6-0.6c0.3,0,0.6,0.2,0.6,0.6c0,0.7,0.1,1.4,0.3,2c0.1,0.3-0.1,0.6-0.4,0.7
						c-0.1,0-0.1,0-0.2,0C90.4,342.7,90.2,342.5,90.1,342.3z M105.3,342.6c-0.3-0.1-0.5-0.4-0.4-0.7c0.2-0.7,0.3-1.3,0.3-2
						c0-0.3,0.2-0.6,0.6-0.6c0.3,0,0.6,0.2,0.6,0.6c0,0.8-0.1,1.6-0.3,2.3c-0.1,0.2-0.3,0.4-0.5,0.4
						C105.4,342.7,105.4,342.6,105.3,342.6z M90.5,338.3c-0.3-0.1-0.5-0.4-0.4-0.7c0.2-0.8,0.6-1.5,1-2.1c0.2-0.3,0.5-0.3,0.8-0.2
						c0.3,0.2,0.3,0.5,0.2,0.8c-0.4,0.6-0.7,1.2-0.9,1.9c-0.1,0.2-0.3,0.4-0.5,0.4C90.6,338.3,90.5,338.3,90.5,338.3z M104.9,337.9
						c-0.2-0.7-0.5-1.3-0.9-1.9c-0.2-0.3-0.1-0.6,0.2-0.8c0.3-0.2,0.6-0.1,0.8,0.2c0.4,0.7,0.8,1.4,1,2.1c0.1,0.3-0.1,0.6-0.4,0.7
						c-0.1,0-0.1,0-0.2,0C105.2,338.3,105,338.1,104.9,337.9z M92.6,334.4c-0.2-0.2-0.2-0.6,0.1-0.8c0.6-0.5,1.3-1,2-1.3
						c0.3-0.1,0.6,0,0.7,0.3c0.1,0.3,0,0.6-0.3,0.7c-0.6,0.3-1.2,0.7-1.7,1.1c-0.1,0.1-0.2,0.1-0.4,0.1
						C92.8,334.6,92.7,334.6,92.6,334.4z M102.8,334.5c-0.5-0.5-1.1-0.8-1.7-1.1c-0.3-0.1-0.4-0.5-0.3-0.7c0.1-0.3,0.5-0.4,0.7-0.3
						c0.7,0.3,1.4,0.8,2,1.3c0.2,0.2,0.3,0.5,0.1,0.8c-0.1,0.1-0.3,0.2-0.4,0.2C103,334.6,102.9,334.6,102.8,334.5z M96.4,332.3
						c0-0.3,0.2-0.6,0.5-0.6c0.8-0.1,1.6-0.1,2.4,0c0.3,0,0.5,0.3,0.5,0.6c0,0.3-0.3,0.5-0.6,0.5c-0.7-0.1-1.4-0.1-2,0
						c0,0-0.1,0-0.1,0C96.7,332.8,96.4,332.6,96.4,332.3z"/>
				</g>
			</g>
		</g>
	</g>
</g>
<g>
	<g>
		<g>
			<g>
				<path class="st0" d="M538.3,430.8c4.7-9.6,12.6-27.8,15.7-46.2c4.8-29.1,18.4-31,23.8-23c13,19.4-12.8,53.2-26.9,69.2H538.3z"/>
			</g>
			<g>
				<g>
					<path class="st4" d="M560.9,399.5c-3.7,8.7-9.2,20.2-16.5,31.2h-1.6c7.5-11.2,13.2-22.9,16.9-31.7c5.4-12.8,8-22.4,8-22.5
						c0.1-0.3,0.5-0.5,0.8-0.5c0.3,0.1,0.6,0.4,0.5,0.8C569,377,566.4,386.7,560.9,399.5z"/>
				</g>
			</g>
		</g>
		<g>
			<g>
				<path class="st1" d="M543,430.8c11.3-11.8,30.5-33.7,43.1-58.3c20.3-39.5,40.6-36,44.6-22c8.5,29.9-31.7,62-60,80.3H543z"/>
			</g>
			<g>
				<g>
					<path class="st0" d="M555.3,430.8h-3.1c14.5-11.9,26.7-24.8,35.4-35c13.6-15.8,21.8-28.4,21.8-28.5c0.3-0.5,0.9-0.6,1.3-0.3
						c0.5,0.3,0.6,0.9,0.3,1.3c-0.1,0.1-8.3,12.8-22,28.7C580.7,406.8,569.1,419.3,555.3,430.8z"/>
				</g>
			</g>
		</g>
	</g>
	<g>
		<g>
			<g>
				<path class="st0" d="M125.8,430.8c-4.7-9.6-12.7-27.8-15.7-46.2c-4.8-29.1-18.4-31-23.8-23c-13,19.4,12.8,53.2,26.9,69.2H125.8z
					"/>
			</g>
			<g>
				<g>
					<path class="st4" d="M103.1,399.5c3.7,8.7,9.2,20.2,16.5,31.2h1.6c-7.5-11.2-13.2-22.9-16.9-31.7c-5.4-12.8-8-22.4-8-22.5
						c-0.1-0.3-0.5-0.5-0.8-0.5c-0.3,0.1-0.6,0.4-0.5,0.8C95.1,377,97.7,386.7,103.1,399.5z"/>
				</g>
			</g>
		</g>
		<g>
			<g>
				<path class="st1" d="M121.1,430.8C109.8,419,90.6,397,78,372.5c-20.3-39.5-40.6-36-44.6-22c-8.5,29.9,31.7,62,60,80.3H121.1z"/>
			</g>
			<g>
				<g>
					<path class="st0" d="M108.8,430.8h3.1c-14.5-11.9-26.7-24.8-35.4-35c-13.6-15.8-21.8-28.4-21.8-28.5c-0.3-0.5-0.9-0.6-1.3-0.3
						c-0.5,0.3-0.6,0.9-0.3,1.3c0.1,0.1,8.3,12.8,22,28.7C83.3,406.8,95,419.3,108.8,430.8z"/>
				</g>
			</g>
		</g>
	</g>
	<g>
		<g>
			<g>
				<path class="st0" d="M339.9,430.8c-4.7-9.6-12.6-27.8-15.7-46.2c-4.8-29.1-18.4-31-23.8-23c-13,19.4,12.8,53.2,26.9,69.2H339.9z
					"/>
			</g>
			<g>
				<g>
					<path class="st4" d="M317.2,399.5c3.7,8.7,9.2,20.2,16.5,31.2h1.6c-7.5-11.2-13.2-22.9-16.9-31.7c-5.4-12.8-8-22.4-8-22.5
						c-0.1-0.3-0.5-0.5-0.8-0.5c-0.3,0.1-0.6,0.4-0.5,0.8C309.2,377,311.8,386.7,317.2,399.5z"/>
				</g>
			</g>
		</g>
		<g>
			<g>
				<path class="st1" d="M335.2,430.8c-11.3-11.8-30.5-33.7-43.1-58.3c-20.3-39.5-40.6-36-44.6-22c-8.5,29.9,31.7,62,60,80.3H335.2z
					"/>
			</g>
			<g>
				<g>
					<path class="st0" d="M322.9,430.8h3.1c-14.5-11.9-26.7-24.8-35.4-35c-13.6-15.8-21.8-28.4-21.8-28.5c-0.3-0.5-0.9-0.6-1.3-0.3
						c-0.5,0.3-0.6,0.9-0.3,1.3c0.1,0.1,8.3,12.8,22,28.7C297.4,406.8,309.1,419.3,322.9,430.8z"/>
				</g>
			</g>
		</g>
	</g>
	<g>
		<path class="st1" d="M690.9,390.8c-8.8-7.9-35.4,5.3-50.6,23.6l15.6-30.2c2.5-1.9,7.8-5.1,16.4-6.9c11.4-2.4,23.1-7,17.6-12
			c-5.6-5-22.4,3.4-32,15l3.3-6.4c13.4-15.6,20.3-41.4,13-46.4c-7.3-5-11,10.1-11.8,26.1c-0.3,6.9-2.2,12.9-3.6,17.1l-6.4,12.4
			c1.7-13.1-1.3-27.1-7.6-28.5c-7.3-1.6-4.2,10.6,0.5,21.2c2.5,5.7,3.5,10.4,3.8,13.8l-19.6,38h4l3.6-6.9c4-3,12.3-8,26-10.9
			C681.2,406,699.7,398.7,690.9,390.8z"/>
	</g>
	<g>
		<path class="st1" d="M418.3,393.5c8.8-7.9,35.4,5.3,50.6,23.6l-15.6-30.2c-2.5-1.9-7.8-5.1-16.4-6.9c-11.4-2.4-23.1-7-17.6-12
			c5.6-5,22.4,3.4,32,15l-3.3-6.4c-13.4-15.6-20.3-41.4-13-46.4c7.3-5,11,10.1,11.8,26.1c0.3,6.9,2.2,12.9,3.6,17.1l6.4,12.4
			c-1.7-13.1,1.3-27.1,7.6-28.5c7.3-1.6,4.2,10.6-0.5,21.2c-2.5,5.7-3.5,10.4-3.8,13.8l19.6,38h-4l-3.6-6.9c-4-3-12.3-8-26-10.9
			C428.1,408.7,409.5,401.4,418.3,393.5z"/>
	</g>
	<g>
		<path class="st1" d="M186.5,428.1l-18.2-35.3c0.3-3.4,1.3-8.1,3.8-13.8c4.7-10.7,7.7-22.9,0.5-21.2c-6.3,1.4-9.4,15.4-7.6,28.5
			l-6.4-12.4c-1.3-4.2-3.2-10.2-3.6-17.1c-0.8-16.1-4.5-31.1-11.8-26.1c-7.3,5-0.4,30.8,13,46.4l3.3,6.4c-9.6-11.5-26.4-20-32-15
			c-5.5,5,6.2,9.6,17.6,12c8.7,1.8,13.9,5,16.4,6.9l15.6,30.2c-15.2-18.2-41.8-31.5-50.6-23.6c-8.8,7.9,9.8,15.2,27.9,19
			c13.7,2.9,22,7.9,26,10.9l2.2,4.2H186.5z"/>
	</g>
</g>
<g>
	<g>
		<g>
			<g>
				<g>
					<path class="st5" d="M578.3,96.8V307c0,4-3.2,7.2-7.2,7.2h-93.9c-4,0-7.2-3.2-7.2-7.2V96.8c0-2.9,2.4-5.3,5.3-5.3H573
						C575.9,91.5,578.3,93.9,578.3,96.8z"/>
				</g>
			</g>
			<g>
				<g class="st6">
					<g>
						<path class="st3" d="M560.3,210.1h-72.1c-1.3,0-2.4-1.1-2.4-2.4l0,0c0-1.3,1.1-2.4,2.4-2.4h72.1c1.3,0,2.4,1.1,2.4,2.4l0,0
							C562.7,209,561.6,210.1,560.3,210.1z"/>
					</g>
				</g>
				<g class="st6">
					<g>
						<path class="st3" d="M560.3,225.1h-72.1c-1.3,0-2.4-1.1-2.4-2.4l0,0c0-1.3,1.1-2.4,2.4-2.4h72.1c1.3,0,2.4,1.1,2.4,2.4l0,0
							C562.7,224.1,561.6,225.1,560.3,225.1z"/>
					</g>
				</g>
				<g class="st6">
					<g>
						<path class="st3" d="M560.3,240.2h-72.1c-1.3,0-2.4-1.1-2.4-2.4l0,0c0-1.3,1.1-2.4,2.4-2.4h72.1c1.3,0,2.4,1.1,2.4,2.4l0,0
							C562.7,239.2,561.6,240.2,560.3,240.2z"/>
					</g>
				</g>
				<g class="st6">
					<g>
						<path class="st3" d="M560.3,255.3h-72.1c-1.3,0-2.4-1.1-2.4-2.4l0,0c0-1.3,1.1-2.4,2.4-2.4h72.1c1.3,0,2.4,1.1,2.4,2.4l0,0
							C562.7,254.2,561.6,255.3,560.3,255.3z"/>
					</g>
				</g>
				<g class="st6">
					<g>
						<path class="st3" d="M560.3,270.4h-72.1c-1.3,0-2.4-1.1-2.4-2.4l0,0c0-1.3,1.1-2.4,2.4-2.4h72.1c1.3,0,2.4,1.1,2.4,2.4l0,0
							C562.7,269.3,561.6,270.4,560.3,270.4z"/>
					</g>
				</g>
				<g class="st6">
					<g>
						<path class="st3" d="M560.3,285.5h-72.1c-1.3,0-2.4-1.1-2.4-2.4l0,0c0-1.3,1.1-2.4,2.4-2.4h72.1c1.3,0,2.4,1.1,2.4,2.4l0,0
							C562.7,284.4,561.6,285.5,560.3,285.5z"/>
					</g>
				</g>
			</g>
			<g>
				<g>
					<g>
						<path class="st7" d="M552.1,100.6c0,1.9-1.6,3.5-3.5,3.5c-1.9,0-3.5-1.6-3.5-3.5c0-1.9,1.6-3.5,3.5-3.5
							C550.6,97.1,552.1,98.6,552.1,100.6z"/>
					</g>
				</g>
				<g>
					<g>
						<path class="st2" d="M563.5,100.6c0,1.9-1.6,3.5-3.5,3.5c-1.9,0-3.5-1.6-3.5-3.5c0-1.9,1.6-3.5,3.5-3.5
							C562,97.1,563.5,98.6,563.5,100.6z"/>
					</g>
				</g>
				<g>
					<g>
						<path class="st8" d="M574.5,100.6c0,1.9-1.6,3.5-3.5,3.5c-1.9,0-3.5-1.6-3.5-3.5c0-1.9,1.6-3.5,3.5-3.5
							C572.9,97.1,574.5,98.6,574.5,100.6z"/>
					</g>
				</g>
			</g>
			<g>
				<path class="st2" d="M540.1,164.3h-31.8c-4,0-7.4-3.3-7.4-7.4v-0.5c0-4,3.3-7.4,7.4-7.4h31.8c4,0,7.4,3.3,7.4,7.4v0.5
					C547.5,161,544.2,164.3,540.1,164.3z"/>
			</g>
			<g>
				<g>
					<rect x="491.1" y="131.9" class="st9" width="3" height="21.1"/>
				</g>
				<g>
					<path class="st10" d="M496,131.9c0,1.9-1.5,3.4-3.4,3.4c-1.9,0-3.4-1.5-3.4-3.4c0-1.9,1.5-3.4,3.4-3.4
						C494.5,128.5,496,130,496,131.9z"/>
				</g>
				<g>
					<path class="st10" d="M494.1,147.1v2.2c-0.8,0.2-2,0.6-3,0.9v-2.4C491.1,147.8,493.2,147.2,494.1,147.1z"/>
				</g>
				<g>
					<path class="st10" d="M488.9,159c0,1.6-1.1,3-2.6,3.3c-0.3,0.1-0.5,0.1-0.8,0.1c-0.2,0-0.4,0-0.6-0.1c-1.6-0.3-2.8-1.7-2.8-3.4
						c0-1.7,1.2-3,2.7-3.3c0.2,0,0.4-0.1,0.7-0.1c0.3,0,0.5,0,0.8,0.1C487.8,156.1,488.9,157.4,488.9,159z"/>
				</g>
				<g>
					<path class="st9" d="M513.3,159c0,2.7-1.1,5.2-2.9,7c-1.8,1.8-4.3,2.9-7,2.9h-8.4c-0.6,0-1.2-0.1-1.7-0.2
						c-4.7-0.8-8.2-4.9-8.2-9.8c0-2.7,1.1-5.2,2.9-7c1.3-1.3,3.1-2.3,5-2.7c0.7-0.1,1.3-0.2,2-0.2h8.4
						C508.8,149.1,513.3,153.6,513.3,159z"/>
				</g>
				<g>
					<path class="st10" d="M498.3,168.5c0,0.2,0,0.3-0.1,0.5h-3.3c-0.6,0-1.2-0.1-1.7-0.2c-1.3-2-3-5.5-3.3-9.8
						c-0.4-5.1,1.8-8.4,3-9.7c0.7-0.1,1.3-0.2,2-0.2h2.7C499.8,153.1,498.5,165,498.3,168.5z"/>
				</g>
				<g>
					<rect x="555.4" y="131.9" class="st9" width="3" height="21.1"/>
				</g>
				<g>
					<path class="st10" d="M553.5,131.9c0,1.9,1.5,3.4,3.4,3.4s3.4-1.5,3.4-3.4c0-1.9-1.5-3.4-3.4-3.4S553.5,130,553.5,131.9z"/>
				</g>
				<g>
					<path class="st10" d="M555.4,147.1v2.2c0.8,0.2,2,0.6,3,0.9v-2.4C558.4,147.8,556.3,147.2,555.4,147.1z"/>
				</g>
				<g>
					<path class="st10" d="M560.6,159c0,1.9,1.5,3.4,3.4,3.4c1.9,0,3.4-1.5,3.4-3.4c0-1.9-1.5-3.4-3.4-3.4
						C562.1,155.6,560.6,157.2,560.6,159z"/>
				</g>
				<g>
					<path class="st9" d="M536.2,159c0,2.7,1.1,5.2,2.9,7c1.8,1.8,4.3,2.9,7,2.9h8.4c0.6,0,1.2-0.1,1.7-0.2c4.7-0.8,8.2-4.9,8.2-9.8
						c0-2.7-1.1-5.2-2.9-7c-1.3-1.3-3.1-2.3-5-2.7c-0.7-0.1-1.3-0.2-2-0.2h-8.4C540.7,149.1,536.2,153.6,536.2,159z"/>
				</g>
				<g>
					<path class="st10" d="M551.2,168.5c0,0.2,0,0.3,0.1,0.5h3.3c0.6,0,1.2-0.1,1.7-0.2c1.3-2,3-5.5,3.3-9.8c0.4-5.1-1.8-8.4-3-9.7
						c-0.7-0.1-1.3-0.2-2-0.2h-2.7C549.7,153.1,550.9,165,551.2,168.5z"/>
				</g>
				<g>
					<path class="st7" d="M556.6,158.3c0,1.4-0.2,2.8-0.5,4.2c0,0,0,0,0,0c-0.8,3.7-2.7,7-5.3,9.6c-3.5,3.5-8.4,5.7-13.8,5.7h-25
						c-9.3,0-17.1-6.6-19-15.3c-0.3-1.3-0.5-2.8-0.5-4.2c0-3.4,0.9-6.6,2.4-9.4c0.9-1.6,2-3.1,3.3-4.4c3.5-3.5,8.4-5.7,13.8-5.7h25
						c7.2,0,13.6,4,16.9,9.9c0,0,0,0,0,0C555.7,151.5,556.6,154.8,556.6,158.3z"/>
				</g>
				<g>
					<path class="st11" d="M508.6,162.4c-3.1,0-5.7-2.5-5.7-5.7c0-3.1,2.5-5.7,5.7-5.7h31.3c3.1,0,5.7,2.5,5.7,5.7
						c0,3.1-2.5,5.7-5.7,5.7H508.6z"/>
				</g>
				<g>
					<g>
						<path class="st5" d="M513.3,159.1c-1.3,1.3-3.5,1.3-4.8,0c-1.3-1.3-1.3-3.5,0-4.8c1.3-1.3,3.5-1.3,4.8,0
							C514.6,155.6,514.6,157.8,513.3,159.1z"/>
					</g>
					<g>
						<path class="st12" d="M513.3,159.1c-1.3,1.3-3.5,1.3-4.8,0l4.8-4.8C514.6,155.6,514.6,157.8,513.3,159.1z"/>
					</g>
				</g>
				<g>
					<g>
						<path class="st5" d="M540.8,159.1c-1.3,1.3-3.5,1.3-4.8,0c-1.3-1.3-1.3-3.5,0-4.8c1.3-1.3,3.5-1.3,4.8,0
							C542.2,155.6,542.2,157.8,540.8,159.1z"/>
					</g>
					<g>
						<path class="st12" d="M540.8,159.1c-1.3,1.3-3.5,1.3-4.8,0l4.8-4.8C542.2,155.6,542.2,157.8,540.8,159.1z"/>
					</g>
				</g>
				<g>
					<path class="st2" d="M534.2,172.7h-20.7c-1.6,0-3-1.3-3-3v-0.2c0-1.6,1.3-3,3-3h20.7c1.6,0,3,1.3,3,3v0.2
						C537.2,171.4,535.8,172.7,534.2,172.7z"/>
				</g>
				<g>
					<path class="st12" d="M535,169.6c0,0.1,0,0.2,0,0.3c-0.1,0.3-0.2,0.6-0.5,0.9c-0.3,0.3-0.7,0.5-1.2,0.5h-19.1
						c-0.8,0-1.5-0.6-1.6-1.3c0-0.1,0-0.2,0-0.3c0-0.5,0.2-0.9,0.5-1.2c0.3-0.3,0.7-0.5,1.2-0.5h19.1C534.3,168,535,168.7,535,169.6
						z"/>
				</g>
				<g>
					<path class="st10" d="M524.8,186.4h-0.4c-2.9,0-5.3-2.4-5.3-5.3v-3.4h10.9v3.4C530.1,184,527.7,186.4,524.8,186.4z"/>
				</g>
			</g>
		</g>
	</g>
	<g>
		<g>
			<g>
				<g>
					<g>
						<g>
							<circle class="st7" cx="204.5" cy="102.3" r="4"/>
						</g>
					</g>
				</g>
				<g>
					<g>
						<g>
							<path class="st2" d="M221.3,102.3c0,2.2-1.8,4-4,4c-2.2,0-4-1.8-4-4c0-2.2,1.8-4,4-4C219.5,98.3,221.3,100.1,221.3,102.3z"/>
						</g>
					</g>
				</g>
				<g>
					<g>
						<g>
							<circle class="st8" cx="229.6" cy="102.3" r="4"/>
						</g>
					</g>
				</g>
			</g>
		</g>
		<g>
			<g>
				<g>
					<g>
						<circle class="st5" cx="152.4" cy="151.8" r="10.3"/>
					</g>
					<g>
						<g>
							<path class="st13" d="M152.4,157.8c-3.3,0-6-2.7-6-6c0-3.3,2.7-6,6-6c3.3,0,6,2.7,6,6C158.4,155.1,155.7,157.8,152.4,157.8z"
								/>
						</g>
						<g>
							<path class="st8" d="M152.4,154.2c-1.3,0-2.4-1.1-2.4-2.4c0-1.3,1.1-2.4,2.4-2.4c1.3,0,2.4,1.1,2.4,2.4
								C154.8,153.1,153.7,154.2,152.4,154.2z"/>
						</g>
					</g>
				</g>
				<g>
					<g>
						<circle class="st5" cx="202.6" cy="151.8" r="10.3"/>
					</g>
					<g>
						<g>
							<path class="st13" d="M202.6,157.8c-3.3,0-6-2.7-6-6c0-3.3,2.7-6,6-6c3.3,0,6,2.7,6,6C208.5,155.1,205.8,157.8,202.6,157.8z"
								/>
						</g>
						<g>
							<path class="st8" d="M202.6,154.2c-1.3,0-2.4-1.1-2.4-2.4c0-1.3,1.1-2.4,2.4-2.4c1.3,0,2.4,1.1,2.4,2.4
								C205,153.1,203.9,154.2,202.6,154.2z"/>
						</g>
					</g>
				</g>
			</g>
		</g>
	</g>
</g>
<g>
	<g>
		<ellipse class="st1" cx="364.9" cy="432.5" rx="121.7" ry="10.3"/>
	</g>
	<g>
		<g>
			<g>
				<path class="st7" d="M298.7,406.9c-0.8,0-1.5-0.7-1.5-1.5v-23.9c0-0.4,0.2-0.8,0.4-1.1l12.4-12.4v-13.1L297.2,342
					c-0.3-0.3-0.4-0.7-0.4-1.1v-28c0-0.8,0.7-1.5,1.5-1.5c0.8,0,1.5,0.7,1.5,1.5v27.4l12.9,12.9c0.3,0.3,0.4,0.7,0.4,1.1v14.3
					c0,0.4-0.2,0.8-0.4,1.1l-12.4,12.4v23.3C300.2,406.2,299.6,406.9,298.7,406.9z"/>
			</g>
			<g>
				<path class="st7" d="M327,408.6c-0.8,0-1.5-0.7-1.5-1.5V380c0-0.4,0.2-0.8,0.4-1.1l5.5-5.5v-16.9c0-0.8,0.7-1.5,1.5-1.5
					c0.8,0,1.5,0.7,1.5,1.5v17.5c0,0.4-0.2,0.8-0.4,1.1l-5.5,5.5v26.5C328.5,408,327.9,408.6,327,408.6z"/>
			</g>
			<g>
				<path class="st7" d="M356.9,408.6c-0.8,0-1.5-0.7-1.5-1.5v-61.6l-13-13c-0.3-0.3-0.4-0.7-0.4-1.1v-20.4c0-0.8,0.7-1.5,1.5-1.5
					c0.8,0,1.5,0.7,1.5,1.5v19.8l13,13c0.3,0.3,0.4,0.7,0.4,1.1v62.2C358.4,408,357.8,408.6,356.9,408.6z"/>
			</g>
			<g>
				<path class="st7" d="M386.7,410.9c-0.8,0-1.5-0.7-1.5-1.5v-17.2l-10-10c-0.3-0.3-0.4-0.7-0.4-1.1v-28.8c0-0.4,0.2-0.8,0.4-1.1
					l9.5-9.5v-17.9c0-0.8,0.7-1.5,1.5-1.5s1.5,0.7,1.5,1.5v18.5c0,0.4-0.2,0.8-0.4,1.1l-9.5,9.5v27.5l10,10c0.3,0.3,0.4,0.7,0.4,1.1
					v17.8C388.2,410.2,387.5,410.9,386.7,410.9z"/>
			</g>
			<g>
				<path class="st7" d="M407.9,411.8c-0.8,0-1.5-0.7-1.5-1.5v-8.6c0-0.4,0.2-0.8,0.4-1.1l9.7-9.7v-15l-9.2-9.2
					c-0.3-0.3-0.4-0.7-0.4-1.1v-25.6c0-0.8,0.7-1.5,1.5-1.5c0.8,0,1.5,0.7,1.5,1.5v25l9.2,9.2c0.3,0.3,0.4,0.7,0.4,1.1v16.2
					c0,0.4-0.2,0.8-0.4,1.1l-9.7,9.7v8C409.4,411.2,408.7,411.8,407.9,411.8z"/>
			</g>
			<g>
				<path class="st7" d="M426.3,406.9c-0.8,0-1.5-0.7-1.5-1.5v-37.5l-6.1-6.1c-0.3-0.3-0.4-0.7-0.4-1.1v-7.3c0-0.4,0.2-0.8,0.4-1.1
					l5.3-5.3v-19.6c0-0.8,0.7-1.5,1.5-1.5c0.8,0,1.5,0.7,1.5,1.5v20.2c0,0.4-0.2,0.8-0.4,1.1l-5.3,5.3v6.1l6.1,6.1
					c0.3,0.3,0.4,0.7,0.4,1.1v38.1C427.8,406.2,427.1,406.9,426.3,406.9z"/>
			</g>
			<g>
				<g>
					<path class="st10" d="M304.9,310.8c0,3.7-3,6.7-6.7,6.7c-3.7,0-6.7-3-6.7-6.7c0-3.7,3-6.7,6.7-6.7
						C301.9,304.1,304.9,307.1,304.9,310.8z"/>
				</g>
			</g>
			<g>
				<g>
					<path class="st10" d="M339.6,352.9c0,3.7-3,6.7-6.7,6.7c-3.7,0-6.7-3-6.7-6.7c0-3.7,3-6.7,6.7-6.7
						C336.6,346.2,339.6,349.2,339.6,352.9z"/>
				</g>
			</g>
			<g>
				<g>
					<path class="st10" d="M350.1,308.7c0,3.7-3,6.7-6.7,6.7c-3.7,0-6.7-3-6.7-6.7c0-3.7,3-6.7,6.7-6.7
						C347.1,302.1,350.1,305,350.1,308.7z"/>
				</g>
			</g>
			<g>
				<g>
					<path class="st10" d="M392.8,322.1c0,3.7-3,6.7-6.7,6.7c-3.7,0-6.7-3-6.7-6.7c0-3.7,3-6.7,6.7-6.7
						C389.8,315.4,392.8,318.4,392.8,322.1z"/>
				</g>
			</g>
			<g>
				<g>
					<path class="st10" d="M415.1,338.2c0,3.7-3,6.7-6.7,6.7c-3.7,0-6.7-3-6.7-6.7c0-3.7,3-6.7,6.7-6.7
						C412.1,331.5,415.1,334.5,415.1,338.2z"/>
				</g>
			</g>
			<g>
				<g>
					<path class="st10" d="M432.2,323.9c0,3.7-3,6.7-6.7,6.7c-3.7,0-6.7-3-6.7-6.7c0-3.7,3-6.7,6.7-6.7
						C429.2,317.2,432.2,320.2,432.2,323.9z"/>
				</g>
			</g>
		</g>
		<g>
			<path d="M470.5,417.4v9.4c0,4.4-3.6,8-8,8H267.3c-4.4,0-8-3.6-8-8v-9.4c0-4.4,3.6-8,8-8h195.2C466.9,409.4,470.5,413,470.5,417.4
				z"/>
		</g>
		<g>
			<path class="st14" d="M470.5,421.8v5c0,4.4-3.6,8-8,8H267.3c-4.4,0-8-3.6-8-8v-5H470.5z"/>
		</g>
		<g>
			<g>
				<path class="st15" d="M443.7,414.1H287.2c-5.5,0-9.9-4.4-9.9-9.9V232.5c0-48.6,39-88.8,87.6-89.1c48.8-0.3,88.7,39.4,88.7,88.2
					v172.7C453.6,409.6,449.2,414.1,443.7,414.1z M291.2,405.4h148.5c2.9,0,5.2-2.3,5.2-5.2V232.4c0-43.8-35.2-80.1-79-80.3
					c-44-0.3-79.9,35.5-79.9,79.5v168.7C286,403,288.3,405.4,291.2,405.4z"/>
			</g>
		</g>
		<g>
			<g>
				<g>
					<g>
						<path class="st7" d="M428.6,235v20.8H313.8c-5.3,0-9.7-4.3-9.7-9.7v-6.7c0-0.4,0-0.8,0-1.1c0-1.1,0.1-2.2,0.1-3.2
							c0.1-2,0.4-4,0.8-5.9c0.2-1.1,0.4-2.2,0.7-3.2c0.8-3.3,1.8-6.4,3.1-9.4c0.5-1.1,1-2.2,1.5-3.2c2-3.9,4.4-7.6,7.2-10.9
							c0.9-1.1,1.9-2.2,2.9-3.2c1.7-1.8,3.5-3.4,5.4-4.9c0,0,0,0,0,0c1.6-1.2,3.2-2.4,4.9-3.5c1.9-1.2,3.8-2.3,5.7-3.2
							c4.8-2.4,10-4,15.5-5c1.1-0.2,2.1-0.3,3.2-0.5c2.1-0.2,4.3-0.4,6.4-0.4h13.7c1.5,0,3.1,0.1,4.6,0.2c1.1,0.1,2.1,0.2,3.2,0.4
							c12.4,1.8,23.5,8,31.5,16.8c1,1,1.9,2.1,2.7,3.2c2,2.6,3.8,5.3,5.3,8.2c0.5,1.1,1.1,2.1,1.5,3.2c2.3,5.3,3.7,11,4.2,17
							c0.1,1.1,0.1,2.1,0.1,3.2C428.6,234.4,428.6,234.7,428.6,235z"/>
					</g>
					<g>
						<path class="st7" d="M428.6,255.7c0,3.1-1.3,5.4-3.3,8.2c-0.1,0.1-0.2,0.3-0.3,0.4L414.4,275c-5.1,5.1-12.1,8-19.4,8
							c-5.4,0-9.3-1.5-12.6-3.7c-3.3-2.2-6-5.2-8.9-8.2l-0.5-0.5h-11.1c-5.1,0-9.7-2.6-12.3-6.6c-1.6-2.4-2.5-5.2-2.5-8.2H428.6z"/>
					</g>
					<g>
						<path class="st2" d="M428.6,255.7c0,3.1-1.3,5.4-3.3,8.2c-0.1,0.1-0.2,0.3-0.3,0.4L414.4,275c-5.1,5.1-12.1,8-19.4,8
							c-5.4,0-9.3-1.5-12.6-3.7c-3.3-2.2-6-5.2-8.9-8.2l-0.5-0.5h-11.1c-5.1,0-9.7-2.6-12.3-6.6c-1.6-2.4-2.5-5.2-2.5-8.2H428.6z"/>
					</g>
				</g>
				<g>
					<path class="st16" d="M418.8,270.6l-4.5,4.5c-5.1,5.1-12.1,8-19.4,8c-5.4,0-9.3-1.5-12.6-3.7c-3.3-2.2-6-5.2-8.9-8.2l-0.5-0.5
						H418.8z"/>
				</g>
				<g>
					<g>
						<path class="st17" d="M323,245.8h-3.2c0-4.1-3.4-7.5-7.5-7.5h-8.2c0-1.1,0.1-2.2,0.1-3.2h8C318.2,235,323,239.9,323,245.8z"/>
					</g>
				</g>
				<g>
					<g>
						<path class="st17" d="M338,210.6c0,2.4-0.5,4.7-1.3,6.8c-0.5,1.1-1,2.2-1.7,3.2c-3.3,5.1-9,8.5-15.5,8.5H305
							c0.2-1.1,0.4-2.2,0.7-3.2h13.8c8.4,0,15.3-6.9,15.3-15.3H338z"/>
					</g>
				</g>
				<g>
					<g>
						<path class="st17" d="M428.6,244.2v3.2h-21.7c-7.5-0.1-13.6-6.3-13.6-13.8h3.2c0,5.8,4.7,10.6,10.6,10.6H428.6z"/>
					</g>
				</g>
				<g>
					<g>
						<path class="st17" d="M324,213.3v3.2h-15.2c0.5-1.1,1-2.2,1.5-3.2H324z"/>
					</g>
				</g>
				<g>
					<g>
						<path class="st17" d="M417.4,202.4H397c-8.1,0-14.7,6.6-14.7,14.7H379c0-3.1,0.8-6.1,2.3-8.7c0.6-1,1.3-2,2-2.9
							c3.3-3.9,8.2-6.3,13.6-6.3h17.8C415.7,200.2,416.6,201.3,417.4,202.4z"/>
					</g>
				</g>
				<g>
					<g>
						<path class="st17" d="M424.2,213.8h-23.3v-3.2h21.8C423.2,211.7,423.8,212.7,424.2,213.8z"/>
					</g>
				</g>
				<g>
					<g>
						<path class="st17" d="M355.3,231.9v3.2c-4.6,0-8.4,3.8-8.4,8.4v12.2h-3.2v-12.2c0-0.1,0-0.2,0-0.4c0-1.1,0.2-2.2,0.5-3.2
							C345.8,235.3,350.2,231.9,355.3,231.9z"/>
					</g>
				</g>
				<g>
					<g>
						<path class="st17" d="M365.2,200.3v3.2c-7.2,0-13.1-5.9-13.1-13.1v-7.9c1.1-0.2,2.1-0.3,3.2-0.5v8.4
							C355.3,195.9,359.7,200.3,365.2,200.3z"/>
					</g>
				</g>
				<g>
					<g>
						<path class="st17" d="M383.2,182.3c-0.6,6.6-6.2,11.8-13,11.8v-3.2c5.1,0,9.4-3.9,9.8-9C381.1,182.1,382.1,182.2,383.2,182.3z
							"/>
					</g>
				</g>
				<g>
					<g>
						<path class="st17" d="M350.5,213.4h-3.2c0-6.1-5-11.1-11.1-11.1h-18.6c0.9-1.1,1.9-2.2,2.9-3.2h15.7
							C344,199.2,350.5,205.6,350.5,213.4z"/>
					</g>
				</g>
				<g>
					<g>
						<path class="st17" d="M384.1,208.7h-0.3c-5.8,0-10.6-4.7-10.6-10.6h3.2c0,4.1,3.3,7.3,7.3,7.3h0.3V208.7z"/>
					</g>
				</g>
				<g>
					<g>
						<path class="st17" d="M345.5,243.3c-5,0-9.1-4.1-9.1-9.1v-5.6h3.2v5.6c0,3.2,2.6,5.9,5.9,5.9V243.3z"/>
					</g>
				</g>
				<g>
					<g>
						<path class="st17" d="M379.6,270.6h-3.2v-17.4c0-2.3-1.9-4.2-4.2-4.2c-4.1,0-7.5-3.3-7.5-7.5v-6.4h3.2v6.4
							c0,2.3,1.9,4.2,4.2,4.2c4.1,0,7.5,3.3,7.5,7.5V270.6z"/>
					</g>
				</g>
				<g>
					<g>
						<path class="st17" d="M378,262.5v-3.2c4.1,0,7.5-3.4,7.5-7.5v-1.7h3.2v1.7C388.8,257.7,384,262.5,378,262.5z"/>
					</g>
				</g>
				<g>
					<g>
						<path class="st17" d="M374.5,232.5h-3.2c0-6.5-5.3-11.8-11.8-11.8h-25.3v-3.2h25.3C367.7,217.5,374.5,224.2,374.5,232.5z"/>
					</g>
				</g>
				<g>
					<g>
						<path class="st17" d="M382.3,226h-12.2v-3.2h12.2c4.7,0,8.6-3.8,8.6-8.6h3.2C394.1,220.7,388.8,226,382.3,226z"/>
					</g>
				</g>
				<g>
					<g>
						<path class="st17" d="M418.2,258.9c-6.2,0-11.3-5.1-11.3-11.3v-1.9h3.2v1.9c0,4.4,3.6,8,8,8V258.9z"/>
					</g>
				</g>
				<g>
					<g>
						<path class="st17" d="M406.3,223.5h-2.8v-3.2h2.8c4.4,0,8-3.6,8-8h3.2C417.6,218.4,412.6,223.5,406.3,223.5z"/>
					</g>
				</g>
				<g>
					<g>
						<path class="st17" d="M428.6,234.1h-16.3v-3.2h16.2C428.5,231.9,428.6,233,428.6,234.1z"/>
					</g>
				</g>
				<g>
					<g>
						<path class="st17" d="M346.6,195.7h-3.2c0-2.7-2.2-5-5-5h-7.6c1.9-1.2,3.8-2.3,5.7-3.2h1.9
							C342.9,187.5,346.6,191.2,346.6,195.7z"/>
					</g>
				</g>
			</g>
			<g>
				<g>
					<g>
						<path class="st10" d="M313.6,255.7v9.4c0,0.9,0.8,1.6,1.7,1.6c0,0,0,0,0,0c0.9,0,1.5-0.7,1.5-1.6v-9.4H313.6z"/>
					</g>
					<g>
						<path class="st10" d="M319.7,255.7v9.4c0,0.9,0.8,1.6,1.7,1.6c0,0,0,0,0,0c0.9,0,1.5-0.7,1.5-1.6v-9.4H319.7z"/>
					</g>
					<g>
						<path class="st10" d="M325.9,255.7v9.4c0,0.9,0.8,1.6,1.7,1.6c0,0,0,0,0,0c0.9,0,1.5-0.7,1.5-1.6v-9.4H325.9z"/>
					</g>
					<g>
						<path class="st10" d="M332.1,255.7v9.4c0,0.9,0.8,1.6,1.7,1.6c0,0,0,0,0,0c0.9,0,1.5-0.7,1.5-1.6v-9.4H332.1z"/>
					</g>
					<g>
						<path class="st10" d="M338.3,255.7v9.4c0,0.9,0.8,1.6,1.7,1.6c0,0,0,0,0,0c0.9,0,1.5-0.7,1.5-1.6v-9.4H338.3z"/>
					</g>
				</g>
			</g>
		</g>
	</g>
</g>
<g>
	<g>
		<g>
			<g>
				<ellipse class="st1" cx="642.7" cy="435.2" rx="53" ry="6.6"/>
			</g>
		</g>
	</g>
	<g>
		<g>
			<g>
				<g>
					<path class="st2" d="M558.5,200.9c5.5,3.3,11.4,6.1,17.6,8.3c6.2,2.2,12.8,3.8,19.4,4.6c2.7,0.3,5.3-0.9,6.8-2.9l0.6-0.8
						l22-29.7c3.5-4.7,2.5-11.3-2.2-14.7c-4.7-3.5-11.3-2.5-14.7,2.2c-0.3,0.3-0.5,0.8-0.7,1.1l-15.9,28.3
						c-3.8-0.3-7.5-0.8-11.2-1.7c-5.4-1.2-10.8-3.1-16.1-5.4l0,0c-3.1-1.4-6.6,0-8,3.1C554.8,196.1,555.9,199.4,558.5,200.9z"/>
				</g>
			</g>
			<g>
				<g>
					<g>
						<g>
							<g>
								<path class="st18" d="M552.2,197.7L552.2,197.7c0.1,0,0.2,0,0.3,0c0,0,0.2,0.1,0.5,0.3c1.4,1,5.7,3.6,8.4,1
									c0.2-0.2,0.4-0.4,0.6-0.6c0.2-0.2,0.4-0.5,0.6-0.7c2.1-2.9,2-6.4,2-6.4s-2-6.9-5.3-7.4c-1.9-0.3-2.7,0.3-3.1,0.9
									c-0.2,0.4-0.2,0.8-0.2,0.8s-0.2-0.1-0.6-0.3c-2.1-1.2-9.4-5.1-10.6-4.7c-1.5,0.4,6.9,6.8,6.9,6.8s-1.3,0.1-2.7,3.5
									C547.4,194.2,548,198.2,552.2,197.7z"/>
							</g>
						</g>
					</g>
				</g>
				<g>
					<g>
						<g>
							<path class="st18" d="M554.7,192.6c0.2-0.1,0.3-0.3,0.2-0.4c0-0.2-0.2-0.3-0.4-0.3c0,0-1.1,0.2-2.8-1.1
								c-0.2-0.1-0.4-0.1-0.5,0.1c-0.1,0.2-0.1,0.4,0.1,0.5C553.3,192.9,554.6,192.6,554.7,192.6
								C554.7,192.6,554.7,192.6,554.7,192.6z"/>
						</g>
					</g>
				</g>
				<g>
					<g>
						<g>
							<path class="st18" d="M554.2,195.5c0.2-0.1,0.2-0.2,0.2-0.4c0-0.2-0.2-0.3-0.4-0.3c0,0-1.9,0.2-3.2-1.1
								c-0.1-0.1-0.4-0.1-0.5,0c-0.1,0.1-0.1,0.4,0,0.5C551.8,195.7,554,195.5,554.2,195.5C554.1,195.5,554.1,195.5,554.2,195.5z"/>
						</g>
					</g>
				</g>
				<g>
					<g>
						<g>
							<g>
								<path class="st18" d="M555.5,189.8c0.4,0.2,1,0.1,1.7-0.1c1.6-0.6,3.4-2.3,3.9-2.7c0.2-0.1,0.2-0.4,0-0.5
									c-0.1-0.2-0.4-0.2-0.5,0c-1.5,1.4-4,3.2-4.7,2.8c-0.3-0.1-0.3-0.7-0.2-1.5l0.4-2.9c-0.2,0.4-0.2,0.8-0.2,0.8
									s-0.2-0.1-0.6-0.3l-0.4,2.3C554.8,188,554.6,189.4,555.5,189.8z"/>
							</g>
						</g>
					</g>
				</g>
				<g>
					<g>
						<g>
							<g>
								<path class="st18" d="M552.2,197.7c0.1,0,0.2,0,0.3,0c0,0,0.2,0.1,0.5,0.3c4.3-5.7,0.8-9.8,0.8-9.9c-0.1-0.2-0.4-0.2-0.5,0
									c-0.2,0.1-0.2,0.4,0,0.5C553.2,188.7,556.3,192.4,552.2,197.7z"/>
							</g>
						</g>
					</g>
				</g>
			</g>
		</g>
		<g>
			<g>
				<g>
					<g>
						<g>
							<polygon class="st19" points="639.7,292.6 647.7,413.1 634.6,412.3 606.3,261.9 637.1,263 							"/>
						</g>
					</g>
				</g>
			</g>
			<g>
				<g>
					<g>
						<g>
							<g>
								<g>
									<path class="st18" d="M646.8,412.2l0.9,11.5c0,0-4,2.3-10,1.2l-1.9-13.6L646.8,412.2z"/>
								</g>
							</g>
						</g>
					</g>
				</g>
				<g>
					<g>
						<g>
							<g>
								<g>
									<path class="st10" d="M632.9,409.8c-0.7,2.4-0.3,4.7,0.5,7l15.7-0.7c0.5-2.3,0.5-4.6,0.1-6.9L632.9,409.8z"/>
								</g>
							</g>
						</g>
					</g>
				</g>
				<g>
					<g>
						<g>
							<g>
								<g>
									<g>
										<path d="M610.4,436.8c0.8,1.8,38.2-0.1,38.2-0.1s1.2-11.1,0-14.5c-1.2-3.4-6.6,0.4-10.3-0.4c0,0-2.2-3.1-4-3
											c-0.7,0-3,1.6-6,3.5c-0.5,0.3-1,0.6-1.5,1c-0.3,0.2-0.7,0.5-1.1,0.7c-0.6,0.4-1.2,0.8-1.8,1.2c-0.2,0.1-0.4,0.3-0.7,0.4h0
											c-0.5,0.4-1.1,0.7-1.6,1c-3.3,2-6.4,3.8-8.2,4.1C608.6,431.5,609.5,435,610.4,436.8z"/>
									</g>
								</g>
							</g>
						</g>
					</g>
					<g>
						<g>
							<g>
								<g>
									<g>
										<g>
											<g>
												<path class="st5" d="M623.9,425.1c0.6-0.1,1.3,0,2,0.4c1.6,0.8,2.9,3.1,2.9,3.1c0.1,0.2,0.2,0.3,0.4,0.3
													c0.2,0.1,0.4,0,0.5-0.1c0.3-0.2,0.4-0.6,0.3-0.9c-0.1-0.1-1.5-2.7-3.4-3.7c-0.3-0.2-0.6-0.3-0.9-0.4
													C624.7,424,623.9,424.2,623.9,425.1z"/>
											</g>
										</g>
									</g>
								</g>
							</g>
						</g>
						<g>
							<g>
								<g>
									<g>
										<g>
											<g>
												<path class="st5" d="M626.7,423.2c0.4,0,0.8,0.2,1.2,0.4c1.6,0.8,2.9,3.1,2.9,3.1c0.1,0.2,0.2,0.3,0.4,0.3
													c0.2,0.1,0.4,0,0.5-0.1c0.3-0.2,0.4-0.6,0.3-0.9c-0.1-0.1-1.5-2.7-3.4-3.7c-0.1-0.1-0.3-0.1-0.4-0.2
													C627.6,422.3,626.9,422.3,626.7,423.2z"/>
											</g>
										</g>
									</g>
								</g>
							</g>
						</g>
						<g>
							<g>
								<g>
									<g>
										<g>
											<g>
												<path class="st5" d="M621.6,426.5c0.5,0,1,0.1,1.6,0.4c1.6,0.8,2.9,3.1,2.9,3.1c0.1,0.2,0.2,0.3,0.4,0.3
													c0.2,0.1,0.4,0,0.5-0.1c0.3-0.2,0.4-0.6,0.3-0.9c-0.1-0.1-1.5-2.7-3.4-3.7c-0.2-0.1-0.4-0.2-0.6-0.3h0
													C622.2,425.4,621.5,425.7,621.6,426.5z"/>
											</g>
										</g>
									</g>
								</g>
							</g>
						</g>
					</g>
				</g>
			</g>
		</g>
		<g>
			<g>
				<g>
					<g>
						<g>
							<path class="st20" d="M675.3,413.5l-11.7,0.5l-29.9-70.6l-5.7-79.9l26.9-3.1l0.3-0.1l1.4-0.3l0.1,0l4.7-0.9
								c-2,16.3-5,76.9-5,76.9s5,11.9,9,26.1C669.3,376.4,675.3,413.5,675.3,413.5z"/>
						</g>
					</g>
				</g>
			</g>
			<g>
				<g>
					<g>
						<g>
							<g>
								<path class="st8" d="M672.7,412.8c0,0-0.1,0-0.1,0c-0.4,0-0.7-0.3-0.7-0.6c-0.1-0.4-7.1-39.1-11.3-51.4
									c-2.8-8.1-9.7-24.3-9.7-24.4c0-0.1-0.1-0.2-0.1-0.3l4.4-75.5l1.4-0.3l-4.3,75.8c0.7,1.7,7.1,16.7,9.7,24.4
									c4.2,12.4,11.3,51.3,11.4,51.7C673.4,412.3,673.1,412.7,672.7,412.8z"/>
							</g>
						</g>
					</g>
				</g>
			</g>
			<g>
				<g>
					<g>
						<g>
							<g>
								<g>
									<path class="st18" d="M673.7,412l3.4,11.7c0,0-4,2.3-10,1.2l-3.4-13.7L673.7,412z"/>
								</g>
							</g>
						</g>
					</g>
				</g>
				<g>
					<g>
						<g>
							<g>
								<g>
									<path class="st13" d="M660.5,410.8c-0.6,2.8-0.4,4.9,1.7,6.6l16.4-1c0.5-2.3,0.3-4.5-0.6-6.7L660.5,410.8z"/>
								</g>
							</g>
						</g>
					</g>
				</g>
				<g>
					<g>
						<g>
							<g>
								<g>
									<g>
										<path d="M640.5,436.8c0.8,1.8,38.2-0.1,38.2-0.1s1.2-11.1,0-14.5c-1.2-3.4-6.6,0.4-10.3-0.4c0,0-2.2-3.1-4-3
											c-0.7,0-3,1.6-6,3.5c-0.5,0.3-1,0.6-1.5,1c-0.4,0.2-0.7,0.5-1.1,0.7c-0.6,0.4-1.2,0.8-1.8,1.2c-0.2,0.1-0.4,0.3-0.7,0.4h0
											c-0.5,0.4-1.1,0.7-1.6,1c-3.3,2-6.4,3.8-8.2,4.1C638.7,431.5,639.6,435,640.5,436.8z"/>
									</g>
								</g>
							</g>
						</g>
					</g>
					<g>
						<g>
							<g>
								<g>
									<g>
										<g>
											<g>
												<path class="st5" d="M654,425.1c0.6-0.1,1.3,0,2,0.4c1.6,0.8,2.9,3.1,2.9,3.1c0.1,0.2,0.2,0.3,0.4,0.3
													c0.2,0.1,0.4,0,0.5-0.1c0.3-0.2,0.4-0.6,0.3-0.9c-0.1-0.1-1.5-2.7-3.4-3.7c-0.3-0.2-0.6-0.3-0.9-0.4
													C654.8,424,654,424.2,654,425.1z"/>
											</g>
										</g>
									</g>
								</g>
							</g>
						</g>
						<g>
							<g>
								<g>
									<g>
										<g>
											<g>
												<path class="st5" d="M656.9,423.2c0.4,0,0.8,0.2,1.2,0.4c1.6,0.8,2.9,3.1,2.9,3.1c0.1,0.2,0.2,0.3,0.4,0.3
													c0.2,0.1,0.4,0,0.5-0.1c0.3-0.2,0.4-0.6,0.3-0.9c-0.1-0.1-1.5-2.7-3.4-3.7c-0.1-0.1-0.3-0.1-0.4-0.2
													C657.7,422.3,657,422.3,656.9,423.2z"/>
											</g>
										</g>
									</g>
								</g>
							</g>
						</g>
						<g>
							<g>
								<g>
									<g>
										<g>
											<g>
												<path class="st5" d="M651.7,426.5c0.5,0,1,0.1,1.6,0.4c1.6,0.8,2.9,3.1,2.9,3.1c0.1,0.2,0.2,0.3,0.4,0.3
													c0.2,0.1,0.4,0,0.5-0.1c0.3-0.2,0.4-0.6,0.3-0.9c-0.1-0.1-1.5-2.7-3.4-3.7c-0.2-0.1-0.4-0.2-0.6-0.3h0
													C652.3,425.4,651.6,425.7,651.7,426.5z"/>
											</g>
										</g>
									</g>
								</g>
							</g>
						</g>
					</g>
				</g>
			</g>
		</g>
		<g>
			<g>
				<g>
					<path class="st8" d="M608.7,150.1c2.5-6.4-1.7-14.6-1.7-14.6c3-0.9,10.7,3.8,12.4,13.4c0.1,0.4,0.1,0.8,0.2,1.2
						C616,150.6,612.3,150.5,608.7,150.1z"/>
				</g>
			</g>
		</g>
		<g>
			<g>
				<g>
					<g>
						<path class="st21" d="M661.2,260.5c-4.1,4.9-23.6,3.2-35.5,7.1c-11.9,3.9-19.1,2.6-20.5-1.1c-1.1-2.8-0.2-12.2,1.1-23.2
							c0.1-1,0.2-1.9,0.3-2.9c0.2-1.3,0.3-2.5,0.5-3.8c0.1-1,0.2-2,0.3-2.9c0-0.1,0-0.2,0-0.3c0-0.4,0.1-0.8,0.1-1.2
							c0.1-0.8,0.2-1.5,0.3-2.3c0.1-0.9,0.2-1.8,0.3-2.7c0-0.1,0-0.2,0-0.3c0-0.4,0.1-0.7,0.1-1.1c0.2-2.3,0.5-4.5,0.7-6.7
							c0-0.3,0.1-0.6,0.1-0.8c0-0.1,0-0.3,0-0.4c0-0.3,0-0.6,0.1-0.8c0.6-7.3,0.8-13.7,0.1-18c0-0.3-0.1-0.5-0.1-0.8v0
							c-1.3-8.8-1.2-16.3-1-24.8c0.1-6.5,0.6-8.6,1.4-11.3c1.2-3.8,8.9-13.8,15.6-14.9c4.8-0.8,9.8,0.2,14,2.8
							c5.4,3.3,12.4,8.8,15.6,15.4c1.2,2.6,1.8,5.6,2.1,8.9v0c0.5,6.2-0.3,13.4-0.7,20.8v0c-0.4,5.9-0.5,11.9,0.3,17.6
							c0.3,2.2,0.8,4.5,1.3,7.1c0.1,0.4,0.2,0.9,0.3,1.3c0.1,0.3,0.1,0.7,0.2,1c0.1,0.6,0.3,1.2,0.4,1.9c0.3,1.2,0.6,2.5,0.9,3.8
							c0.2,0.9,0.5,1.9,0.7,2.9c0.3,1.2,0.6,2.5,0.9,3.7c0.2,1,0.5,1.9,0.7,2.9C664.8,249.5,663.6,257.6,661.2,260.5z"/>
					</g>
				</g>
			</g>
			<g>
				<g>
					<path class="st2" d="M638.7,181c-0.1-0.3-0.4-0.6-0.7-0.5c-0.3,0.1-0.6,0.4-0.5,0.7c0.1,0.3,5.3,25.7,0.3,32.9
						c-2.4,0.3-20.1,2.3-28.7,3.1c0,0.3,0,0.5-0.1,0.8c0,0.1,0,0.3,0,0.5c9.1-0.9,29-3.1,29.2-3.1c0.2,0,0.3-0.1,0.4-0.2
						C644.2,207.8,638.9,182.1,638.7,181z"/>
				</g>
			</g>
			<g>
				<g>
					<g>
						<path class="st2" d="M611.4,249.9c-0.3,0-0.6-0.2-0.6-0.5c-0.1-0.3,0.1-0.7,0.5-0.7c0.2,0,15.6-3.4,23.3-18
							c0.2-0.3,0.5-0.4,0.9-0.3c0.3,0.2,0.4,0.5,0.3,0.9c-4.1,7.9-10.5,12.5-15.1,15c-5,2.7-8.9,3.5-9.1,3.6
							C611.5,249.9,611.4,249.9,611.4,249.9z"/>
					</g>
				</g>
			</g>
		</g>
		<g>
			<g>
				<g>
					<g>
						<g>
							<g>
								<path class="st18" d="M613.7,142.6c0,0,0.3,0.7,0.9,1.8c0,0.1,0.1,0.1,0.1,0.2c0,0,0,0,0,0c0.4,0.8,0.9,1.7,1.5,2.8
									c0.2,0.4,0.4,0.8,0.7,1.2c0.2,0.4,0.4,0.7,0.7,1.1c1.6,2.7,3.7,5.6,5.7,7.7c5.9-2.2,10-5.2,11.4-9.1c0,0-6.5-7.8-6.7-15.1
									L613.7,142.6z"/>
							</g>
						</g>
					</g>
				</g>
				<g>
					<g>
						<g>
							<path class="st22" d="M614.6,144.4c0,0.1,0.1,0.1,0.1,0.2c0,0,0,0,0,0c0.4,0.8,0.9,1.7,1.5,2.8c0.2,0.4,0.4,0.8,0.7,1.2
								c0.2,0.4,0.4,0.7,0.7,1.1c1.5-2.9,2-7.6,2-7.7L614.6,144.4z"/>
						</g>
					</g>
				</g>
			</g>
			<g>
				<g>
					<g>
						<g>
							<path class="st18" d="M604.1,142.3c0.1,0.6,0.2,1.1,0.3,1.6c0.7,3.4,2,4.5,4,4.3c3.4-0.4,18.4-8.9,24.1-14.8
								c5.7-5.8,1.3-15.7-5.3-17.1c-4.7-0.9-13.5,1.8-18.2,3.4c-2.3,0.8-4,2.7-4.6,5c-0.5,2.2-0.8,4.7-0.9,7.3v0c0,0,0,0,0,0
								c-0.1,0.1-2.1,3.7-2.5,4.4c-0.3,0.6,1.7,1,2.6,1.2c0,0.4,0.1,0.8,0.1,1.2L604.1,142.3z"/>
						</g>
					</g>
				</g>
			</g>
			<g>
				<g>
					<g>
						<g>
							<path class="st8" d="M609.2,129.8c0.1,0,0.2,0,0.3-0.1c0.3-0.2,0.4-0.5,0.2-0.8c-0.5-1-2.2-2.7-4.5-2
								c-0.3,0.1-0.5,0.4-0.4,0.7c0.1,0.3,0.4,0.5,0.7,0.4c2.1-0.6,3.2,1.4,3.2,1.5C608.8,129.7,609,129.8,609.2,129.8z"/>
						</g>
					</g>
				</g>
			</g>
			<g>
				<g>
					<g>
						<g>
							<path class="st5" d="M603.6,130.6c0,0.1,0,0.2,0,0.2c0,0.1,0,0.2,0,0.3c0.1,2.7,1.2,4.8,2.4,4.7c1.3,0,2.2-2.3,2.1-5.1
								c-0.1-2.8-1.1-5-2.4-5C604.5,125.8,603.6,127.9,603.6,130.6z M604.1,131.3c0-0.2,0-0.3,0-0.5c0,0,0-0.1,0-0.1
								c0-2.7,0.8-4.5,1.7-4.5c0.8,0,1.8,1.8,1.9,4.5c0.1,2.7-0.8,4.6-1.7,4.6C605.2,135.4,604.3,133.8,604.1,131.3z"/>
						</g>
					</g>
				</g>
				<g>
					<g>
						<g>
							<path class="st5" d="M607.9,130l8.3-1.7c0,0.2-0.3,0.3-0.3,0.4l-8,1.8c0,0,0,0,0,0c-0.1,0-0.2-0.1-0.2-0.2
								C607.6,130.1,607.8,130,607.9,130z"/>
						</g>
					</g>
				</g>
			</g>
			<g>
				<g>
					<g>
						<g>
							<path class="st22" d="M605.4,141.4c1.7,0,2.8-1.5,2.8-1.5c0.1-0.2,0.1-0.4-0.1-0.5c-0.2-0.1-0.4-0.1-0.5,0.1
								c0,0.1-1,1.5-2.6,1.2c-0.2,0-0.4,0.1-0.4,0.3c0,0.2,0.1,0.4,0.3,0.4C605.1,141.3,605.2,141.4,605.4,141.4z"/>
						</g>
					</g>
				</g>
			</g>
			<g>
				<g>
					<g>
						<path class="st22" d="M608,136.8c0.2,0.8,1.6,1.2,3.2,0.8c1.6-0.4,2.7-1.3,2.5-2.1c-0.2-0.8-1.6-1.2-3.2-0.8
							C609,135,607.8,136,608,136.8z"/>
					</g>
				</g>
			</g>
			<g>
				<g>
					<g>
						<g>
							<g>
								<g>
									<path class="st22" d="M618.2,133.7c0.2,0,0.3-0.1,0.4-0.3c0.4-2.7,2.4-4.1,2.4-4.2c0.2-0.1,0.2-0.4,0.1-0.6
										s-0.4-0.2-0.6-0.1c-0.1,0.1-2.3,1.7-2.7,4.7C617.8,133.5,617.9,133.7,618.2,133.7C618.2,133.7,618.2,133.8,618.2,133.7z"/>
								</g>
							</g>
						</g>
					</g>
				</g>
				<g>
					<g>
						<g>
							<g>
								<g>
									<path class="st22" d="M621.3,131.7c0.1,0,0.3-0.1,0.3-0.2c0.1-0.2,0-0.4-0.2-0.5c-0.1,0-1.4-0.7-2.4-0.4
										c-0.2,0-0.4,0.3-0.3,0.5c0,0.2,0.3,0.4,0.5,0.3c0.6-0.1,1.6,0.2,1.9,0.4C621.1,131.7,621.2,131.7,621.3,131.7z"/>
								</g>
							</g>
						</g>
					</g>
				</g>
			</g>
			<g>
				<g>
					<g>
						<g>
							<g>
								<path d="M604.7,123.5c2.3,2.2,7.1,5.2,11.2,5.2c0,0,3.1-5,7.1-1.8c4,3.1-1.2,10.5-5.5,9.5c0,0-1.5,5.2,2.4,9.5
									c15.2,20.1,22.8-0.6,22.8-0.6c1.1-8.1-8.6-15.9-8.7-16.3c0,0,8,0,8,0c-1.1-10-4.6-31.9-24.1-26.5
									c-9.7,2.7-12.6,13.8-13.4,16.5C603.8,121.2,604,122.8,604.7,123.5z"/>
							</g>
						</g>
					</g>
				</g>
			</g>
			<g>
				<g>
					<g>
						<path class="st5" d="M617.2,136.1c0,0.7,0.6,1.3,1.3,1.3s1.3-0.6,1.3-1.3c0-0.7-0.6-1.3-1.3-1.3S617.2,135.4,617.2,136.1z"/>
					</g>
				</g>
			</g>
		</g>
		<g>
			<g>
				<g>
					<g>
						<g>
							<g>
								<g>
									<path class="st7" d="M659.7,211.4c-0.4,2.8-1.1,5.7-2,8.5c-0.4,1.4-1,2.8-1.5,4.2c-0.6,1.4-1.2,2.7-1.9,4.1l-0.5,0.8
										c-1.5,2.7-4.4,4.2-7.3,4.2c-4.8,0-9.5,0-14.3-0.1c-4.8,0-9.5-0.1-14.3-0.2c-9.5-0.2-22.8-2.1-32.3-2.5
										c-1.4-0.2-1.7-1-1.5-4.1c0.1-2.8,2.3-5,5-5.2l0,0c9.3-0.9,18.7-2,28.1-3.2c4.7-0.6,9.4-1.2,14.1-1.8
										c2.7-0.4,5.4-0.7,8.1-1.1c0,0,0,0,0,0c0.1-0.3,0.2-0.6,0.3-0.9c0-0.1,0.1-0.2,0.1-0.3c0.5-1.7,0.9-3.5,1.2-5.3
										c0.6-3.9,0.7-8.1,0.4-12.3c-0.3-4.2-1-8.6-2.1-12.8c-0.5-2.1-1.1-4.3-1.8-6.4c-0.3-1-0.7-2.1-1-3.1c-0.2-0.5-0.4-1-0.6-1.5
										l-0.3-0.7l-0.2-0.6l-0.1-0.3c-2-4.9,0.3-10.4,5.2-12.4c4.8-2,10.3,0.3,12.4,5.1l0.3,0.6l0.2,0.5l0.4,1
										c0.2,0.6,0.5,1.3,0.7,1.9c0.5,1.3,0.9,2.5,1.3,3.8c0.8,2.5,1.5,5.1,2.1,7.7c1.2,5.2,2.1,10.4,2.5,15.9
										C660.6,200.1,660.6,205.7,659.7,211.4z"/>
								</g>
								<g>
									<g>
										<g>
											<g>
												<g>
													<path class="st18" d="M587.9,230.2c1.5-1,4-6.7,0.2-11.1c-3.5-4-3.5-5.6-6.4-8.2c-2.5-2.2-1.7,0.6-1,3.2
														c0.8,2.6,1.7,3.5-0.7,3.6c-2.4,0.1-12.1-3.6-14.7-3c-2.6,0.6,9.6,5.3,9.6,5.3s-10.9-2.3-11.8-1
														c-1.1,1.5,10.5,4.6,10.5,4.6s-9.6-0.6-9.7,0.1c-0.3,1.4,9.2,3.5,9.2,3.5s-6.6-0.1-6.2,1S580,232.5,587.9,230.2z"/>
												</g>
											</g>
										</g>
									</g>
								</g>
								<g>
									<g>
										<path class="st2" d="M658.1,222c-1.5,3.9-5.6,12.2-12.9,12.5c-0.8,0-1.7,0-2.8,0c-9.3,0-28.6-1-35-1.3
											c0-0.4,0.1-0.8,0.1-1.2c7.2,0.4,30.2,1.6,37.6,1.3c8.4-0.3,12.3-13.3,12.4-13.5c0,0,0,0,0-0.1c0.1,0.4,0.2,0.9,0.3,1.3
											C658,221.3,658,221.7,658.1,222z"/>
									</g>
								</g>
							</g>
						</g>
					</g>
				</g>
				<g>
					<g>
						<g>
							<g>
								<path class="st2" d="M647.9,218.7c-0.1,0.1-0.3,0.2-0.5,0.2c-0.1,0-0.3-0.1-0.4-0.2c0,0-3.6-3.2-7.8-3.7
									c0.1-0.3,0.2-0.6,0.3-0.9c0-0.1,0.1-0.2,0.1-0.3c0.5,0.1,1,0.2,1.5,0.3c0.6,0.2,1.1,0.4,1.6,0.6c2.9,1.2,4.9,3,5.1,3.1
									C648.1,218,648.2,218.4,647.9,218.7z"/>
							</g>
						</g>
					</g>
				</g>
				<g>
					<g>
						<g>
							<g>
								<path class="st2" d="M641.3,215.4c-0.2,0-0.4-0.1-0.5-0.3c-0.2-0.3-0.1-0.7,0.1-0.9c2.1-1.5,6.1-1.8,6.2-1.9
									c0.3,0,0.6,0.2,0.7,0.6c0,0.3-0.2,0.6-0.6,0.7c0,0-3.8,0.3-5.6,1.6C641.5,215.4,641.4,215.4,641.3,215.4z"/>
							</g>
						</g>
					</g>
				</g>
			</g>
		</g>
	</g>
</g>
<g>
	<g>
		<ellipse class="st1" cx="523.5" cy="434.8" rx="49.5" ry="5.9"/>
	</g>
	<g>
		<g>
			<path class="st75 move" d="M477.2,379.4h-15.4c-0.7,0-1.3-0.6-1.3-1.3c0-0.7,0.6-1.3,1.3-1.3h14.1v-49.5c0-0.7,0.6-1.3,1.3-1.3h45.3
				c0.7,0,1.3,0.6,1.3,1.3v10.7c0,0.7-0.6,1.3-1.3,1.3c-0.7,0-1.3-0.6-1.3-1.3v-9.5h-42.8v49.5C478.4,378.8,477.8,379.4,477.2,379.4
				z"/>
		</g>
		<g>
			<g>
				<path class="st3" d="M453.6,382.8h4.9c2.5,0,4.6-2.1,4.6-4.6v-0.3c0-2.5-2.1-4.6-4.6-4.6h-4.9V382.8z"/>
			</g>
		</g>
		<g>
			<g>
				<g>
					<g>
						<g>
							<g>
								<path class="st7" d="M494.1,345.4v86.2c0,1.9,1.5,3.4,3.4,3.4h50c1,0,1.8-0.4,2.4-1c0.6-0.6,1-1.5,1-2.4v-86.2
									c0-1.9-1.5-3.4-3.4-3.4h-50c-0.7,0-1.3,0.2-1.8,0.5C494.7,343.1,494.1,344.2,494.1,345.4z"/>
							</g>
						</g>
						<g>
							<g>
								<g>
									<path class="st3" d="M509.7,358.6H543c1.3,0,2.4-1.1,2.4-2.4l0,0c0-1.3-1.1-2.4-2.4-2.4h-33.4c-1.3,0-2.4,1.1-2.4,2.4l0,0
										C507.3,357.5,508.4,358.6,509.7,358.6z"/>
								</g>
							</g>
							<g>
								<g>
									<path class="st3" d="M509.7,369.4H543c1.3,0,2.4-1.1,2.4-2.4v0c0-1.3-1.1-2.4-2.4-2.4h-33.4c-1.3,0-2.4,1.1-2.4,2.4v0
										C507.3,368.3,508.4,369.4,509.7,369.4z"/>
								</g>
							</g>
							<g>
								<g>
									<path class="st3" d="M509.7,380.1H543c1.3,0,2.4-1.1,2.4-2.4l0,0c0-1.3-1.1-2.4-2.4-2.4h-33.4c-1.3,0-2.4,1.1-2.4,2.4l0,0
										C507.3,379.1,508.4,380.1,509.7,380.1z"/>
								</g>
							</g>
							<g>
								<g>
									<path class="st3" d="M509.7,390.9H543c1.3,0,2.4-1.1,2.4-2.4l0,0c0-1.3-1.1-2.4-2.4-2.4h-33.4c-1.3,0-2.4,1.1-2.4,2.4l0,0
										C507.3,389.8,508.4,390.9,509.7,390.9z"/>
								</g>
							</g>
							<g>
								<g>
									<path class="st3" d="M509.7,401.6H543c1.3,0,2.4-1.1,2.4-2.4l0,0c0-1.3-1.1-2.4-2.4-2.4h-33.4c-1.3,0-2.4,1.1-2.4,2.4l0,0
										C507.3,400.6,508.4,401.6,509.7,401.6z"/>
								</g>
							</g>
							<g>
								<g>
									<path class="st3" d="M509.7,412.4H543c1.3,0,2.4-1.1,2.4-2.4l0,0c0-1.3-1.1-2.4-2.4-2.4h-33.4c-1.3,0-2.4,1.1-2.4,2.4l0,0
										C507.3,411.3,508.4,412.4,509.7,412.4z"/>
								</g>
							</g>
							<g>
								<g>
									<path class="st3" d="M509.7,423.2H543c1.3,0,2.4-1.1,2.4-2.4l0,0c0-1.3-1.1-2.4-2.4-2.4h-33.4c-1.3,0-2.4,1.1-2.4,2.4l0,0
										C507.3,422.1,508.4,423.2,509.7,423.2z"/>
								</g>
							</g>
						</g>
						<g>
							<g>
								<g>
									<path class="st10" d="M500.5,354.9c0,0.6,0.5,1,1,1c0.6,0,1-0.5,1-1c0-0.6-0.5-1-1-1C501,353.9,500.5,354.3,500.5,354.9z"
										/>
								</g>
							</g>
							<g>
								<g>
									<path class="st3" d="M500.5,357.6c0,0.6,0.5,1,1,1c0.6,0,1-0.5,1-1s-0.5-1-1-1C501,356.6,500.5,357,500.5,357.6z"/>
								</g>
							</g>
							<g>
								<g>
									<path class="st5" d="M500.5,365.7c0,0.6,0.5,1,1,1c0.6,0,1-0.5,1-1c0-0.6-0.5-1-1-1C501,364.6,500.5,365.1,500.5,365.7z"/>
								</g>
							</g>
							<g>
								<g>
									<path class="st3" d="M500.5,368.4c0,0.6,0.5,1,1,1c0.6,0,1-0.5,1-1s-0.5-1-1-1C501,367.3,500.5,367.8,500.5,368.4z"/>
								</g>
							</g>
							<g>
								<g>
									<path class="st5" d="M500.5,387.2c0,0.6,0.5,1,1,1c0.6,0,1-0.5,1-1c0-0.6-0.5-1-1-1C501,386.2,500.5,386.6,500.5,387.2z"/>
								</g>
							</g>
							<g>
								<g>
									<path class="st3" d="M500.5,389.9c0,0.6,0.5,1,1,1c0.6,0,1-0.5,1-1c0-0.6-0.5-1-1-1C501,388.9,500.5,389.3,500.5,389.9z"/>
								</g>
							</g>
							<g>
								<g>
									<path class="st10" d="M500.5,376.4c0,0.6,0.5,1,1,1c0.6,0,1-0.5,1-1c0-0.6-0.5-1-1-1C501,375.4,500.5,375.9,500.5,376.4z"
										/>
								</g>
							</g>
							<g>
								<g>
									<path class="st3" d="M500.5,379.1c0,0.6,0.5,1,1,1c0.6,0,1-0.5,1-1c0-0.6-0.5-1-1-1C501,378.1,500.5,378.6,500.5,379.1z"/>
								</g>
							</g>
						</g>
						<g>
							<g>
								<g>
									<path class="st10" d="M500.5,397.9c0,0.6,0.5,1,1,1c0.6,0,1-0.5,1-1c0-0.6-0.5-1-1-1C501,396.9,500.5,397.4,500.5,397.9z"
										/>
								</g>
							</g>
							<g>
								<g>
									<path class="st3" d="M500.5,400.6c0,0.6,0.5,1,1,1c0.6,0,1-0.5,1-1s-0.5-1-1-1C501,399.6,500.5,400.1,500.5,400.6z"/>
								</g>
							</g>
							<g>
								<g>
									<path class="st5" d="M500.5,408.7c0,0.6,0.5,1,1,1c0.6,0,1-0.5,1-1s-0.5-1-1-1C501,407.7,500.5,408.1,500.5,408.7z"/>
								</g>
							</g>
							<g>
								<g>
									<path class="st3" d="M500.5,411.4c0,0.6,0.5,1,1,1c0.6,0,1-0.5,1-1c0-0.6-0.5-1-1-1C501,410.4,500.5,410.8,500.5,411.4z"/>
								</g>
							</g>
							<g>
								<g>
									<path class="st10" d="M500.5,419.4c0,0.6,0.5,1,1,1c0.6,0,1-0.5,1-1c0-0.6-0.5-1-1-1C501,418.4,500.5,418.9,500.5,419.4z"
										/>
								</g>
							</g>
							<g>
								<g>
									<path class="st3" d="M500.5,422.1c0,0.6,0.5,1,1,1c0.6,0,1-0.5,1-1c0-0.6-0.5-1-1-1C501,421.1,500.5,421.6,500.5,422.1z"/>
								</g>
							</g>
						</g>
					</g>
				</g>
			</g>
		</g>
		<g>
			<g>
				<path class="st10" d="M504.9,342h35.2l0,0c0-2.1-1.7-3.9-3.9-3.9h-27.4C506.7,338.1,504.9,339.8,504.9,342L504.9,342z"/>
			</g>
		</g>
	</g>
</g>
</svg>
