<?xml version="1.0" encoding="utf-8"?>
<!-- Generator: Adobe Illustrator 22.1.0, SVG Export Plug-In . SVG Version: 6.00 Build 0)  -->
<svg version="1.1" id="Layer_1" xmlns="http://www.w3.org/2000/svg" xmlns:xlink="http://www.w3.org/1999/xlink" x="0px" y="0px"
	 viewBox="0 0 1000 600" style="enable-background:new 0 0 1000 600;" xml:space="preserve">
<style type="text/css">
	.st0{fill:#FFFFFF;}
	.st1{clip-path:url(#SVGID_2_);}
	.st2{fill:#D9D9DC;}
	.st3{opacity:0.29;fill:#FFFFFF;}
	.st4{fill:url(#SVGID_3_);}
	.st5{fill:url(#SVGID_4_);}
	.st6{fill:url(#SVGID_5_);}
	.st7{fill:url(#SVGID_6_);}
	.st8{fill:url(#SVGID_7_);}
	.st9{fill:url(#SVGID_8_);}
	.st10{fill:url(#SVGID_9_);}
	.st11{fill:url(#SVGID_10_);}
	.st12{fill:url(#SVGID_11_);}
	.st13{fill:#1D134A;}
	.st14{fill:url(#SVGID_12_);}
	.st15{fill:url(#SVGID_13_);}
	.st16{fill:url(#SVGID_14_);}
	.st17{fill:url(#SVGID_15_);}
	.st18{fill:url(#SVGID_16_);}
	.st19{fill:url(#SVGID_17_);}
	.st20{fill:url(#SVGID_18_);}
	.st21{fill:url(#SVGID_19_);}
	.st22{fill:url(#SVGID_20_);}
	.st23{fill:url(#SVGID_21_);}
	.st24{fill:#004947;}
	.st25{fill:url(#SVGID_22_);}
	.st26{fill:url(#SVGID_23_);}
	.st27{fill:url(#SVGID_24_);}
	.st28{display:none;}
	.st29{display:inline;}
	.st30{clip-path:url(#SVGID_26_);}
	.st31{fill:url(#SVGID_27_);}
	.st32{fill:url(#SVGID_28_);}
	.st33{fill:url(#SVGID_29_);}
	.st34{fill:url(#SVGID_30_);}
	.st35{fill:url(#SVGID_31_);}
	.st36{fill:url(#SVGID_32_);}
	.st37{fill:url(#SVGID_33_);}
	.st38{fill:url(#SVGID_34_);}
	.st39{fill:url(#SVGID_35_);}
	.st40{fill:url(#SVGID_36_);}
	.st41{fill:url(#SVGID_37_);}
	.st42{fill:url(#SVGID_38_);}
	.st43{fill:url(#SVGID_39_);}
	.st44{fill:url(#SVGID_40_);}
	.st45{fill:url(#SVGID_41_);}
	.st46{fill:url(#SVGID_42_);}
	.st47{fill:url(#SVGID_43_);}
	.st48{fill:url(#SVGID_44_);}
	.st49{fill:url(#SVGID_45_);}
	.st50{fill:url(#SVGID_46_);}
	.st51{fill:url(#SVGID_47_);}
	.st52{fill:url(#SVGID_48_);}
	.st53{fill:url(#SVGID_49_);}
	.st54{fill:url(#SVGID_50_);}
	.st55{fill:url(#SVGID_51_);}
	.st56{fill:url(#SVGID_52_);}
	.st57{fill:url(#SVGID_53_);}
	.st58{opacity:0.78;fill:url(#SVGID_54_);}
	.st59{fill:url(#SVGID_55_);}
	.st60{opacity:0.3;}
	.st61{fill:#2150B1;}
	.st62{opacity:0.78;fill:url(#SVGID_56_);}
	.st63{fill:url(#SVGID_57_);}
	.st64{opacity:0.5;}
	.st65{fill:#EA5001;}
	.st66{opacity:0.78;fill:url(#SVGID_58_);}
	.st67{fill:url(#SVGID_59_);}
	.st68{opacity:0.4;}
	.st69{fill:#FD30AC;}
</style>
<g>
	<g>
		<path class="st0" d="M961.4,84.5c17.5,0,35.2,90.8,39.6,203.2c4.4,112.9-6.2,205-23.8,205.6c-0.1,0-0.1,0-0.2,0
			c-17.5,0-35.2-90.8-39.6-203.2c-4.4-112.9,6.2-205,23.8-205.6C961.2,84.5,961.3,84.5,961.4,84.5 M961.4,83.5c-0.1,0-0.2,0-0.2,0
			c-1.9,0.1-3.8,1.1-5.5,2.9c-15.1,16.3-23.2,102-19.2,203.7c2.1,54.4,7.4,105.6,14.9,144c5.4,27.5,14.2,60.2,25.7,60.2
			c0.1,0,0.2,0,0.2,0c1.9-0.1,3.8-1.1,5.5-2.9c15.1-16.3,23.2-102,19.2-203.7c-2.1-54.4-7.4-105.6-14.9-144
			C981.7,116.3,972.9,83.5,961.4,83.5L961.4,83.5z"/>
	</g>
	<g>
		<g>
			<defs>
				<path id="SVGID_1_" d="M977.2,493.4c17.6-0.7,28.2-92.7,23.8-205.6c-4.4-112.9-22.3-203.9-39.8-203.2l-314.8,44.3l78,231.9
					L977.2,493.4z"/>
			</defs>
			<clipPath id="SVGID_2_">
				<use xlink:href="#SVGID_1_"  style="overflow:visible;"/>
			</clipPath>
			<g class="st1">
				<g>
					<path class="st0" d="M839.8,215.8l10.5-1.1c6.6-0.7,11.4-6.6,10.7-13.1l-1.5-13.1c-0.7-6.5-6.7-11.2-13.3-10.5l-10.5,1.1
						c-6.6,0.7-11.4,6.6-10.7,13.1l1.5,13.1C827.2,211.8,833.2,216.5,839.8,215.8z"/>
					<g>
						<path class="st2" d="M844.2,214.3c-4.2,0-7.7-3.1-8.2-7.2l-2.1-18.8c-0.2-2.1,0.4-4.3,1.8-5.9c1.4-1.7,3.3-2.7,5.5-3l8-0.9
							c0.3,0,0.6,0,0.9,0c4.2,0,7.7,3.1,8.2,7.2l2.1,18.8c0.2,2.1-0.4,4.3-1.8,5.9c-1.4,1.7-3.3,2.7-5.5,3l-8,0.9
							C844.8,214.3,844.5,214.3,844.2,214.3L844.2,214.3z"/>
						<path class="st3" d="M850.1,179.4c3.7,0,6.8,2.7,7.3,6.4l2.1,18.8c0.2,1.9-0.3,3.8-1.6,5.3c-1.2,1.5-3,2.4-4.9,2.6l-8,0.9
							c-0.3,0-0.5,0-0.8,0c-3.7,0-6.8-2.7-7.3-6.4l-2.1-18.8c-0.4-3.9,2.5-7.5,6.5-7.9l8-0.9C849.6,179.5,849.9,179.4,850.1,179.4
							 M850.1,177.6c-0.3,0-0.7,0-1,0.1l-8,0.9c-5,0.5-8.7,5-8.1,9.9l2.1,18.8c0.5,4.6,4.5,8,9.1,8c0.3,0,0.7,0,1-0.1l8-0.9
							c5-0.5,8.7-5,8.1-9.9l-2.1-18.8C858.7,181,854.7,177.6,850.1,177.6L850.1,177.6z"/>
					</g>
				</g>
				<linearGradient id="SVGID_3_" gradientUnits="userSpaceOnUse" x1="706.5402" y1="204.4815" x2="724.0548" y2="204.4815">
					<stop  offset="0" style="stop-color:#741854"/>
					<stop  offset="1" style="stop-color:#FD30AC"/>
				</linearGradient>
				<path class="st4" d="M710.1,210.6l1.3,0.9c3.7,2.5,8.7,1.6,11.3-2.1l0,0c2.5-3.6,1.6-8.6-2.1-11l-1.3-0.9
					c-3.7-2.5-8.7-1.6-11.3,2.1l0,0C705.4,203.2,706.4,208.1,710.1,210.6z"/>
				<linearGradient id="SVGID_4_" gradientUnits="userSpaceOnUse" x1="791.663" y1="301.2159" x2="714.7082" y2="216.8819">
					<stop  offset="0" style="stop-color:#F28895"/>
					<stop  offset="1" style="stop-color:#FFB7A2"/>
				</linearGradient>
				<path class="st5" d="M691.3,199.6c9.8,12.1,26,62.6,56.7,84.2c1.7,1.2,3.5,2.2,5.4,2.9c15.8,6.2,34.3-5.5,34-23.3l-22.8-19.7
					l-51.3-44.3L691.3,199.6z"/>
				<g>
					<g>
						<linearGradient id="SVGID_5_" gradientUnits="userSpaceOnUse" x1="705.9526" y1="205.9333" x2="691.7782" y2="145.4558">
							<stop  offset="0" style="stop-color:#F28895"/>
							<stop  offset="1" style="stop-color:#FFB7A2"/>
						</linearGradient>
						<path class="st6" d="M711.7,208.9l-10.9,9.7c-19.7-18.2-15.1-37.9-17.3-48.3l31.9,3.2L711.7,208.9z"/>
						<linearGradient id="SVGID_6_" gradientUnits="userSpaceOnUse" x1="715.6396" y1="203.8055" x2="701.4653" y2="143.3282">
							<stop  offset="0" style="stop-color:#F28895"/>
							<stop  offset="1" style="stop-color:#FFB7A2"/>
						</linearGradient>
						<path class="st7" d="M700.7,135.1c2.2-1.2,4.9-0.3,6,1.9l8.9,19.2l1.6,21.4l-18.2,2.9l4.8-26l-5-14.5
							C698.2,138.2,699,136.1,700.7,135.1z"/>
						<linearGradient id="SVGID_7_" gradientUnits="userSpaceOnUse" x1="701.2778" y1="206.9934" x2="687.1191" y2="146.5827">
							<stop  offset="0" style="stop-color:#F28895"/>
							<stop  offset="1" style="stop-color:#FFB7A2"/>
						</linearGradient>
						<path class="st8" d="M680.7,143.7c1.9-1.6,4.8-1.2,6.2,0.8l12.4,17.3l5.6,20.8l-17.4,6.1l-0.2-26.4l-7.6-13.3
							C678.8,147.1,679.2,145,680.7,143.7z"/>
						<linearGradient id="SVGID_8_" gradientUnits="userSpaceOnUse" x1="711.0836" y1="204.7603" x2="696.9188" y2="144.3241">
							<stop  offset="0" style="stop-color:#F28895"/>
							<stop  offset="1" style="stop-color:#FFB7A2"/>
						</linearGradient>
						<path class="st9" d="M687.2,140.1c1.7-1.8,4.6-1.7,6.3,0.2l14,16l7.7,20.1l-16.7,7.7l-2.8-26.3l-8.9-12.6
							C685.6,143.8,685.8,141.6,687.2,140.1z"/>
						<linearGradient id="SVGID_9_" gradientUnits="userSpaceOnUse" x1="695.5748" y1="208.3397" x2="681.4029" y2="147.8729">
							<stop  offset="0" style="stop-color:#F28895"/>
							<stop  offset="1" style="stop-color:#FFB7A2"/>
						</linearGradient>
						<path class="st10" d="M671.5,154.2c1.5-1.9,4.4-2.2,6.3-0.5l15.8,14.3l10,19.2l-15.7,9.6l-5.9-25.8l-10.3-11.5
							C670.4,157.9,670.3,155.7,671.5,154.2z"/>
						<g>
							<g>
								<linearGradient id="SVGID_10_" gradientUnits="userSpaceOnUse" x1="697.2779" y1="184.6887" x2="716.6819" y2="185.1708">
									<stop  offset="0" style="stop-color:#F28895"/>
									<stop  offset="1" style="stop-color:#FFB7A2"/>
								</linearGradient>
								<path class="st11" d="M711.7,208.9l5.6-31.3l-10.3-16.6l-6.8,9.6l2,7.6C702.2,178.3,684.1,197.3,711.7,208.9z"/>
								<linearGradient id="SVGID_11_" gradientUnits="userSpaceOnUse" x1="697.7727" y1="165.378" x2="717.1721" y2="165.86">
									<stop  offset="0" style="stop-color:#F28895"/>
									<stop  offset="1" style="stop-color:#FFB7A2"/>
								</linearGradient>
								<path class="st12" d="M706.9,161.1l-11.5-0.9c-2.5-0.2-4.7,1.6-4.9,4v0c-0.2,2.2,1.2,4.2,3.3,4.7l6.3,1.7L706.9,161.1z"/>
							</g>
						</g>
					</g>
					<path class="st13" d="M711.7,168.2c-0.6-0.8-1.2-1.5-1.7-2.5c-0.5-0.9-0.9-1.7-1.4-2.6c-0.6-0.8-1.2-1.6-2.1-2
						c-1.1-0.6-2.4-0.7-3.6-0.8c-2.5-0.2-5.2-0.5-7.7-0.5c-2.2,0.1-4.2,0.9-5.1,3c-0.2,0.5,0.6,1,0.9,0.5c1.2-1.9,3.8-1.7,5.8-1.5
						c2.3,0.3,4.6,0.5,6.9,0.8c1,0.1,2,0.4,2.7,1.1c0.6,0.6,1,1.4,1.4,2.1c0.8,1.4,1.7,3,3.4,3.3C711.8,169.3,712,168.6,711.7,168.2
						z"/>
					<path class="st13" d="M698.7,195.2c-0.7-2.8-1-5.7-0.2-8.5c0.8-3.1,3.6-5.2,4.5-8.3c0.7-2.6,0.1-5.4-2.5-6.6
						c-1.5-0.7-3.1-0.8-4.6-1.5c-1.7-0.8-3.2-1.9-4.2-3.4c-0.4-0.6-1.4-0.1-1.1,0.6c1.3,3,3.5,4.8,6.6,5.8c1.4,0.4,3.5,0.8,4.1,2.4
						c0.5,1.4-0.2,3-1,4.2c-0.9,1.4-2,2.7-2.8,4.1c-0.6,1.2-1.1,2.5-1.4,3.8c-0.6,2.8-0.2,5.6,1.3,8.1
						C697.9,196.7,699,196,698.7,195.2z"/>
				</g>
				<linearGradient id="SVGID_12_" gradientUnits="userSpaceOnUse" x1="700.1452" y1="212.3957" x2="721.3417" y2="212.3957">
					<stop  offset="0" style="stop-color:#741854"/>
					<stop  offset="1" style="stop-color:#FD30AC"/>
				</linearGradient>
				<polygon class="st14" points="713.7,198.7 700.1,219.3 704.8,226.1 721.3,204.5 				"/>
				<linearGradient id="SVGID_13_" gradientUnits="userSpaceOnUse" x1="825.4272" y1="270.7928" x2="747.854" y2="185.7811">
					<stop  offset="0" style="stop-color:#F28895"/>
					<stop  offset="1" style="stop-color:#FFB7A2"/>
				</linearGradient>
				<path class="st15" d="M880.3,236.9c0,0-64.1,28.8-110.2,36.1l15.3,48l133.8-27.1L880.3,236.9z"/>
				<linearGradient id="SVGID_14_" gradientUnits="userSpaceOnUse" x1="793.2735" y1="299.441" x2="716.5844" y2="215.3983">
					<stop  offset="0" style="stop-color:#F28895"/>
					<stop  offset="1" style="stop-color:#FFB7A2"/>
				</linearGradient>
				<path class="st16" d="M785.5,321c-44.6-20-77.6-90.4-77.6-90.4l15.8-22.6l97.5,80.2L785.5,321z"/>
				<linearGradient id="SVGID_15_" gradientUnits="userSpaceOnUse" x1="956.5005" y1="386.5045" x2="1098.2085" y2="386.5045">
					<stop  offset="0" style="stop-color:#1D134A"/>
					<stop  offset="1" style="stop-color:#40168D"/>
				</linearGradient>
				<path class="st17" d="M956.5,358.6c0,0,11.2,62.2,36.1,121.3l105.6-103.9l-47.8-82.7L956.5,358.6z"/>
				<linearGradient id="SVGID_16_" gradientUnits="userSpaceOnUse" x1="889.3943" y1="184.3159" x2="1044.3245" y2="388.9028">
					<stop  offset="0" style="stop-color:#0CFDFD"/>
					<stop  offset="1" style="stop-color:#2150B1"/>
				</linearGradient>
				<path class="st18" d="M952.1,172.7c0,0,13.4,8.9,34.4,30.5c0.6,0.6,1.2,1.3,1.8,1.9c24.1,25.1,54.5,62,75.8,106
					c3,6.2,5.8,12.5,8.4,18.8l-114.3,56.6c-1.1-2.7-2.2-5.4-3.4-8c-12.8-29.1-27.1-50.3-41.2-65.8c-34.7-38.2-52.2-49.9-52.2-49.9
					l17.5-25.2l12.9-13.5c0,0,16.2-17.6,16.6-18c1.8-1.8,0.5-4.6,2.5-6.6C920.6,190,942.9,177.3,952.1,172.7z"/>
				<g>
					<linearGradient id="SVGID_17_" gradientUnits="userSpaceOnUse" x1="960.5805" y1="130.8108" x2="1115.9238" y2="335.9434">
						<stop  offset="0" style="stop-color:#0CFDFD"/>
						<stop  offset="1" style="stop-color:#2150B1"/>
					</linearGradient>
					<path class="st19" d="M952.1,172.7l34.8,54l34.5-8.9l10.6-2.2l3-6.4l-6.8-50.3c0,0-0.7,0-8.1,1.6c-2.1,0.4-4.3,0.9-6.4,1.4
						C968.7,171.9,952.1,172.7,952.1,172.7z"/>
					<path class="st3" d="M1021.3,217.8l14.2-3.1l-7.5-55.9c0,0-0.7,0-8.1,1.6c-2.1,0.4-4.3,0.9-6.4,1.4L1021.3,217.8z"/>
				</g>
				<linearGradient id="SVGID_18_" gradientUnits="userSpaceOnUse" x1="826.1775" y1="230.5382" x2="981.7166" y2="435.9295">
					<stop  offset="0" style="stop-color:#0CFDFD"/>
					<stop  offset="1" style="stop-color:#2150B1"/>
				</linearGradient>
				<polygon class="st20" points="835.7,316.1 908,299.5 884.6,234.8 880.3,236.9 814.8,260.4 				"/>
				<path class="st0" d="M913.4,196.8c1.1,0.2,2.1,0.5,3.1,0.9c8.1,2.8,14.2,9,17,16.7c0.8,2.2,1.3,4.6,1.5,7c0.2,2,0.1,4-0.2,6
					c-2.1,15.1-16.3,25.6-31.7,23.5c-10-1.3-18-7.6-21.8-16l12.9-13.5L913.4,196.8z"/>
				<g>
					<g>
						<g>
							<linearGradient id="SVGID_19_" gradientUnits="userSpaceOnUse" x1="871.2092" y1="208.1131" x2="923.4661" y2="208.1131">
								<stop  offset="0" style="stop-color:#F28895"/>
								<stop  offset="1" style="stop-color:#FFB7A2"/>
							</linearGradient>
							<path class="st21" d="M871.2,203.3l7.6,11l8.8,12.7l4.4,6.7c4.9,7.4,14.8,9.9,22.7,5.5l0,0c7.9-4.4,11-14,7-22l-21.5-42.5
								L871.2,203.3z"/>
						</g>
						<g>
							<path class="st13" d="M877.3,212.1l8.8,12.6c15.7-4.3,17.2-23.4,12-38C890.5,188.9,879,209.4,877.3,212.1z"/>
						</g>
					</g>
				</g>
				<g>
					<g>
						<g>
							<g>
								<g>
									<linearGradient id="SVGID_20_" gradientUnits="userSpaceOnUse" x1="839.2127" y1="183.2756" x2="909.8077" y2="183.2756">
										<stop  offset="0" style="stop-color:#F28895"/>
										<stop  offset="1" style="stop-color:#FFB7A2"/>
									</linearGradient>
									<path class="st22" d="M845.8,205.5c4.2,7.9,11.6,14.6,20.5,16.4c12.4,2.6,25.1-4.3,33-13.9c4.5-5.5,7.7-12.1,9.3-19
										c3.5-14.9-0.6-31.1-15-39.9c-9.8-6-27.1-7.1-39.1-1.6c-4.7,2.2-8.6,5.4-10.9,9.7C836.4,171.2,838.7,192.2,845.8,205.5z"/>
								</g>
								<linearGradient id="SVGID_21_" gradientUnits="userSpaceOnUse" x1="894.0743" y1="124.8902" x2="889.9004" y2="159.0176">
									<stop  offset="0" style="stop-color:#0CFDFD"/>
									<stop  offset="1" style="stop-color:#2150B1"/>
								</linearGradient>
								<path class="st23" d="M901.3,175.2c-13.4,5.4-6.7-21.3-6.7-21.3s-27.5,18.5-28.9-4.1l5.6-8.1c0,0,45.7-6.8,41,39.7l-7.5,1.7
									L901.3,175.2z"/>
								<g>
									<path class="st24" d="M850.5,184.4c0,1.9,1.2,3.5,2.8,3.6c1.6,0.1,2.8-1.4,2.9-3.3c0-1.9-1.2-3.5-2.8-3.6
										C851.8,181,850.6,182.5,850.5,184.4z"/>
								</g>
								<g>
									<path class="st24" d="M873.8,183.1c0,1.9,1.2,3.5,2.8,3.6s2.8-1.4,2.9-3.3c0-1.9-1.2-3.5-2.8-3.6
										C875.2,179.8,873.9,181.2,873.8,183.1z"/>
								</g>
								<g>
									<path class="st13" d="M857.3,191.2c1.1-4.7,2.4-9.3,3.8-13.8c0.1-0.4,0.8-0.3,0.7,0.1c-0.8,3.8-1.7,7.6-2.6,11.4
										c-0.5,1.8-1.2,3.8-1,5.8c0.2,1.6,1.5,2.6,2.8,3.4c0.3,0.2,0.4,0.7-0.1,0.9c-1.5,0.4-2.9-0.6-3.6-1.9
										C856.6,195.2,856.9,193.1,857.3,191.2z"/>
								</g>
								<path class="st24" d="M902.9,192.4l6-11.5l-1.4-1.1c-1.9-1.6-4-3.2-6.1-4.7C898.8,183.7,902.9,192.4,902.9,192.4z"/>
								<linearGradient id="SVGID_22_" gradientUnits="userSpaceOnUse" x1="882.8146" y1="123.5175" x2="878.642" y2="157.6347">
									<stop  offset="0" style="stop-color:#0CFDFD"/>
									<stop  offset="1" style="stop-color:#2150B1"/>
								</linearGradient>
								<path class="st25" d="M865.8,149.8c-16.3,14.3-22.1,7.5-22.1,7.5l-3.7,11.2c-16.2-6.8-11.1-44.2,16.4-30.6
									c-0.5-19.7,34-15.7,44.1,6.7c19.5-7.4,41.7,17.7,11,42c0,0-0.9-40.1-23-41.4C878.9,144.6,865.8,149.8,865.8,149.8z"/>
								<g>
									<linearGradient id="SVGID_23_" gradientUnits="userSpaceOnUse" x1="903.3589" y1="187.1698" x2="924.7996" y2="187.1698">
										<stop  offset="0" style="stop-color:#F28895"/>
										<stop  offset="1" style="stop-color:#FFB7A2"/>
									</linearGradient>
									<path class="st26" d="M911.8,176.6c2.8-1.8,6.8-2.3,9.5-0.3c2.3,1.6,3.2,4.5,3.5,7.2c0.3,3.5-0.4,7.2-2.3,10.2
										c-1.9,3-5.2,5.2-8.8,5.6c-3.6,0.4-7.4-1.3-9.2-4.4C900.9,189,906.7,179.8,911.8,176.6z"/>
								</g>
								<g>
									<path class="st24" d="M908.1,191.7c0.9-1.9,2.4-3.6,4.2-4.7c0.8-0.5,1.7-1,2.6-1.3c0.9-0.3,1.9-0.5,2.9-0.7
										c0.6-0.2,1,0.8,0.4,1.1c-0.4,0.2-0.8,0.3-1.1,0.6c-0.4,0.3-0.7,0.5-1,0.8c-0.3,0.3-0.7,0.6-1,0.9c-0.2,0.1-0.3,0.3-0.5,0.4
										c-0.1,0.2-0.4,0.3-0.5,0.5c0,0,0.1-0.1,0.1-0.1c0,0.1-0.1,0.1-0.1,0.2c-0.1,0.2-0.2,0.3-0.4,0.4c-0.1,0.1-0.2,0.2-0.2,0.3
										c0,0,0,0,0,0c-0.3,0.3-0.6,0.7-0.8,1.1c-0.5,0.8-1,1.5-1.4,2.3c-0.2,0.4-0.7,0.7-1.1,0.8c-0.4,0.1-1,0-1.3-0.2
										C907.8,193.5,907.7,192.6,908.1,191.7z"/>
								</g>
							</g>
						</g>
						<g>
							<path class="st24" d="M842.1,165.8c-4.2,7.4,15.4,4.9,13.5-0.4C854.2,161.4,843.8,162.7,842.1,165.8z"/>
						</g>
						<g>
							<path class="st24" d="M888.5,168c-0.2-3.8-9.7-4.2-12.1-2.7C869.9,169.3,889,175.3,888.5,168z"/>
						</g>
					</g>
					<g>
						<path class="st0" d="M880,196c-0.8-1.1-11.4,3.4-12,5.2c-0.3,1.1,3.8,4.4,8.3,2.4C880,201.9,880.9,197.2,880,196z"/>
					</g>
				</g>
				<path class="st3" d="M874.7,264c5.6,9.1,11.7,17.8,18.5,26c3.4,4.1,7,8.1,10.7,12c1.8,1.9,3.7,3.9,5.6,5.7
					c1.9,1.9,3.8,4.1,6.4,5.1c1.7,0.7,3.9-0.9,2.8-2.8c-1.3-2.2-3.5-3.8-5.5-5.4c-2-1.6-3.9-3.3-5.8-5c-3.9-3.6-7.7-7.4-11.3-11.3
					c-7.3-7.9-13.9-16.3-19.8-25.2C875.6,262.1,874,263,874.7,264z"/>
				<path class="st3" d="M993.5,260c-3.9,5.2-7.6,10.6-11.8,15.6c-4.4,5.2-9,10.2-13.9,15c-9.5,9.1-20.1,17.4-31.4,24.3
					c-1,0.6,0.1,2,1.1,1.4c11.7-6.9,22.7-14.8,32.6-24c9.7-8.9,19.2-19,26.2-30.1C997.6,260.2,994.9,258.1,993.5,260z"/>
				<path class="st3" d="M1000.4,303.7c-4.8,2.8-9.2,6-14.2,8.5c-5,2.5-10.2,4.7-15.5,6.6c-10.6,3.6-21.8,5.8-33,6.6
					c-1.7,0.1-1.3,2.6,0.3,2.5c11.6-0.4,23-2.3,34.1-5.7c5.5-1.7,10.9-3.7,16.2-6.1c5.2-2.3,10.8-4.9,15.4-8.2
					C1006.5,305.8,1003.3,301.9,1000.4,303.7z"/>
				<path class="st3" d="M982.9,204.8c-16.2,5.5-33,6.4-49.1-0.2c-1.1-0.5-1.8,1.2-0.7,1.7c12.4,5.6,27,8.3,40.8,6.6
					c-0.1,0.3,0,0.6,0.3,0.8c30.1,23.5,53.4,54.4,68.8,89.2c4.4,9.8,8,19.9,11.1,30.2c0.9,2.8,5,1.1,4.2-1.7
					c-10.2-37.1-31.6-70.6-58.6-97.7c-7.5-7.6-15.7-14.5-24.2-21c3.2-0.5,6.4-1.2,9.5-2.3C988.9,209.1,986.6,203.6,982.9,204.8z"/>
				<path class="st3" d="M1064.1,311.1c3,6.2,5.8,12.4,8.4,18.9l-114.3,56.6c-1.1-2.7-2.2-5.4-3.4-8L1064.1,311.1z"/>
				<polygon class="st0" points="835.7,316.1 852.5,312.2 826.3,255.8 814.8,260.4 				"/>
				<g>
					<path class="st0" d="M889.5,189.8l-48.4,5.9c-9.5,1.2-18.2-5.9-19.5-15.8v0c-1.2-9.9,5.4-18.8,15-19.9l48.4-5.9
						c9.5-1.2,18.2,5.9,19.5,15.8l0,0C905.7,179.7,899,188.6,889.5,189.8z"/>
					<path class="st3" d="M874.9,157.3L874.9,157.3c7.5,0,14,6.2,15,14.3c0.5,4.3-0.5,8.5-2.9,11.9c-2.4,3.3-5.8,5.4-9.7,5.9
						l-37.1,4.6c-0.5,0.1-1.1,0.1-1.6,0.1c-7.5,0-14-6.2-15-14.3c-1.1-8.8,4.5-16.8,12.6-17.8l37.1-4.6
						C873.8,157.3,874.3,157.3,874.9,157.3 M874.9,155.4c-0.6,0-1.2,0-1.9,0.1l-37.1,4.6c-9.1,1.1-15.5,10-14.2,19.8l0,0
						c1.2,9.2,8.5,16,16.9,16c0.6,0,1.2,0,1.9-0.1l37.1-4.6c9.1-1.1,15.5-10,14.2-19.8C890.6,162.2,883.2,155.4,874.9,155.4
						L874.9,155.4z"/>
					<path class="st2" d="M840.3,189.2l15.5-1.9l5.2-0.6l2.2-0.3l9-1.1l0.5-0.1c0.7-0.1,1.3-0.2,1.9-0.4c5.4-1.6,8.9-6.8,8.2-12.4
						c-0.8-6.3-6.6-10.7-13.1-10l-16.4,2l-9,1.1l-2.2,0.3l-4.7,0.6c-0.1,0-0.3,0-0.4,0.1c-0.5,0.1-1.1,0.2-1.5,0.3
						c-5.4,1.6-8.9,6.8-8.2,12.4C828,185.5,833.9,190,840.3,189.2z"/>
					<g>
						<polygon class="st0" points="842.7,164.1 864.3,188 874.7,186.7 853.1,162.8 						"/>
						<path class="st0" d="M834.3,165.1l21.6,23.9l5.9-0.7l-21.6-23.9l-5.5,0.7C834.6,165.1,834.4,165.1,834.3,165.1z"/>
					</g>
					<linearGradient id="SVGID_24_" gradientUnits="userSpaceOnUse" x1="863.3903" y1="599.3138" x2="856.9158" y2="336.0111">
						<stop  offset="0" style="stop-color:#741854"/>
						<stop  offset="1" style="stop-color:#FD30AC"/>
					</linearGradient>
					<path class="st27" d="M839.9,180.4l26.9-3.3c1.6-0.2,2.8-1.7,2.6-3.3l0,0c-0.2-1.6-1.7-2.7-3.3-2.5l-26.9,3.3
						c-1.6,0.2-2.8,1.7-2.6,3.3l0,0C836.8,179.5,838.3,180.6,839.9,180.4z"/>
				</g>
				<g>
					<path class="st0" d="M903.8,206l20.4-1c4-0.2,7-3.5,6.8-7.4l-1.2-22.7c-0.2-3.9-3.6-6.9-7.5-6.7l-20.4,1c-4,0.2-7,3.5-6.8,7.4
						l1.2,22.7C896.5,203.2,899.9,206.2,903.8,206z"/>
					<g>
						<path class="st0" d="M913.7,204.6c-4.4,0-8-3.4-8.2-7.7l-1-18.8c-0.1-2.2,0.6-4.2,2.1-5.8c1.5-1.6,3.5-2.5,5.7-2.7l8.1-0.4
							c0.1,0,0.3,0,0.4,0c4.4,0,8,3.4,8.2,7.7l1,18.8c0.1,2.2-0.6,4.2-2.1,5.8c-1.5,1.6-3.5,2.5-5.7,2.7l-8.1,0.4
							C914,204.6,913.8,204.6,913.7,204.6z"/>
						<path class="st3" d="M920.8,170.1c3.9,0,7.1,3,7.3,6.8l1,18.8c0.1,1.9-0.6,3.7-1.9,5.2c-1.3,1.4-3.1,2.3-5.1,2.4l-8.1,0.4
							c-0.1,0-0.3,0-0.4,0c-3.9,0-7.1-3-7.3-6.8l-1-18.8c-0.2-3.9,2.9-7.3,6.9-7.5l8.1-0.4C920.5,170.1,920.6,170.1,920.8,170.1
							 M920.8,168.3c-0.2,0-0.3,0-0.5,0l-8.1,0.4c-5.1,0.3-9,4.5-8.7,9.5l1,18.8c0.3,4.8,4.3,8.5,9.2,8.5c0.2,0,0.3,0,0.5,0l8.1-0.4
							c5.1-0.3,9-4.5,8.7-9.5l-1-18.8C929.7,172,925.6,168.3,920.8,168.3L920.8,168.3z"/>
					</g>
					<path class="st2" d="M920.5,175.4l-7.8,0.4c-1.5,0.1-2.7,1.3-2.6,2.8l0.9,17.2c0.1,1.5,1.4,2.6,2.9,2.5l7.8-0.4
						c1.5-0.1,2.7-1.3,2.6-2.8l-0.9-17.2C923.3,176.4,922,175.3,920.5,175.4z"/>
				</g>
			</g>
		</g>
	</g>
</g>
<g class="st28">
	<g class="st29">
		<path class="st0" d="M342.6,84.5c0.1,0,0.1,0,0.2,0c17.6,0.7,28.2,92.7,23.8,205.6c-4.4,112.5-22.1,203.2-39.6,203.2
			c-0.1,0-0.1,0-0.2,0c-17.6-0.7-28.2-92.7-23.8-205.6C307.4,175.2,325.1,84.5,342.6,84.5 M342.6,83.5L342.6,83.5
			c-11.5,0-20.3,32.8-25.7,60.2c-7.5,38.4-12.8,89.5-14.9,144c-4,101.7,4.1,187.4,19.2,203.7c1.7,1.9,3.6,2.9,5.5,2.9
			c0.1,0,0.2,0,0.2,0c11.5,0,20.3-32.8,25.7-60.2c7.5-38.4,12.8-89.5,14.9-144c4-101.7-4.1-187.4-19.2-203.7
			c-1.7-1.9-3.6-2.9-5.5-2.9C342.8,83.5,342.7,83.5,342.6,83.5L342.6,83.5z"/>
	</g>
	<g class="st29">
		<g>
			<defs>
				<path id="SVGID_25_" d="M326.8,493.4c-17.6-0.7-28.2-92.7-23.8-205.6c4.4-112.9,22.3-203.9,39.8-203.2L571.2,183l-59.8,177.8
					L326.8,493.4z"/>
			</defs>
			<clipPath id="SVGID_26_">
				<use xlink:href="#SVGID_25_"  style="overflow:visible;"/>
			</clipPath>
			<g class="st30">
				<g>
					<g>
						<g>
							<g>
								<linearGradient id="SVGID_27_" gradientUnits="userSpaceOnUse" x1="199.235" y1="491.8723" x2="342.9481" y2="374.5553">
									<stop  offset="0" style="stop-color:#741854"/>
									<stop  offset="1" style="stop-color:#FD30AC"/>
								</linearGradient>
								<path class="st31" d="M288,318.9c-5.5,1.8-10.9,4.6-16.2,8C222.9,356.6,137.7,478.5,132.1,486c-5.5,7.3-25.2,12.2-58.7,58.8
									c5.8,2.7,11.7,5.4,17.5,8.2c11.9,5.5,23.7,11.1,35.5,16.6c43.6-41.7,107-99.7,150-140.8c6.6,34.5,12.4,80.2,23.1,82.8
									c17.4,4.3,34.8-41.4,48.2-80.3c10.5-30.1,12.4-78.6,12.4-78.6L288,318.9z"/>
								<path class="st3" d="M266.7,381.1c-3.5,3.9-6.6,8.1-9.9,12.1c-3.3,4-6.6,8-10,12c-6.7,8-13.5,15.9-20.4,23.7
									c-13.7,15.7-27.7,31.2-41.9,46.5c-7.9,8.6-16,17-23.8,25.7c-0.6,0.6,0.5,1.6,1.1,1c15.3-14.1,29.7-29.3,43.9-44.5
									c14.3-15.4,28.1-31.1,41.6-47.1c3.8-4.5,7.5-8.9,11.2-13.5c3.8-4.6,7.7-9,11.2-13.8C271.3,381.3,268.3,379.4,266.7,381.1z"
									/>
							</g>
							<g>
								<path class="st3" d="M357.7,356.6c1.5-0.9,1.5-3.6-0.7-4.2c-10-2.5-20.1-4.7-29.7-8.5c-9.7-3.8-18.8-8.6-27.4-14.4
									c-4.9-3.3-9.3-7.1-13.8-10.9c-2-1.7-4.7,1.4-2.7,3.1c4.2,3.3,8.6,6.2,13.1,9.1c1.9,1.3,3.9,2.5,5.9,3.7
									c-0.3,0.1-0.6,0.3-0.8,0.6c-2.4,3.4-4.6,6.7-7.5,9.6c-2.9,2.9-6.3,5.3-9.9,7.3c-7.5,4.1-16.3,6.3-24.9,5.2
									c-4.8-0.6-9.6-2-14.1-3.9c-1.7-0.7-3,1.9-1.3,2.6c8.4,3.5,18,4,27,2.8c8.9-1.2,17.2-4.6,24.2-10.2
									c3.9-3.1,7.9-6.8,10.4-11.1c0.2-0.4,0.3-0.8,0.3-1.1c1.3,0.8,2.7,1.5,4,2.3c6.2,3.4,12.6,6.5,19,9.3c0,0.1-0.1,0.2-0.1,0.3
									c-1.9,6.3-4.7,12.4-7.4,18.5c-1.1,2.5-2.1,5.2-2.2,8c-0.1,2.3,0.5,5.7,2.9,6.9c0.8,0.4,2.1-0.1,2.2-1.1
									c0.1-1.5,0.9-2.8,1.4-4.1c0.5-1.3,1.1-2.5,1.7-3.8c1.1-2.4,2.2-4.9,3.3-7.3c2.1-4.7,4.1-9.3,6.2-14c0.7,0.3,1.4,0.5,2.1,0.8
									c5,1.8,10.1,3.5,15.3,4.6c0.4,5.7,0.9,11.5,1.5,17.2c0.3,3.2,0.6,6.3,0.9,9.5c0.1,1.6,0.3,3.1,0.4,4.7
									C357,387.9,358.8,370.3,357.7,356.6z M322.7,376.5c-0.3-1-0.5-2.1-0.5-3.1c0-2.8,1.2-5.7,2.2-8.3c2.1-5.4,4.3-10.8,7.1-16
									c0,0,0,0,0,0c1,0.4,1.9,0.8,2.9,1.2c-2,4.6-4,9.3-6,13.9c-1,2.5-2.1,4.9-3.1,7.4c-0.5,1.3-1.1,2.5-1.7,3.8
									c-0.2,0.5-0.4,1.1-0.7,1.6C322.9,376.8,322.8,376.7,322.7,376.5z"/>
							</g>
							
								<linearGradient id="SVGID_28_" gradientUnits="userSpaceOnUse" x1="734.9346" y1="2785.5791" x2="726.713" y2="2908.9038" gradientTransform="matrix(0.9016 0.4325 -0.4325 0.9016 988.1985 -2562.9639)">
								<stop  offset="0" style="stop-color:#0CFDFD"/>
								<stop  offset="1" style="stop-color:#2150B1"/>
							</linearGradient>
							<path class="st32" d="M420.5,239.2c14.7,10.3,32,54.8,41.7,82.8c4.4,12.6-3,26.2-16.1,29.8l0,0c-11,3-22.6-2.1-27.6-12.1
								l-33.2-65.9L420.5,239.2z"/>
							<path class="st3" d="M425.2,286.5c-0.8-0.5-2-0.5-3-0.5c-1-0.1-1.9-0.1-2.9-0.1c-2,0-3.9,0.3-5.8,0.7
								c-1.8,0.4-3.5,0.9-5.1,1.7c1.7-1.6,3.4-3.1,5.4-4.4c2-1.4,4.2-2.6,6.6-3.5c1.2-0.5,2.4-0.9,3.6-1.1c1.4-0.3,2.6-0.2,3.7-1.2
								c0.7-0.7,0.3-1.9-0.5-2.3c-1.3-0.6-2.6-0.1-3.8,0.3c-1.4,0.4-2.7,0.9-4,1.5c-2.5,1.1-4.9,2.5-7.1,4.2
								c-4.8,3.6-8.7,8.2-11.7,13.3c-0.4,0.6,0.6,1.2,1,0.7c1.1-1.3,2.2-2.5,3.3-3.8c2.8-1.5,5.8-2.8,9-3.4c1.7-0.3,3.5-0.5,5.3-0.4
								c0.9,0,1.8,0.1,2.7,0.2c0.9,0.1,1.9,0.5,2.9,0.4C426,288.6,426.2,287.1,425.2,286.5z"/>
							
								<linearGradient id="SVGID_29_" gradientUnits="userSpaceOnUse" x1="598.2762" y1="2777.5005" x2="589.987" y2="2901.8381" gradientTransform="matrix(0.9016 0.4325 -0.4325 0.9016 988.1985 -2562.9639)">
								<stop  offset="0" style="stop-color:#0CFDFD"/>
								<stop  offset="1" style="stop-color:#2150B1"/>
							</linearGradient>
							<path class="st33" d="M308,213.6c-21,18-73,78.3-73,78.3l49.7,17.6l46.8-48.9L308,213.6z"/>
							
								<linearGradient id="SVGID_30_" gradientUnits="userSpaceOnUse" x1="649.3831" y1="2780.0525" x2="641.0725" y2="2904.71" gradientTransform="matrix(0.9016 0.4325 -0.4325 0.9016 988.1985 -2562.9639)">
								<stop  offset="0" style="stop-color:#0CFDFD"/>
								<stop  offset="1" style="stop-color:#2150B1"/>
							</linearGradient>
							<path class="st34" d="M420.5,239.2c-11.5-8.3-54.1-24.8-54.1-24.8s-37.3-6.9-58.2-0.7c-3.8,4.8-20.1,44.7-20.3,105.2l72,33.8
								c14.4-35.2,27.4-33.8,37.3-51.7C407.2,283,402.8,263.3,420.5,239.2z"/>
							
								<linearGradient id="SVGID_31_" gradientUnits="userSpaceOnUse" x1="662.9916" y1="2779.7356" x2="654.6204" y2="2905.3027" gradientTransform="matrix(0.9016 0.4325 -0.4325 0.9016 988.1985 -2562.9639)">
								<stop  offset="0" style="stop-color:#0CFDFD"/>
								<stop  offset="1" style="stop-color:#2150B1"/>
							</linearGradient>
							<path class="st35" d="M360,352.7c0,0-38.7-3.3-72-33.8C288,318.9,322.8,320.1,360,352.7z"/>
							<path class="st3" d="M328.3,252c-0.5-2.5-1-5-1.7-7.5c-0.7-2.4-1.7-4.8-2.9-7c-1.1-2.1-2.7-4.5-4.7-5.8
								c-1.2-0.8-3.1,0.6-2,1.8c0.8,0.9,1.7,1.7,2.5,2.6c0.7,0.8,1.3,1.7,1.9,2.7c1.2,2,2.1,4.2,2.8,6.5c0.7,2.2,1.3,4.5,1.9,6.8
								c0.4,1.7,0.7,3.4,0.7,5.1c-0.4-0.7-1-1.4-1.5-2.1c-1-1.3-2-2.5-3.1-3.6c-2.1-2.3-4.3-4.6-6.8-6.5c-1.5-1.1-3.3,0.9-1.9,2.1
								c2.2,1.9,4.5,3.7,6.6,5.8c1,1,2,2.1,2.9,3.1c0.9,1,1.8,2,2.4,3.2c-6.1,6.1-12.2,12.3-18.6,18.2c-6.7,6.3-13.7,12.1-20.6,18.2
								c-1.3,1.2,0.2,3.5,1.7,2.4c7.3-5.7,14.1-12,20.7-18.4c6.3-6.1,12.5-12.4,18.3-19c0.4,0.2,1.1,0.1,1.3-0.6
								C329,257.3,328.8,254.6,328.3,252z"/>
							<g>
								<g>
									<path class="st24" d="M350.6,138.3C350.5,138.2,350.5,138.2,350.6,138.3L350.6,138.3z"/>
									
										<linearGradient id="SVGID_32_" gradientUnits="userSpaceOnUse" x1="643.7639" y1="2683.4209" x2="617.8817" y2="2732.9983" gradientTransform="matrix(0.9016 0.4325 -0.4325 0.9016 988.1985 -2562.9639)">
										<stop  offset="0" style="stop-color:#F9AE41"/>
										<stop  offset="1" style="stop-color:#EA5001"/>
									</linearGradient>
									<path class="st36" d="M387.9,130.7c-4.9,0.7-9.3,2.3-13.2,4.5c-0.3-3.4-1.1-6.7-2.8-9.7c-4.1-7.3-12.3-12.4-20.8-12.2
										c-9.1,0.1-17.6,5.9-20.7,14.4c-3.2,8.9,0.8,18.5,7.5,24.8c4.1,3.8,8.8,6.6,14.4,7.6c1.3,0.2,2.6,0.3,3.9,0.2
										c-2.7,11.7-0.5,25,8.2,36.2c0,0,30.9,14.5,56.1-1.5C448,177.5,438.6,123.2,387.9,130.7z"/>
								</g>
								
									<linearGradient id="SVGID_33_" gradientUnits="userSpaceOnUse" x1="682.2053" y1="2769.5361" x2="623.5403" y2="2766.1838" gradientTransform="matrix(0.9016 0.4325 -0.4325 0.9016 988.1985 -2562.9639)">
									<stop  offset="0" style="stop-color:#F28895"/>
									<stop  offset="1" style="stop-color:#FFB7A2"/>
								</linearGradient>
								<path class="st37" d="M408.7,199.3l-6.7,13.4l-7.7,15.4l-3.8,8.1c-4.2,9-14.9,13.2-24.3,9.6l0,0
									c-9.5-3.6-14.4-13.9-11.2-23.4l17.1-50.4L408.7,199.3z"/>
								<path class="st13" d="M403.6,209.9l-8.9,17.4c-19.6-6.1-23.9-20.2-23-33.3C380.4,195.3,403.6,209.9,403.6,209.9z"/>
								<g>
									<path class="st0" d="M435.8,214l-9.7-1.3c-7-0.9-11.9-7.2-11-14.1l1.7-12.4c0.9-6.9,7.4-11.7,14.4-10.8l9.7,1.3
										c7,0.9,11.9,7.2,11,14.1l-1.7,12.4C449.3,210.1,442.8,214.9,435.8,214z"/>
									<g>
										<path class="st2" d="M421,210.7c-3.7-1.8-5.9-5.6-5.3-9.7l2.3-16.9c0.3-2.5,1.6-4.7,3.7-6.2c2-1.5,4.5-2.2,7.1-1.8l6,0.8
											c1,0.1,2,0.4,2.9,0.8c3.7,1.8,5.9,5.6,5.3,9.7l-2.3,16.9c-0.7,5.1-5.5,8.7-10.7,8l-6-0.8C422.9,211.4,422,211.1,421,210.7
											z"/>
										<path class="st3" d="M437.2,178.5L437.2,178.5c3.4,1.6,5.3,5.1,4.8,8.7l-2.3,16.9c-0.6,4.6-5,7.9-9.7,7.3l-6-0.8
											c-0.9-0.1-1.8-0.4-2.6-0.8c-3.4-1.6-5.3-5.1-4.8-8.7l2.3-16.9c0.3-2.2,1.5-4.2,3.3-5.6c1.8-1.4,4.1-2,6.4-1.7l6,0.8
											C435.5,177.9,436.4,178.1,437.2,178.5 M438,176.9c-1-0.5-2-0.8-3.2-0.9l-6-0.8c-5.7-0.7-11,3.2-11.8,8.8l-2.3,16.9
											c-0.6,4.5,1.9,8.7,5.8,10.6c1,0.5,2,0.8,3.2,0.9l6,0.8c5.7,0.7,11-3.2,11.8-8.8l2.3-16.9C444.4,183,441.9,178.8,438,176.9
											L438,176.9z"/>
									</g>
								</g>
								
									<linearGradient id="SVGID_34_" gradientUnits="userSpaceOnUse" x1="656.5589" y1="2714.9387" x2="664.0605" y2="2760.782" gradientTransform="matrix(0.9016 0.4325 -0.4325 0.9016 988.1985 -2562.9639)">
									<stop  offset="0" style="stop-color:#F28895"/>
									<stop  offset="1" style="stop-color:#FFB7A2"/>
								</linearGradient>
								<path class="st38" d="M436.7,156.8c-2-4.6-5.8-8.2-10.4-10.7c-11.9-6.6-29.7-6.7-40.2-1.2c-15.3,7.9-20.8,24.2-18.3,39.7
									c1.1,7.2,3.8,14.2,8.1,20.1c7.4,10.4,19.9,18.4,32.8,16.6c9.3-1.3,17.3-7.5,22.3-15.4C439.2,192.8,443.1,171.5,436.7,156.8z
									"/>
								<path class="st24" d="M430.1,184.3c-0.1,1.9-1.4,3.5-2.8,3.5c-1.5,0-2.5-1.6-2.4-3.5c0.1-1.9,1.4-3.5,2.8-3.5
									C429.1,180.8,430.2,182.3,430.1,184.3z"/>
								<path class="st24" d="M408.4,182.4c-0.1,1.9-1.4,3.5-2.8,3.5c-1.5,0-2.5-1.6-2.4-3.5c0.1-1.9,1.4-3.5,2.8-3.5
									C407.4,178.9,408.5,180.5,408.4,182.4z"/>
								<path class="st13" d="M421.5,189.2c-1.1-4.8-2.4-9.5-3.8-14.3c-0.1-0.5-0.9-0.4-0.8,0.1c0.8,3.9,1.6,7.8,2.6,11.7
									c0.5,1.9,1.2,4,1,5.9c-0.2,1.6-1.5,2.7-2.9,3.4c-0.4,0.2-0.4,0.8,0,0.9c1.5,0.5,3-0.6,3.7-1.9
									C422.2,193.3,421.9,191.1,421.5,189.2z"/>
								
									<linearGradient id="SVGID_35_" gradientUnits="userSpaceOnUse" x1="656.8332" y1="2690.136" x2="630.8697" y2="2739.8689" gradientTransform="matrix(0.9016 0.4325 -0.4325 0.9016 988.1985 -2562.9639)">
									<stop  offset="0" style="stop-color:#F9AE41"/>
									<stop  offset="1" style="stop-color:#EA5001"/>
								</linearGradient>
								<path class="st39" d="M428.9,145.3c4.9-0.1,9.9,2.2,12.9,6c0.9,1.1,1.7,2.4,1.9,3.9c0.2,1.4-0.4,3-1.6,3.8
									c-1.6,1-3.8,0.4-5.3-0.8c-1.5-1.2-2.5-2.8-3.7-4.3c-1.2-1.4-3-2.7-4.9-2.6c1.6,1.4,3.8,3.1,4.4,5.1c0.6,2,0.4,4.3-0.9,5.9
									c-1.3,1.6-3.8,2.4-5.7,1.5c-2.4-1.1-3.1-4-3.5-6.5c-0.4-2.5-0.9-5.4-3.2-6.7c-1.7,1.6-2.3,3.9-2.2,6.2
									c0.1,2.3,0.5,4.5,0.2,6.8c-0.3,2.2-1.7,4.6-4,5.1c-1.8,0.4-3.7-0.4-5-1.7c-1.2-1.3-1.9-3.1-2.3-4.8
									c-0.7-3.6-0.3-7.5,1.2-10.9c-2.3,0.7-3.5,3.1-5.1,4.9c-1.6,1.8-3.5,3.7-5.9,3.8c-2.2,0.1-4.3-1.4-4.8-3.5
									c-0.6-2,0.5-4.4,2.4-5.4c0.4,2.3-0.2,5.1-1.3,7.1c-1.2,2-3.4,3.5-5.7,3.4c-2.3,0-4.6-1.8-4.9-4.1c2.1,3.6,3.4,8.2,3.4,12.3
									c0,1.9-0.3,3.8-1.3,5.4c-1,1.6-2.7,2.9-4.6,2.8c-1.9,0-3.8-1.6-3.7-3.5c0.7,0.7,0.8,0.6,1.1,1.6c0.9,4-1.4,8.5-5.2,10
									c-3.9,1.5-8.9-0.7-10.1-4.5c-2.1-6.6-1.6-13.5,1.4-19.8c5.5-11.4,16.1-20.3,28.5-23.8C403.7,134.7,418.1,138.5,428.9,145.3z
									"/>
								
									<linearGradient id="SVGID_36_" gradientUnits="userSpaceOnUse" x1="609.3308" y1="2747.23" x2="638.4367" y2="2747.23" gradientTransform="matrix(0.9016 0.4325 -0.4325 0.9016 988.1985 -2562.9639)">
									<stop  offset="0" style="stop-color:#F28895"/>
									<stop  offset="1" style="stop-color:#FFB7A2"/>
								</linearGradient>
								<path class="st40" d="M365.8,170.6c-3.4-2.2-8.1-2.9-11.5-0.6c-2.8,1.9-4,5.3-4.4,8.7c-0.5,4.3,0.2,8.7,2.5,12.4
									c2.3,3.7,6.1,6.5,10.5,7c4.3,0.5,9-1.4,11.3-5C378.5,186,371.8,174.6,365.8,170.6z"/>
								<path class="st24" d="M367.2,186.1c-2.2-4.2-5.9-6-10.4-7c-0.7-0.2-1.1,0.9-0.4,1.1c3.4,1.3,6.2,5.1,7.6,7.9
									c0.2,0.4,0.8,0.7,1.2,0.8c0.4,0.1,1,0,1.4-0.3C367.5,188.1,367.7,187.1,367.2,186.1z"/>
								<path class="st24" d="M438.7,167.7c-0.4-3.2-9.7-4.2-11.6-1.6C424.6,169.6,439.5,173.2,438.7,167.7z"/>
								<path class="st24" d="M405.6,165.2c-0.9-3.7-11.6-3.9-13.5-0.6C388.6,170.4,406.7,169.8,405.6,165.2z"/>
								<g>
									<path class="st0" d="M403.8,197.2c0.5-0.7,7.7,2.3,8,3.5c0.2,0.8-2.6,3-5.6,1.6C403.8,201.2,403.2,198,403.8,197.2z"/>
								</g>
							</g>
							<g>
								<g>
									<g>
										
											<linearGradient id="SVGID_37_" gradientUnits="userSpaceOnUse" x1="596.5521" y1="2917.447" x2="681.8596" y2="2835.0701" gradientTransform="matrix(0.9016 0.4325 -0.4325 0.9016 988.1985 -2562.9639)">
											<stop  offset="0" style="stop-color:#F28895"/>
											<stop  offset="1" style="stop-color:#FFB7A2"/>
										</linearGradient>
										<path class="st41" d="M363.9,281.7c-4.9,21.1-6,33.9-26.5,36.2l0.8-34.7L363.9,281.7z"/>
										
											<linearGradient id="SVGID_38_" gradientUnits="userSpaceOnUse" x1="587.2829" y1="2907.8958" x2="672.6011" y2="2825.5083" gradientTransform="matrix(0.9016 0.4325 -0.4325 0.9016 988.1985 -2562.9639)">
											<stop  offset="0" style="stop-color:#F28895"/>
											<stop  offset="1" style="stop-color:#FFB7A2"/>
										</linearGradient>
										<path class="st42" d="M375,257.8l-15.3-2.5c-1.4-0.2-2.8,0.2-3.9,1.1l-15,17.6c-1.7,2-2.6,4.5-2.6,7.1l-0.1,30.7
											c2.1-3.3,10.7-1.6,16.4-9.9c6.8-8.5,4.5-30.2,4.5-30.2l3.4-7.7l12.4-0.6c1.4-0.1,2.5-1.1,2.7-2.5
											C377.7,259.4,376.5,258.1,375,257.8z"/>
										
											<linearGradient id="SVGID_39_" gradientUnits="userSpaceOnUse" x1="586.132" y1="2907.969" x2="672.134" y2="2824.9214" gradientTransform="matrix(0.9016 0.4325 -0.4325 0.9016 988.1985 -2562.9639)">
											<stop  offset="0" style="stop-color:#F28895"/>
											<stop  offset="1" style="stop-color:#FFB7A2"/>
										</linearGradient>
										<path class="st43" d="M359.4,268.8c7.3,0.4,11,1.6,11.9,2.3c0.7,0.5,4.8,5.8,6.8,8.5c0.7,0.9,0.7,2.1-0.1,3l0,0
											c-0.8,1-2.3,1.2-3.4,0.4l-6.2-4.8l-10.8-1.7L359.4,268.8z"/>
										
											<linearGradient id="SVGID_40_" gradientUnits="userSpaceOnUse" x1="591.48" y1="2913.0195" x2="677.2564" y2="2830.1897" gradientTransform="matrix(0.9016 0.4325 -0.4325 0.9016 988.1985 -2562.9639)">
											<stop  offset="0" style="stop-color:#F28895"/>
											<stop  offset="1" style="stop-color:#FFB7A2"/>
										</linearGradient>
										<path class="st44" d="M357.6,276c8.5,1.7,14.2,6.6,14.6,7.5c0.3,0.6,1.3,4.8,2,7.5c0.3,1.2-0.4,2.4-1.7,2.7l0,0
											c-1.1,0.3-2.2-0.2-2.7-1.2l-1.9-3.9c-0.3-0.6-0.8-1-1.5-1.1l-7.1-1.3L357.6,276z"/>
										
											<linearGradient id="SVGID_41_" gradientUnits="userSpaceOnUse" x1="597.4984" y1="2919.3157" x2="683.3507" y2="2836.4126" gradientTransform="matrix(0.9016 0.4325 -0.4325 0.9016 988.1985 -2562.9639)">
											<stop  offset="0" style="stop-color:#F28895"/>
											<stop  offset="1" style="stop-color:#FFB7A2"/>
										</linearGradient>
										<path class="st45" d="M360.9,285.8c4.4,2.7,7.6,5.9,7.9,6.9c0.2,0.7,0.6,5,0.8,7.7c0.1,1.2-0.8,2.3-2.1,2.5l0,0
											c-1.1,0.1-2.2-0.6-2.5-1.6l-1.2-4.1c-0.2-0.6-0.7-1.1-1.3-1.3l-6.8-2.4L360.9,285.8z"/>
										<path class="st13" d="M357.6,268.3c-0.9-0.4-1.8-0.6-2.8-0.7c-1,0-2,0.1-3,0.4c-1.9,0.5-3.7,1.2-5.4,2.2
											c-0.3,0.2,0,0.7,0.3,0.5c1.6-0.9,3.5-1.5,5.3-1.7c0.9-0.1,1.8-0.1,2.7-0.1c1,0,1.9-0.1,2.8-0.2
											C357.7,268.7,357.8,268.4,357.6,268.3z"/>
									</g>
								</g>
								
									<linearGradient id="SVGID_42_" gradientUnits="userSpaceOnUse" x1="586.301" y1="2907.6704" x2="672.1404" y2="2824.7795" gradientTransform="matrix(0.9016 0.4325 -0.4325 0.9016 988.1985 -2562.9639)">
									<stop  offset="0" style="stop-color:#F28895"/>
									<stop  offset="1" style="stop-color:#FFB7A2"/>
								</linearGradient>
								<path class="st46" d="M337.4,317.9c-46.2,8.9-88.3,13.6-103.5-9.3c-4.3-6.5-2.6-15.2,3.6-20l0,0c3.7-2.8,8.4-3.8,12.9-2.8
									c18.9,4.2,70,9.8,89.5,11.7L337.4,317.9z"/>
							</g>
							<g>
								<path class="st0" d="M387,187.3l49.2,7.1c9.7,1.4,18.7-5.6,20.2-15.6v0c1.5-10-5.1-19.2-14.8-20.6l-49.2-7.1
									c-9.7-1.4-18.7,5.6-20.2,15.6l0,0C370.8,176.7,377.4,185.9,387,187.3z"/>
								<path class="st3" d="M446,161.3c6.1,2.9,9.7,10,8.6,17.3c-1.4,9-9.2,15.4-17.4,14.2l-37.7-5.5c-1.4-0.2-2.7-0.6-3.9-1.2
									c-6.1-2.9-9.7-10-8.6-17.3c1.4-9,9.2-15.4,17.4-14.2l37.7,5.5C443.5,160.3,444.8,160.7,446,161.3 M446.8,159.6
									c-1.4-0.6-2.9-1.1-4.4-1.3l-37.7-5.5c-9.2-1.3-18,5.7-19.5,15.7c-1.2,8.3,2.9,16,9.6,19.2c1.4,0.6,2.9,1.1,4.4,1.3l37.7,5.5
									c9.2,1.3,18-5.7,19.5-15.7l0,0C457.6,170.5,453.5,162.8,446.8,159.6L446.8,159.6z"/>
								<path class="st2" d="M437.2,187.8l-15.7-2.3l-5.2-0.8l-2.2-0.3l-9.2-1.3l-0.5-0.1c-0.7-0.1-1.3-0.3-2-0.5
									c-5.4-1.7-8.9-7.1-8.1-12.8c1-6.4,7-10.8,13.5-9.8l16.6,2.4l9.2,1.3l2.2,0.3l4.8,0.7c0.1,0,0.3,0,0.4,0.1
									c0.5,0.1,1.1,0.2,1.6,0.4c5.4,1.7,8.9,7.1,8.1,12.8C449.7,184.4,443.7,188.8,437.2,187.8z"/>
								<g>
									<polygon class="st0" points="435.3,162.2 412.7,186.1 402.2,184.5 424.7,160.6 									"/>
									<path class="st0" d="M443.9,163.5l-22.5,23.9l-6-0.9l22.6-23.9l5.5,0.8C443.6,163.4,443.7,163.4,443.9,163.5z"/>
								</g>
								
									<linearGradient id="SVGID_43_" gradientUnits="userSpaceOnUse" x1="686.9873" y1="3175.0398" x2="680.5442" y2="2913.0144" gradientTransform="matrix(0.9016 0.4325 -0.4325 0.9016 988.1985 -2562.9639)">
									<stop  offset="0" style="stop-color:#741854"/>
									<stop  offset="1" style="stop-color:#FD30AC"/>
								</linearGradient>
								<path class="st47" d="M437.8,178.9l-27.3-4c-1.7-0.2-2.8-1.8-2.6-3.4l0,0c0.2-1.6,1.8-2.8,3.5-2.5l27.3,4
									c1.7,0.2,2.8,1.8,2.6,3.4l0,0C441,178,439.4,179.1,437.8,178.9z"/>
							</g>
							<g>
								<path class="st0" d="M371.5,199.2l-20.1-1.5c-4.2-0.3-7.3-3.9-7-8l1.7-22.5c0.3-4.1,4-7.2,8.1-6.9l20.1,1.5
									c4.2,0.3,7.3,3.9,7,8l-1.7,22.5C379.4,196.4,375.7,199.5,371.5,199.2z"/>
								<g>
									<path class="st0" d="M350.9,196.2c-3.6-1.7-5.7-5.3-5.4-9.1l1.3-17c0.4-5.1,5-9,10.2-8.6l6,0.4c1.2,0.1,2.4,0.4,3.4,0.9
										c3.6,1.7,5.7,5.3,5.4,9.1l-1.3,17c-0.4,5.1-5,9-10.2,8.6l-6-0.4C353.1,197,352,196.7,350.9,196.2z"/>
									<path class="st3" d="M366,163.5L366,163.5c3.2,1.5,5.1,4.8,4.9,8.3l-1.3,17c-0.4,4.6-4.5,8.2-9.3,7.8l-6-0.4
										c-1.1-0.1-2.1-0.3-3.1-0.8c-3.2-1.5-5.1-4.8-4.9-8.3l1.3-17c0.2-2.3,1.2-4.3,3-5.8c1.7-1.5,4-2.2,6.3-2l6,0.4
										C364,162.8,365.1,163.1,366,163.5 M366.8,161.9c-1.1-0.5-2.4-0.9-3.8-1l-6-0.4c-5.8-0.4-10.8,3.8-11.2,9.5l-1.3,17
										c-0.3,4.3,2.1,8.2,5.9,10c1.1,0.5,2.4,0.9,3.8,1l6,0.4c5.8,0.4,10.8-3.8,11.2-9.5l1.3-17
										C373.1,167.6,370.6,163.7,366.8,161.9L366.8,161.9z"/>
								</g>
								<path class="st2" d="M355.9,167.7l7.2,0.5c1.7,0.1,3,1.6,2.9,3.3l-1.3,16.9c-0.1,1.7-1.6,3-3.3,2.8l-7.2-0.5
									c-1.7-0.1-3-1.6-2.9-3.3l1.3-16.9C352.7,168.8,354.2,167.6,355.9,167.7z"/>
							</g>
						</g>
					</g>
					
						<linearGradient id="SVGID_44_" gradientUnits="userSpaceOnUse" x1="11997.1904" y1="705.4392" x2="12012.9824" y2="705.4392" gradientTransform="matrix(-0.997 -7.740000e-02 -7.740000e-02 0.997 12528.042 488.455)">
						<stop  offset="0" style="stop-color:#741854"/>
						<stop  offset="1" style="stop-color:#FD30AC"/>
					</linearGradient>
					<path class="st48" d="M508.6,268.4l-1.2,0.7c-3.5,2-8,0.8-10-2.6l0,0c-2-3.4-0.8-7.8,2.7-9.8l1.2-0.7c3.5-2,8-0.8,10,2.6l0,0
						C513.3,262.1,512.1,266.5,508.6,268.4z"/>
					<g>
						<g>
							
								<linearGradient id="SVGID_45_" gradientUnits="userSpaceOnUse" x1="11996.6328" y1="706.7297" x2="11983.8389" y2="652.1427" gradientTransform="matrix(-0.997 -7.740000e-02 -7.740000e-02 0.997 12528.042 488.455)">
								<stop  offset="0" style="stop-color:#F28895"/>
								<stop  offset="1" style="stop-color:#FFB7A2"/>
							</linearGradient>
							<path class="st49" d="M507.3,266.8l9.1,9.5c19-15,16.3-33,19-42.2l-28.9,0.7L507.3,266.8z"/>
							
								<linearGradient id="SVGID_46_" gradientUnits="userSpaceOnUse" x1="12005.3516" y1="704.854" x2="11992.5586" y2="650.2672" gradientTransform="matrix(-0.997 -7.740000e-02 -7.740000e-02 0.997 12528.042 488.455)">
								<stop  offset="0" style="stop-color:#F28895"/>
								<stop  offset="1" style="stop-color:#FFB7A2"/>
							</linearGradient>
							<path class="st50" d="M522.4,201.2c-1.9-1.2-4.4-0.6-5.5,1.3l-9.4,16.6l-3,19.2l16.2,3.8l-2.4-23.7l5.5-12.7
								C524.5,204.1,523.9,202.2,522.4,201.2z"/>
							
								<linearGradient id="SVGID_47_" gradientUnits="userSpaceOnUse" x1="11992.4199" y1="707.6752" x2="11979.6445" y2="653.167" gradientTransform="matrix(-0.997 -7.740000e-02 -7.740000e-02 0.997 12528.042 488.455)">
								<stop  offset="0" style="stop-color:#F28895"/>
								<stop  offset="1" style="stop-color:#FFB7A2"/>
							</linearGradient>
							<path class="st51" d="M539.8,210.3c-1.6-1.6-4.2-1.4-5.7,0.3l-12.4,14.7l-6.5,18.3l15.2,6.7l2.1-23.7l7.8-11.5
								C541.3,213.5,541.1,211.6,539.8,210.3z"/>
							
								<linearGradient id="SVGID_48_" gradientUnits="userSpaceOnUse" x1="12001.2285" y1="705.6874" x2="11988.4463" y2="651.149" gradientTransform="matrix(-0.997 -7.740000e-02 -7.740000e-02 0.997 12528.042 488.455)">
								<stop  offset="0" style="stop-color:#F28895"/>
								<stop  offset="1" style="stop-color:#FFB7A2"/>
							</linearGradient>
							<path class="st52" d="M534.2,206.7c-1.4-1.7-4.1-1.8-5.7-0.3l-13.8,13.4l-8.3,17.6l14.5,8.1l4.4-23.4l8.9-10.7
								C535.4,210,535.4,208,534.2,206.7z"/>
							
								<linearGradient id="SVGID_49_" gradientUnits="userSpaceOnUse" x1="11987.2637" y1="708.8951" x2="11974.4727" y2="654.3207" gradientTransform="matrix(-0.997 -7.740000e-02 -7.740000e-02 0.997 12528.042 488.455)">
								<stop  offset="0" style="stop-color:#F28895"/>
								<stop  offset="1" style="stop-color:#FFB7A2"/>
							</linearGradient>
							<path class="st53" d="M547.3,220.3c-1.2-1.9-3.8-2.3-5.6-0.9l-15.2,11.8l-10.3,16.5l13.4,9.7l7.1-22.8l10.1-9.6
								C548.1,223.8,548.3,221.8,547.3,220.3z"/>
							<g>
								<g>
									
										<linearGradient id="SVGID_50_" gradientUnits="userSpaceOnUse" x1="11988.8203" y1="687.5814" x2="12006.2959" y2="688.0156" gradientTransform="matrix(-0.997 -7.740000e-02 -7.740000e-02 0.997 12528.042 488.455)">
										<stop  offset="0" style="stop-color:#F28895"/>
										<stop  offset="1" style="stop-color:#FFB7A2"/>
									</linearGradient>
									<path class="st54" d="M507.3,266.8l-2.8-28.5l10.5-14.2l5.4,9.1l-2.4,6.7C518,239.9,532.9,258.2,507.3,266.8z"/>
									
										<linearGradient id="SVGID_51_" gradientUnits="userSpaceOnUse" x1="11989.2256" y1="670.1493" x2="12006.71" y2="670.5837" gradientTransform="matrix(-0.997 -7.740000e-02 -7.740000e-02 0.997 12528.042 488.455)">
										<stop  offset="0" style="stop-color:#F28895"/>
										<stop  offset="1" style="stop-color:#FFB7A2"/>
									</linearGradient>
									<path class="st55" d="M515,224.1l10.4,0c2.3,0,4.1,1.7,4.1,4v0c0,2-1.4,3.7-3.3,4l-5.8,1.1L515,224.1z"/>
								</g>
							</g>
						</g>
						<path class="st13" d="M509.7,230.2c0.6-0.7,1.2-1.3,1.7-2.1c0.5-0.7,0.9-1.5,1.5-2.2c0.6-0.7,1.2-1.3,2-1.7
							c1-0.4,2.2-0.5,3.3-0.5c2.3,0,4.7-0.1,7,0.1c1.9,0.2,3.8,1.1,4.3,3.1c0.1,0.5-0.6,0.8-0.9,0.3c-0.9-1.8-3.3-1.8-5.1-1.7
							c-2.1,0.1-4.2,0.1-6.3,0.3c-0.9,0.1-1.8,0.2-2.5,0.8c-0.6,0.5-1,1.2-1.4,1.8c-0.8,1.2-1.7,2.6-3.3,2.7
							C509.6,231.2,509.4,230.5,509.7,230.2z"/>
						<path class="st13" d="M519.1,255.1c0.9-2.4,1.4-5,1-7.6c-0.4-2.9-2.7-5-3.2-7.8c-0.4-2.4,0.4-4.9,2.9-5.7
							c1.4-0.4,2.9-0.4,4.3-0.9c1.6-0.5,3.1-1.4,4.1-2.7c0.4-0.5,1.3,0.1,0.9,0.6c-1.5,2.5-3.6,4-6.5,4.6c-1.3,0.3-3.3,0.4-3.9,1.8
							c-0.6,1.2-0.1,2.7,0.5,3.9c0.7,1.3,1.5,2.6,2.1,4c0.5,1.1,0.8,2.3,0.9,3.5c0.3,2.6-0.4,5.1-1.9,7.1
							C519.7,256.6,518.8,255.8,519.1,255.1z"/>
					</g>
					
						<linearGradient id="SVGID_52_" gradientUnits="userSpaceOnUse" x1="11991.4473" y1="712.5671" x2="12010.5361" y2="712.5671" gradientTransform="matrix(-0.997 -7.740000e-02 -7.740000e-02 0.997 12528.042 488.455)">
						<stop  offset="0" style="stop-color:#741854"/>
						<stop  offset="1" style="stop-color:#FD30AC"/>
					</linearGradient>
					<polygon class="st56" points="506.2,257.5 516.9,277 512.3,282.7 498.9,262.2 					"/>
					
						<linearGradient id="SVGID_53_" gradientUnits="userSpaceOnUse" x1="12070.5059" y1="790.2289" x2="12001.5469" y2="714.6573" gradientTransform="matrix(-0.997 -7.740000e-02 -7.740000e-02 0.997 12528.042 488.455)">
						<stop  offset="0" style="stop-color:#F28895"/>
						<stop  offset="1" style="stop-color:#FFB7A2"/>
					</linearGradient>
					<path class="st57" d="M511.6,281.7L499.5,263L414.7,332c0,0,4.9,15.4,17.6,20.3C460.1,363,477.6,311.4,511.6,281.7z"/>
				</g>
			</g>
		</g>
	</g>
</g>
<g>
	<g>
		<g>
			<g>
				<linearGradient id="SVGID_54_" gradientUnits="userSpaceOnUse" x1="462.1663" y1="583.2181" x2="462.1663" y2="476.669">
					<stop  offset="0" style="stop-color:#FFFBFF;stop-opacity:0"/>
					<stop  offset="1" style="stop-color:#FFFFFF"/>
				</linearGradient>
				<path class="st58" d="M462.2,584c-30.1,0-54.6-24-54.6-53.4c0-29.4,24.5-53.4,54.6-53.4c30.1,0,54.6,24,54.6,53.4
					C516.7,560,492.3,584,462.2,584z"/>
				<g>
					<linearGradient id="SVGID_55_" gradientUnits="userSpaceOnUse" x1="490.5566" y1="468.8204" x2="439.8544" y2="579.1395">
						<stop  offset="0" style="stop-color:#0CFDFD"/>
						<stop  offset="1" style="stop-color:#2150B1"/>
					</linearGradient>
					<ellipse class="st59" cx="462.2" cy="530.6" rx="42.1" ry="41.2"/>
					<g class="st60">
						<path class="st61" d="M435.7,545.4c3.9-3.1,9.1-4.2,14.2-4.5c5-0.3,10.1,0.1,15.1-0.4c2.5-0.3,5-0.8,7.1-2.1
							c2.1-1.3,3.9-3.4,4.1-5.8c0.4-3.9-3.2-7.4-7.2-8.2c-4-0.8-8,0.4-11.7,2c-3.7,1.6-7.3,3.5-11.3,4.3c-5.6,1-11.2-0.6-16.2-2.8
							c-2.8-1.2-6-3.6-9.2-4.5c-0.4,2.3-0.6,4.7-0.6,7.1c0,8.1,2.4,15.7,6.6,22.1c0,0,0.1,0,0.1,0
							C430.5,551.4,432.7,547.9,435.7,545.4z"/>
						<path class="st61" d="M497.8,538.7c-9.9,6.4-21.6,10.2-33.4,10.7c-1.7,0.1-3.6,0.1-5.1,0.8c-1.6,0.7-2.9,2.3-2.6,4
							c0.5,2.6,4,3.3,6.7,3.1c13.5-0.8,26.1-6.5,38.2-12.3c1.4-3.5,2.2-7.3,2.5-11.2C501.7,535.3,499.4,537.7,497.8,538.7z"/>
						<path class="st61" d="M443,523.3c9.7-0.1,18.9-3.8,27.8-7.4c1-0.4,2-0.9,2.3-1.9c0.5-1.6-1.4-2.9-3.1-3.2
							c-9.1-1.8-18,6.3-27,4.4c-5.7-1.2-9.9-6-15.2-8.3c-2,2.8-3.6,5.8-4.9,9c1.3,1.2,2.6,2.2,3.4,2.8
							C431.1,521.9,437.1,523.4,443,523.3z"/>
						<path class="st61" d="M481,519c-1.2,1.5-2.2,3.2-2.3,5.1c-0.1,1.9,0.9,3.9,2.6,4.7c2,0.8,4.3,0,6-1.3c1.7-1.3,3.1-3,4.9-4.1
							c2.2-1.3,4.8-1.7,7.4-1.9c1.2-0.1,2.4-0.2,3.6-0.4c-0.9-3.9-2.4-7.5-4.4-10.9c-2.7,0.5-5,1.2-6.3,1.6
							C488.1,513.2,483.9,515.5,481,519z"/>
						<path class="st61" d="M445.2,506c5.9,1.2,12,0.9,18,0.5c7.2-0.4,14.6-0.9,21.1-3.9c1.6-0.7,3.3-1.8,3.7-3.5
							c0.1-0.3,0.1-0.7,0.1-1c-2.1-1.6-4.3-3-6.6-4.2c-2.1,0.3-4.2,1.2-6.2,2.1c-11.3,4.7-24.6,4.6-35.9-0.1c-2.1,1.3-4.1,2.9-6,4.6
							c0.1,0.1,0.2,0.2,0.3,0.3C437,503.5,441.1,505.1,445.2,506z"/>
						<path class="st61" d="M446.4,557.7c1.7-0.5,3.4-2,3.2-3.7c-0.2-1.5-1.7-2.6-3.2-2.8c-1.5-0.2-3.1,0.3-4.5,0.8
							c-4.1,1.5-7.6,3.8-11.4,5.8c1.3,1.5,2.8,2.9,4.3,4.1c1.9-1.5,3.9-2.9,6.3-3.4C442.9,558.1,444.7,558.2,446.4,557.7z"/>
						<path class="st61" d="M471.9,562.6c-0.1-0.9-0.9-1.6-1.8-1.9c-0.9-0.3-1.9-0.1-2.8,0c-8,1.2-15.5,3.8-22.7,7.4
							c3.1,1.4,6.5,2.5,10,3.1c4.8-1.9,9.6-3.8,14.4-5.6C470.4,565,472.1,564,471.9,562.6z"/>
					</g>
				</g>
			</g>
		</g>
	</g>
	<g>
		<linearGradient id="SVGID_56_" gradientUnits="userSpaceOnUse" x1="827.7218" y1="505.2418" x2="827.7218" y2="431.2263">
			<stop  offset="0" style="stop-color:#FFFBFF;stop-opacity:0"/>
			<stop  offset="1" style="stop-color:#FFFFFF"/>
		</linearGradient>
		<ellipse class="st62" cx="827.7" cy="468.2" rx="37.8" ry="37"/>
		<g>
			<linearGradient id="SVGID_57_" gradientUnits="userSpaceOnUse" x1="843.0602" y1="429.8453" x2="815.4171" y2="499.0304">
				<stop  offset="0" style="stop-color:#F9AE41"/>
				<stop  offset="1" style="stop-color:#EA5001"/>
			</linearGradient>
			<ellipse class="st63" cx="827.7" cy="468.2" rx="28.2" ry="27.6"/>
			<g class="st64">
				<path class="st65" d="M843.7,470.7c0.4-0.6,0.8-1,1.2-1.3c0.4-0.4,0.9-0.6,1.3-0.9l1.4-0.9c0.5-0.3,1-0.6,1.6-0.9l0,0
					c0.2-0.1,0.5,0,0.7,0.2c0.1,0.1,0.1,0.2,0,0.3c-0.2,0.6-0.5,1.2-0.9,1.8c-0.4,0.5-0.8,1-1.3,1.4c-0.5,0.4-1.1,0.8-1.7,1
					c-0.6,0.2-1.3,0.3-2,0.2c-0.3-0.1-0.5-0.3-0.4-0.6C843.6,470.9,843.7,470.8,843.7,470.7L843.7,470.7z"/>
				<path class="st65" d="M801.1,465.1c0.7,0.1,1.2,0.3,1.8,0.5c0.3,0.1,0.5,0.2,0.8,0.3c0.3,0.2,0.5,0.3,0.8,0.7l0,0
					c0.2,0.3,0.1,0.6-0.1,0.8c0,0,0,0-0.1,0c-0.4,0.2-0.8,0.2-1.1,0.2c-0.4,0-0.7-0.2-1-0.3c-0.6-0.3-1.2-0.8-1.6-1.5
					c-0.1-0.2,0-0.5,0.2-0.7C800.9,465.1,801,465.1,801.1,465.1L801.1,465.1z"/>
				<path class="st65" d="M839.9,457.4c1-0.8,1.9-1.5,2.7-2.3c0.8-0.8,1.6-1.7,2.4-2.6l0,0c0.3-0.3,0.7-0.3,1.1-0.1
					c0.2,0.2,0.3,0.5,0.2,0.7c-0.3,1.4-1.1,2.6-2.2,3.5c-1,0.9-2.3,1.7-3.7,1.9c-0.3,0.1-0.7-0.2-0.7-0.5
					C839.6,457.7,839.7,457.5,839.9,457.4L839.9,457.4z"/>
				<path class="st65" d="M828,443.8c0.1,0.9-1.5,1.9-3.7,2.3c-2.2,0.3-4.1-0.1-4.3-1c-0.1-0.9,1.5-1.9,3.7-2.3
					C826,442.4,827.9,442.9,828,443.8z"/>
				<path class="st65" d="M817.8,478.7c3.6,0,7.2-0.4,10.7-1.3c3.5-0.8,6.8-2.2,9.9-3.9c0.2-0.1,0.3-0.3,0.2-0.5
					c-0.1-0.2-0.3-0.4-0.6-0.3c-3.3,1.1-6.7,1.8-10,2.3c-3.4,0.5-6.8,0.6-10.1,0.4c-3.4-0.2-6.7-0.6-10-1.5
					c-2.7-0.6-5.3-1.3-8.2-1.9c0.1,0.8,0.3,1.7,0.5,2.5c2.1,1.3,4.4,2.2,6.8,2.9C810.5,478.2,814.2,478.7,817.8,478.7z"/>
				<path class="st65" d="M851.5,473.8c-3,2.4-6.4,4.4-9.9,5.9c-1.8,0.7-3.6,1.4-5.5,1.9c-1.9,0.5-3.8,0.9-5.8,1.2
					c-3.9,0.6-7.9,0.8-12,0.9c-0.2,0-0.4,0.1-0.4,0.3c-0.1,0.2,0.1,0.5,0.3,0.5c4,1,8.2,1.3,12.4,1c2.1-0.1,4.2-0.4,6.3-0.9
					c2.1-0.4,4.1-1.1,6.1-1.9c4-1.5,7.6-3.9,10.7-6.8c0.6-0.6,1.2-1.2,1.7-1.9c0.3-1.5,0.6-3.1,0.6-4.6
					C854.5,471.1,853.1,472.5,851.5,473.8z"/>
				<path class="st65" d="M826.4,492.4c2.1-0.3,4.1-1,5.9-2.1c0.1-0.1,0.2-0.2,0.2-0.4c0-0.3-0.2-0.5-0.5-0.5c-2.1,0-4,0.2-6,0.3
					c-2,0.2-3.9,0.3-5.9,0.3c-3.7,0-7.4-0.5-11.2-1.2c1,0.9,2,1.6,3.1,2.3c2.6,0.8,5.3,1.3,8,1.4
					C822.2,492.8,824.3,492.7,826.4,492.4z"/>
				<path class="st65" d="M810.5,449.9c0.6,0.7,1.5,1.2,2.3,1.6c0.8,0.3,1.6,0.5,2.4,0.7c1.5,0.3,3.1,0.5,4.7,0.6
					c3.2,0.1,6.3-0.5,9.3-1.6c2.9-1.1,5.7-2.7,7.9-4.9c0.2-0.1,0.2-0.4,0.1-0.6c-0.1-0.2-0.4-0.3-0.6-0.1l0,0
					c-2.5,1.6-5.2,2.8-8,3.6c-2.8,0.8-5.7,1.2-8.6,1.1c-1.4,0-2.9-0.2-4.3-0.5c-1.4-0.2-2.8-0.6-3.5-1.3c-0.7-0.6-0.9-1.7-0.8-2.8
					c-0.7,0.5-1.3,0.9-1.9,1.5c0,0.1,0,0.1,0,0.2C809.6,448.2,809.9,449.1,810.5,449.9z"/>
				<path class="st65" d="M804.9,458.6c1.9,1.4,4.1,2,6.2,2.5c2.1,0.4,4.2,0.7,6.3,0.8c4.3,0.2,8.6-0.4,12.7-2
					c4-1.6,7.6-4.2,9.9-7.7c0.1-0.2,0.1-0.4,0-0.5c-0.2-0.2-0.5-0.2-0.6,0l0,0c-3,2.7-6.5,4.6-10.2,5.8c-3.7,1.2-7.6,1.6-11.6,1.5
					c-2-0.1-4-0.3-5.9-0.6c-1.9-0.3-3.8-0.8-5.3-1.7c-1.1-0.7-2.1-1.7-2.6-2.9c-0.5,0.7-0.9,1.5-1.3,2.2c0,0.1,0.1,0.1,0.1,0.2
					C803.2,457,804,457.9,804.9,458.6z"/>
				<path class="st65" d="M845.4,460.3c-0.9,0.5-1.8,1-2.7,1.4c-0.9,0.5-1.9,0.9-2.8,1.3c-1.9,0.8-3.8,1.5-5.8,2.1
					c-2,0.6-4,1.1-6,1.5c-2,0.4-4,0.6-6.1,0.7c-4.1,0.2-8-0.1-12.4,0.2l0,0c-0.1,0-0.3,0.1-0.4,0.2c-0.1,0.2-0.1,0.5,0.2,0.6
					c1,0.6,2,1.1,3,1.4c1,0.4,2.1,0.6,3.2,0.8c2.2,0.4,4.4,0.4,6.6,0.2c4.4-0.3,8.7-1.2,12.8-2.7c4.1-1.5,8-3.4,11.6-5.9
					c1.8-1.2,3.5-2.7,4.8-4.6c0.5-0.7,0.9-1.5,1.3-2.3c-0.3-0.5-0.6-1-0.9-1.5c-0.5,1-1.1,1.9-1.8,2.7
					C848.8,458.1,847.1,459.3,845.4,460.3z"/>
				<path class="st65" d="M806.8,484.5c0.9,0.2,1.7,0.4,2.6,0.5c0.9,0.1,1.8,0,2.7-0.2c0.3-0.1,0.5-0.3,0.6-0.5
					c0.2-0.5-0.1-0.9-0.5-1.1l0,0c-0.8-0.3-1.6-0.5-2.4-0.6c-0.8-0.2-1.6-0.3-2.3-0.5l-2.4-0.5c-0.8-0.1-1.5-0.3-2.3-0.4
					c0.4,0.8,0.9,1.5,1.3,2.2c0.1,0.1,0.2,0.1,0.3,0.2C805.2,484,806,484.3,806.8,484.5z"/>
			</g>
		</g>
	</g>
	<g>
		<linearGradient id="SVGID_58_" gradientUnits="userSpaceOnUse" x1="584.1636" y1="105.0154" x2="584.1636" y2="31">
			<stop  offset="0" style="stop-color:#FFFBFF;stop-opacity:0"/>
			<stop  offset="1" style="stop-color:#FFFFFF"/>
		</linearGradient>
		<ellipse class="st66" cx="584.2" cy="68" rx="37.8" ry="37"/>
		<g>
			<linearGradient id="SVGID_59_" gradientUnits="userSpaceOnUse" x1="565.0267" y1="93.4359" x2="604.1182" y2="36.9845">
				<stop  offset="0" style="stop-color:#741854"/>
				<stop  offset="1" style="stop-color:#FD30AC"/>
			</linearGradient>
			<ellipse class="st67" cx="583.1" cy="67.3" rx="28.2" ry="27.6"/>
			<g class="st68">
				<path class="st69" d="M599.1,69.8c0.4-0.6,0.8-1,1.2-1.3c0.4-0.4,0.9-0.6,1.3-0.9l1.4-0.9c0.5-0.3,1-0.6,1.6-0.9l0,0
					c0.2-0.1,0.5,0,0.7,0.2c0.1,0.1,0.1,0.2,0,0.3c-0.2,0.6-0.5,1.2-0.9,1.8c-0.4,0.5-0.8,1-1.3,1.4c-0.5,0.4-1.1,0.8-1.7,1
					c-0.6,0.2-1.3,0.3-2,0.2c-0.3-0.1-0.5-0.3-0.4-0.6C599.1,69.9,599.1,69.9,599.1,69.8L599.1,69.8z"/>
				<path class="st69" d="M556.5,64.2c0.7,0.1,1.2,0.3,1.8,0.5c0.3,0.1,0.5,0.2,0.8,0.3c0.3,0.2,0.5,0.3,0.8,0.7l0,0
					c0.2,0.3,0.1,0.6-0.1,0.8c0,0,0,0-0.1,0c-0.4,0.2-0.8,0.2-1.1,0.2c-0.4,0-0.7-0.2-1-0.3c-0.6-0.3-1.2-0.8-1.6-1.5
					c-0.1-0.2,0-0.5,0.2-0.7C556.3,64.2,556.4,64.2,556.5,64.2L556.5,64.2z"/>
				<path class="st69" d="M595.3,56.4c1-0.8,1.9-1.5,2.7-2.3c0.8-0.8,1.6-1.7,2.4-2.6l0,0c0.3-0.3,0.7-0.3,1.1-0.1
					c0.2,0.2,0.3,0.5,0.2,0.7c-0.3,1.4-1.1,2.6-2.2,3.5c-1,0.9-2.3,1.7-3.7,1.9c-0.3,0.1-0.7-0.2-0.7-0.5
					C595,56.8,595.1,56.6,595.3,56.4L595.3,56.4z"/>
				<path class="st69" d="M583.4,42.8c0.1,0.9-1.5,1.9-3.7,2.3c-2.2,0.3-4.1-0.1-4.3-1c-0.1-0.9,1.5-1.9,3.7-2.3
					C581.4,41.5,583.3,41.9,583.4,42.8z"/>
				<path class="st69" d="M573.2,77.7c3.6,0,7.2-0.4,10.7-1.3c3.5-0.8,6.8-2.2,9.9-3.9c0.2-0.1,0.3-0.3,0.2-0.5
					c-0.1-0.2-0.3-0.4-0.6-0.3c-3.3,1.1-6.7,1.8-10,2.3c-3.4,0.5-6.8,0.6-10.1,0.4c-3.4-0.2-6.7-0.6-10-1.5
					c-2.7-0.6-5.3-1.3-8.2-1.9c0.1,0.8,0.3,1.7,0.5,2.5c2.1,1.3,4.4,2.2,6.8,2.9C566,77.2,569.6,77.7,573.2,77.7z"/>
				<path class="st69" d="M606.9,72.8c-3,2.4-6.4,4.4-9.9,5.9c-1.8,0.7-3.6,1.4-5.5,1.9c-1.9,0.5-3.8,0.9-5.8,1.2
					c-3.9,0.6-7.9,0.8-12,0.9c-0.2,0-0.4,0.1-0.4,0.3c-0.1,0.2,0.1,0.5,0.3,0.5c4,1,8.2,1.3,12.4,1c2.1-0.1,4.2-0.4,6.3-0.9
					c2.1-0.4,4.1-1.1,6.1-1.9c4-1.5,7.6-3.9,10.7-6.8c0.6-0.6,1.2-1.2,1.7-1.9c0.3-1.5,0.6-3.1,0.6-4.6
					C610,70.1,608.5,71.5,606.9,72.8z"/>
				<path class="st69" d="M581.8,91.5c2.1-0.3,4.1-1,5.9-2.1c0.1-0.1,0.2-0.2,0.2-0.4c0-0.3-0.2-0.5-0.5-0.5c-2.1,0-4,0.2-6,0.3
					c-2,0.2-3.9,0.3-5.9,0.3c-3.7,0-7.4-0.5-11.2-1.2c1,0.9,2,1.6,3.1,2.3c2.6,0.8,5.3,1.3,8,1.4C577.6,91.8,579.7,91.8,581.8,91.5z
					"/>
				<path class="st69" d="M566,48.9c0.6,0.7,1.5,1.2,2.3,1.6c0.8,0.3,1.6,0.5,2.4,0.7c1.5,0.3,3.1,0.5,4.7,0.6
					c3.2,0.1,6.3-0.5,9.3-1.6c2.9-1.1,5.7-2.7,7.9-4.9c0.2-0.1,0.2-0.4,0.1-0.6c-0.1-0.2-0.4-0.3-0.6-0.1l0,0
					c-2.5,1.6-5.2,2.8-8,3.6c-2.8,0.8-5.7,1.2-8.6,1.1c-1.4,0-2.9-0.2-4.3-0.5c-1.4-0.2-2.8-0.6-3.5-1.3c-0.7-0.6-0.9-1.7-0.8-2.8
					c-0.7,0.5-1.3,0.9-1.9,1.5c0,0.1,0,0.1,0,0.2C565,47.2,565.3,48.2,566,48.9z"/>
				<path class="st69" d="M560.4,57.6c1.9,1.4,4.1,2,6.2,2.5c2.1,0.4,4.2,0.7,6.3,0.8c4.3,0.2,8.6-0.4,12.7-2c4-1.6,7.6-4.2,9.9-7.7
					c0.1-0.2,0.1-0.4,0-0.5c-0.2-0.2-0.5-0.2-0.6,0l0,0c-3,2.7-6.5,4.6-10.2,5.8c-3.7,1.2-7.6,1.6-11.6,1.5c-2-0.1-4-0.3-5.9-0.6
					c-1.9-0.3-3.8-0.8-5.3-1.7c-1.1-0.7-2.1-1.7-2.6-2.9c-0.5,0.7-0.9,1.5-1.3,2.2c0,0.1,0.1,0.1,0.1,0.2
					C558.6,56.1,559.4,56.9,560.4,57.6z"/>
				<path class="st69" d="M600.8,59.3c-0.9,0.5-1.8,1-2.7,1.4c-0.9,0.5-1.9,0.9-2.8,1.3c-1.9,0.8-3.8,1.5-5.8,2.1
					c-2,0.6-4,1.1-6,1.5c-2,0.4-4,0.6-6.1,0.7c-4.1,0.2-8-0.1-12.4,0.2l0,0c-0.1,0-0.3,0.1-0.4,0.2c-0.1,0.2-0.1,0.5,0.2,0.6
					c1,0.6,2,1.1,3,1.4c1,0.4,2.1,0.6,3.2,0.8c2.2,0.4,4.4,0.4,6.6,0.2c4.4-0.3,8.7-1.2,12.8-2.7c4.1-1.5,8-3.4,11.6-5.9
					c1.8-1.2,3.5-2.7,4.8-4.6c0.5-0.7,0.9-1.5,1.3-2.3c-0.3-0.5-0.6-1-0.9-1.5c-0.5,1-1.1,1.9-1.8,2.7
					C604.2,57.2,602.6,58.3,600.8,59.3z"/>
				<path class="st69" d="M562.2,83.6c0.9,0.2,1.7,0.4,2.6,0.5c0.9,0.1,1.8,0,2.7-0.2c0.3-0.1,0.5-0.3,0.6-0.5
					c0.2-0.5-0.1-0.9-0.5-1.1l0,0c-0.8-0.3-1.6-0.5-2.4-0.6c-0.8-0.2-1.6-0.3-2.3-0.5l-2.4-0.5c-0.8-0.1-1.5-0.3-2.3-0.4
					c0.4,0.8,0.9,1.5,1.3,2.2c0.1,0.1,0.2,0.1,0.3,0.2C560.6,83,561.4,83.3,562.2,83.6z"/>
			</g>
		</g>
	</g>
</g>
</svg>
