<?xml version="1.0" encoding="utf-8"?>
<!-- Generator: Adobe Illustrator 22.1.0, SVG Export Plug-In . SVG Version: 6.00 Build 0)  -->
<svg version="1.1" id="Layer_1" xmlns="http://www.w3.org/2000/svg" xmlns:xlink="http://www.w3.org/1999/xlink" x="0px" y="0px"
	 viewBox="0 0 145 145" style="enable-background:new 0 0 145 145;" xml:space="preserve">
<style type="text/css">
	.st0{fill:none;}
	.st1{fill:#B5B5B5;}
	.st2{font-family:'MontserratSubrayada-Bold';}
	.st3{font-size:8.0803px;}
	.st4{fill:none;stroke:#FFFFFF;stroke-width:5;stroke-dasharray:64;}
	.st5{fill:none;stroke:#DC0810;stroke-width:5;stroke-dasharray:64;}
	.st6{fill:none;stroke:#0F5F9A;stroke-width:5;stroke-dasharray:64;}
	.st7{fill:none;stroke:#D6C219;stroke-width:5;stroke-dasharray:64;}
	
	
	
	
	
		.move {
stroke: #fff;
    animation: link-anim 5s linear infinite;
    stroke-dasharray: 64;
    stroke-width: 5px;
}



@keyframes link-anim {
  0% {
  
    stroke-dashoffset: 368;
  }
  100% {
    stroke-dashoffset: 32;
  }
}


	.move2 {
stroke: #DC0810;
    animation: link-anim2 5s linear infinite;
    stroke-dasharray: 64;
    stroke-width: 5px;
}



@keyframes link-anim2 {
  0% {
  
    stroke-dashoffset: 368;
  }
  100% {
    stroke-dashoffset: 32;
  }
}

	.move3 {
stroke: #0F5F9A;
    animation: link-anim3 5s linear infinite;
    stroke-dasharray: 64;
    stroke-width: 5px;
}



@keyframes link-anim3 {
  0% {
  
    stroke-dashoffset: 368;
  }
  100% {
    stroke-dashoffset: 32;
  }
}

	.move4 {
stroke: #D6C219;
    animation: link-anim4 5s linear infinite;
    stroke-dasharray: 64;
    stroke-width: 5px;
}



@keyframes link-anim4 {
  0% {
  
    stroke-dashoffset: 368;
  }
  100% {
    stroke-dashoffset: 32;
  }
}

</style>
<g>
	<g>
		<g>
			<rect x="16.5" y="22.9" class="st0" width="118.5" height="106.6"/>
			<line class="st0" x1="16.5" y1="111.7" x2="135" y2="111.7"/>
			<line class="st0" x1="16.5" y1="94" x2="135" y2="94"/>
			<line class="st0" x1="16.5" y1="76.2" x2="135" y2="76.2"/>
			<line class="st0" x1="16.5" y1="58.4" x2="135" y2="58.4"/>
			<line class="st0" x1="16.5" y1="40.7" x2="135" y2="40.7"/>
		</g>
		<text transform="matrix(0.5243 0 0 1 13.1738 132.5049)" class="st1 st2 st3">0</text>
		<g class="move">
			<rect x="27.7" y="57.5" class="st4" width="13.8" height="72"/>
		</g>
	<g class="move2">
			<rect x="53.2" y="26.4" class="st5" width="13.8" height="103.1"/>
		</g>
		<g class="move3">
			<rect x="78.7" y="103.2" class="st6" width="13.8" height="26.3"/>
		</g>
		<g class="move4">
			<rect x="104.2" y="46.7" class="st7" width="13.8" height="82.8"/>
		</g>
		<text transform="matrix(0.5243 0 0 1 10.7813 114.7139)" class="st1 st2 st3">10</text>
		<text transform="matrix(0.5243 0 0 1 10.7813 96.9258)" class="st1 st2 st3">20</text>
		<text transform="matrix(0.5243 0 0 1 10.7813 79.1348)" class="st1 st2 st3">30</text>
		<text transform="matrix(0.5243 0 0 1 10.7813 61.3442)" class="st1 st2 st3">40</text>
		<text transform="matrix(0.5243 0 0 1 10.7813 43.5518)" class="st1 st2 st3">50</text>
		<text transform="matrix(0.5243 0 0 1 10.7813 25.7632)" class="st1 st2 st3">60</text>
	</g>
</g>
</svg>
