<?xml version="1.0" encoding="utf-8"?>
<!-- Generator: Adobe Illustrator 22.1.0, SVG Export Plug-In . SVG Version: 6.00 Build 0)  -->
<svg version="1.1" id="Layer_1" xmlns="http://www.w3.org/2000/svg" xmlns:xlink="http://www.w3.org/1999/xlink" x="0px" y="0px"
	 viewBox="0 0 200 145" style="enable-background:new 0 0 200 145;" xml:space="preserve">
<style type="text/css">
	.st0{fill:#E34046;}
	.st1{fill:#43BCCD;}
	.st2{fill:#1870B2;}
	.st3{fill:none;}
	.st4{fill:none;stroke:#000000;stroke-width:2.7435;stroke-linecap:round;stroke-linejoin:round;}
	.st5{fill:none;stroke:#FF2300;stroke-width:2.7435;stroke-linecap:round;stroke-linejoin:round;stroke-dasharray:5.3758,5.3758;}
	.st6{fill:url(#XMLID_2_);}
	
		.st7{fill:none;stroke:#FFFFFF;stroke-width:3;stroke-linecap:round;stroke-linejoin:round;stroke-miterlimit:10;stroke-dasharray:64;}
		
		.move {
stroke: #fff;
fill:none;stroke-linecap:round;stroke-linejoin:round;stroke-miterlimit:10;
    animation: link-anim 5s linear infinite;
    stroke-dasharray: 64;
    stroke-width: 5px;
}



@keyframes link-anim {
  0% {
  
    stroke-dashoffset: 368;
  }
  100% {
    stroke-dashoffset: 32;
  }
}
		
	
</style>
<g id="Layer_6">
</g>
<g id="Layer_1_copy_5">
	<g>
		<g>
			<g>
				<g>
					<path class="st0" d="M162.8,86c-12.8,0-23,12.7-23,28.4s10.3,28.4,23,28.4s23-12.7,23-28.4S175.4,86,162.8,86z M162.8,130.3
						c-7.2,0-12.9-7.2-12.9-15.9s5.7-15.9,12.9-15.9s12.9,7.2,12.9,15.9S169.9,130.3,162.8,130.3z"/>
					<path class="st1" d="M162.8,143c12.6,0,22.8-12.5,23-28.1h-10.2c-0.3,8.5-5.8,15.4-12.8,15.4c-6.9,0-12.6-6.9-12.8-15.4h-10.2
						C140,130.5,150.2,143,162.8,143z"/>
					<path class="st2" d="M162.8,86c-0.1,0-0.3,0-0.4,0v12.5c0.1,0,0.3,0,0.4,0c7.2,0,12.9,7.2,12.9,15.9c0,0.2,0,0.4,0,0.5h10.2
						c0-0.2,0-0.4,0-0.5C185.8,98.7,175.4,86,162.8,86z"/>
					<path class="st3" d="M175.6,114.9c-0.1,4.8-1.9,8.8-4.6,11.8l6.4,9.9c5.2-5.1,8.4-12.9,8.4-21.5L175.6,114.9L175.6,114.9z"/>
				</g>
			</g>
		</g>
	</g>
</g>
<g id="Layer_1_copy_6">
	<g>
		<g>
			<g>
				<g>
					<path class="st0" d="M111.3,86c-12.8,0-23,12.7-23,28.4s10.3,28.4,23,28.4s23-12.7,23-28.4S124,86,111.3,86z M111.3,130.3
						c-7.2,0-12.9-7.1-12.9-15.9c0-8.6,5.7-15.9,12.9-15.9s12.9,7.1,12.9,15.9S118.4,130.3,111.3,130.3z"/>
					<path class="st1" d="M111.3,142.8c12.6,0,22.8-12.5,23-28.1h-10.2c-0.3,8.5-5.8,15.4-12.8,15.4c-6.9,0-12.6-6.9-12.8-15.4H88.4
						C88.4,130.5,98.7,142.8,111.3,142.8z"/>
					<path class="st2" d="M111.3,86c-0.1,0-0.3,0-0.4,0v12.5c0.1,0,0.3,0,0.4,0c7.2,0,12.9,7.1,12.9,15.9c0,0.2,0,0.4,0,0.5h10.2
						c0-0.2,0-0.4,0-0.5C134.3,98.7,124,86,111.3,86z"/>
					<path class="st3" d="M124.1,114.9c-0.1,4.8-1.9,8.8-4.6,11.8l6.4,9.9c5.2-5.1,8.4-12.9,8.4-21.5L124.1,114.9L124.1,114.9z"/>
				</g>
			</g>
		</g>
	</g>
</g>
<g id="Layer_1_copy">
</g>
<g id="Layer_3">
	<g>
		<g id="XMLID_93_">
			<g id="XMLID_28_">
				<g>
					<path class="st4" d="M188.9,46c0,0-0.7,0.9-2,2.4"/>
					<path class="st5" d="M182.5,52.4c-5.8,4.6-15.6,9.9-29.9,9.9c-25,0.1-35.9-53.7-52.2-53.6C84,8.8,68.6,35.1,44.7,35.2
						c-14.4,0.1-15.1-5.6-13.3-10"/>
					<path class="st4" d="M32.9,22.4c1-1.5,1.9-2.5,1.9-2.5"/>
				</g>
			</g>
			
				<linearGradient id="XMLID_2_" gradientUnits="userSpaceOnUse" x1="-46.5513" y1="94.273" x2="-46.5513" y2="145.8076" gradientTransform="matrix(-1.0311 3.913852e-03 -4.076484e-03 -1.074 56.4354 168.3504)">
				<stop  offset="5.102040e-03" style="stop-color:#FF2215;stop-opacity:0.1"/>
				<stop  offset="0.4418" style="stop-color:#FF2011;stop-opacity:0.2756"/>
				<stop  offset="0.8606" style="stop-color:#FF1806;stop-opacity:0.444"/>
				<stop  offset="1" style="stop-color:#FF1500;stop-opacity:0.5"/>
			</linearGradient>
			<path id="XMLID_27_" class="st6" d="M27.1,45.3c37.7-0.1,20.1-33.5,40.3-33.7c20.2-0.1,25.5,39.6,42,39.6S136,14,153.1,13.9
				s27.8,48.3,27.8,48.3v1.7c-42.1-4.2-55.2,10.5-118.3-2.3C50.8,56.1,38.9,50.7,27.1,45.3z"/>
			<path id="XMLID_26_" class="move" d="M180.9,62.2c0,0-11.6-48.4-28.8-48.3C135,14,125.4,53.8,108.9,53.8
				C92.3,53.9,86.2,12.4,66,12.5c-20.2,0.1-7.8,32.3-45.5,32.4"/>
		</g>
	</g>
</g>
<g id="Layer_4">
</g>
</svg>
