<?xml version="1.0" encoding="utf-8"?>
<!-- Generator: Adobe Illustrator 22.1.0, SVG Export Plug-In . SVG Version: 6.00 Build 0)  -->
<svg version="1.1" id="Layer_1" xmlns="http://www.w3.org/2000/svg" xmlns:xlink="http://www.w3.org/1999/xlink" x="0px" y="0px"
	 viewBox="0 0 230 150" style="enable-background:new 0 0 230 150;" xml:space="preserve">
<style type="text/css">
	.st0{enable-background:new    ;}
	.st1{fill:#34C1AD;stroke:#32303D;stroke-linecap:round;stroke-linejoin:round;stroke-miterlimit:10;}
	.st2{fill:#5ACEBE;stroke:#47474A;stroke-linecap:round;stroke-linejoin:round;stroke-miterlimit:10;}
	.st3{fill:none;stroke:#32303D;stroke-linecap:round;stroke-linejoin:round;stroke-miterlimit:10;}
</style>
<g>
	<g>
		<g class="st0">
			<g>
				<path class="st1" d="M167.8,43.3l-0.1,63.1c0,9.8-7.2,19.6-21.5,27.1c-28.9,15.1-75.7,15.1-104.8,0
					C26.8,125.9,19.5,116,19.5,106l0.1-63.1c0,10,7.2,19.9,21.9,27.5c29,15.1,75.9,15.1,104.8,0C160.6,62.9,167.8,53.1,167.8,43.3z"
					/>
			</g>
			<g>
				
					<ellipse transform="matrix(2.334030e-03 -1 1 2.334030e-03 50.3982 136.6803)" class="st2" cx="93.7" cy="43.1" rx="38.7" ry="74.1"/>
			</g>
		</g>
	</g>
	<line class="st3" x1="87.5" y1="42.9" x2="205.3" y2="42.9"/>
	<path class="st3" d="M212.4,49.3c-3.9,0-7.1-2.9-7.1-6.3c0-3.5,3.2-6.3,7.1-6.3s7.1,2.9,7.1,6.3S216.3,49.3,212.4,49.3z"/>
</g>
</svg>
