<?xml version="1.0" encoding="utf-8"?>
<!-- Generator: Adobe Illustrator 22.1.0, SVG Export Plug-In . SVG Version: 6.00 Build 0)  -->
<svg version="1.1" id="Layer_1" xmlns="http://www.w3.org/2000/svg" xmlns:xlink="http://www.w3.org/1999/xlink" x="0px" y="0px"
	 viewBox="0 0 300 155" style="enable-background:new 0 0 300 155;" xml:space="preserve">
<style type="text/css">
	.st0{enable-background:new    ;}
	.st1{fill:#3E3B5B;stroke:#32303D;stroke-linecap:round;stroke-linejoin:round;stroke-miterlimit:10;}
	.st2{fill:#646094;stroke:#32303D;stroke-linecap:round;stroke-linejoin:round;stroke-miterlimit:10;}
	.st3{fill:none;stroke:#32303D;stroke-linecap:round;stroke-linejoin:round;stroke-miterlimit:10;}
</style>
<g>
	<g>
		<g class="st0">
			<g>
				<path class="st1" d="M297.1,43.9l-0.1,67.6c0,9.8-7.2,19.6-21.5,27.1c-28.9,15.1-75.7,15.1-104.8,0
					c-14.6-7.6-21.9-17.5-21.9-27.5l0.1-67.6c0,10,7.2,19.9,21.9,27.5c29,15.1,75.9,15.1,104.8,0C289.9,63.5,297.1,53.7,297.1,43.9z
					"/>
			</g>
			<g>
				
					<ellipse transform="matrix(2.331682e-03 -1 1 2.331682e-03 178.9428 266.6373)" class="st2" cx="223.1" cy="43.6" rx="38.7" ry="74.1"/>
			</g>
		</g>
	</g>
	<line class="st3" x1="220.6" y1="40" x2="16.7" y2="40"/>
	<path class="st3" d="M9.6,33.7c3.9,0,7.1,2.9,7.1,6.3s-3.2,6.3-7.1,6.3S2.5,43.4,2.5,40C2.6,36.6,5.8,33.7,9.6,33.7z"/>
</g>
</svg>
