<?xml version="1.0" encoding="utf-8"?>
<!-- Generator: Adobe Illustrator 22.1.0, SVG Export Plug-In . SVG Version: 6.00 Build 0)  -->
<svg version="1.1" id="Layer_1" xmlns="http://www.w3.org/2000/svg" xmlns:xlink="http://www.w3.org/1999/xlink" x="0px" y="0px"
	 viewBox="0 0 230 150" style="enable-background:new 0 0 230 150;" xml:space="preserve">
<style type="text/css">
	.st0{enable-background:new    ;}
	.st1{fill:#E6B05C;stroke:#32303D;stroke-linecap:round;stroke-linejoin:round;stroke-miterlimit:10;}
	.st2{fill:#FFD491;stroke:#47474A;stroke-linecap:round;stroke-linejoin:round;stroke-miterlimit:10;}
	.st3{fill:none;stroke:#32303D;stroke-linecap:round;stroke-linejoin:round;stroke-miterlimit:10;}
</style>
<g>
	<g>
		<g class="st0">
			<g>
				<path class="st1" d="M222,54.4l-0.1,43.4c0,10.4-7.2,20.9-21.5,28.9c-28.9,16.1-75.7,16.1-104.8,0C81,118.6,73.7,108,73.7,97.4
					L73.8,54c0,10.7,7.2,21.2,21.9,29.3c29,16.1,75.9,16.1,104.8,0C214.8,75.3,222,64.9,222,54.4z"/>
			</g>
			<g>
				
					<ellipse transform="matrix(2.615652e-03 -1 1 2.615652e-03 93.3777 202.0685)" class="st2" cx="148" cy="54.2" rx="41.2" ry="74.1"/>
			</g>
		</g>
	</g>
	<line class="st3" x1="146.9" y1="48.4" x2="18" y2="48.4"/>
	<path class="st3" d="M11,41.7c3.9,0,7.1,3.1,7.1,6.7s-3.2,6.7-7.1,6.7S3.9,52,3.9,48.4S7,41.7,11,41.7z"/>
</g>
</svg>
