<?xml version="1.0" encoding="utf-8"?>
<!-- Generator: Adobe Illustrator 22.1.0, SVG Export Plug-In . SVG Version: 6.00 Build 0)  -->
<svg version="1.1" id="Layer_1" xmlns="http://www.w3.org/2000/svg" xmlns:xlink="http://www.w3.org/1999/xlink" x="0px" y="0px"
	 viewBox="0 0 481.9 311.8" style="enable-background:new 0 0 481.9 311.8;" xml:space="preserve">
<style type="text/css">
	.st0{fill:#C3C4CA;}
	.st1{fill:url(#SVGID_1_);}
	
		.move {
stroke: #a4a5ab;
    animation: link-anim 5s linear infinite;
    stroke-dasharray:75;
	
    stroke-width: 1px;
}



@keyframes link-anim {
  0% {
    stroke-dashoffset: 368;
  }
  100% {
    stroke-dashoffset: 32;
  }
}

</style>
<g>
	<g class="move">
		<path class="st0" d="M136.3,276.9c-3.4,0.5-11.9-1.7-11.3-6.6c-2.3-0.8-3.6-1.7-4.7-3.9c-1.3-2.6-0.1-6.4-2.3-7.8
			c1.2-3.4-0.9-7.1-1.8-9.9c1.4-0.8,0.7-15.4,1.6-18.8c-4.9-4.5-3.2-11.4-3.6-17.4c-2.1,1-9.1-2.9-10.2-5.3
			c-0.9-1.9-0.6-4.3-1.7-6.4c-1.3-2.6-2.8-4.4-3.6-7.1c-1.7-5.8,8.5-23.1,1.2-26c0.2,1.1-0.3,2.6-0.1,3.7c-2.3,0-4.8-1.2-4.5-4.2
			c-2.8,0.5-5.3-5.6-8-7.4c-2.4-1.6-5.8-6.5-8.4-6c-1,5.2-5.2,0-7.2-1.5c-1.5-1.2-2.4,0-3.7-2.3c-0.6-1-0.5-3.6-0.8-4.9
			c-0.8-4.1-2.7-6.1-4-9.7c-1.3-3.5-2.6-7.6-4.5-10.6c-2.9,2.1,3.1,16.1,3.5,20.2c-3.2-1.7-5.2-8.3-6.5-11.6
			c-1.8-4.1-2.5-8.9-4.7-12.9c2.1-4,2-9.4,4.1-13.4c1.2-2.3,4.5-4.2,5.1-7c0.6-2.9-0.7-4.7-0.8-8.1c-0.1-2,1.5-6.9,0.4-8.7
			c-1.4-2.3-4.2-1-6.4-2.2c-3-1.8-1.5-4.2-5.2-2.4c-2,1-1.7,4.5-5.4,4.2c-1.1-2.4,4.3-7.8,1.7-7.6c-2.3,0.2-5.5,5.2-7.1,6.7
			c-3.4,3.1-15,8.7-18.7,5.5c2.4-2,11.5-1.5,12.8-5.1c1.5-4.1-4.4-2.4-1.2-6c1.4-1.5,5.5-2.1,7.4-2.1c-0.2-1.8-0.4-3-0.8-4.7
			c2.3-0.8,4.9-0.5,7.5-0.7c-3.1-4.9,0.8-3.5,4.1-3.8c3.5-0.4,6.5-0.7,10.3-1c3.9-0.3,6.7-2.4,10.7-1.9c2.7,0.3,5.6,2.3,8.5,1.9
			c1.4-0.2,2.5-1.5,4.1-1.6c1.3-0.1,3.3,0.9,4.8,1.1c4.1,0.4,6.6-0.6,9.9,1.8c3.2,2.4,3,3.7,7.4,2.9c3.3-0.6,6.6-1.7,10.4-1.9
			c4.4-0.2,10.9,1,13.9-2.9c9.7,3.7-6.1,8-7.6,8.7c-2.3,1.1-4.7,3.2-6.9,4.6c-2.5,1.6-4.8,4.8-7.4,6c0,3.3,4.9,1.5,7,1.4
			c1.5,2.8,0.6,10.2,4.9,9.5c0.3-0.8,0.5-3.3,1-3.8c1.1-1.1,2-0.6,3.1-1.5c1.5-1.2,2.1-0.4,3.1-2.4c0.5-1.1-0.4-3.1,0.1-4.2
			c2-5.2,9.8-8,8.5,0.3c1.3,0.7,3.8-0.3,4.4,0c2.4,1.4,0.9,1.7,2.4,4.3c1.8,3,7.1,5.3,2.5,8.2c-2,1.3-7.3,1.3-9.7,2.1
			c-3.6,1.2-7.1,1.2-9.2,4.9c4.2-0.9,5.8-1.6,10,0c0,0.6,0,1.2,0,1.8c-2.5,1-3.8,3.6-5.6,4.9c0-0.7-0.1-1.6-0.2-2.3
			c-5.2-0.2-14.6,9.7-18.2,13.9c-1.9,2.2-4.7,5.4-7.1,8.2c-3.5,4-0.3,7.8-2.3,12.1c-2.8-1.7-1.6-5.9-3.9-7.8
			c-2.7-2.2-7.7,0-10.7-1.3c-3.3,3.4-10.5,9.4-7.7,15.5c0.5,1.1,2.1,2.3,3.2,2.5c2.9,0.6,1.7-0.3,3.2-1.6c0.7-0.6,0.9-2.6,2.3-3.3
			c1.1-0.5,3.8,0.5,5.2,0.4c-1.6,2.6-2.2,6.1-3.4,9c2.7,0.1,4.2,2.5,7,2.1c0,1.9-1.6,5.9-0.7,7.5c1.5,2.6,3.8,0.9,6.1,1.6
			c1.8,4.9,6.3-2.2,8.6-3.4c0.5,1.5,0.8,3.1,1,4.7c0.4-0.1,1.2,0,1.7,0c0.1-0.5,0-0.9,0.1-1.3c3.5-1.2,7.5-2.6,10.7-1.1
			c2.8,1.3,5.6,4.3,7.8,5.9c4,2.8,5.9,3.1,7.7,8.1c1.4,3.5-0.1,2.1,3.1,3.8c1.7,0.9,3.7,1.8,5.7,1.5c1.5,5.7,2.8,3.2,6.7,4.3
			c1.1,0.3,6.9,5,7.2,5.7c1.2,2.7-1.5,7.4-2.9,9.3c-2.8,3.6-4,2.8-4.1,8.1c0,1.5,0.6,4.4,0,5.8c-1.3,3.3-0.6,0.6-2.7,1.9
			c-2.5,1.7-5.7,3.3-7.3,6.8c-1.4,3.2-0.5,7-2.1,10.1c-1.3,2.8-2.7,5.4-4.1,8.1c-1.6,0.3-4.6-2.1-5.6-1.2c-2.4,2,1.3,3.5,1.4,4.7
			c0.4,3.3-0.6,3-2.2,5.5c-0.7,1-1.5,0-2.2,1.3c-0.5,0.9,0.2,2.4-0.1,3.4c-2.4,9.7,0.5,13.3,5.9,20.7"/>
		<path class="st0" d="M143.8,96.9c-1.8,1.1-4.7,2.6-3.9,5.7c1.8,0,10.9,1.1,11,1c2.4-2.5-6.1-4.4-6.3-7.7c-0.6-0.1-1.1-0.1-1.7-0.1
			"/>
		<path class="st0" d="M96.1,143.9c2.3,1.3,5.1-1.1,7.9,0.6c2.4,1.5,2.5,4.6,6.3,3.6c-0.9-1.7-3.7-3.2-5.2-4.4c-2.7-2-4-2.2-7.2-3.2
			c-0.1,1.9-0.4,3.6-1.9,4.3"/>
		<path class="st0" d="M135.2,73.3c-0.6,0.6-3,0.5-4.8,0.4c0.2-5.9,8.2-0.5,7.1-6.7c-0.6-3.4-7.3-4.3-10.2-3.9
			c-1.7-3.5,0.6-5.8,3.9-5.6c0,1.4,0.7,2.7,0.6,4.2c2.3-0.5,8.9-4.1,8.9,0.4c1.8-0.3,3.1,0.5,3.6,2.4c1.7,0.1,3.2,0.4,4.8,1.1
			c0.1,0.7,0.2,1.5,0,2.3c-1.1,0-1.8,0.8-3,0.6c0.3,1.8,0.9,2.9,1.2,4.7c-1.7,0.5-3.5-0.1-4.8-0.8c1.5,7.3-3.9,3.8-6.8,1.4"/>
		<path class="st0" d="M109.1,150.1c2.7,0.7,2.5-3.5,4.9-3.9c1.4-0.2,5.7,2.3,7.1,3c0,0.2,0,1.1,0,1.3c-2.3,0.3-4,0-6.1,0.6
			c-1.5,0.4-2.9,3-5,0.5"/>
		<path class="st0" d="M91.8,59.5c0.7,4.8,4.6,1.5,7.5,2c-0.5,0.9-0.4,2.8-0.8,3.7c5.8,1,9.5,0.6,15-1c-0.8-1.6,0.1-1.6-2.1-1.9
			c0.3-0.9,0-2.4,0.3-3.2c-2-0.1-3.1,1.6-4.8,1.4c-1.6-0.2-2.8-2.1-4.5-2.9c-3.7-1.8-7.6,0.2-10.3,2.9"/>
		<path class="st0" d="M164.7,80c-3.7-0.3-9-5.4-6.8-9.8c1-2.1,3.6-1.7,4.6-4.2c0.9-2.5,0.3-5.4-2.6-3.9c-0.3-2.4,0.3-4.3,0.3-6.6
			c-2.7-1-5.9-0.5-8.8-0.6c-0.2-0.7-0.1-1.6,0-2.3c6.7-1.4,14.4-7.2,21.3-7.4c3.7-0.1,7.7,2.4,11.2,2.4c2,0,3.4-1,5.3-1
			c2.5,0,4.7,1.3,7.1,1.3c1.1-2.7,6.1-1.2,8.5-0.9c0.9,4.4-5.2,3.1-7,6.2c-0.9,1.6,0.1,3.8-1.1,5.2c-1.5,1.9-3.4,1.2-4.8,2.5
			c-1.1,1-1,3-2.7,4.3c-1.3,0.9-3.3,1.2-4.8,1.6c-4,0.9-5.8,1-8.1,5.3c-3.2,0.2-9.8-0.7-8.9,4.9c-1.1,0.5-2.3,1.3-3.5,1.5"/>
		<path class="st0" d="M123.1,65.7c-1-1.4-1.5-3-1.3-4.7c3.5-1.8,7.9-3.2,5.7-8.4c-3.1,5.6-9.4,5.2-8.4,13.5
			c0.9-0.1,1.9,0.6,2.6,0.5"/>
		<path class="st0" d="M190.1,70.2c-1.5,0.4-2.3,0.8-1.7,2.8c4.1,1.6,8.6,0.5,11.9-1.5c0,0,0-1.3,0-1.3c-2.8-0.3-5.1-0.3-7.9-0.1
			c-0.1-0.7-0.5-1.1-0.6-1.8c-0.8-0.1-1.5,0.3-2.2,0.9"/>
		<path class="st0" d="M141.8,57.4c0.2-0.6,0.5-0.7,0.4-1.4c-2.9-0.7-4.1,1.6-6.6,2c-2.6,0.4-4.4-1.7-7.1-1.6c1.2-2.4,5-2.7,7.5-3.4
			c0-0.6,0-1.2,0-1.8c-1.1-0.2-1.8-1.1-3-1.1c0.3-4.7,5.9-1.5,8.3-1.5c0.5-3.3,19.8-4.2,21-0.1c-3.2,1.4-13.7,4.6-16.8,3.1
			c-0.1,2-0.8,3.6-2.7,3.9c0,0.8-0.3,2-0.1,2.8c-0.6-0.3-0.6-0.8-0.8-1.4"/>
		<path class="st0" d="M108.8,58c-8.9-5.3,6.2-4.4,9.4-2.9c-1.3,0.5-2.3,1.6-2.8,3.3c-2.3,0.3-6.2-0.1-8-0.8"/>
		<path class="st0" d="M143.6,60.3c4.5,1.9,6.8,2.7,11.6,0.9c-1.3-3.4-10.9-5.9-12.4-1.3"/>
		<path class="st0" d="M128,49.2c-2.1,0.2-5.9-2.3-7.6-0.5c-3.3,3.6,3.2,3.9,4.1,4.9c-0.7,0.4-1.3,1.2-2.2,1.5c0,0,0,1.3,0,1.3
			c2.9,0.2,6.1-4.8,6.2-7.7"/>
		<path class="st0" d="M270.5,217.5c-0.4,3-2.9,5.9,0.4,8.3c4.2,3.2,3.9-1.6,4.6-4.5c0.7-3,1.2-5.8,1.8-9.2c0.6-3.3,2.3-6.3,1.7-10
			c-2.6-1.6-2.4,0.3-3.5,1.4c-0.7,0.7-0.1,2.1-0.5,2.8c-0.5,0.8-1.7,0.6-2.3,1.4c-1.3,1.8-1.8,1-2.6,3.5c-0.5,1.7,0,4.5,0,6.3"/>
		<path class="st0" d="M382.2,93.2c-0.1-2.5-3.3-2.3-3.1-5c1.7,0.1,6.8,5.3,6.4,7.1c-0.3,0-0.6,0-0.8,0.1c-0.2,1.4,1.3,1.9,1.7,3.1
			c0.5,1.3-0.2,2.4,0.9,3.6c-3.1-1.4-4.5-6.2-6-9.4"/>
		<path class="st0" d="M382.5,121.2c1.4,1.3,2.1-0.2,3.6,0.2c1.3,0.4,1.4,2.1,3.1,1.2c0-0.6,0.4-1.2,0.3-1.9
			c1.3,0.6,2.9-0.4,4.4-0.3c0.6-1.5,0-2-0.5-3.3c-0.4-1.3-0.7-1.7-0.8-3.2c-0.2-1.9-1.2-4.6-3.3-4.5c-0.1,1.6,0.9,2.5,1.1,3.8
			c0.2,1.6-0.8,2.3-1.3,3.3c-1,1.7-1,1.7-2.6,2.2c-1.6,0.5-2.2,0.3-3.3,1.7"/>
		<path class="st0" d="M346,162.5c0,3,0.8,3.7,2,6c0.8,1.5,0.6,5.1,2,5.8c0,1.7,2.7,5.6,4.3,5.5c0.2-1.8-0.2-4-0.4-5.7
			c-0.4-2.5-0.6-3.1-2.3-4.5c-1.6-1.4-2-2-2.7-3.9c-0.8-2-1-3-3.3-2.9"/>
		<path class="st0" d="M387.4,108.1c0.9,0.1,0.5-4.7,0-5.7c1.5-0.4,5.4,2,5.8,3.5c0.7,2.8-5.1,3.2-5.4,2.7"/>
		<path class="st0" d="M347.4,174.6c-1.4-0.6-3.3-3.3-4.9-3.2c-2.4,0.1-0.6,2.1,0.5,3.4c2.2,2.6,4.8,5.6,6.6,8.5
			c1.1,1.9,0.9,3.8,1.6,5.7c0.5,1.3,2,5,3.1,5.6c2.4,1.3,1.3-2.2,1.7-3.9c0.5-2.1,1.8-2.7,0.8-5c-0.9-2.1-3.1-4.5-4.7-6
			c-1.4-1.4-3.5-5.1-5.3-5.3"/>
		<path class="st0" d="M382.1,122.8c-0.7,0.5-0.9,1.2-0.6,2.1c1,0.6,1.4,2.2,1.3,3.4c1.7,0.3,4.9-7.7-0.3-5.3"/>
		<path class="st0" d="M401.3,210.6c-1.6-0.7-4.2-1.5-5.6-2.9c-2.5-2.5,0.7-2.4,0.9-4.6c0.2-2.2-2.7-2.3-4.3-2.2
			c-2.2,0.2-2.7,0.8-3.7,3c-1.2,2.6-1.2,2.1-3.8,1.9c-2.3-0.2-3.3,0.9-4.8,2.5c-1.3,1.3-2,3.5-3.3,4.6c-1.4,1.1-3.5,1.1-5,2.3
			c-0.9,0.7-1.3,1.8-2.2,2.2c-0.8,0.4-2-0.2-2.9,0c-2.2,0.5-2.4,1.9-2.4,4.1c-0.2,4.2-0.1,8.5-0.8,12.5c-0.6,3.6-4.6,7.5,1.3,8.2
			c2.2,0.2,3.8-0.4,5.8-1.3c2-1,3.8-0.6,5.8-1.2c2.5-0.7,4.2-1.5,6.9-1.7c2.1-0.1,3.8,0,5.8,0.2c0.1,5,1.6,1.2,4,0.5
			c0.1,1.8,0,3.7,0.4,5.3c0.3,1.1,0.8,1.3,0.9,2.6c0.1,0.8-0.2,1.9-0.1,2.9c1.9,0.1,3.6,0,5.3-0.5c2.1-0.7,3.1-2.2,4.9-3.3
			c4.2-2.5,6.4-6.8,8.8-11.1c1.1-2,3-3,4-4.9c1-2,0.7-5.2,0.1-7.2c-1.1-3.6-3.6-4.9-5.6-7.9c-1.5-2.3-2.2-3-2.4-6
			c-0.1-1.7-0.7-6.4-2-7.5c-2.7-2.3-2.2,5.1-2.7,6.6c-0.8,2-3.3,4.5-5.3,2.9"/>
		<path class="st0" d="M400.2,194.2c-1,0.9,2.8,1.8,4,2.1c2.2,0.5,2-0.4,4-1.2c3.1-1.3,5.6,4.7,9.4,4.1c0.2-1.6-1.7-2.7-2.7-3.8
			c-1.2-1.5-0.9-2.4-1.6-4.1c-0.9-2.4-4.2-3.5-6.3-4.9c-1.7-1.2-5.4-3.9-7.6-3.2c-1.3,0.4-2.1,1.8-3.3,2.1c-1.2,0.3-3-0.3-4.2-0.4
			c-1.1,4.2,10.7,3.5,9.6,9.3c-0.6,0.2-0.7-0.1-1.1-0.4"/>
		<path class="st0" d="M356.2,193.4c0-4.4,0.8-8,5.2-5.6c3,1.6,6.3,1.6,9.8,2.2c3.5,0.6,7,1.4,10.4,2.9c1.4,0.6,3.4,0.7,3.2,3.1
			c-0.1,1.6-0.4,0.9-1.1,1.7c-0.1,0.1-1.7,1.6-1.8,1.6c-2.7,1.2-1-1.2-2.4-2.4c-1-0.8-3.4-0.2-4.6-0.9c-0.3,1.2,0.5,2.1,0.8,3.1
			c-1.4,0.2-2.9-1.6-4.4-1.9c-1.9-0.3-4,0-5.8-0.2c-2.2-0.2-3.4-1.2-5.4-2c-1.4-0.5-3.9,0-3.8-2.3"/>
		<path class="st0" d="M361.7,184.7c-0.7-0.8-0.8-2.3-0.6-3.6c1.6-1,2.9,1,4.4,1.7c2.2,1,2.8,0.8,4.2-0.9c1.3-1.5,2.1-3.1,3.8-3.6
			c1.9-0.6,3.8,0.5,5.6,0.7c1.3,0.2,4.4-1.4,4.5,0.5c0.1,1.8-3.4,1.6-4.5,1.7c-2.1,0.2-3.2,0.1-4.9,1.5c-1.7,1.4-1.3,2.6-2.3,4.2
			c-1.7,2.7-11.3,0.4-10.9-3.1"/>
		<path class="st0" d="M382,170.6c-5-1.7-2-6.2-4.1-10.5c-0.7-1.4-5.4-11-1.3-10.9c0.1,2.4-0.5,3.8,0.3,6c0.9,2.5,1.5,3.2,3.6,4.6
			c1.8,1.2,5.3,9.9,1.4,10.6"/>
		<path class="st0" d="M417.6,191.7c-1.2,0.3-3.5,0.8-3.1-1.4c1.3-0.9,3.1-0.3,4.4-1.1c1.2-0.7,1.7-2.3,3.5-1.8
			c0.7,2.9-4.7,4.6-6.2,4.6"/>
		<path class="st0" d="M374.5,185.6c-0.4,1.8-0.3,5.2,2,5.5c0.2-0.8,0.5-1.6,0.9-2.2c0.7,0.8,1.6,1.3,2.7,1.2
			c0.3-1.4-0.7-2.2-0.6-3.6c0.1-1.3,1.9-2.2,1.1-3.3c-1.7-2.5-2.3,4.7-5.1,1.6c-0.4,0.2-0.7,0.6-0.9,1"/>
		<path class="st0" d="M400.6,251.3c-1.2-1-4-0.3-5,0.9c-1.1,1.5,0.5,4.5-2.1,5c4.2,1.1,7.4-1.8,7.3-6.4"/>
		<path class="st0" d="M418.4,262.1c-3.1-1.6,4.1-4.6,5.1-5.1c2.2-1.1,4.7-2.3,6.5-4c1.8-1.7,3.1-3.5,5.3-4.7c1.8-1,4.2-3.3,6-3.3
			c1,2.3-2,5.3-3.7,6.5c-1.3,0.9-2.1,1.2-3.2,2.2c-1,1-1.7,2.1-2.7,3.1c-1.8,1.9-4.5,4.9-6.9,5.3c-2.6,0.5-5.2-0.1-7.6-0.2"/>
		<path class="st0" d="M320.1,164.5c0,2.3,0.3,4.5,0.1,6.8c-0.2,2.5,0.5,5.2,2.5,1.9c0.6-1.1,0.3-1.7,0.6-2.9
			c0.2-1.1,0.8-2.4,0.9-3.4c0.2-3.8-2.6-2.5-4.5-3.1"/>
		<path class="st0" d="M211.8,93.8c-2.2-0.8-4.9,0.7-6.9,1.4c-1-2,1-2.1,1.7-3.4c0.5-0.8,1-3.6,0.9-4.5c-1.8,0.2-2.1-4.4-1.2-5.6
			c0.5-0.7,2.2-1.4,3-0.9c1.5,0.9,0.1,2.1,0.2,3.4c0.1,1.6,1.6,4,2.7,5.2c1.2,1.2,1.8,0.2,1.8,2.5c0,1.3-0.7,1.7-1.2,2.9
			c-0.2-0.1-0.2-0.3-0.4-0.5"/>
		<path class="st0" d="M270.7,63c-3.2,0.3-2.9-4.4-0.5-5.5c2.4-1.1,5.1-1.1,6.9-3.5c-1.8-1.8-3.9,0.1-5.8,0.5
			c-2.4,0.5-3.6-0.1-5.5,2c-1,1.2-2.7,3.6-1.6,5.3c0.7,1.1,4.6,2.2,5.4,1.2"/>
		<path class="st0" d="M200,93.1c1.6-1,3.6-1.2,4.5-2.9c0.5-0.9,1.1-5.2-0.9-4.8c-1.3,0.2-0.2,1.8-0.7,2.6c-0.6,0.9-1.5,0.3-2.2,1
			c-0.8,0.9-2.2,4.2-0.2,4.1"/>
		<path class="st0" d="M306.2,52c-2.5,0.1-5.1-0.5-7.5-1c-0.7-0.2-2.9-0.6-3.4-1.1c-1.2-1.5,0.3-2.6,1.7-2.4
			c1.9,0.2,3.8,2.4,5.9,2.6c1.3,0.1,1.7-0.9,3.2-0.4c1,0.3,2.9,2.2,0.9,1.9"/>
		<path class="st0" d="M410.7,73.7c-2-5.4-3.8-8-9.4-8.6c-3.8-0.3-7.5,0.1-11.2-0.6c-3.5-0.6-6.4-2.7-9.9-3.2
			c-3.8-0.6-7.8,0.3-11.5-0.3c-3.7-0.6-7.1-2.6-10.7-3.3c-1.5-0.3-4.2-1.3-5.8-0.6c-1.6,0.7-2.2,3.1-4,3.9c-2.9,1.3-8,0.1-10.7-0.9
			c-3.3-1.3-6.1-2.6-9.8-2.9c-3.5-0.2-7.4,0.7-10.7-0.5c1-0.4,2.2-1.5,3.5-1.9c1-7.2-9.9-1.1-12.1-0.5c-3.4,1-11.7-1.7-12,1.5
			c-4.3,0.1-5,3.8-7.9,4.5c-2.9,0.7-4.5-3.7-7.6-3.3c0.5,2.2,2.4,5.3,0.4,7.2c-1.1,1.1-6.2,0.3-7.6,0.5c-5.1,0.6-10.5,2.4-15.6,3.5
			c0.7,5.5-7,6.5-6.7,2.4c2.1,0.3,5.4,0.2,4.7-2.9c-0.2-1.2-2.5-0.2-3.2-0.9c-0.9-1-0.2-2.1-1.2-3c-3.9-3.6-8-2-12.4-1
			c-2.6-3.7-11.8,3.3-14.3,6c-2.5,2.7-10.2,10.2-8,14.3c2.7-0.3,6-1.6,8.3-0.9c-0.4,1.6-0.6,3.8-0.3,5.7c-0.1,0.1,1.2,0,1.2,0
			c0.2-0.4-0.1-0.9,0.1-1.3c9,1.1,3.6-8.7,5.1-12.3c0.6-1.3,4.7-4.8,5.9-3.8c1.6,1.2-0.7,5.5-0.4,8.2c2.7,0.4,5-2.7,7.4-0.6
			c-0.8,2.2-3.1,2.7-5.1,3.1c0.2,1.9-0.1,4-0.6,5.6c-4.1,4.2-9.4,0.8-14.2,1.6c-2.2,0.3-3.6,2.5-5.4,3.8c-1.9,1.3-3.5,1.8-5.6,3.1
			c-0.1,5.5-3,2.5-6.3,2.9c-0.1,0.7-0.1,1.5,0,2.3c1.9,0.4,3.2,1.8,3,3.8c-1.6,0.6-2.1,1.4-2.2,3.4c-3-0.5-4.4-1.5-6.5,1.1
			c-0.5,0.6-2.3,6.2-1.9,7.3c1.9,5.2,9.4,0.4,11.1-1.6c3.1-3.7,4.5-9.3,9.9-7.6c3.2,1,7.4,7.9,11.1,7.1c0-5.8-8.7-7.1-7.5-11.9
			c5.8,0.3,13.4,14.6,16.9,12.3c-0.3-1.5-0.4-3-0.3-4.7c1.3,1.1,2.8,1.2,4.3,0.3c0-2-0.4-7.9,0.5-9.6c2.1-4.1,4.1-0.1,6.7,0.5
			c1.3,0.3,3.7-0.7,4.8,0c1.5,1,0.7,3.1,1.5,3.8c2.1,1.9,7.1,1.5,6.1,5.7c-6,1-10.2-2.2-15.7,1.4c0,0-2.4,2.3-2.5,2.5
			c-1.1,1.2-2.7-0.5-2.1,2.5c0.6,3.1,4.7,1.9,7,1.9c3,0,10.3,0.5,5.9,5.8c-1.9,2.2-6.9-0.2-10-0.1c-6,0.1-13.7,3.2-18.4-1.2
			c-0.6-0.6-0.2-2.5-0.9-2.9c-0.8-0.5-2.3,0.1-2.6-0.1c-0.3-0.2-1.8,0-2.4-0.2c-0.9-0.4-0.7-2.6-1.7-3c-3.3-1.1-6.9,2.3-9.8,2.7
			c-3.7,0.5-6.5-1.7-10.3,0.1c-4.5,2.2-4.4,5.9-4.4,10.6l0,0.5c-0.1,1.7-0.3,3.1-0.5,4.8c-6.4,0.2-7.1,4-8.7,10.3
			c-1,4.1-2.4,13.8-1,17.7c1.3,3.5,7.8,8.2,11.6,9.1c3,0.7,4.5,0.2,7.1-1.1c3.7-1.7,2.6-1.8,6.7-0.4c2.7,0.9,7.7,0.2,9.7,2.5
			c1.9,2.1,1.3,8,2.5,10.9c3,7.6,3.5,13.3,2.8,21.3c-0.3,3.5,0.8,7,1.7,10.6c0.9,3.5,1.3,7.5,2.3,11.1c0.9,3.3,3.2,6,4,9.1
			c0.6,2.2-0.5,3.6,0.9,5.4c2.5,3.2,2.3,0.4,3.9-0.1c2.7-0.9,7.6-1.7,9.6-3.9c3-3.2,3.4-8.5,4.6-12.5c1.5-4.9,6-7.1,7.3-11.6
			c0.6-2.3-0.2-3.8,0.9-5.7c1.2-2,3-1.8,3.6-4.5c0.9-4.2-2.7-7.7-1.7-11.9c0.7-3.1,3.7-6.6,5.3-9.2c2.8-4.5,9.6-14.3,8.7-19.4
			c-5.3,1.6-15.5,0.4-11-8.2c0.8,1.1,1.7,2.8,2.2,4.2c1.8,0.2,4.6,0.1,6.2-0.9c2-1.3,1.9-3.7,3.4-5.4c2.7-3.1,7.7-2,8.2-7.6
			c0.1-0.7-1.4-5.7-1.9-6.1c-2.1-1.6-3.4,0.8-5.2,0.4c-3.6-0.8-8.1-6.2-7.6-10.5c3.3-1,3.6,1.1,5.6,2.9c3.4,2.9,4.1,2.6,8.2,3.2
			c3.6,0.6,11.7,0.9,14.7,3c3.1,2.1,2,4.7,3.5,7.6c1.2,2.2,3.3,3.7,4.5,6.3c2.2,5,4.3,10.1,5.1,15.7c4.8-0.7,4.6-11.1,6-15.4
			c1.6-4.7,7.2-9.9,11.6-9.1c4.3,0.8,9.3,5.8,11.2,10.1c1.2,2.7,1.1,5.8,2.8,8c0.2,0.2,2.3-0.3,3.2,0.5c0.6,0.6,1.1,3,1.3,3.8
			c3-0.6,6.8-0.3,8.4-3.3c1.7-3.3,0-7.5-1.7-10.3c-5.9-9.7,1.5-5.8,8-9c5.3-2.6,7.7-10.3,6.5-16.6c-0.9-4.7-9-12-8-16.3
			c1.9,0.9,4.2,1.6,5.8,2.7c1.9,1.3,2.4,3.2,4.8,3.5c1.1,4-0.5,9.9,5.4,7.1c0.7-4.9-2.1-7.6-3.5-11.4c-2-5,2.2-2.1,4-6.9
			c1-2.7,0.1-9.1-0.1-12.1c-0.3-4.8-1.8-6.1-5.9-8.2c-3.4-1.7-7.4-3.6-1-5.4c3.4-1,7.2,0.4,10.8-0.9c3.2-1.2,5.7-2.7,6.7,2.9
			c0.8,4.5-1.6,7.6,3.2,11c10,7.1,1.6-12.5,2.2-14.8c5.4-0.3,9.7,0.6,8.9-6.3C406.8,72.5,408.8,73.5,410.7,73.7z M279.9,119.9
			c-0.9,0.3-1.7,0-2.5,0.2l0.9-4.8c0.4-2.7-14.3-10.4-13.3-21c2.1-0.5,4.1-0.1,6,1c-0.9,6.9,5.9,5.4,8.2,9.4
			C280.7,107.4,280.4,116.6,279.9,119.9z"/>
	</g>
	
		<linearGradient id="SVGID_1_" gradientUnits="userSpaceOnUse" x1="149.3136" y1="139.9163" x2="527.2108" y2="139.9163" gradientTransform="matrix(0.997 -7.770000e-02 7.770000e-02 0.997 -116.2441 51.2953)">
		<stop  offset="0" style="stop-color:#360000"/>
		<stop  offset="1" style="stop-color:#DF040B"/>
	</linearGradient>
	<polygon class="st1" points="347.8,65 372.8,66.1 373.9,67.2 294.9,155.9 261.3,129.8 182.8,214.8 139.1,178.5 50.7,271.9 
		64.1,283 140.4,202.5 184.2,238.9 263.1,153.5 296.9,179.9 386,79.9 386.3,80.2 395.1,106.1 412.1,45 	"/>
</g>
</svg>
