<?xml version="1.0" encoding="utf-8"?>
<!-- Generator: Adobe Illustrator 22.1.0, SVG Export Plug-In . SVG Version: 6.00 Build 0)  -->
<svg version="1.1" id="Layer_1" xmlns="http://www.w3.org/2000/svg" xmlns:xlink="http://www.w3.org/1999/xlink" x="0px" y="0px"
	 viewBox="0 0 600 450" style="enable-background:new 0 0 600 450;" xml:space="preserve">
<style type="text/css">
	.st0{fill:#D4ECFF;}
	.st1{fill:#E28F8F;}
	.st2{fill:#F42525;}
	.st3{fill:#6D6C6C;}
	.st4{fill:#FFFFFF;}
	.st5{fill:#353535;}
	.st6{fill:#0C0E11;}
	.st7{fill:#5793CE;}
	.st8{fill:#F75454;}
	.st9{fill:#5D5D5E;}
	.st10{opacity:0.3;}
	.st11{fill:#2C75E4;}
	.st12{opacity:0.3;fill:#6EE8FC;enable-background:new    ;}
	.st13{fill:#6EE8FC;}
	.st14{fill:#5D5E60;}
	.st15{opacity:0.4;fill:url(#SVGID_1_);enable-background:new    ;}
	.st16{clip-path:url(#SVGID_3_);}
	.st17{fill:url(#SVGID_4_);}
	.st18{fill:url(#SVGID_5_);}
	.st19{fill:#D4088C;}
	.st20{fill:url(#SVGID_6_);}
	.st21{fill:#F99595;}
	.st22{fill:url(#SVGID_7_);}
	.st23{fill:#6DE0F6;}
	.st24{fill:#F73434;}
	.st25{clip-path:url(#SVGID_11_);}
	.st26{clip-path:url(#SVGID_12_);}
	.st27{clip-path:url(#SVGID_13_);fill:#267FE5;}
	.st28{clip-path:url(#SVGID_13_);fill:#25BFEC;}
	.st29{clip-path:url(#SVGID_13_);fill:#18D0F7;}
	.st30{fill:url(#SVGID_14_);}
	.st31{fill:url(#SVGID_15_);}
	.st32{fill:url(#SVGID_16_);}
	.st33{fill:url(#SVGID_17_);}
	.st34{clip-path:url(#SVGID_21_);}
	.st35{clip-path:url(#SVGID_22_);}
	.st36{clip-path:url(#SVGID_23_);fill:#267FE5;}
	.st37{clip-path:url(#SVGID_23_);fill:#25BFEC;}
	.st38{clip-path:url(#SVGID_23_);fill:#18D0F7;}
	.st39{opacity:0.5;fill:#6DE0F6;enable-background:new    ;}
	.st40{opacity:0.5;fill:#F47878;enable-background:new    ;}
	.st41{fill:url(#SVGID_24_);}
	.st42{fill:url(#SVGID_25_);}
	.st43{fill:url(#SVGID_26_);}
	.st44{fill:url(#SVGID_27_);}
	.st45{clip-path:url(#SVGID_31_);}
	.st46{clip-path:url(#SVGID_32_);}
	.st47{clip-path:url(#SVGID_33_);fill:#267FE5;}
	.st48{clip-path:url(#SVGID_33_);fill:#25BFEC;}
	.st49{clip-path:url(#SVGID_33_);fill:#18D0F7;}
	.st50{opacity:0.15;fill:#6DE0F6;enable-background:new    ;}
	.st51{opacity:0.5;fill:#ED6969;enable-background:new    ;}
	.st52{fill:#FD4448;}
	.st53{fill:url(#SVGID_34_);}
	.st54{fill:#787676;}
	.st55{fill:#D8CECE;}
	.st56{clip-path:url(#SVGID_38_);}
	.st57{clip-path:url(#SVGID_39_);}
	.st58{clip-path:url(#SVGID_40_);fill:#267FE5;}
	.st59{clip-path:url(#SVGID_40_);fill:#25BFEC;}
	.st60{clip-path:url(#SVGID_40_);fill:#EF1818;}
	.st61{opacity:0.6;fill:#0C0F38;enable-background:new    ;}
	.st62{fill:url(#SVGID_41_);}
	.st63{fill:url(#SVGID_42_);}
	.st64{fill:url(#SVGID_43_);}
	.st65{fill:url(#SVGID_44_);}
	.st66{fill:#480689;}
	.st67{fill:url(#SVGID_45_);}
	.st68{fill:url(#SVGID_46_);}
	.st69{fill:url(#SVGID_47_);}
	.st70{fill:url(#SVGID_48_);}
	.st71{fill:url(#SVGID_49_);}
	.st72{fill:url(#SVGID_50_);}
	.st73{fill:url(#SVGID_51_);}
	.st74{fill:url(#SVGID_52_);}
	.st75{fill:url(#SVGID_53_);}
	.st76{clip-path:url(#SVGID_55_);fill:#267FE5;}
	.st77{clip-path:url(#SVGID_57_);fill:#25BFEC;}
	.st78{clip-path:url(#SVGID_59_);fill:#18D0F7;}
	.st79{opacity:0.3;fill:#CF0389;enable-background:new    ;}
	.st80{opacity:0.5;fill:#CF0389;enable-background:new    ;}
	.st81{opacity:0.8;fill:#CF0389;enable-background:new    ;}
	.st82{fill:url(#SVGID_60_);}
	.st83{opacity:0.5;fill:#6EE8FC;enable-background:new    ;}
	.st84{opacity:0.5;fill:#D4088C;enable-background:new    ;}




.moved2{
        animation: floatAnim 6s ease-in-out infinite;
		
      }
      #floating-balloon {
        animation: floatAnim2 5s ease-in-out infinite;
      }

      @keyframes floatAnim {
        0% {
          transform: translate(0px,1px);
        }
        50% {
          transform: translate(0px,-16px);
        }
        100% {
          transform: translate(0px,1px);
        }
      }

.moved3{
        animation: floatAnim4 6s ease-in-out infinite;
		
      }

      @keyframes floatAnim4 {
       0% {
          transform: translate(0px,19px);
        }
        50% {
          transform: translate(0px,-18px);
        }
        100% {
          transform: translate(0px,19px);
        }
      }

.st51{
        animation: floatAnim4 6s ease-in-out infinite;
		
      }

      @keyframes floatAnim4 {
       0% {
          transform: translate(0px,1px);
        }
        50% {
          transform: translate(0px,-18px);
        }
        100% {
          transform: translate(0px,1px);
        }
      }


.st40{
        animation: floatAnim4 6s ease-in-out infinite;
		
      }

      @keyframes floatAnim4 {
       0% {
          transform: translate(0px,1px);
        }
        50% {
          transform: translate(0px,-18px);
        }
        100% {
          transform: translate(0px,1px);
        }
      }

</style>
<g id="Layer_2_1_">
	<g>
		<g>
			<path class="st0" d="M477.6,265.6l-110.3-63.7c-3.1-1.8-2.7-4.9,0.9-7l75.1-43.4c3.6-2.1,9.1-2.3,12.2-0.5l110.3,63.7
				c3.1,1.8,2.7,4.9-0.9,7l-75.1,43.4C486.2,267.2,480.7,267.4,477.6,265.6z"/>
			<g>
				<path class="st1" d="M569.9,89.5L457.7,24.8c-1.4-0.8-2.8-1-3.8-0.5l0,0l-0.2,0.1l0,0l-3.7,1.7l4,2c0,0.1,0,0.1,0,0.2v92.1
					c0,4.6,2.9,10,6.4,12l109.1,63l0.6,5.1l4-1.9c1.3-0.8,2.1-2.5,2.1-5v-92.1C576.2,96.9,573.4,91.5,569.9,89.5z"/>
				<path d="M569.9,89.5L457.7,24.8c-1.4-0.8-2.8-1-3.8-0.5l0,0l-0.2,0.1l0,0l-3.7,1.7l4,2c0,0.1,0,0.1,0,0.2V89l51,40.3l69.3-34.9
					C573.2,92.3,571.6,90.5,569.9,89.5z"/>
				<path class="st2" d="M571.7,90.9l-11,4.6l8.3,6.4l7-2.9C575.4,95.9,573.8,92.9,571.7,90.9z"/>
				<path class="st3" d="M566.2,200l-112.1-64.7c-3.5-2-6.4-7.4-6.4-12V31.2c0-4.6,2.8-6.7,6.4-4.7l112.1,64.7c3.5,2,6.4,7.4,6.4,12
					v92.1C572.6,199.9,569.7,202,566.2,200z"/>
				<path class="st2" d="M562.5,193.1l-104.7-60.4c-3.2-1.9-5.8-6.8-5.8-11V37.4c0-4.2,2.6-6.1,5.8-4.3l104.7,60.4
					c3.2,1.9,5.8,6.8,5.8,11v84.3C568.3,193.1,565.7,195,562.5,193.1z"/>
				<path class="st4" d="M562.5,193.1l-104.7-60.4c-3.2-1.9-5.8-6.8-5.8-11V37.4c0-4.2,2.6-6.1,5.8-4.3l104.7,60.4
					c3.2,1.9,5.8,6.8,5.8,11v84.3C568.3,193.1,565.7,195,562.5,193.1z"/>
			</g>
			<path class="st5" d="M567.9,202.8l-15.1-2l-97.3-56.2c-3.1-1.8-8.6-1.6-12.2,0.5l-69,39.8l-9.1-1.2v5.2l0,0
				c-0.1,1.2,0.6,2.3,2.1,3.2l110.3,63.7c3.1,1.8,8.6,1.6,12.2-0.5l75.1-43.4c2-1.2,3-2.7,3-4.1l0,0V202.8z"/>
			<path class="st6" d="M494.7,167.3l-6.9-4h-76L374.3,185l-9.1-1.2v5.2l0,0c-0.1,1.2,0.6,2.3,2.1,3.2l110.3,63.7
				c1.6,1,3.9,1.3,6.3,1.2L494.7,167.3z"/>
			<path class="st7" d="M369.2,184.3l-4-0.5v5.2l0,0c-0.1,1.2,0.6,2.3,2.1,3.2l1.9,1.1V184.3z"/>
			<path class="st8" d="M478.7,256.3c3,1.1,7.2,0.9,10.3-0.6v-11.5h-10.3V256.3z"/>
			<path class="st0" d="M477.6,250.7L367.3,187c-3.1-1.8-2.7-4.9,0.9-7l75.1-43.4c3.6-2.1,9.1-2.3,12.2-0.5l110.3,63.7
				c3.1,1.8,2.7,4.9-0.9,7l-75.1,43.4C486.2,252.2,480.7,252.5,477.6,250.7z"/>
			<path class="st4" d="M564.9,204.9l-75.1,43.4c-3.6,2.1-9.1,2.3-12.2,0.5l-110.3-63.7c-1-0.6-1.7-1.3-1.9-2.1
				c-0.5,1.5,0.1,3,1.9,4l110.3,63.7c3.1,1.8,8.6,1.6,12.2-0.5l75.1-43.4c2.4-1.4,3.4-3.3,2.8-4.9C567.4,203,566.4,204,564.9,204.9z
				"/>
			<g>
				<path class="st9" d="M414.2,165.9l-5-2.9c-0.4-0.2-0.4-0.6,0.1-0.9l5.9-3.4c0.5-0.3,1.2-0.3,1.6-0.1l5,2.9
					c0.4,0.2,0.4,0.6-0.1,0.9l-5.9,3.4C415.3,166.1,414.6,166.1,414.2,165.9z"/>
				<path class="st9" d="M421.9,170.3l-5-2.9c-0.4-0.2-0.4-0.6,0.1-0.9l5.9-3.4c0.5-0.3,1.2-0.3,1.6-0.1l5,2.9
					c0.4,0.2,0.4,0.6-0.1,0.9l-5.9,3.4C423,170.5,422.3,170.6,421.9,170.3z"/>
				<path class="st9" d="M429.6,174.8l-5-2.9c-0.4-0.2-0.4-0.6,0.1-0.9l5.9-3.4c0.5-0.3,1.2-0.3,1.6-0.1l5,2.9
					c0.4,0.2,0.4,0.6-0.1,0.9l-5.9,3.4C430.7,175,430,175,429.6,174.8z"/>
				<path class="st9" d="M440.3,171.1l-5-2.9c-0.4-0.2-0.4-0.6,0.1-0.9l4.9-2.9c0.5-0.3,1.2-0.3,1.6-0.1l5,2.9
					c0.4,0.2,0.4,0.6-0.1,0.9l-4.9,2.9C441.4,171.3,440.7,171.3,440.3,171.1z"/>
				<path class="st9" d="M448,175.6l-5-2.9c-0.4-0.2-0.4-0.6,0.1-0.9l4.9-2.9c0.5-0.3,1.2-0.3,1.6-0.1l5,2.9
					c0.4,0.2,0.4,0.6-0.1,0.9l-4.9,2.9C449.1,175.8,448.4,175.8,448,175.6z"/>
				<path class="st9" d="M455.7,180l-5-2.9c-0.4-0.2-0.4-0.6,0.1-0.9l4.9-2.9c0.5-0.3,1.2-0.3,1.6-0.1l5,2.9
					c0.4,0.2,0.4,0.6-0.1,0.9l-4.9,2.9C456.8,180.2,456.1,180.2,455.7,180z"/>
				<path class="st9" d="M463.4,184.5l-5-2.9c-0.4-0.2-0.4-0.6,0.1-0.9l4.9-2.9c0.5-0.3,1.2-0.3,1.6-0.1l5,2.9
					c0.4,0.2,0.4,0.6-0.1,0.9l-4.9,2.9C464.5,184.7,463.8,184.7,463.4,184.5z"/>
				<path class="st9" d="M471.1,188.9l-5-2.9c-0.4-0.2-0.4-0.6,0.1-0.9l4.9-2.9c0.5-0.3,1.2-0.3,1.6-0.1l5,2.9
					c0.4,0.2,0.4,0.6-0.1,0.9l-4.9,2.9C472.2,189.1,471.5,189.1,471.1,188.9z"/>
				<path class="st9" d="M478.8,193.4l-5-2.9c-0.4-0.2-0.4-0.6,0.1-0.9l4.9-2.9c0.5-0.3,1.2-0.3,1.6-0.1l5,2.9
					c0.4,0.2,0.4,0.6-0.1,0.9l-4.9,2.9C479.9,193.6,479.2,193.6,478.8,193.4z"/>
				<path class="st9" d="M486.5,197.8l-5-2.9c-0.4-0.2-0.4-0.6,0.1-0.9l4.9-2.9c0.5-0.3,1.2-0.3,1.6-0.1l5,2.9
					c0.4,0.2,0.4,0.6-0.1,0.9l-4.9,2.9C487.6,198,486.9,198,486.5,197.8z"/>
				<path class="st9" d="M494.2,202.3l-5-2.9c-0.4-0.2-0.4-0.6,0.1-0.9l4.9-2.9c0.5-0.3,1.2-0.3,1.6-0.1l5,2.9
					c0.4,0.2,0.4,0.6-0.1,0.9l-4.9,2.9C495.3,202.5,494.6,202.5,494.2,202.3z"/>
				<path class="st9" d="M502,206.7l-5-2.9c-0.4-0.2-0.4-0.6,0.1-0.9l4.9-2.9c0.5-0.3,1.2-0.3,1.6-0.1l5,2.9
					c0.4,0.2,0.4,0.6-0.1,0.9l-4.9,2.9C503.1,206.9,502.4,206.9,502,206.7z"/>
				<path class="st9" d="M509.7,211.2l-5-2.9c-0.4-0.2-0.4-0.6,0.1-0.9l4.9-2.9c0.5-0.3,1.2-0.3,1.6-0.1l5,2.9
					c0.4,0.2,0.4,0.6-0.1,0.9l-4.9,2.9C510.8,211.4,510.1,211.4,509.7,211.2z"/>
				<path class="st9" d="M451.7,169l-5-2.9c-0.4-0.2-0.4-0.6,0.1-0.9l4.9-2.9c0.5-0.3,1.2-0.3,1.6-0.1l5,2.9
					c0.4,0.2,0.4,0.6-0.1,0.9l-4.9,2.9C452.8,169.2,452.1,169.2,451.7,169z"/>
				<path class="st9" d="M443.8,164.5l-5-2.9c-0.4-0.2-0.4-0.6,0.1-0.9l4.9-2.9c0.5-0.3,1.2-0.3,1.6-0.1l5,2.9
					c0.4,0.2,0.4,0.6-0.1,0.9l-4.9,2.9C444.9,164.7,444.2,164.7,443.8,164.5z"/>
				<path class="st9" d="M436,160l-10.7-6.2c-0.4-0.2-0.4-0.6,0.1-0.9l4.9-2.9c0.5-0.3,1.2-0.3,1.6-0.1l10.7,6.2
					c0.4,0.2,0.4,0.6-0.1,0.9l-4.9,2.9C437.1,160.2,436.4,160.2,436,160z"/>
				<path class="st9" d="M441.5,154.5l-8.7-5c-0.4-0.2-0.4-0.6,0.1-0.9l4.9-2.9c0.5-0.3,1.2-0.3,1.6-0.1l8.7,5
					c0.4,0.2,0.4,0.6-0.1,0.9l-4.9,2.9C442.6,154.7,441.9,154.7,441.5,154.5z"/>
				<path class="st9" d="M459.4,173.5l-5-2.9c-0.4-0.2-0.4-0.6,0.1-0.9l4.9-2.9c0.5-0.3,1.2-0.3,1.6-0.1l5,2.9
					c0.4,0.2,0.4,0.6-0.1,0.9l-4.9,2.9C460.5,173.7,459.8,173.7,459.4,173.5z"/>
				<path class="st9" d="M467.1,177.9l-5-2.9c-0.4-0.2-0.4-0.6,0.1-0.9l4.9-2.9c0.5-0.3,1.2-0.3,1.6-0.1l5,2.9
					c0.4,0.2,0.4,0.6-0.1,0.9l-4.9,2.9C468.2,178.1,467.5,178.1,467.1,177.9z"/>
				<path class="st9" d="M474.8,182.4l-5-2.9c-0.4-0.2-0.4-0.6,0.1-0.9l4.9-2.9c0.5-0.3,1.2-0.3,1.6-0.1l5,2.9
					c0.4,0.2,0.4,0.6-0.1,0.9l-4.9,2.9C475.9,182.6,475.2,182.6,474.8,182.4z"/>
				<path class="st9" d="M482.5,186.8l-5-2.9c-0.4-0.2-0.4-0.6,0.1-0.9l4.9-2.9c0.5-0.3,1.2-0.3,1.6-0.1l5,2.9
					c0.4,0.2,0.4,0.6-0.1,0.9l-4.9,2.9C483.6,187,482.9,187,482.5,186.8z"/>
				<path class="st9" d="M490.2,191.3l-5-2.9c-0.4-0.2-0.4-0.6,0.1-0.9l4.9-2.9c0.5-0.3,1.2-0.3,1.6-0.1l5,2.9
					c0.4,0.2,0.4,0.6-0.1,0.9l-4.9,2.9C491.3,191.5,490.6,191.5,490.2,191.3z"/>
				<path class="st9" d="M497.9,195.7l-5-2.9c-0.4-0.2-0.4-0.6,0.1-0.9l4.9-2.9c0.5-0.3,1.2-0.3,1.6-0.1l5,2.9
					c0.4,0.2,0.4,0.6-0.1,0.9l-4.9,2.9C499,195.9,498.3,195.9,497.9,195.7z"/>
				<path class="st9" d="M505.6,200.2l-5-2.9c-0.4-0.2-0.4-0.6,0.1-0.9l4.9-2.9c0.5-0.3,1.2-0.3,1.6-0.1l5,2.9
					c0.4,0.2,0.4,0.6-0.1,0.9l-4.9,2.9C506.7,200.4,506,200.4,505.6,200.2z"/>
				<path class="st9" d="M513.3,204.6l-5-2.9c-0.4-0.2-0.4-0.6,0.1-0.9l4.9-2.9c0.5-0.3,1.2-0.3,1.6-0.1l5,2.9
					c0.4,0.2,0.4,0.6-0.1,0.9l-4.9,2.9C514.4,204.8,513.7,204.8,513.3,204.6z"/>
				<path class="st9" d="M521,209.1l-5-2.9c-0.4-0.2-0.4-0.6,0.1-0.9l4.9-2.9c0.5-0.3,1.2-0.3,1.6-0.1l5,2.9
					c0.4,0.2,0.4,0.6-0.1,0.9l-4.9,2.9C522.1,209.3,521.4,209.3,521,209.1z"/>
				<path class="st9" d="M534.7,217l-10.9-6.3c-0.4-0.2-0.4-0.6,0.1-0.9l4.9-2.9c0.5-0.3,1.2-0.3,1.6-0.1l10.9,6.3
					c0.4,0.2,0.4,0.6-0.1,0.9l-4.9,2.9C535.8,217.2,535.1,217.2,534.7,217z"/>
				<path class="st9" d="M549.7,208.3l-9.2-5.3c-0.4-0.2-0.4-0.6,0.1-0.9l4.9-2.9c0.5-0.3,1.2-0.3,1.6-0.1l9.2,5.3
					c0.4,0.2,0.4,0.6-0.1,0.9l-4.9,2.9C550.8,208.5,550.1,208.5,549.7,208.3z"/>
				<path class="st9" d="M472.9,172.6l-5-2.9c-0.4-0.2-0.4-0.6,0.1-0.9l4.9-2.9c0.5-0.3,1.2-0.3,1.6-0.1l5,2.9
					c0.4,0.2,0.4,0.6-0.1,0.9l-4.9,2.9C474,172.8,473.3,172.8,472.9,172.6z"/>
				<path class="st9" d="M465,168l-5-2.9c-0.4-0.2-0.4-0.6,0.1-0.9l4.9-2.9c0.5-0.3,1.2-0.3,1.6-0.1l5,2.9c0.4,0.2,0.4,0.6-0.1,0.9
					l-4.9,2.9C466.1,168.2,465.4,168.3,465,168z"/>
				<path class="st9" d="M457.1,163.5l-5-2.9c-0.4-0.2-0.4-0.6,0.1-0.9l4.9-2.9c0.5-0.3,1.2-0.3,1.6-0.1l5,2.9
					c0.4,0.2,0.4,0.6-0.1,0.9l-4.9,2.9C458.2,163.7,457.5,163.7,457.1,163.5z"/>
				<path class="st9" d="M449.2,158.9l-5-2.9c-0.4-0.2-0.4-0.6,0.1-0.9l4.9-2.9c0.5-0.3,1.2-0.3,1.6-0.1l5,2.9
					c0.4,0.2,0.4,0.6-0.1,0.9l-4.9,2.9C450.3,159.1,449.6,159.1,449.2,158.9z"/>
				<path class="st9" d="M480.6,177l-5-2.9c-0.4-0.2-0.4-0.6,0.1-0.9l4.9-2.9c0.5-0.3,1.2-0.3,1.6-0.1l5,2.9
					c0.4,0.2,0.4,0.6-0.1,0.9l-4.9,2.9C481.7,177.2,481,177.3,480.6,177z"/>
				<path class="st9" d="M488.3,181.5l-5-2.9c-0.4-0.2-0.4-0.6,0.1-0.9l4.9-2.9c0.5-0.3,1.2-0.3,1.6-0.1l5,2.9
					c0.4,0.2,0.4,0.6-0.1,0.9l-4.9,2.9C489.4,181.7,488.7,181.7,488.3,181.5z"/>
				<path class="st9" d="M496,185.9l-5-2.9c-0.4-0.2-0.4-0.6,0.1-0.9l4.9-2.9c0.5-0.3,1.2-0.3,1.6-0.1l5,2.9
					c0.4,0.2,0.4,0.6-0.1,0.9l-4.9,2.9C497.1,186.1,496.4,186.2,496,185.9z"/>
				<path class="st9" d="M503.7,190.4l-5-2.9c-0.4-0.2-0.4-0.6,0.1-0.9l4.9-2.9c0.5-0.3,1.2-0.3,1.6-0.1l5,2.9
					c0.4,0.2,0.4,0.6-0.1,0.9l-4.9,2.9C504.8,190.6,504.1,190.6,503.7,190.4z"/>
				<path class="st9" d="M511.4,194.8l-5-2.9c-0.4-0.2-0.4-0.6,0.1-0.9l4.9-2.9c0.5-0.3,1.2-0.3,1.6-0.1l5,2.9
					c0.4,0.2,0.4,0.6-0.1,0.9l-4.9,2.9C512.5,195,511.8,195.1,511.4,194.8z"/>
				<path class="st9" d="M519.1,199.3l-5-2.9c-0.4-0.2-0.4-0.6,0.1-0.9l4.9-2.9c0.5-0.3,1.2-0.3,1.6-0.1l5,2.9
					c0.4,0.2,0.4,0.6-0.1,0.9l-4.9,2.9C520.2,199.5,519.5,199.5,519.1,199.3z"/>
				<path class="st9" d="M526.8,203.7l-5-2.9c-0.4-0.2-0.4-0.6,0.1-0.9l4.9-2.9c0.5-0.3,1.2-0.3,1.6-0.1l5,2.9
					c0.4,0.2,0.4,0.6-0.1,0.9l-4.9,2.9C527.9,203.9,527.2,204,526.8,203.7z"/>
				<path class="st9" d="M534.5,208.2l-5-2.9c-0.4-0.2-0.4-0.6,0.1-0.9l4.9-2.9c0.5-0.3,1.2-0.3,1.6-0.1l5,2.9
					c0.4,0.2,0.4,0.6-0.1,0.9l-4.9,2.9C535.6,208.4,534.9,208.4,534.5,208.2z"/>
				<path class="st9" d="M542.2,212.6l-5-2.9c-0.4-0.2-0.4-0.6,0.1-0.9l4.9-2.9c0.5-0.3,1.2-0.3,1.6-0.1l5,2.9
					c0.4,0.2,0.4,0.6-0.1,0.9l-4.9,2.9C543.3,212.8,542.6,212.9,542.2,212.6z"/>
				<path class="st9" d="M468.8,161.6l-5-2.9c-0.4-0.2-0.4-0.6,0.1-0.9l4.9-2.9c0.5-0.3,1.2-0.3,1.6-0.1l5,2.9
					c0.4,0.2,0.4,0.6-0.1,0.9l-4.9,2.9C469.9,161.8,469.2,161.8,468.8,161.6z"/>
				<path class="st9" d="M461.1,157.1l-5-2.9c-0.4-0.2-0.4-0.6,0.1-0.9l4.9-2.9c0.5-0.3,1.2-0.3,1.6-0.1l5,2.9
					c0.4,0.2,0.4,0.6-0.1,0.9l-4.9,2.9C462.2,157.4,461.5,157.4,461.1,157.1z"/>
				<path class="st9" d="M453.5,152.7l-5-2.9c-0.4-0.2-0.4-0.6,0.1-0.9l4.9-2.9c0.5-0.3,1.2-0.3,1.6-0.1l5,2.9
					c0.4,0.2,0.4,0.6-0.1,0.9l-4.9,2.9C454.6,152.9,453.9,153,453.5,152.7z"/>
				<path class="st9" d="M445.8,148.3l-5-2.9c-0.4-0.2-0.4-0.6,0.1-0.9l4.9-2.9c0.5-0.3,1.2-0.3,1.6-0.1l5,2.9
					c0.4,0.2,0.4,0.6-0.1,0.9l-4.9,2.9C446.9,148.5,446.2,148.5,445.8,148.3z"/>
				<path class="st9" d="M453.7,143.7l-5-2.9c-0.4-0.2-0.4-0.6,0.1-0.9l1.6-0.9c0.5-0.3,1.2-0.3,1.6-0.1l5,2.9
					c0.4,0.2,0.4,0.6-0.1,0.9l-1.6,0.9C454.8,143.9,454.1,144,453.7,143.7z"/>
				<path class="st9" d="M463.7,149.5l-5-2.9c-0.4-0.2-0.4-0.6,0.1-0.9l1.6-0.9c0.5-0.3,1.2-0.3,1.6-0.1l5,2.9
					c0.4,0.2,0.4,0.6-0.1,0.9l-1.6,0.9C464.8,149.7,464.1,149.8,463.7,149.5z"/>
				<path class="st9" d="M471.3,153.9l-5-2.9c-0.4-0.2-0.4-0.6,0.1-0.9l1.6-0.9c0.5-0.3,1.2-0.3,1.6-0.1l5,2.9
					c0.4,0.2,0.4,0.6-0.1,0.9l-1.6,0.9C472.4,154.1,471.7,154.2,471.3,153.9z"/>
				<path class="st9" d="M479,158.3l-5-2.9c-0.4-0.2-0.4-0.6,0.1-0.9l1.6-0.9c0.5-0.3,1.2-0.3,1.6-0.1l5,2.9
					c0.4,0.2,0.4,0.6-0.1,0.9l-1.6,0.9C480.1,158.5,479.4,158.6,479,158.3z"/>
				<path class="st9" d="M486.6,162.7l-5-2.9c-0.4-0.2-0.4-0.6,0.1-0.9l1.6-0.9c0.5-0.3,1.2-0.3,1.6-0.1l5,2.9
					c0.4,0.2,0.4,0.6-0.1,0.9l-1.6,0.9C487.7,162.9,487,163,486.6,162.7z"/>
				<path class="st9" d="M529.2,187.4l-5-2.9c-0.4-0.2-0.4-0.6,0.1-0.9l1.6-0.9c0.5-0.3,1.2-0.3,1.6-0.1l5,2.9
					c0.4,0.2,0.4,0.6-0.1,0.9l-1.6,0.9C530.3,187.6,529.6,187.6,529.2,187.4z"/>
				<path class="st9" d="M536.9,191.8l-5-2.9c-0.4-0.2-0.4-0.6,0.1-0.9l1.6-0.9c0.5-0.3,1.2-0.3,1.6-0.1l5,2.9
					c0.4,0.2,0.4,0.6-0.1,0.9l-1.6,0.9C538,192,537.3,192,536.9,191.8z"/>
				<path class="st9" d="M544.5,196.2l-5-2.9c-0.4-0.2-0.4-0.6,0.1-0.9l1.6-0.9c0.5-0.3,1.2-0.3,1.6-0.1l5,2.9
					c0.4,0.2,0.4,0.6-0.1,0.9l-1.6,0.9C545.6,196.4,544.9,196.4,544.5,196.2z"/>
				<path class="st9" d="M552.1,200.6l-5-2.9c-0.4-0.2-0.4-0.6,0.1-0.9l1.6-0.9c0.5-0.3,1.2-0.3,1.6-0.1l5,2.9
					c0.4,0.2,0.4,0.6-0.1,0.9l-1.6,0.9C553.2,200.8,552.5,200.8,552.1,200.6z"/>
				<path class="st9" d="M476.5,166l-5-2.9c-0.4-0.2-0.4-0.6,0.1-0.9l4.9-2.9c0.5-0.3,1.2-0.3,1.6-0.1l5,2.9
					c0.4,0.2,0.4,0.6-0.1,0.9l-4.9,2.9C477.6,166.2,476.9,166.3,476.5,166z"/>
				<path class="st9" d="M484.2,170.5l-5-2.9c-0.4-0.2-0.4-0.6,0.1-0.9l4.9-2.9c0.5-0.3,1.2-0.3,1.6-0.1l5,2.9
					c0.4,0.2,0.4,0.6-0.1,0.9l-4.9,2.9C485.3,170.7,484.6,170.7,484.2,170.5z"/>
				<path class="st9" d="M491.9,174.9l-5-2.9c-0.4-0.2-0.4-0.6,0.1-0.9l4.9-2.9c0.5-0.3,1.2-0.3,1.6-0.1l5,2.9
					c0.4,0.2,0.4,0.6-0.1,0.9l-4.9,2.9C493,175.1,492.3,175.2,491.9,174.9z"/>
				<path class="st9" d="M499.6,179.4l-5-2.9c-0.4-0.2-0.4-0.6,0.1-0.9l4.9-2.9c0.5-0.3,1.2-0.3,1.6-0.1l5,2.9
					c0.4,0.2,0.4,0.6-0.1,0.9l-4.9,2.9C500.7,179.6,500,179.6,499.6,179.4z"/>
				<path class="st9" d="M507.3,183.8l-5-2.9c-0.4-0.2-0.4-0.6,0.1-0.9l4.9-2.9c0.5-0.3,1.2-0.3,1.6-0.1l5,2.9
					c0.4,0.2,0.4,0.6-0.1,0.9l-4.9,2.9C508.4,184,507.7,184.1,507.3,183.8z"/>
				<path class="st9" d="M515,188.3l-5-2.9c-0.4-0.2-0.4-0.6,0.1-0.9l4.9-2.9c0.5-0.3,1.2-0.3,1.6-0.1l5,2.9
					c0.4,0.2,0.4,0.6-0.1,0.9l-4.9,2.9C516.1,188.5,515.4,188.5,515,188.3z"/>
				<path class="st9" d="M522.8,192.7l-5-2.9c-0.4-0.2-0.4-0.6,0.1-0.9l4.9-2.9c0.5-0.3,1.2-0.3,1.6-0.1l5,2.9
					c0.4,0.2,0.4,0.6-0.1,0.9l-4.9,2.9C523.9,192.9,523.2,193,522.8,192.7z"/>
				<path class="st9" d="M530.5,197.2l-5-2.9c-0.4-0.2-0.4-0.6,0.1-0.9l4.9-2.9c0.5-0.3,1.2-0.3,1.6-0.1l5,2.9
					c0.4,0.2,0.4,0.6-0.1,0.9l-4.9,2.9C531.6,197.4,530.9,197.4,530.5,197.2z"/>
				<path class="st9" d="M538.2,201.6l-5-2.9c-0.4-0.2-0.4-0.6,0.1-0.9l4.9-2.9c0.5-0.3,1.2-0.3,1.6-0.1l5,2.9
					c0.4,0.2,0.4,0.6-0.1,0.9l-4.9,2.9C539.3,201.8,538.6,201.9,538.2,201.6z"/>
				<path class="st9" d="M432.4,166.6l-14.7-8.5c-0.4-0.2-0.4-0.6,0.1-0.9l4.9-2.9c0.5-0.3,1.2-0.3,1.6-0.1l14.7,8.5
					c0.4,0.2,0.4,0.6-0.1,0.9l-4.9,2.9C433.5,166.8,432.8,166.8,432.4,166.6z"/>
				<path class="st9" d="M527.1,221.2l-14.7-8.5c-0.4-0.2-0.4-0.6,0.1-0.9l4.9-2.9c0.5-0.3,1.2-0.3,1.6-0.1l14.7,8.5
					c0.4,0.2,0.4,0.6-0.1,0.9l-4.9,2.9C528.2,221.4,527.5,221.5,527.1,221.2z"/>
				<path class="st9" d="M496.3,213.3l-5-2.9c-0.4-0.2-0.4-0.6,0.1-0.9l5.9-3.4c0.5-0.3,1.2-0.3,1.6-0.1l5,2.9
					c0.4,0.2,0.4,0.6-0.1,0.9l-5.9,3.4C497.4,213.5,496.7,213.5,496.3,213.3z"/>
				<path class="st9" d="M440.3,181l-8-4.6c-0.4-0.2-0.4-0.6,0.1-0.9l5.9-3.4c0.5-0.3,1.2-0.3,1.6-0.1l8,4.6
					c0.4,0.2,0.4,0.6-0.1,0.9l-5.9,3.4C441.4,181.2,440.7,181.2,440.3,181z"/>
				<path class="st9" d="M488.9,209l-8-4.6c-0.4-0.2-0.4-0.6,0.1-0.9l5.9-3.4c0.5-0.3,1.2-0.3,1.6-0.1l8,4.6
					c0.4,0.2,0.4,0.6-0.1,0.9l-5.9,3.4C490,209.2,489.3,209.2,488.9,209z"/>
				<path class="st9" d="M451.5,187.4l-8-4.6c-0.4-0.2-0.4-0.6,0.1-0.9l5.9-3.4c0.5-0.3,1.2-0.3,1.6-0.1l8,4.6
					c0.4,0.2,0.4,0.6-0.1,0.9l-5.9,3.4C452.6,187.6,451.9,187.6,451.5,187.4z"/>
				<path class="st9" d="M451.1,178.4l34.7,20c0.4,0.2,0.4,0.7,0,0.9l-6,3.5c-0.4,0.2-1.1,0.2-1.6,0l-34.7-20L451.1,178.4z"/>
				<path class="st9" d="M517.8,221.3l5.6,3.2c0.3,0.2,0.3,0.5-0.1,0.7l-2.4,1.4c-0.4,0.2-1,0.2-1.3,0.1l-5.6-3.2
					c-0.3-0.2-0.3-0.5,0.1-0.7l2.4-1.4C516.9,221.2,517.5,221.2,517.8,221.3z"/>
				<path class="st9" d="M510.1,216.9l5.6,3.2c0.3,0.2,0.3,0.5-0.1,0.7l-2.4,1.4c-0.4,0.2-1,0.2-1.3,0.1l-5.6-3.2
					c-0.3-0.2-0.3-0.5,0.1-0.7l2.4-1.4C509.2,216.7,509.7,216.7,510.1,216.9z"/>
				<path class="st9" d="M502.4,212.4l5.6,3.2c0.3,0.2,0.3,0.5-0.1,0.7l-2.4,1.4c-0.4,0.2-1,0.2-1.3,0.1l-5.6-3.2
					c-0.3-0.2-0.3-0.5,0.1-0.7l2.4-1.4C501.5,212.2,502,212.2,502.4,212.4z"/>
				<path class="st9" d="M514.3,214.4l5.6,3.2c0.3,0.2,0.3,0.5-0.1,0.7l-2.4,1.4c-0.4,0.2-1,0.2-1.3,0.1l-5.6-3.2
					c-0.3-0.2-0.3-0.5,0.1-0.7l2.4-1.4C513.4,214.2,514,214.2,514.3,214.4z"/>
			</g>
		</g>
	</g>
</g>
<g>
	<g class="st10">
		<g>
			<path class="st11" d="M340.4,225.7c-1,0-1.9-0.2-2.6-0.6l-35.2-20.3c-0.8-0.4-1.2-1.1-1.2-1.8c0-0.8,0.6-1.6,1.6-2.2l7.3-4.2
				c1.7-1,4.3-1.1,5.8-0.2l35.2,20.3c0.8,0.4,1.2,1.1,1.2,1.8c0,0.8-0.6,1.6-1.6,2.2l-7.3,4.2C342.7,225.4,341.5,225.7,340.4,225.7z
				 M313.5,196.8c-1,0-2,0.2-2.8,0.7l-7.3,4.2c-0.7,0.4-1.1,0.9-1.1,1.3c0,0.4,0.4,0.7,0.7,0.9l35.2,20.3c1.2,0.7,3.4,0.6,4.8-0.2
				l7.3-4.2c0.7-0.4,1.1-0.9,1.1-1.3c0-0.4-0.4-0.7-0.7-0.9l-35.2-20.3C315,196.9,314.3,196.8,313.5,196.8z"/>
			<path class="st11" d="M330,276.5c-1,0-1.9-0.2-2.6-0.6l-17.9-10.3c-0.8-0.4-1.2-1.1-1.2-1.8c0-0.8,0.6-1.6,1.6-2.2l4.5-2.6
				c1.7-1,4.3-1.1,5.8-0.2l17.9,10.3c0.8,0.4,1.2,1.1,1.2,1.8c0,0.8-0.6,1.6-1.6,2.2l-4.5,2.6C332.3,276.2,331.2,276.5,330,276.5z
				 M317.7,259.1c-1,0-2,0.2-2.8,0.7l-4.5,2.6c-0.7,0.4-1.1,0.9-1.1,1.3s0.4,0.7,0.7,0.9l18,10.4c1.2,0.7,3.4,0.6,4.8-0.2l4.5-2.6
				c0.7-0.4,1.1-0.9,1.1-1.3s-0.4-0.7-0.7-0.9l-17.9-10.3C319.3,259.3,318.5,259.1,317.7,259.1z"/>
			<path class="st11" d="M388.5,285c-1,0-1.9-0.2-2.6-0.6l-15.2-8.8c-0.8-0.4-1.2-1.1-1.2-1.8c0-0.8,0.6-1.6,1.6-2.2l64.1-37
				c1.7-1,4.3-1.1,5.8-0.2l15.2,8.8c0.8,0.4,1.2,1.1,1.2,1.8c0,0.8-0.6,1.6-1.6,2.2l-64.1,37C390.8,284.7,389.6,285,388.5,285z
				 M438.5,234.9c-1,0-2,0.2-2.8,0.7l-64.1,37c-0.7,0.4-1.1,0.9-1.1,1.3s0.4,0.7,0.7,0.9l15.2,8.8c1.2,0.7,3.4,0.6,4.8-0.2l64.1-37
				c0.7-0.4,1.1-0.9,1.1-1.3c0-0.4-0.4-0.7-0.7-0.9l-15.2-8.8C440,235,439.2,234.9,438.5,234.9z"/>
			<path class="st11" d="M284.3,269.1c-1,0-1.9-0.2-2.6-0.6l-5.3-3c-0.8-0.4-1.2-1.1-1.2-1.8c0-0.8,0.6-1.6,1.6-2.2l4.5-2.6
				c1.7-1,4.3-1.1,5.8-0.2l5.3,3c0.8,0.4,1.2,1.1,1.2,1.8c0,0.8-0.6,1.6-1.6,2.2l-4.5,2.6C286.6,268.8,285.4,269.1,284.3,269.1z
				 M284.6,259.1c-1,0-2,0.2-2.8,0.7l-4.5,2.6c-0.7,0.4-1.1,0.9-1.1,1.3s0.4,0.7,0.7,0.9l5.3,3c1.2,0.7,3.4,0.6,4.8-0.2l4.5-2.6
				c0.7-0.4,1.1-0.9,1.1-1.3s-0.4-0.7-0.7-0.9l-5.3-3C286.1,259.2,285.4,259.1,284.6,259.1z"/>
			<path class="st11" d="M300.8,259.6c-1,0-1.9-0.2-2.6-0.6l-5.3-3c-0.8-0.4-1.2-1.1-1.2-1.8c0-0.8,0.6-1.6,1.6-2.2l4.5-2.6
				c1.7-1,4.3-1.1,5.8-0.2l5.3,3c0.8,0.4,1.2,1.1,1.2,1.8c0,0.8-0.6,1.6-1.6,2.2l-4.5,2.6C303.1,259.3,302,259.6,300.8,259.6z
				 M301.1,249.6c-1,0-2,0.2-2.8,0.7l-4.5,2.6c-0.7,0.4-1.1,0.9-1.1,1.3c0,0.4,0.4,0.7,0.7,0.9l5.3,3c1.2,0.7,3.4,0.6,4.8-0.2
				l4.5-2.6c0.7-0.4,1.1-0.9,1.1-1.3c0-0.4-0.4-0.7-0.7-0.9l-5.3-3C302.7,249.7,301.9,249.6,301.1,249.6z"/>
			<path class="st11" d="M317.3,250.1c-1,0-1.9-0.2-2.6-0.6l-5.3-3c-0.8-0.4-1.2-1.1-1.2-1.8c0-0.8,0.6-1.6,1.6-2.2l4.5-2.6
				c1.7-1,4.3-1.1,5.8-0.2l5.3,3c0.8,0.4,1.2,1.1,1.2,1.8c0,0.8-0.6,1.6-1.6,2.2l-4.5,2.6C319.7,249.8,318.5,250.1,317.3,250.1z
				 M317.7,240c-1,0-2,0.2-2.8,0.7l-4.5,2.6c-0.7,0.4-1.1,0.9-1.1,1.3c0,0.4,0.4,0.7,0.7,0.9l5.3,3c1.2,0.7,3.4,0.6,4.8-0.2l4.5-2.6
				c0.7-0.4,1.1-0.9,1.1-1.3c0-0.4-0.4-0.7-0.7-0.9l-5.3-3C319.2,240.2,318.4,240,317.7,240z"/>
			<path class="st11" d="M300.9,278.7c-1,0-1.9-0.2-2.6-0.6l-5.3-3c-0.8-0.4-1.2-1.1-1.2-1.8c0-0.8,0.6-1.6,1.6-2.2l4.5-2.6
				c1.7-1,4.3-1.1,5.8-0.2l5.3,3c0.8,0.4,1.2,1.1,1.2,1.8c0,0.8-0.6,1.6-1.6,2.2l-4.5,2.6C303.2,278.4,302,278.7,300.9,278.7z
				 M301.2,268.7c-1,0-2,0.2-2.8,0.7l-4.5,2.6c-0.7,0.4-1.1,0.9-1.1,1.3s0.4,0.7,0.7,0.9l5.3,3c1.2,0.7,3.4,0.6,4.8-0.2l4.5-2.6
				c0.7-0.4,1.1-0.9,1.1-1.3s-0.4-0.7-0.7-0.9l-5.3-3C302.7,268.8,302,268.7,301.2,268.7z"/>
			<path class="st11" d="M333.9,259.6c-1,0-1.9-0.2-2.6-0.6l-5.3-3c-0.8-0.4-1.2-1.1-1.2-1.8c0-0.8,0.6-1.6,1.6-2.2l4.5-2.6
				c1.7-1,4.3-1.1,5.8-0.2l5.3,3c0.8,0.4,1.2,1.1,1.2,1.8c0,0.8-0.6,1.6-1.6,2.2l-4.5,2.6C336.3,259.4,335.1,259.6,333.9,259.6z
				 M334.3,249.6c-1,0-2,0.2-2.8,0.7l-4.5,2.6c-0.7,0.4-1.1,0.9-1.1,1.3c0,0.4,0.4,0.7,0.7,0.9l5.3,3c1.2,0.7,3.4,0.6,4.8-0.2
				l4.5-2.6c0.7-0.4,1.1-0.9,1.1-1.3c0-0.4-0.4-0.7-0.7-0.9l-5.3-3C335.8,249.8,335,249.6,334.3,249.6z"/>
		</g>
		<g>
			<path class="st11" d="M194.8,325.8c-1,0-1.9-0.2-2.6-0.6l-8-4.6c-0.8-0.4-1.2-1.1-1.2-1.8c0-0.8,0.6-1.6,1.6-2.2l34.5-19.9
				c1.7-1,4.3-1.1,5.8-0.2l8,4.6c0.8,0.4,1.2,1.1,1.2,1.8c0,0.8-0.6,1.6-1.6,2.2L198,325C197.2,325.5,196,325.8,194.8,325.8z
				 M222.3,296.9c-1,0-2,0.2-2.8,0.7L185,317.5c-0.7,0.4-1.1,0.9-1.1,1.3s0.4,0.7,0.7,0.9l8,4.6c1.2,0.7,3.4,0.6,4.8-0.2l34.5-19.9
				c0.7-0.4,1.1-0.9,1.1-1.3s-0.4-0.7-0.7-0.9l-8-4.6C223.9,297,223.1,296.9,222.3,296.9z"/>
			<path class="st11" d="M104.2,318.2c-1,0-1.9-0.2-2.6-0.6l-5.3-3c-0.8-0.4-1.2-1.1-1.2-1.8c0-0.8,0.6-1.6,1.6-2.2l17.1-9.9
				c1.7-1,4.3-1.1,5.8-0.2l5.3,3c0.8,0.4,1.2,1.1,1.2,1.8c0,0.8-0.6,1.6-1.6,2.2l-17.1,9.9C106.5,317.9,105.3,318.2,104.2,318.2z
				 M102.1,316.7c1.2,0.7,3.4,0.6,4.8-0.2l17.1-9.9c0.7-0.4,1.1-0.9,1.1-1.3s-0.4-0.7-0.7-0.9l-5.3-3c-1.2-0.7-3.4-0.6-4.8,0.2
				l-17.1,9.9c-0.7,0.4-1.1,0.9-1.1,1.3s0.4,0.7,0.7,0.9L102.1,316.7z"/>
			<path class="st11" d="M255.4,390.8c-1,0-2.1-0.2-2.9-0.7l-23.6-13.6l0.5-0.9l23.6,13.6c1.3,0.8,3.5,0.8,4.8,0l94.7-54.6
				c0.5-0.3,0.9-0.7,0.9-1.1s-0.3-0.8-0.9-1.1l-168.9-97.5c-1.3-0.8-3.5-0.8-4.8,0L140.6,257c-0.5,0.3-0.9,0.7-0.9,1.1
				s0.3,0.8,0.9,1.1l34.1,19.7c1.3,0.8,3.5,0.8,4.8,0l17.4-10.1c1.6-0.9,4.2-0.9,5.8,0l57.3,33.1c0.9,0.5,1.4,1.2,1.4,2
				s-0.5,1.5-1.4,2L167.8,359c-1.6,0.9-4.2,0.9-5.8,0l-96.7-55.8c-0.9-0.5-1.4-1.2-1.4-2s0.5-1.5,1.4-2l48.1-27.8
				c1.6-0.9,4.2-0.9,5.8,0l55.7,32.2c0.9,0.5,1.4,1.2,1.4,2s-0.5,1.5-1.4,2l-24.4,14.1l-0.5-0.9l24.4-14.1c0.5-0.3,0.9-0.7,0.9-1.1
				s-0.3-0.8-0.9-1.1l-55.7-32.2c-1.3-0.8-3.5-0.8-4.8,0l-48.1,27.8c-0.5,0.3-0.9,0.7-0.9,1.1s0.3,0.8,0.9,1.1l96.7,55.8
				c1.3,0.8,3.5,0.8,4.8,0l92.1-53.2c0.5-0.3,0.9-0.7,0.9-1.1s-0.3-0.8-0.9-1.1l-57.3-33.1c-1.3-0.8-3.5-0.8-4.8,0l-17.4,10.1
				c-1.6,0.9-4.2,0.9-5.8,0L140,260c-0.9-0.5-1.4-1.2-1.4-2s0.5-1.5,1.4-2l38.2-22.1c1.6-0.9,4.2-0.9,5.8,0l168.9,97.5
				c0.9,0.5,1.4,1.2,1.4,2s-0.5,1.5-1.4,2L258.2,390C257.5,390.6,256.4,390.8,255.4,390.8z"/>
			<path class="st11" d="M241.6,362.7l-10.7-6.2c-0.9-0.5-1.4-1.2-1.4-2s0.5-1.5,1.4-2l55.1-31.8c1.6-0.9,4.2-0.9,5.8,0l7.8,4.5
				c0.9,0.5,1.4,1.2,1.4,2s-0.5,1.5-1.4,2L241.6,362.7z M289,321c-0.9,0-1.8,0.2-2.4,0.6l-55.1,31.8c-0.5,0.3-0.9,0.7-0.9,1.1
				s0.3,0.8,0.9,1.1l10.2,5.9l0.3-0.1l57.3-33.1c0.5-0.3,0.9-0.7,0.9-1.1s-0.3-0.8-0.9-1.1l-7.8-4.5C290.7,321.2,289.9,321,289,321z
				"/>
			<path class="st11" d="M148.9,386.3c-1,0-1.9-0.2-2.6-0.6l-64.8-37.4c-0.8-0.4-1.2-1.1-1.2-1.8c0-0.8,0.6-1.6,1.6-2.2l14.4-8.3
				c1.7-1,4.3-1.1,5.8-0.2l64.8,37.4c0.8,0.4,1.2,1.1,1.2,1.8c0,0.8-0.6,1.6-1.6,2.2l-14.4,8.3C151.2,386.1,150.1,386.3,148.9,386.3
				z M146.8,384.9c1.2,0.7,3.4,0.6,4.8-0.2l14.4-8.3c0.7-0.4,1.1-0.9,1.1-1.3s-0.4-0.7-0.7-0.9l-64.8-37.4c-1.2-0.7-3.4-0.6-4.8,0.2
				l-14.4,8.3c-0.7,0.4-1.1,0.9-1.1,1.3s0.4,0.7,0.7,0.9L146.8,384.9z"/>
			<path class="st11" d="M179.2,434.8c-1,0-2.1-0.2-2.9-0.7l-25.5-14.7c-0.9-0.5-1.4-1.2-1.4-2s0.5-1.5,1.4-2l58.7-33.9
				c1.6-0.9,4.2-0.9,5.8,0l10.1,5.8c0.9,0.5,1.4,1.2,1.4,2s-0.5,1.5-1.4,2L184.3,415l-0.5-0.9l41.1-23.7c0.5-0.3,0.9-0.7,0.9-1.1
				s-0.3-0.8-0.9-1.1l-10.1-5.8c-1.3-0.8-3.5-0.8-4.8,0l-58.7,33.9c-0.5,0.3-0.9,0.7-0.9,1.1s0.3,0.8,0.9,1.1l25.5,14.7
				c1.3,0.8,3.5,0.8,4.8,0l63.2-36.5l0.5,0.9l-63.2,36.5C181.3,434.6,180.2,434.8,179.2,434.8z"/>
			<path class="st11" d="M116.9,291.8c-1,0-1.9-0.2-2.6-0.6l-5.3-3c-0.8-0.4-1.2-1.1-1.2-1.8c0-0.8,0.6-1.6,1.6-2.2l4.5-2.6
				c1.7-1,4.3-1.1,5.8-0.2l5.3,3c0.8,0.4,1.2,1.1,1.2,1.8c0,0.8-0.6,1.6-1.6,2.2l-4.5,2.6C119.2,291.5,118,291.8,116.9,291.8z
				 M114.8,290.3c1.2,0.7,3.4,0.6,4.8-0.2l4.5-2.6c0.7-0.4,1.1-0.9,1.1-1.3s-0.4-0.7-0.7-0.9l-5.3-3c-1.2-0.7-3.4-0.6-4.8,0.2
				l-4.5,2.6c-0.7,0.4-1.1,0.9-1.1,1.3s0.4,0.7,0.7,0.9L114.8,290.3z"/>
			<path class="st11" d="M133.4,301.3c-1,0-1.9-0.2-2.6-0.6l-5.3-3c-0.8-0.4-1.2-1.1-1.2-1.8c0-0.8,0.6-1.6,1.6-2.2l4.5-2.6
				c1.7-1,4.3-1.1,5.8-0.2l5.3,3c0.8,0.4,1.2,1.1,1.2,1.8c0,0.8-0.6,1.6-1.6,2.2l-4.5,2.6C135.7,301.1,134.5,301.3,133.4,301.3z
				 M133.7,291.3c-1,0-2,0.2-2.8,0.7l-4.5,2.6c-0.7,0.4-1.1,0.9-1.1,1.3s0.4,0.7,0.7,0.9l5.3,3c1.2,0.7,3.4,0.6,4.8-0.2l4.5-2.6
				c0.7-0.4,1.1-0.9,1.1-1.3s-0.4-0.7-0.7-0.9l-5.3-3C135.2,291.5,134.5,291.3,133.7,291.3z"/>
			<path class="st11" d="M149.9,310.9c-1,0-1.9-0.2-2.6-0.6l-5.3-3c-0.8-0.4-1.2-1.1-1.2-1.8c0-0.8,0.6-1.6,1.6-2.2l4.5-2.6
				c1.7-1,4.3-1.1,5.8-0.2l5.3,3c0.8,0.4,1.2,1.1,1.2,1.8c0,0.8-0.6,1.6-1.6,2.2l-4.5,2.6C152.2,310.6,151,310.9,149.9,310.9z
				 M147.8,309.4c1.2,0.7,3.4,0.6,4.8-0.2l4.5-2.6c0.7-0.4,1.1-0.9,1.1-1.3s-0.4-0.7-0.7-0.9l-5.3-3c-1.2-0.7-3.4-0.6-4.8,0.2
				l-4.5,2.6c-0.7,0.4-1.1,0.9-1.1,1.3s0.4,0.7,0.7,0.9L147.8,309.4z"/>
			<path class="st11" d="M100.3,301.4c-1,0-1.9-0.2-2.6-0.6l-5.3-3c-0.8-0.4-1.2-1.1-1.2-1.8c0-0.8,0.6-1.6,1.6-2.2l4.5-2.6
				c1.7-1,4.3-1.1,5.8-0.2l5.3,3c0.8,0.4,1.2,1.1,1.2,1.8c0,0.8-0.6,1.6-1.6,2.2l-4.5,2.6C102.6,301.1,101.4,301.4,100.3,301.4z
				 M100.6,291.4c-1,0-2,0.2-2.8,0.7l-4.5,2.6c-0.7,0.4-1.1,0.9-1.1,1.3s0.4,0.7,0.7,0.9l5.3,3c1.2,0.7,3.4,0.6,4.8-0.2l4.5-2.6
				c0.7-0.4,1.1-0.9,1.1-1.3s-0.4-0.7-0.7-0.9l-5.3-3C102.1,291.5,101.4,291.4,100.6,291.4z"/>
			<path class="st11" d="M133.3,320.5c-1,0-1.9-0.2-2.6-0.6l-5.3-3c-0.8-0.4-1.2-1.1-1.2-1.8c0-0.8,0.6-1.6,1.6-2.2l4.5-2.6
				c1.7-1,4.3-1.1,5.8-0.2l5.3,3c0.8,0.4,1.2,1.1,1.2,1.8c0,0.8-0.6,1.6-1.6,2.2l-4.5,2.6C135.6,320.2,134.4,320.5,133.3,320.5z
				 M133.6,310.4c-1,0-2,0.2-2.8,0.7l-4.5,2.6c-0.7,0.4-1.1,0.9-1.1,1.3s0.4,0.7,0.7,0.9l5.3,3c1.2,0.7,3.4,0.6,4.8-0.2l4.5-2.6
				c0.7-0.4,1.1-0.9,1.1-1.3s-0.4-0.7-0.7-0.9l-5.3-3C135.2,310.6,134.4,310.4,133.6,310.4z"/>
		</g>
	</g>
	<path class="st12" d="M124.9,343.7c-3.7,0-7.5-0.8-10.4-2.5l-46.2-26.7c-3.2-1.9-5-4.5-5-7.4s1.8-5.5,5-7.4l46.2-26.7
		c1.7-1,2.7-2.2,2.7-3.3c0-1.1-1-2.3-2.7-3.3l-13.9-8c-3.2-1.9-5-4.5-5-7.4s1.8-5.5,5-7.4l46.2-26.7c5.8-3.4,15-3.4,20.8,0
		l46.2,26.7c3.2,1.9,5,4.5,5,7.4s-1.8,5.5-5,7.4l-46.2,26.7l0,0c-1.7,1-2.7,2.2-2.7,3.3c0,1.1,1,2.3,2.7,3.3l13.9,8
		c3.2,1.9,5,4.5,5,7.4s-1.8,5.5-5,7.4l-46.2,26.7C132.4,342.8,128.7,343.7,124.9,343.7z M157.2,219.2c-2.9,0-5.9,0.6-8.1,1.9
		L103,247.8c-1.7,1-2.7,2.2-2.7,3.3s1,2.3,2.7,3.3l13.9,8c3.2,1.9,5,4.5,5,7.4s-1.8,5.5-5,7.4l-46.2,26.7c-1.7,1-2.7,2.2-2.7,3.3
		c0,1.1,1,2.3,2.7,3.3l46.2,26.7c4.4,2.5,11.8,2.5,16.1,0l46.2-26.7c1.7-1,2.7-2.2,2.7-3.3c0-1.1-1-2.3-2.7-3.3l-13.9-8
		c-3.2-1.9-5-4.5-5-7.4s1.8-5.5,5-7.4l46.2-26.7c1.7-1,2.7-2.2,2.7-3.3s-1-2.3-2.7-3.3l-46.2-26.7
		C163.1,219.9,160.2,219.2,157.2,219.2z M166.5,283.1L166.5,283.1L166.5,283.1z"/>
	<path class="st13" d="M124.9,341.8c-3.4,0-6.9-0.8-9.5-2.3l-46.2-26.7c-2.6-1.5-4.1-3.5-4.1-5.7s1.4-4.2,4.1-5.7l46.2-26.7
		c2.3-1.3,3.6-3.1,3.6-4.9s-1.3-3.6-3.6-4.9l-13.9-8c-2.6-1.5-4.1-3.5-4.1-5.7s1.4-4.2,4.1-5.7l46.2-26.7c5.2-3,13.7-3,18.9,0
		l46.2,26.7c2.6,1.5,4.1,3.5,4.1,5.7s-1.4,4.2-4.1,5.7l-46.2,26.7c-2.3,1.3-3.6,3.1-3.6,4.9s1.3,3.6,3.6,4.9l13.9,8
		c2.6,1.5,4.1,3.5,4.1,5.7s-1.4,4.2-4.1,5.7l-46.2,26.7C131.8,341,128.3,341.8,124.9,341.8z M157.2,217.4c-3.3,0-6.5,0.7-9,2.2
		L102,246.2c-2.3,1.3-3.6,3.1-3.6,4.9c0,1.8,1.3,3.6,3.6,4.9l13.9,8c2.6,1.5,4.1,3.5,4.1,5.7s-1.4,4.2-4.1,5.7l-46.2,26.7
		c-2.3,1.3-3.6,3.1-3.6,4.9s1.3,3.6,3.6,4.9l46.2,26.7c5,2.9,13,2.9,18,0l46.2-26.7c2.3-1.3,3.6-3.1,3.6-4.9s-1.3-3.6-3.6-4.9
		l-13.9-8c-2.6-1.5-4.1-3.5-4.1-5.7s1.4-4.2,4.1-5.7l0.2,0.4l-0.2-0.4l46.2-26.7c2.3-1.3,3.6-3.1,3.6-4.9c0-1.8-1.3-3.6-3.6-4.9
		l-46.2-26.7C163.8,218.1,160.5,217.4,157.2,217.4z"/>
	<g>
		<g>
			<path class="st4" d="M177.3,276.9c0.6,1,0.2,2.3-0.7,2.9c-1,0.6-2.3,0.2-2.8-0.8c-0.6-1-0.2-2.3,0.7-2.9S176.7,275.9,177.3,276.9
				z"/>
		</g>
		<g>
			<path class="st4" d="M188,270.7c0.6,1,0.2,2.3-0.7,2.9c-1,0.6-2.3,0.2-2.8-0.8s-0.2-2.3,0.7-2.9
				C186.2,269.3,187.5,269.7,188,270.7z"/>
		</g>
		<g>
			<path class="st4" d="M198.8,264.5c0.6,1,0.2,2.3-0.7,2.9c-1,0.6-2.3,0.2-2.8-0.8c-0.6-1-0.2-2.3,0.7-2.9
				C197,263.1,198.2,263.4,198.8,264.5z"/>
		</g>
		<g>
			<path class="st4" d="M209.6,258.2c0.6,1,0.2,2.3-0.7,2.9c-1,0.6-2.3,0.2-2.8-0.8c-0.6-1-0.2-2.3,0.7-2.9
				C207.7,256.9,209,257.2,209.6,258.2z"/>
		</g>
		<g>
			<path class="st4" d="M216,249.2c0.5-0.2,1.1-0.2,1.6,0.1c0.2,0.2,0.5,0.4,0.7,0.8c0.1,0.3,0.2,0.7,0.3,1.2c0,0.9-0.4,1.6-1,1.9
				c-0.5,0.3-1.1,0.3-1.6,0.1c-0.5-0.3-0.9-0.7-1.2-1c-0.3-0.4-0.5-0.7-0.4-1c0-0.1,0-0.3,0.1-0.5s0.2-0.3,0.3-0.5
				C215.1,249.8,215.5,249.4,216,249.2z"/>
		</g>
		<g>
			<path class="st4" d="M206.1,242c0.6-1,1.9-1.3,2.8-0.8c1,0.6,1.3,1.8,0.7,2.9c-0.6,1-1.9,1.3-2.8,0.8
				C205.9,244.3,205.5,243,206.1,242z"/>
		</g>
		<g>
			<path class="st4" d="M195.3,235.8c0.6-1,1.9-1.3,2.8-0.8c1,0.6,1.3,1.8,0.7,2.9c-0.6,1-1.9,1.3-2.8,0.8
				C195.1,238,194.7,236.8,195.3,235.8z"/>
		</g>
		<g>
			<path class="st4" d="M184.5,229.5c0.6-1,1.9-1.3,2.8-0.8c1,0.6,1.3,1.8,0.7,2.9c-0.6,1-1.9,1.3-2.8,0.8
				C184.3,231.8,184,230.5,184.5,229.5z"/>
		</g>
		<g>
			<path class="st4" d="M173.8,223.3c0.6-1,1.9-1.3,2.8-0.8c1,0.6,1.3,1.8,0.7,2.9c-0.6,1-1.9,1.3-2.8,0.8
				C173.5,225.6,173.2,224.3,173.8,223.3z"/>
		</g>
		<g>
			<path class="st4" d="M162.8,217.6c0.1-0.6,0.5-1,1-1.3c0.5-0.2,1.1-0.3,1.7,0c0.6,0.2,1,0.7,1.2,1.3c0.2,0.5,0.1,1.1-0.2,1.6
				s-0.8,0.8-1.2,1c-0.5,0.2-1,0.2-1.4,0c-0.5-0.2-0.8-0.5-1-1C162.7,218.7,162.6,218.2,162.8,217.6z"/>
		</g>
		<g>
			<path class="st4" d="M150.5,218c-0.4-1.1,0.3-2.3,1.5-2.6c1.3-0.3,2.4,0.5,2.5,1.7s-0.6,2.2-1.6,2.4
				C152,219.7,150.9,219.1,150.5,218z"/>
		</g>
		<g>
			<path class="st4" d="M139.6,224c-0.6-1-0.2-2.3,0.7-2.9c1-0.6,2.3-0.2,2.8,0.8s0.2,2.3-0.7,2.9C141.4,225.3,140.2,225,139.6,224z
				"/>
		</g>
		<g>
			<path class="st4" d="M128.8,230.2c-0.6-1-0.2-2.3,0.7-2.9c1-0.6,2.3-0.2,2.8,0.8c0.6,1,0.2,2.3-0.7,2.9
				C130.7,231.5,129.4,231.2,128.8,230.2z"/>
		</g>
		<g>
			<path class="st4" d="M118,236.4c-0.6-1-0.2-2.3,0.7-2.9c1-0.6,2.3-0.2,2.8,0.8c0.6,1,0.2,2.3-0.7,2.9
				C119.9,237.8,118.6,237.4,118,236.4z"/>
		</g>
		<g>
			<path class="st4" d="M107.3,242.6c-0.6-1-0.2-2.3,0.7-2.9c1-0.6,2.3-0.2,2.8,0.8c0.6,1,0.2,2.3-0.7,2.9
				C109.1,244,107.8,243.6,107.3,242.6z"/>
		</g>
		<g>
			<path class="st4" d="M98,250.4c-0.6-0.1-1-0.4-1.3-1c-0.2-0.6-0.2-1.4,0.3-2c0.4-0.6,1-1,1.6-1s1.1,0.2,1.5,0.6
				c0.7,0.9,0.8,2.1,0.4,2.7c-0.2,0.3-0.5,0.5-1,0.6C99.2,250.4,98.6,250.5,98,250.4z"/>
		</g>
		<g>
			<path class="st4" d="M106,258.9c-0.6,1-1.9,1.3-2.8,0.8c-1-0.6-1.3-1.8-0.7-2.9c0.6-1,1.9-1.3,2.8-0.8
				C106.3,256.6,106.6,257.9,106,258.9z"/>
		</g>
		<g>
			<path class="st4" d="M116.8,265.2c-0.3,0.5-0.8,0.7-1.3,0.9c-0.2,0.1-0.5,0.1-0.7,0.1c-0.3,0-0.5-0.1-0.8-0.3
				c-1-0.6-1.3-1.8-0.7-2.9c0.6-1,1.9-1.3,2.8-0.8c0.2,0.1,0.5,0.3,0.6,0.6c0.2,0.2,0.3,0.5,0.4,0.8
				C117.2,264.1,117.1,264.7,116.8,265.2z"/>
		</g>
		<g>
			<path class="st4" d="M115.7,275.1c-0.6-1-0.3-2.2,0.3-2.8c0.3-0.3,0.7-0.4,1.2-0.4s1,0.1,1.5,0.4s0.8,0.8,0.8,1.4
				s-0.3,1.3-0.8,1.7C117.6,276.4,116.2,276.1,115.7,275.1z"/>
		</g>
		<g>
			<path class="st4" d="M104.9,281.3c-0.6-1-0.2-2.3,0.7-2.9c1-0.6,2.3-0.2,2.8,0.8c0.6,1,0.2,2.3-0.7,2.9
				C106.7,282.7,105.5,282.3,104.9,281.3z"/>
		</g>
		<g>
			<path class="st4" d="M94.1,287.6c-0.6-1-0.2-2.3,0.7-2.9c1-0.6,2.3-0.2,2.8,0.8c0.6,1,0.2,2.3-0.7,2.9
				C96,288.9,94.7,288.6,94.1,287.6z"/>
		</g>
		<g>
			<path class="st4" d="M83.3,293.8c-0.6-1-0.2-2.3,0.7-2.9c1-0.6,2.3-0.2,2.8,0.8c0.6,1,0.2,2.3-0.7,2.9
				C85.2,295.1,83.9,294.8,83.3,293.8z"/>
		</g>
		<g>
			<path class="st4" d="M72.6,300c-0.6-1-0.2-2.3,0.7-2.9c1-0.6,2.3-0.2,2.8,0.8c0.6,1,0.2,2.3-0.7,2.9
				C74.4,301.4,73.1,301,72.6,300z"/>
		</g>
		<g>
			<path class="st4" d="M66.1,309.1c-0.5,0.2-1.1,0.2-1.6-0.1c-0.2-0.2-0.5-0.4-0.7-0.8c-0.1-0.3-0.2-0.7-0.3-1.2
				c0-0.9,0.4-1.6,1-1.9c0.5-0.3,1.1-0.3,1.6-0.1c0.5,0.3,0.9,0.7,1.2,1c0.3,0.4,0.5,0.7,0.4,1c0,0.1,0,0.3-0.1,0.5
				s-0.2,0.3-0.3,0.5C67,308.4,66.6,308.8,66.1,309.1z"/>
		</g>
		<g>
			<path class="st4" d="M76.1,316.2c-0.6,1-1.9,1.3-2.8,0.8c-1-0.6-1.3-1.8-0.7-2.9c0.6-1,1.9-1.3,2.8-0.8
				C76.3,314,76.6,315.2,76.1,316.2z"/>
		</g>
		<g>
			<path class="st4" d="M86.8,322.5c-0.6,1-1.9,1.3-2.8,0.8c-1-0.6-1.3-1.8-0.7-2.9c0.6-1,1.9-1.3,2.8-0.8
				C87.1,320.2,87.4,321.5,86.8,322.5z"/>
		</g>
		<g>
			<path class="st4" d="M97.6,328.7c-0.6,1-1.9,1.3-2.8,0.8c-1-0.6-1.3-1.8-0.7-2.9c0.6-1,1.9-1.3,2.8-0.8
				C97.9,326.4,98.2,327.7,97.6,328.7z"/>
		</g>
		<g>
			<path class="st4" d="M108.4,334.9c-0.6,1-1.9,1.3-2.8,0.8c-1-0.6-1.3-1.8-0.7-2.9c0.6-1,1.9-1.3,2.8-0.8
				C108.6,332.6,109,333.9,108.4,334.9z"/>
		</g>
		<g>
			<path class="st4" d="M119.4,340.6c-0.1,0.6-0.5,1-1,1.3c-0.5,0.2-1.1,0.3-1.7,0c-0.6-0.2-1-0.7-1.2-1.3c-0.2-0.5-0.1-1.1,0.2-1.6
				c0.3-0.5,0.8-0.8,1.2-1c0.5-0.2,1-0.2,1.4,0c0.5,0.2,0.8,0.5,1,1S119.5,340.1,119.4,340.6z"/>
		</g>
		<g>
			<path class="st4" d="M131.7,340.2c0.4,1.1-0.3,2.3-1.5,2.6c-1.3,0.3-2.4-0.5-2.5-1.7s0.6-2.2,1.6-2.4
				C130.2,338.5,131.3,339.2,131.7,340.2z"/>
		</g>
		<g>
			<path class="st4" d="M142.6,334.3c0.6,1,0.2,2.3-0.7,2.9c-1,0.6-2.3,0.2-2.8-0.8c-0.6-1-0.2-2.3,0.7-2.9S142,333.3,142.6,334.3z"
				/>
		</g>
		<g>
			<path class="st4" d="M153.3,328c0.6,1,0.2,2.3-0.7,2.9c-1,0.6-2.3,0.2-2.8-0.8c-0.6-1-0.2-2.3,0.7-2.9
				C151.5,326.7,152.8,327,153.3,328z"/>
		</g>
		<g>
			<path class="st4" d="M164.1,321.8c0.6,1,0.2,2.3-0.7,2.9c-1,0.6-2.3,0.2-2.8-0.8c-0.6-1-0.2-2.3,0.7-2.9
				C162.3,320.5,163.5,320.8,164.1,321.8z"/>
		</g>
		<g>
			<path class="st4" d="M174.9,315.6c0.6,1,0.2,2.3-0.7,2.9c-1,0.6-2.3,0.2-2.8-0.8c-0.6-1-0.2-2.3,0.7-2.9
				C173,314.2,174.3,314.6,174.9,315.6z"/>
		</g>
		<g>
			<path class="st4" d="M184.1,307.8c0.6,0.1,1,0.4,1.3,1c0.2,0.6,0.2,1.4-0.3,2c-0.4,0.6-1,1-1.6,1s-1.1-0.2-1.5-0.6
				c-0.7-0.9-0.8-2.1-0.4-2.7c0.2-0.3,0.5-0.5,1-0.6C183,307.9,183.5,307.7,184.1,307.8z"/>
		</g>
		<g>
			<path class="st4" d="M176.1,299.4c0.6-1,1.9-1.3,2.8-0.8c1,0.6,1.3,1.8,0.7,2.9c-0.6,1-1.9,1.3-2.8,0.8
				C175.9,301.6,175.6,300.4,176.1,299.4z"/>
		</g>
		<g>
			<path class="st4" d="M165.4,293.1c0.3-0.5,0.8-0.7,1.3-0.9c0.2-0.1,0.5-0.1,0.7-0.1c0.3,0,0.5,0.1,0.8,0.3c1,0.6,1.3,1.8,0.7,2.9
				c-0.6,1-1.9,1.3-2.8,0.8c-0.2-0.1-0.5-0.3-0.6-0.5c-0.2-0.2-0.3-0.5-0.4-0.8C164.9,294.1,165,293.5,165.4,293.1z"/>
		</g>
		<g>
			<path class="st4" d="M166.5,283.1c0.6,1,0.3,2.2-0.3,2.8c-0.3,0.3-0.7,0.4-1.2,0.4s-1-0.1-1.5-0.4s-0.8-0.8-0.8-1.4
				s0.3-1.3,0.8-1.7C164.5,281.8,165.9,282.1,166.5,283.1z"/>
		</g>
	</g>
	<path class="st12" d="M202.5,389.2c-2.9,0-5.8-0.6-7.9-1.9l0,0l-51.1-29.5c-2.5-1.4-3.9-3.5-3.9-5.9c0-2.7,1.8-5.3,5-7.1l48-27.7
		c5.3-3.1,13.2-3.4,17.9-0.6l51.1,29.5c2.5,1.4,3.9,3.5,3.9,5.9c0,2.7-1.8,5.3-5,7.1l-48,27.7C209.6,388.4,206,389.2,202.5,389.2z
		 M202.6,319.3c-2.7,0-5.5,0.6-7.7,1.9l-48,27.7c-2,1.1-2.6,2.3-2.6,3.1c0,0.9,1,1.6,1.5,1.9l51.1,29.5l0,0
		c3.3,1.9,9.3,1.6,13.2-0.6l48-27.7c2-1.1,2.6-2.3,2.6-3.1c0-0.9-1-1.6-1.5-1.9l-51.1-29.5C206.7,319.7,204.7,319.3,202.6,319.3z"/>
	<path class="st13" d="M202.5,387.3c-2.6,0-5.1-0.5-7-1.6l-51.1-29.5c-1.9-1.1-2.9-2.6-2.9-4.3c0-2,1.5-4,4-5.5l48-27.7
		c4.7-2.7,11.9-3,16-0.6l51.1,29.5c1.9,1.1,2.9,2.6,2.9,4.3c0,2-1.5,4-4,5.5l-48,27.7C208.9,386.6,205.6,387.3,202.5,387.3z
		 M202.5,317.4c-3,0-6.1,0.7-8.6,2.1l-48,27.7c-2.3,1.3-3.6,3-3.6,4.7c0,1.3,0.9,2.6,2.5,3.5l51.1,29.5c3.9,2.2,10.6,1.9,15.1-0.6
		l48-27.7c2.3-1.3,3.6-3,3.6-4.7c0-1.3-0.9-2.6-2.5-3.5L209,318.9C207.3,317.9,205,317.4,202.5,317.4z"/>
	<g>
		<g>
			<path class="st4" d="M185,379.1c0.6-1,1.8-1.4,2.8-0.8s1.3,1.8,0.7,2.8s-1.8,1.4-2.8,0.8C184.8,381.4,184.4,380.2,185,379.1z"/>
		</g>
		<g>
			<path class="st4" d="M174.3,373c0.6-1,1.8-1.4,2.8-0.8s1.3,1.8,0.7,2.8s-1.8,1.4-2.8,0.8C174.1,375.2,173.7,374,174.3,373z"/>
		</g>
		<g>
			<path class="st4" d="M163.6,366.8c0.6-1,1.8-1.4,2.8-0.8s1.3,1.8,0.7,2.8s-1.8,1.4-2.8,0.8C163.4,369.1,163,367.8,163.6,366.8z"
				/>
		</g>
		<g>
			<path class="st4" d="M152.9,360.6c0.6-1,1.8-1.4,2.8-0.8s1.3,1.8,0.7,2.8s-1.8,1.4-2.8,0.8C152.6,362.9,152.3,361.6,152.9,360.6z
				"/>
		</g>
		<g>
			<path class="st4" d="M142.6,353.9c0.5-0.3,1-0.4,1.5-0.5c0.2,0,0.5,0,0.6,0c0.2,0,0.4,0.1,0.5,0.2c0.2,0.1,0.3,0.3,0.4,0.5
				c0.2,0.2,0.3,0.5,0.3,0.7c0.1,0.5,0.1,1.1-0.2,1.6s-0.8,0.8-1.3,1c-0.3,0.1-0.5,0.1-0.8,0.1c-0.3-0.1-0.6-0.2-0.9-0.4
				c-0.3-0.2-0.5-0.5-0.7-0.8s-0.3-0.6-0.3-0.9C141.8,354.8,142.1,354.3,142.6,353.9z"/>
		</g>
		<g>
			<path class="st4" d="M148.9,345.1c0.6,1,0.2,2.3-0.7,2.8c-0.5,0.3-1.1,0.3-1.6,0.2c-0.5-0.2-0.9-0.5-1.3-1
				c-0.3-0.5-0.4-1.1-0.2-1.6c0.1-0.5,0.5-1,1-1.3C147,343.7,148.3,344.1,148.9,345.1z"/>
		</g>
		<g>
			<path class="st4" d="M159.6,338.9c0.6,1,0.2,2.3-0.7,2.8c-1,0.6-2.3,0.2-2.8-0.8c-0.6-1-0.2-2.3,0.7-2.8
				C157.7,337.5,159,337.9,159.6,338.9z"/>
		</g>
		<g>
			<path class="st4" d="M170.3,332.7c0.6,1,0.2,2.3-0.7,2.8c-1,0.6-2.3,0.2-2.8-0.8c-0.6-1-0.2-2.3,0.7-2.8
				C168.4,331.3,169.7,331.7,170.3,332.7z"/>
		</g>
		<g>
			<path class="st4" d="M181,326.5c0.6,1,0.2,2.3-0.7,2.8c-1,0.6-2.3,0.2-2.8-0.8c-0.6-1-0.2-2.3,0.7-2.8
				C179.1,325.2,180.4,325.5,181,326.5z"/>
		</g>
		<g>
			<path class="st4" d="M191.7,320.3c0.6,1,0.2,2.3-0.7,2.8c-1,0.6-2.3,0.2-2.8-0.8c-0.6-1-0.2-2.3,0.7-2.8
				C189.9,319,191.1,319.3,191.7,320.3z"/>
		</g>
		<g>
			<path class="st4" d="M203.4,317c-0.1,1.2-0.9,2-1.9,2.1s-2-0.7-2.2-1.9c-0.2-1.1,0.6-2.3,1.9-2.3
				C202.5,314.8,203.5,315.8,203.4,317z"/>
		</g>
		<g>
			<path class="st4" d="M214.7,321.6c-0.6,1-1.8,1.4-2.8,0.8s-1.3-1.8-0.7-2.8s1.8-1.4,2.8-0.8C214.9,319.3,215.2,320.6,214.7,321.6
				z"/>
		</g>
		<g>
			<path class="st4" d="M225.4,327.8c-0.6,1-1.8,1.4-2.8,0.8s-1.3-1.8-0.7-2.8s1.8-1.4,2.8-0.8C225.6,325.5,225.9,326.8,225.4,327.8
				z"/>
		</g>
		<g>
			<path class="st4" d="M236.1,334c-0.6,1-1.8,1.4-2.8,0.8s-1.3-1.8-0.7-2.8s1.8-1.4,2.8-0.8C236.3,331.7,236.7,333,236.1,334z"/>
		</g>
		<g>
			<path class="st4" d="M246.8,340.1c-0.6,1-1.8,1.4-2.8,0.8s-1.3-1.8-0.7-2.8s1.8-1.4,2.8-0.8C247,337.9,247.4,339.1,246.8,340.1z"
				/>
		</g>
		<g>
			<path class="st4" d="M257.5,346.3c-0.6,1-1.8,1.4-2.8,0.8s-1.3-1.8-0.7-2.8s1.8-1.4,2.8-0.8C257.7,344.1,258.1,345.3,257.5,346.3
				z"/>
		</g>
		<g>
			<path class="st4" d="M261.3,355.4c-0.8-0.9-0.9-2-0.6-2.6c0.2-0.3,0.4-0.4,0.9-0.6c0.4-0.2,0.9-0.4,1.5-0.4s1.1,0.2,1.4,0.8
				c0.3,0.6,0.3,1.4-0.1,2.1c-0.2,0.4-0.4,0.7-0.7,0.8c-0.3,0.2-0.6,0.3-0.9,0.4C262.3,356.1,261.7,355.9,261.3,355.4z"/>
		</g>
		<g>
			<path class="st4" d="M250.8,361.9c-0.6-1-0.2-2.3,0.7-2.8c1-0.6,2.3-0.2,2.8,0.8s0.2,2.3-0.7,2.8
				C252.7,363.2,251.4,362.9,250.8,361.9z"/>
		</g>
		<g>
			<path class="st4" d="M240.1,368.1c-0.6-1-0.2-2.3,0.7-2.8c1-0.6,2.3-0.2,2.8,0.8c0.6,1,0.2,2.3-0.7,2.8
				C241.9,369.4,240.7,369.1,240.1,368.1z"/>
		</g>
		<g>
			<path class="st4" d="M229.4,374.2c-0.6-1-0.2-2.3,0.7-2.8c1-0.6,2.3-0.2,2.8,0.8c0.6,1,0.2,2.3-0.7,2.8
				C231.2,375.6,230,375.2,229.4,374.2z"/>
		</g>
		<g>
			<path class="st4" d="M218.7,380.4c-0.6-1-0.2-2.3,0.7-2.8c1-0.6,2.3-0.2,2.8,0.8c0.6,1,0.2,2.3-0.7,2.8
				C220.5,381.8,219.3,381.4,218.7,380.4z"/>
		</g>
		<g>
			<path class="st4" d="M207.8,386.1c-0.3-1.1,0.2-2.2,1.1-2.6c0.5-0.2,0.9-0.2,1.4,0s1,0.5,1.2,1c0.3,0.5,0.4,1.1,0.2,1.6
				s-0.6,1-1.2,1.3C209.3,387.9,208.1,387.3,207.8,386.1z"/>
		</g>
		<g>
			<path class="st4" d="M195.7,385.3c0.6-1,1.7-1.4,2.5-1.2c0.9,0.3,1.5,1.3,1.3,2.5c-0.2,1.1-1.4,1.9-2.7,1.5
				c-0.6-0.2-1.1-0.7-1.3-1.2C195.4,386.4,195.4,385.8,195.7,385.3z"/>
		</g>
	</g>
	<path class="st12" d="M281.8,343.4c-2.9,0-5.8-0.6-7.9-1.9L222.8,312c-2.5-1.4-3.9-3.5-3.9-5.9c0-2.7,1.8-5.3,5-7.1l48-27.7
		c5.3-3.1,13.2-3.4,17.9-0.6l51.1,29.5c2.5,1.4,3.9,3.5,3.9,5.9c0,2.7-1.8,5.3-5,7.1l-48,27.7C288.9,342.6,285.3,343.4,281.8,343.4z
		 M281.9,273.5c-2.7,0-5.5,0.6-7.7,1.9l-48,27.7c-2,1.1-2.6,2.3-2.6,3.1c0,0.9,1,1.6,1.5,1.9l51.1,29.5l0,0
		c3.3,1.9,9.3,1.6,13.2-0.6l48-27.7c2-1.1,2.6-2.3,2.6-3.1c0-0.9-1-1.6-1.5-1.9l-51.1-29.5C286,273.9,284,273.5,281.9,273.5z"/>
	<path class="st13" d="M281.8,341.5c-2.6,0-5.1-0.5-7-1.6l-51.1-29.5c-1.9-1.1-2.9-2.6-2.9-4.3c0-2,1.5-4,4-5.5l48-27.7
		c4.7-2.7,11.9-3,16-0.6l51.1,29.5c1.9,1.1,2.9,2.6,2.9,4.3c0,2-1.5,4-4,5.5l-48,27.7C288.3,340.8,285,341.5,281.8,341.5z
		 M281.9,271.6c-3,0-6.1,0.7-8.6,2.1l-48,27.7c-2.3,1.3-3.6,3-3.6,4.7c0,1.3,0.9,2.6,2.5,3.5l51.1,29.5c3.9,2.2,10.6,1.9,15.1-0.6
		l48-27.7c2.3-1.3,3.6-3,3.6-4.7c0-1.3-0.9-2.6-2.5-3.5l-51.1-29.5C286.7,272.1,284.3,271.6,281.9,271.6z"/>
	<path class="st12" d="M361.2,297.6c-2.9,0-5.8-0.6-7.9-1.9l0,0l-51.1-29.5c-2.5-1.4-3.9-3.5-3.9-5.9c0-2.7,1.8-5.3,5-7.1l48-27.7
		c5.3-3.1,13.2-3.4,17.9-0.6l51.1,29.5c2.5,1.4,3.9,3.5,3.9,5.9c0,2.7-1.8,5.3-5,7.1l-48,27.7C368.2,296.8,364.6,297.6,361.2,297.6z
		 M361.2,227.7c-2.7,0-5.5,0.6-7.7,1.9l-48,27.7c-2,1.1-2.6,2.3-2.6,3.1c0,0.9,1,1.6,1.5,1.9l51.1,29.5l0,0
		c3.3,1.9,9.3,1.6,13.2-0.6l48-27.7c2-1.1,2.6-2.3,2.6-3.1c0-0.9-1-1.6-1.5-1.9L366.7,229C365.3,228.1,363.3,227.7,361.2,227.7z"/>
	<path class="st13" d="M361.1,295.7c-2.6,0-5.1-0.5-7-1.6L303,264.6c-1.9-1.1-2.9-2.6-2.9-4.3c0-2,1.5-4,4-5.5l48-27.7
		c4.7-2.7,11.9-3,16-0.6l51.1,29.5c1.9,1.1,2.9,2.6,2.9,4.3c0,2-1.5,4-4,5.5l-48,27.7C367.6,295,364.3,295.7,361.1,295.7z
		 M361.2,225.8c-3,0-6.1,0.7-8.6,2.1l-48,27.7c-2.3,1.3-3.6,3-3.6,4.7c0,1.3,0.9,2.6,2.5,3.5l51.1,29.5c3.9,2.2,10.6,1.9,15.1-0.6
		l48-27.7c2.3-1.3,3.6-3,3.6-4.7c0-1.3-0.9-2.6-2.5-3.5l-51.1-29.5C366,226.3,363.6,225.8,361.2,225.8z"/>
	<g>
		<path d="M155.3,278.8l-46.1-26.6c-1.3-0.8-1.2-2.1,0.4-3l45.3-26.2c1.5-0.9,3.8-1,5.2-0.2l46.1,26.6c1.3,0.8,1.2,2.1-0.4,3
			l-45.3,26.2C159,279.5,156.7,279.6,155.3,278.8z"/>
		<path class="st14" d="M109.3,252.2l2.2,1.3l43.5-25.1c1.5-0.9,3.8-1,5.2-0.2l43.8,25.3l1.9-1.1c1.5-0.9,1.7-2.2,0.4-3l-46.1-26.6
			c-1.3-0.8-3.6-0.7-5.2,0.2l-45.3,26.2C108.1,250.1,107.9,251.5,109.3,252.2z"/>
		
			<radialGradient id="SVGID_1_" cx="161.25" cy="225.5" r="41.5049" gradientTransform="matrix(1 0 0 -1 0 451)" gradientUnits="userSpaceOnUse">
			<stop  offset="1.075270e-02" style="stop-color:#D4088C"/>
			<stop  offset="9.577888e-02" style="stop-color:#B70980"/>
			<stop  offset="0.2598" style="stop-color:#860C6C"/>
			<stop  offset="0.4224" style="stop-color:#5C0E5B"/>
			<stop  offset="0.5801" style="stop-color:#3C0F4E"/>
			<stop  offset="0.7318" style="stop-color:#261045"/>
			<stop  offset="0.8748" style="stop-color:#18113F"/>
			<stop  offset="1" style="stop-color:#13113D"/>
		</radialGradient>
		<path class="st15" d="M135,173c29,0,52.5,23.5,52.5,52.5S164,278,135,278"/>
		<g>
			<g>
				<defs>
					<path id="SVGID_2_" d="M205.9,252.4l-45.3,26.2c-1.5,0.9-3.8,1-5.2,0.2l-46.1-26.6c-1.3-0.8-1.4-186.6,0.1-187.4l44.9-5.3
						c1.5-0.9,3.8-1,5.2-0.2l45.1,5.5"/>
				</defs>
				<clipPath id="SVGID_3_">
					<use xlink:href="#SVGID_2_"  style="overflow:visible;"/>
				</clipPath>
				<g class="st16">
					<g id="Ñëîé_1">
						
							<linearGradient id="SVGID_4_" gradientUnits="userSpaceOnUse" x1="114.4451" y1="187.8" x2="203.1664" y2="187.8" gradientTransform="matrix(1 0 0 -1 0 451)">
							<stop  offset="0" style="stop-color:#FF5584"/>
							<stop  offset="1" style="stop-color:#FD4448"/>
						</linearGradient>
						<path class="st17" d="M194.2,252.9h-15.3l-17.1-9.9c-2.2-1.3-6-1.1-8.6,0.4l-16.5,9.5h-15.3v10.3l0,0
							c-0.1,0.9,0.4,1.7,1.5,2.3l30.9,17.9c2.2,1.3,6,1.1,8.6-0.4l29.7-17.2c1.3-0.8,2-1.7,2.1-2.7l0,0L194.2,252.9L194.2,252.9z"/>
						
							<linearGradient id="SVGID_5_" gradientUnits="userSpaceOnUse" x1="114.4451" y1="177.669" x2="203.1665" y2="177.669" gradientTransform="matrix(1 0 0 -1 0 451)">
							<stop  offset="0" style="stop-color:#D4088C"/>
							<stop  offset="0.2258" style="stop-color:#D4088C"/>
							<stop  offset="0.5108" style="stop-color:#6EE1F8"/>
							<stop  offset="0.7796" style="stop-color:#6EE8FC"/>
							<stop  offset="1" style="stop-color:#6EE8FC"/>
						</linearGradient>
						<path class="st18" d="M192.1,265.1l-29.7,17.2c-2.5,1.5-6.4,1.6-8.6,0.4l-30.9-17.9c-1.1-0.6-1.5-1.4-1.5-2.3l0,0v0.7l0,0
							c-0.1,0.9,0.4,1.7,1.5,2.3l30.9,17.9c2.2,1.3,6,1.1,8.6-0.4l29.7-17.2c1.3-0.8,2-1.7,2.1-2.7l0,0v-0.7l0,0
							C194.1,263.4,193.4,264.4,192.1,265.1z"/>
						<path class="st19" d="M122.3,263.9L122.3,263.9v-10.3h15.3l16.5-9.5c2.5-1.5,6.4-1.6,8.6-0.4l17.1,9.9h14.4v-0.7h-15.3
							l-17.1-9.9c-2.2-1.3-6-1.1-8.6,0.4l-16.5,9.5h-15.3v10.3l0,0c-0.1,0.9,0.4,1.7,1.5,2.3l0.2,0.1
							C122.5,265.1,122.3,264.5,122.3,263.9z"/>
						<path class="st13" d="M193.3,253.7V264l0,0c0,0.5-0.3,1.1-0.7,1.6c1-0.7,1.5-1.5,1.6-2.3l0,0V253
							C193.8,253.2,193.5,253.4,193.3,253.7z"/>
						
							<linearGradient id="SVGID_6_" gradientUnits="userSpaceOnUse" x1="921.9902" y1="288.1658" x2="963.8402" y2="324.4089" gradientTransform="matrix(0.866 0.5 1 -0.5774 -965.8504 -41.8201)">
							<stop  offset="0" style="stop-color:#8D139B"/>
							<stop  offset="0.1651" style="stop-color:#851BA1"/>
							<stop  offset="0.4284" style="stop-color:#6E33B2"/>
							<stop  offset="0.7551" style="stop-color:#4958CD"/>
							<stop  offset="1" style="stop-color:#2979E4"/>
						</linearGradient>
						<path class="st20" d="M153.8,273l-30.9-17.9c-2.2-1.3-1.9-3.5,0.6-5l29.7-17.2c2.5-1.5,6.4-1.6,8.6-0.4l30.9,17.9
							c2.2,1.3,1.9,3.5-0.6,5l-29.7,17.2C159.8,274.2,156,274.3,153.8,273z"/>
						<path class="st21" d="M192.7,250.6l-30.9-17.9c-1.1-0.7-2.7-0.9-4.3-0.8c1.2,0.1,2.3,0.3,3.1,0.8l30.9,17.9
							c2.2,1.3,1.9,3.5-0.6,5l-29.7,17.2c-1.2,0.7-2.8,1.1-4.3,1.2c1.9,0.1,3.9-0.3,5.5-1.2l29.7-17.2
							C194.6,254.1,194.9,251.9,192.7,250.6z"/>
						
							<linearGradient id="SVGID_7_" gradientUnits="userSpaceOnUse" x1="927.5031" y1="292.8312" x2="958.6603" y2="319.8142" gradientTransform="matrix(0.866 0.5 1 -0.5774 -965.8504 -41.8201)">
							<stop  offset="0" style="stop-color:#FD4448"/>
							<stop  offset="1" style="stop-color:#FD4448"/>
						</linearGradient>
						<path class="st22" d="M154.8,267.9l-23-13.3c-1.6-0.9-1.4-2.6,0.5-3.7l22.1-12.8c1.9-1.1,4.8-1.2,6.4-0.3l23,13.3
							c1.6,0.9,1.4,2.6-0.5,3.7l-22.1,12.8C159.3,268.7,156.4,268.8,154.8,267.9z"/>
						<path class="st23" d="M155.6,263.8l-16.7-9.6c-1.2-0.7-1-1.9,0.3-2.7l16-9.3c1.4-0.8,3.4-0.9,4.6-0.2l16.7,9.6
							c1.2,0.7,1,1.9-0.3,2.7l-16,9.3C158.9,264.4,156.8,264.4,155.6,263.8z"/>
						<path class="st24" d="M155.1,273l-30.9-17.9c-2.2-1.3-1.9-3.5,0.6-5l29.7-17.2c1.2-0.7,2.7-1.1,4.2-1.2
							c-1.9-0.1-4,0.3-5.6,1.2l-29.7,17.2c-2.5,1.5-2.8,3.7-0.6,5l30.9,17.9c1.2,0.7,2.8,0.9,4.4,0.8C157,273.8,156,273.5,155.1,273
							z"/>
						<g>
							<g>
								<defs>
									<path id="SVGID_8_" d="M155.6,263.8l-16.7-9.6c-1.2-0.7-1-1.9,0.3-2.7l16-9.3c1.4-0.8,3.4-0.9,4.6-0.2l16.7,9.6
										c1.2,0.7,1,1.9-0.3,2.7l-16,9.3C158.9,264.4,156.8,264.4,155.6,263.8z"/>
								</defs>
								<defs>
									<path id="SVGID_9_" d="M155.6,263.8l-16.7-9.6c-1.2-0.7-1-1.9,0.3-2.7l16-9.3c1.4-0.8,3.4-0.9,4.6-0.2l16.7,9.6
										c1.2,0.7,1,1.9-0.3,2.7l-16,9.3C158.9,264.4,156.8,264.4,155.6,263.8z"/>
								</defs>
								<defs>
									<path id="SVGID_10_" d="M155.6,263.8l-16.7-9.6c-1.2-0.7-1-1.9,0.3-2.7l16-9.3c1.4-0.8,3.4-0.9,4.6-0.2l16.7,9.6
										c1.2,0.7,1,1.9-0.3,2.7l-16,9.3C158.9,264.4,156.8,264.4,155.6,263.8z"/>
								</defs>
								<clipPath id="SVGID_11_">
									<use xlink:href="#SVGID_8_"  style="overflow:visible;"/>
								</clipPath>
								<clipPath id="SVGID_12_" class="st25">
									<use xlink:href="#SVGID_9_"  style="overflow:visible;"/>
								</clipPath>
								<clipPath id="SVGID_13_" class="st26">
									<use xlink:href="#SVGID_10_"  style="overflow:visible;"/>
								</clipPath>
								<path class="st27" d="M139.2,252.8l16-9.3c1.4-0.8,3.4-0.9,4.6-0.2l16.7,9.6c0.3,0.2,0.5,0.3,0.6,0.5
									c0.4-0.7,0.2-1.4-0.6-1.8l-16.7-9.6c-1.2-0.7-3.3-0.6-4.6,0.2l-16,9.3c-1.1,0.6-1.4,1.5-0.9,2.1
									C138.5,253.3,138.8,253,139.2,252.8z"/>
								<path class="st28" d="M139.2,254.3l16-9.3c1.4-0.8,3.4-0.9,4.6-0.2l16.7,9.6c0.2,0.1,0.4,0.3,0.5,0.4c0.5-0.7,0.4-1.5-0.5-2
									l-16.7-9.6c-1.2-0.7-3.3-0.6-4.6,0.2l-16,9.3c-1.1,0.7-1.4,1.6-0.8,2.3C138.6,254.8,138.9,254.5,139.2,254.3z"/>
								<path class="st29" d="M138.6,256.8c0.2-0.2,0.4-0.4,0.7-0.5l16-9.3c1.4-0.8,3.4-0.9,4.6-0.2l16.7,9.6
									c0.1,0.1,0.2,0.2,0.3,0.2c0.7-0.7,0.6-1.6-0.3-2.2l-16.7-9.6c-1.2-0.7-3.3-0.6-4.6,0.2l-16,9.3
									C138,255,137.8,256.1,138.6,256.8z"/>
							</g>
						</g>
						<g>
							
								<linearGradient id="SVGID_14_" gradientUnits="userSpaceOnUse" x1="114.4451" y1="210.3" x2="203.1664" y2="210.3" gradientTransform="matrix(1 0 0 -1 0 451)">
								<stop  offset="0" style="stop-color:#FD4448"/>
								<stop  offset="1" style="stop-color:#FD4448"/>
							</linearGradient>
							<path class="st30" d="M194.2,230.4h-15.3l-17.1-9.9c-2.2-1.3-6-1.1-8.6,0.4l-16.5,9.5h-15.3v10.3l0,0
								c-0.1,0.9,0.4,1.7,1.5,2.3l30.9,17.9c2.2,1.3,6,1.1,8.6-0.4l29.7-17.2c1.3-0.8,2-1.7,2.1-2.7l0,0L194.2,230.4L194.2,230.4z"
								/>
							
								<linearGradient id="SVGID_15_" gradientUnits="userSpaceOnUse" x1="114.4451" y1="200.119" x2="203.1665" y2="200.119" gradientTransform="matrix(1 0 0 -1 0 451)">
								<stop  offset="0" style="stop-color:#D4088C"/>
								<stop  offset="0.2258" style="stop-color:#D4088C"/>
								<stop  offset="0.5108" style="stop-color:#6EE1F8"/>
								<stop  offset="0.7796" style="stop-color:#6EE8FC"/>
								<stop  offset="1" style="stop-color:#6EE8FC"/>
							</linearGradient>
							<path class="st31" d="M192.1,242.6l-29.7,17.2c-2.5,1.5-6.4,1.6-8.6,0.4l-30.9-17.9c-1.1-0.6-1.5-1.4-1.5-2.3l0,0v0.7l0,0
								c-0.1,0.9,0.4,1.7,1.5,2.3l30.9,17.9c2.2,1.3,6,1.1,8.6-0.4l29.7-17.2c1.3-0.8,2-1.7,2.1-2.7l0,0V240l0,0
								C194.1,240.9,193.4,241.9,192.1,242.6z"/>
							<path class="st19" d="M122.3,241.4L122.3,241.4v-10.3h15.3l16.5-9.5c2.5-1.5,6.4-1.6,8.6-0.4l17.1,9.9h14.4v-0.7h-15.3
								l-17.1-9.9c-2.2-1.3-6-1.1-8.6,0.4l-16.5,9.5h-15.3v10.3l0,0c-0.1,0.9,0.4,1.7,1.5,2.3l0.2,0.1
								C122.5,242.6,122.3,242,122.3,241.4z"/>
							<path class="st13" d="M193.3,231.2v10.3l0,0c0,0.5-0.3,1.1-0.7,1.6c1-0.7,1.5-1.5,1.6-2.3l0,0v-10.2
								C193.8,230.7,193.5,230.9,193.3,231.2z"/>
							
								<linearGradient id="SVGID_16_" gradientUnits="userSpaceOnUse" x1="899.5474" y1="307.5904" x2="941.3975" y2="343.8336" gradientTransform="matrix(0.866 0.5 1 -0.5774 -965.8504 -41.8201)">
								<stop  offset="0" style="stop-color:#8D139B"/>
								<stop  offset="0.1651" style="stop-color:#851BA1"/>
								<stop  offset="0.4284" style="stop-color:#6E33B2"/>
								<stop  offset="0.7551" style="stop-color:#4958CD"/>
								<stop  offset="1" style="stop-color:#2979E4"/>
							</linearGradient>
							<path class="st32" d="M153.8,250.6l-30.9-17.9c-2.2-1.3-1.9-3.5,0.6-5l29.7-17.2c2.5-1.5,6.4-1.6,8.6-0.4l30.9,17.9
								c2.2,1.3,1.9,3.5-0.6,5l-29.7,17.2C159.8,251.7,156,251.8,153.8,250.6z"/>
							<path class="st13" d="M192.7,228.1l-30.9-17.9c-1.1-0.7-2.7-0.9-4.3-0.8c1.2,0.1,2.3,0.3,3.1,0.8l30.9,17.9
								c2.2,1.3,1.9,3.5-0.6,5l-29.7,17.2c-1.2,0.7-2.8,1.1-4.3,1.2c1.9,0.1,3.9-0.3,5.5-1.2l29.7-17.2
								C194.6,231.6,194.9,229.4,192.7,228.1z"/>
							
								<linearGradient id="SVGID_17_" gradientUnits="userSpaceOnUse" x1="905.024" y1="312.2977" x2="936.1812" y2="339.2806" gradientTransform="matrix(0.866 0.5 1 -0.5774 -965.8504 -41.8201)">
								<stop  offset="0" style="stop-color:#630692"/>
								<stop  offset="0.2262" style="stop-color:#5B0E94"/>
								<stop  offset="0.587" style="stop-color:#432399"/>
								<stop  offset="1" style="stop-color:#2142A1"/>
							</linearGradient>
							<path class="st33" d="M154.8,245.4l-23-13.3c-1.6-0.9-1.4-2.6,0.5-3.7l22.1-12.8c1.9-1.1,4.8-1.2,6.4-0.3l23,13.3
								c1.6,0.9,1.4,2.6-0.5,3.7l-22.1,12.8C159.3,246.2,156.4,246.4,154.8,245.4z"/>
							<path class="st23" d="M155.6,241.3l-16.7-9.6c-1.2-0.7-1-1.9,0.3-2.7l16-9.3c1.4-0.8,3.4-0.9,4.6-0.2l16.7,9.6
								c1.2,0.7,1,1.9-0.3,2.7l-16,9.3C158.9,241.9,156.8,242,155.6,241.3z"/>
							<path class="st19" d="M155.1,250.6l-30.9-17.9c-2.2-1.3-1.9-3.5,0.6-5l29.7-17.2c1.2-0.7,2.7-1.1,4.2-1.2
								c-1.9-0.1-4,0.3-5.6,1.2l-29.7,17.2c-2.5,1.5-2.8,3.7-0.6,5l30.9,17.9c1.2,0.7,2.8,0.9,4.4,0.8
								C157,251.3,156,251,155.1,250.6z"/>
							<g>
								<g>
									<defs>
										<path id="SVGID_18_" d="M155.6,241.3l-16.7-9.6c-1.2-0.7-1-1.9,0.3-2.7l16-9.3c1.4-0.8,3.4-0.9,4.6-0.2l16.7,9.6
											c1.2,0.7,1,1.9-0.3,2.7l-16,9.3C158.9,241.9,156.8,242,155.6,241.3z"/>
									</defs>
									<defs>
										<path id="SVGID_19_" d="M155.6,241.3l-16.7-9.6c-1.2-0.7-1-1.9,0.3-2.7l16-9.3c1.4-0.8,3.4-0.9,4.6-0.2l16.7,9.6
											c1.2,0.7,1,1.9-0.3,2.7l-16,9.3C158.9,241.9,156.8,242,155.6,241.3z"/>
									</defs>
									<defs>
										<path id="SVGID_20_" d="M155.6,241.3l-16.7-9.6c-1.2-0.7-1-1.9,0.3-2.7l16-9.3c1.4-0.8,3.4-0.9,4.6-0.2l16.7,9.6
											c1.2,0.7,1,1.9-0.3,2.7l-16,9.3C158.9,241.9,156.8,242,155.6,241.3z"/>
									</defs>
									<clipPath id="SVGID_21_">
										<use xlink:href="#SVGID_18_"  style="overflow:visible;"/>
									</clipPath>
									<clipPath id="SVGID_22_" class="st34">
										<use xlink:href="#SVGID_19_"  style="overflow:visible;"/>
									</clipPath>
									<clipPath id="SVGID_23_" class="st35">
										<use xlink:href="#SVGID_20_"  style="overflow:visible;"/>
									</clipPath>
									<path class="st36" d="M139.2,230.3l16-9.3c1.4-0.8,3.4-0.9,4.6-0.2l16.7,9.6c0.3,0.2,0.5,0.3,0.6,0.5
										c0.4-0.7,0.2-1.4-0.6-1.8l-16.7-9.6c-1.2-0.7-3.3-0.6-4.6,0.2l-16,9.3c-1.1,0.6-1.4,1.5-0.9,2.1
										C138.5,230.8,138.8,230.5,139.2,230.3z"/>
									<path class="st37" d="M139.2,231.8l16-9.3c1.4-0.8,3.4-0.9,4.6-0.2l16.7,9.6c0.2,0.1,0.4,0.3,0.5,0.4
										c0.5-0.7,0.4-1.5-0.5-2l-16.7-9.6c-1.2-0.7-3.3-0.6-4.6,0.2l-16,9.3c-1.1,0.7-1.4,1.6-0.8,2.3
										C138.6,232.3,138.9,232,139.2,231.8z"/>
									<path class="st38" d="M138.6,234.3c0.2-0.2,0.4-0.4,0.7-0.5l16-9.3c1.4-0.8,3.4-0.9,4.6-0.2l16.7,9.6
										c0.1,0.1,0.2,0.2,0.3,0.2c0.7-0.7,0.6-1.6-0.3-2.2l-16.7-9.6c-1.2-0.7-3.3-0.6-4.6,0.2l-16,9.3
										C138,232.5,137.8,233.6,138.6,234.3z"/>
								</g>
							</g>
							<path class="st39" d="M177.4,207.5l-39.3,1.9v21l0,0c0,0.5,0.2,0.9,0.8,1.2l16.7,9.6c1.2,0.7,3.3,0.6,4.6-0.2l16-9.3
								c0.8-0.4,1.1-1,1.1-1.6l0,0L177.4,207.5L177.4,207.5z"/>
							<path class="st40" d="M194.2,201.4l-72.8,0.7v28.7l0,0c-0.1,0.9,0.4,1.7,1.5,2.3l30.9,17.9c2.2,1.3,6,1.1,8.6-0.4l29.7-17.2
								c1.4-0.8,2.1-1.9,2.1-2.9l0,0V201.4z"/>
							<g class="moved3">
								<g>
									
										<linearGradient id="SVGID_24_" gradientUnits="userSpaceOnUse" x1="114.4451" y1="248.9" x2="203.1664" y2="248.9" gradientTransform="matrix(1 0 0 -1 0 451)">
										<stop  offset="0" style="stop-color:#A31FA9"/>
										<stop  offset="0.3408" style="stop-color:#FD4448"/>
										<stop  offset="0.4785" style="stop-color:#FD4448"/>
										<stop  offset="0.6264" style="stop-color:#FD4448"/>
										<stop  offset="0.9436" style="stop-color:#FD4448"/>
										<stop  offset="1" style="stop-color:#FD4448"/>
									</linearGradient>
									<path class="st41" d="M194.2,191.8h-15.3l-17.1-9.9c-2.2-1.3-6-1.1-8.6,0.4l-16.5,9.5h-15.3v10.3l0,0
										c-0.1,0.9,0.4,1.7,1.5,2.3l30.9,17.9c2.2,1.3,6,1.1,8.6-0.4l29.7-17.2c1.3-0.8,2-1.7,2.1-2.7l0,0L194.2,191.8L194.2,191.8z
										"/>
									
										<linearGradient id="SVGID_25_" gradientUnits="userSpaceOnUse" x1="114.4451" y1="238.669" x2="203.1665" y2="238.669" gradientTransform="matrix(1 0 0 -1 0 451)">
										<stop  offset="0" style="stop-color:#D4088C"/>
										<stop  offset="0.2258" style="stop-color:#D4088C"/>
										<stop  offset="0.5054" style="stop-color:#231F20"/>
										<stop  offset="0.7796" style="stop-color:#6EE8FC"/>
										<stop  offset="1" style="stop-color:#6EE8FC"/>
									</linearGradient>
									<path class="st42" d="M192.1,204.1l-29.7,17.2c-2.5,1.5-6.4,1.6-8.6,0.4l-30.9-17.9c-1.1-0.6-1.5-1.4-1.5-2.3l0,0v0.7l0,0
										c-0.1,0.9,0.4,1.7,1.5,2.3l30.9,17.9c2.2,1.3,6,1.1,8.6-0.4l29.7-17.2c1.3-0.8,2-1.7,2.1-2.7l0,0v-0.7l0,0
										C194.1,202.4,193.4,203.3,192.1,204.1z"/>
									<path class="st19" d="M122.3,202.9L122.3,202.9v-10.3h15.3l16.5-9.5c2.5-1.5,6.4-1.6,8.6-0.4l17.1,9.9h14.4v-0.7h-15.3
										l-17.1-9.9c-2.2-1.3-6-1.1-8.6,0.4l-16.5,9.5h-15.3v10.3l0,0c-0.1,0.9,0.4,1.7,1.5,2.3l0.2,0.1
										C122.5,204,122.3,203.5,122.3,202.9z"/>
									<path class="st13" d="M193.3,192.7V203l0,0c0,0.5-0.3,1.1-0.7,1.6c1-0.7,1.5-1.5,1.6-2.3l0,0V192
										C193.8,192.2,193.5,192.4,193.3,192.7z"/>
									
										<linearGradient id="SVGID_26_" gradientUnits="userSpaceOnUse" x1="860.9731" y1="341.003" x2="902.8232" y2="377.2462" gradientTransform="matrix(0.866 0.5 1 -0.5774 -965.8504 -41.8201)">
										<stop  offset="0" style="stop-color:#8D139B"/>
										<stop  offset="0.1651" style="stop-color:#851BA1"/>
										<stop  offset="0.4284" style="stop-color:#6E33B2"/>
										<stop  offset="0.7551" style="stop-color:#4958CD"/>
										<stop  offset="1" style="stop-color:#2979E4"/>
									</linearGradient>
									<path class="st43" d="M153.8,212l-30.9-17.9c-2.2-1.3-1.9-3.5,0.6-5l29.7-17.2c2.5-1.5,6.4-1.6,8.6-0.4l30.9,17.9
										c2.2,1.3,1.9,3.5-0.6,5l-29.7,17.2C159.8,213.1,156,213.3,153.8,212z"/>
									<path class="st13" d="M192.7,189.5l-30.9-17.9c-1.1-0.7-2.7-0.9-4.3-0.8c1.2,0.1,2.3,0.3,3.1,0.8l30.9,17.9
										c2.2,1.3,1.9,3.5-0.6,5l-29.7,17.2c-1.2,0.7-2.8,1.1-4.3,1.2c1.9,0.1,3.9-0.3,5.5-1.2l29.7-17.2
										C194.6,193,194.9,190.8,192.7,189.5z"/>
									
										<linearGradient id="SVGID_27_" gradientUnits="userSpaceOnUse" x1="866.5004" y1="345.6518" x2="897.6575" y2="372.6349" gradientTransform="matrix(0.866 0.5 1 -0.5774 -965.8504 -41.8201)">
										<stop  offset="0" style="stop-color:#630692"/>
										<stop  offset="0.2262" style="stop-color:#5B0E94"/>
										<stop  offset="0.587" style="stop-color:#432399"/>
										<stop  offset="1" style="stop-color:#2142A1"/>
									</linearGradient>
									<path class="st44" d="M154.8,206.9l-23-13.3c-1.6-0.9-1.4-2.6,0.5-3.7l22.1-12.8c1.9-1.1,4.8-1.2,6.4-0.3l23,13.3
										c1.6,0.9,1.4,2.6-0.5,3.7l-22.1,12.8C159.3,207.7,156.4,207.8,154.8,206.9z"/>
									<path class="st23" d="M155.6,202.7l-16.7-9.6c-1.2-0.7-1-1.9,0.3-2.7l16-9.3c1.4-0.8,3.4-0.9,4.6-0.2l16.7,9.6
										c1.2,0.7,1,1.9-0.3,2.7l-16,9.3C158.9,203.3,156.8,203.4,155.6,202.7z"/>
									<path class="st19" d="M155.1,212l-30.9-17.9c-2.2-1.3-1.9-3.5,0.6-5l29.7-17.2c1.2-0.7,2.7-1.1,4.2-1.2
										c-1.9-0.1-4,0.3-5.6,1.2l-29.7,17.2c-2.5,1.5-2.8,3.7-0.6,5l30.9,17.9c1.2,0.7,2.8,0.9,4.4,0.8
										C157,212.8,156,212.5,155.1,212z"/>
									<g>
										<g>
											<defs>
												<path id="SVGID_28_" d="M155.6,202.7l-16.7-9.6c-1.2-0.7-1-1.9,0.3-2.7l16-9.3c1.4-0.8,3.4-0.9,4.6-0.2l16.7,9.6
													c1.2,0.7,1,1.9-0.3,2.7l-16,9.3C158.9,203.3,156.8,203.4,155.6,202.7z"/>
											</defs>
											<defs>
												<path id="SVGID_29_" d="M155.6,202.7l-16.7-9.6c-1.2-0.7-1-1.9,0.3-2.7l16-9.3c1.4-0.8,3.4-0.9,4.6-0.2l16.7,9.6
													c1.2,0.7,1,1.9-0.3,2.7l-16,9.3C158.9,203.3,156.8,203.4,155.6,202.7z"/>
											</defs>
											<defs>
												<path id="SVGID_30_" d="M155.6,202.7l-16.7-9.6c-1.2-0.7-1-1.9,0.3-2.7l16-9.3c1.4-0.8,3.4-0.9,4.6-0.2l16.7,9.6
													c1.2,0.7,1,1.9-0.3,2.7l-16,9.3C158.9,203.3,156.8,203.4,155.6,202.7z"/>
											</defs>
											<clipPath id="SVGID_31_">
												<use xlink:href="#SVGID_28_"  style="overflow:visible;"/>
											</clipPath>
											<clipPath id="SVGID_32_" class="st45">
												<use xlink:href="#SVGID_29_"  style="overflow:visible;"/>
											</clipPath>
											<clipPath id="SVGID_33_" class="st46">
												<use xlink:href="#SVGID_30_"  style="overflow:visible;"/>
											</clipPath>
											<path class="st47" d="M139.2,191.7l16-9.3c1.4-0.8,3.4-0.9,4.6-0.2l16.7,9.6c0.3,0.2,0.5,0.3,0.6,0.5
												c0.4-0.7,0.2-1.4-0.6-1.8l-16.7-9.6c-1.2-0.7-3.3-0.6-4.6,0.2l-16,9.3c-1.1,0.6-1.4,1.5-0.9,2.1
												C138.5,192.3,138.8,192,139.2,191.7z"/>
											<path class="st48" d="M139.2,193.3l16-9.3c1.4-0.8,3.4-0.9,4.6-0.2l16.7,9.6c0.2,0.1,0.4,0.3,0.5,0.4
												c0.5-0.7,0.4-1.5-0.5-2l-16.7-9.6c-1.2-0.7-3.3-0.6-4.6,0.2l-16,9.3c-1.1,0.7-1.4,1.6-0.8,2.3
												C138.6,193.7,138.9,193.5,139.2,193.3z"/>
											<path class="st49" d="M138.6,195.7c0.2-0.2,0.4-0.4,0.7-0.5l16-9.3c1.4-0.8,3.4-0.9,4.6-0.2l16.7,9.6
												c0.1,0.1,0.2,0.2,0.3,0.2c0.7-0.7,0.6-1.6-0.3-2.2l-16.7-9.6c-1.2-0.7-3.3-0.6-4.6,0.2l-16,9.3
												C138,194,137.8,195,138.6,195.7z"/>
										</g>
									</g>
								</g>
								<g>
									<circle class="st23" cx="131.6" cy="216.7" r="2.8"/>
									<path class="st39" d="M140.5,223.3c0,1.8-1.5,3.3-3.3,3.3s-3.3-1.5-3.3-3.3s1.5-3.3,3.3-3.3
										C139.1,220,140.5,221.5,140.5,223.3z"/>
									<path class="st50" d="M132,225.1c0,0.6-0.5,1.1-1.1,1.1s-1.1-0.5-1.1-1.1s0.5-1.1,1.1-1.1S132,224.5,132,225.1z"/>
									<path class="st50" d="M137.3,220.3c0,0.6-0.5,1.1-1.1,1.1s-1.1-0.5-1.1-1.1s0.5-1.1,1.1-1.1S137.3,219.7,137.3,220.3z"/>
									<circle class="st23" cx="147.1" cy="237.2" r="1.4"/>
									<circle class="st39" cx="136.9" cy="232.2" r="2.2"/>
									<circle class="st39" cx="146" cy="228.3" r="2.2"/>
									<path class="st39" d="M187.1,215.9c0,1.2-1,2.2-2.2,2.2s-2.2-1-2.2-2.2s1-2.2,2.2-2.2S187.1,214.7,187.1,215.9z"/>
									<path class="st23" d="M188.3,223.1c0,1.7-1.4,3.1-3.1,3.1c-1.7,0-3.1-1.4-3.1-3.1c0-1.7,1.4-3.1,3.1-3.1
										C187,220,188.3,221.4,188.3,223.1z"/>
									<path class="st50" d="M180.6,220.6c0,0.8-0.6,1.4-1.4,1.4c-0.8,0-1.4-0.6-1.4-1.4c0-0.8,0.6-1.4,1.4-1.4
										C180,219.3,180.6,219.9,180.6,220.6z"/>
									<path class="st50" d="M179.2,217.8c-0.1,1.2-1.2,2.2-2.5,2c-1.2-0.1-2.2-1.2-2-2.5c0.1-1.2,1.2-2.2,2.5-2
										C178.4,215.4,179.3,216.5,179.2,217.8z"/>
									<circle class="st39" cx="181" cy="229.8" r="2.2"/>
									<path class="st50" d="M170.1,239.3c0,0.9-0.7,1.6-1.6,1.6c-0.9,0-1.6-0.7-1.6-1.6c0-0.9,0.7-1.6,1.6-1.6
										C169.4,237.7,170.1,238.4,170.1,239.3z"/>
									<circle class="st23" cx="173.1" cy="233.6" r="2.7"/>
									<path class="st39" d="M171.7,225.5c0,1.2-1,2.2-2.2,2.2s-2.2-1-2.2-2.2s1-2.2,2.2-2.2S171.7,224.3,171.7,225.5z"/>
									<path class="st39" d="M160.4,243.4c0,1.8-1.5,3.2-3.2,3.2c-1.8,0-3.2-1.5-3.2-3.2c0-1.8,1.5-3.2,3.2-3.2
										S160.4,241.6,160.4,243.4z"/>
									<circle class="st23" cx="144.6" cy="221.1" r="2.2"/>
								</g>
								<path class="st39" d="M177.4,168.5l-39.3,1.9v21l0,0c0,0.5,0.2,0.9,0.8,1.2l16.7,9.6c1.2,0.7,3.3,0.6,4.6-0.2l16-9.3
									c0.8-0.4,1.1-1,1.1-1.6l0,0L177.4,168.5L177.4,168.5z"/>
								<path class="st51" d="M194.2,162.5l-72.8,0.7v28.7l0,0c-0.1,0.9,0.4,1.7,1.5,2.3l30.9,17.9c2.2,1.3,6,1.1,8.6-0.4l29.7-17.2
									c1.4-0.8,2.1-1.9,2.1-2.9l0,0V162.5z"/>
								<g class="moved2">
									<g>
										<path class="st52" d="M194.2,152.9h-15.3l-17.1-9.9c-2.2-1.3-6-1.1-8.6,0.4l-16.5,9.5h-15.3v10.3l0,0
											c-0.1,0.9,0.4,1.7,1.5,2.3l30.9,17.9c2.2,1.3,6,1.1,8.6-0.4l29.7-17.2c1.3-0.8,2-1.7,2.1-2.7l0,0L194.2,152.9L194.2,152.9
											z"/>
										
											<linearGradient id="SVGID_34_" gradientUnits="userSpaceOnUse" x1="114.4451" y1="277.669" x2="203.1665" y2="277.669" gradientTransform="matrix(1 0 0 -1 0 451)">
											<stop  offset="0" style="stop-color:#D4088C"/>
											<stop  offset="0.2258" style="stop-color:#D4088C"/>
											<stop  offset="0.5054" style="stop-color:#231F20"/>
											<stop  offset="0.7796" style="stop-color:#6EE8FC"/>
											<stop  offset="1" style="stop-color:#6EE8FC"/>
										</linearGradient>
										<path class="st53" d="M192.1,165.1l-29.7,17.2c-2.5,1.5-6.4,1.6-8.6,0.4l-30.9-17.9c-1.1-0.6-1.5-1.4-1.5-2.3l0,0v0.7l0,0
											c-0.1,0.9,0.4,1.7,1.5,2.3l30.9,17.9c2.2,1.3,6,1.1,8.6-0.4l29.7-17.2c1.3-0.8,2-1.7,2.1-2.7l0,0v-0.7l0,0
											C194.1,163.4,193.4,164.4,192.1,165.1z"/>
										<path class="st19" d="M122.3,163.9L122.3,163.9v-10.3h15.3l16.5-9.5c2.5-1.5,6.4-1.6,8.6-0.4l17.1,9.9h14.4v-0.7h-15.3
											l-17.1-9.9c-2.2-1.3-6-1.1-8.6,0.4l-16.5,9.5h-15.3v10.3l0,0c-0.1,0.9,0.4,1.7,1.5,2.3l0.2,0.1
											C122.5,165.1,122.3,164.5,122.3,163.9z"/>
										<path class="st13" d="M193.3,153.7V164l0,0c0,0.5-0.3,1.1-0.7,1.6c1-0.7,1.5-1.5,1.6-2.3l0,0V153
											C193.8,153.2,193.5,153.4,193.3,153.7z"/>
										<path class="st54" d="M153.8,173.1l-30.9-17.9c-2.2-1.3-1.9-3.5,0.6-5l29.7-17.2c2.5-1.5,6.4-1.6,8.6-0.4l30.9,17.9
											c2.2,1.3,1.9,3.5-0.6,5l-29.7,17.2C159.8,174.2,156,174.3,153.8,173.1z"/>
										<path class="st13" d="M192.7,150.6l-30.9-17.9c-1.1-0.7-2.7-0.9-4.3-0.8c1.2,0.1,2.3,0.3,3.1,0.8l30.9,17.9
											c2.2,1.3,1.9,3.5-0.6,5l-29.7,17.2c-1.2,0.7-2.8,1.1-4.3,1.2c1.9,0.1,3.9-0.3,5.5-1.2l29.7-17.2
											C194.6,154.1,194.9,151.9,192.7,150.6z"/>
										<path class="st52" d="M154.8,167.9l-23-13.3c-1.6-0.9-1.4-2.6,0.5-3.7l22.1-12.8c1.9-1.1,4.8-1.2,6.4-0.3l23,13.3
											c1.6,0.9,1.4,2.6-0.5,3.7l-22.1,12.8C159.3,168.7,156.4,168.8,154.8,167.9z"/>
										<path class="st55" d="M155.6,163.8l-16.7-9.6c-1.2-0.7-1-1.9,0.3-2.7l16-9.3c1.4-0.8,3.4-0.9,4.6-0.2l16.7,9.6
											c1.2,0.7,1,1.9-0.3,2.7l-16,9.3C158.9,164.4,156.8,164.4,155.6,163.8z"/>
										<path class="st19" d="M155.1,173.1l-30.9-17.9c-2.2-1.3-1.9-3.5,0.6-5l29.7-17.2c1.2-0.7,2.7-1.1,4.2-1.2
											c-1.9-0.1-4,0.3-5.6,1.2l-29.7,17.2c-2.5,1.5-2.8,3.7-0.6,5l30.9,17.9c1.2,0.7,2.8,0.9,4.4,0.8
											C157,173.8,156,173.5,155.1,173.1z"/>
										<g>
											<g>
												<defs>
													<path id="SVGID_35_" d="M155.6,163.8l-16.7-9.6c-1.2-0.7-1-1.9,0.3-2.7l16-9.3c1.4-0.8,3.4-0.9,4.6-0.2l16.7,9.6
														c1.2,0.7,1,1.9-0.3,2.7l-16,9.3C158.9,164.4,156.8,164.4,155.6,163.8z"/>
												</defs>
												<defs>
													<path id="SVGID_36_" d="M155.6,163.8l-16.7-9.6c-1.2-0.7-1-1.9,0.3-2.7l16-9.3c1.4-0.8,3.4-0.9,4.6-0.2l16.7,9.6
														c1.2,0.7,1,1.9-0.3,2.7l-16,9.3C158.9,164.4,156.8,164.4,155.6,163.8z"/>
												</defs>
												<defs>
													<path id="SVGID_37_" d="M155.6,163.8l-16.7-9.6c-1.2-0.7-1-1.9,0.3-2.7l16-9.3c1.4-0.8,3.4-0.9,4.6-0.2l16.7,9.6
														c1.2,0.7,1,1.9-0.3,2.7l-16,9.3C158.9,164.4,156.8,164.4,155.6,163.8z"/>
												</defs>
												<clipPath id="SVGID_38_">
													<use xlink:href="#SVGID_35_"  style="overflow:visible;"/>
												</clipPath>
												<clipPath id="SVGID_39_" class="st56">
													<use xlink:href="#SVGID_36_"  style="overflow:visible;"/>
												</clipPath>
												<clipPath id="SVGID_40_" class="st57">
													<use xlink:href="#SVGID_37_"  style="overflow:visible;"/>
												</clipPath>
												<path class="st58" d="M139.2,152.8l16-9.3c1.4-0.8,3.4-0.9,4.6-0.2l16.7,9.6c0.3,0.2,0.5,0.3,0.6,0.5
													c0.4-0.7,0.2-1.4-0.6-1.8l-16.7-9.6c-1.2-0.7-3.3-0.6-4.6,0.2l-16,9.3c-1.1,0.6-1.4,1.5-0.9,2.1
													C138.5,153.3,138.8,153,139.2,152.8z"/>
												<path class="st59" d="M139.2,154.3l16-9.3c1.4-0.8,3.4-0.9,4.6-0.2l16.7,9.6c0.2,0.1,0.4,0.3,0.5,0.4
													c0.5-0.7,0.4-1.5-0.5-2l-16.7-9.6c-1.2-0.7-3.3-0.6-4.6,0.2l-16,9.3c-1.1,0.7-1.4,1.6-0.8,2.3
													C138.6,154.8,138.9,154.5,139.2,154.3z"/>
												<path class="st60" d="M155.3,147c1.4-0.8,3.4-0.9,4.6-0.2l16.7,9.6c0.1,0.1,0.2,0.2,0.3,0.2c0.7-0.7,0.6-1.6-0.3-2.2
													l-16.7-9.6c-1.2-0.7-3.3-0.6-4.6,0.2l-16,9.3c-1.3,0.7-1.5,1.8-0.7,2.5c0.2-0.2,0.4-0.4,0.7-0.5"/>
											</g>
										</g>
									</g>
									<g>
										<circle class="st23" cx="131.6" cy="177.8" r="2.8"/>
										<path class="st39" d="M140.5,184.3c0,1.8-1.5,3.3-3.3,3.3s-3.3-1.5-3.3-3.3s1.5-3.3,3.3-3.3
											C139.1,181.1,140.5,182.5,140.5,184.3z"/>
										<path class="st50" d="M132,186.1c0,0.6-0.5,1.1-1.1,1.1s-1.1-0.5-1.1-1.1s0.5-1.1,1.1-1.1S132,185.5,132,186.1z"/>
										<path class="st50" d="M137.3,181.4c0,0.6-0.5,1.1-1.1,1.1s-1.1-0.5-1.1-1.1s0.5-1.1,1.1-1.1S137.3,180.7,137.3,181.4z"/>
										<circle class="st23" cx="147.1" cy="198.2" r="1.4"/>
										<circle class="st39" cx="136.9" cy="193.2" r="2.2"/>
										<circle class="st39" cx="146" cy="189.4" r="2.2"/>
										<path class="st39" d="M187.1,176.9c0,1.2-1,2.2-2.2,2.2s-2.2-1-2.2-2.2s1-2.2,2.2-2.2S187.1,175.7,187.1,176.9z"/>
										<path class="st23" d="M188.3,184.1c0,1.7-1.4,3.1-3.1,3.1c-1.7,0-3.1-1.4-3.1-3.1c0-1.7,1.4-3.1,3.1-3.1
											C187,181,188.3,182.4,188.3,184.1z"/>
										<path class="st50" d="M180.6,181.7c0,0.8-0.6,1.4-1.4,1.4c-0.8,0-1.4-0.6-1.4-1.4c0-0.8,0.6-1.4,1.4-1.4
											S180.6,180.9,180.6,181.7z"/>
										<circle class="st50" cx="177" cy="178.6" r="2.3"/>
										<circle class="st39" cx="181" cy="190.9" r="2.2"/>
										<path class="st50" d="M170.1,200.4c0,0.9-0.7,1.6-1.6,1.6c-0.9,0-1.6-0.7-1.6-1.6c0-0.9,0.7-1.6,1.6-1.6
											C169.4,198.7,170.1,199.5,170.1,200.4z"/>
										<circle class="st23" cx="173.1" cy="194.6" r="2.7"/>
										<path class="st39" d="M171.7,186.5c0,1.2-1,2.2-2.2,2.2s-2.2-1-2.2-2.2s1-2.2,2.2-2.2S171.7,185.3,171.7,186.5z"/>
										<path class="st39" d="M160.4,204.5c0,1.8-1.5,3.2-3.2,3.2c-1.8,0-3.2-1.5-3.2-3.2c0-1.8,1.5-3.2,3.2-3.2
											C158.9,201.2,160.4,202.7,160.4,204.5z"/>
										<circle class="st23" cx="144.6" cy="182.2" r="2.2"/>
									</g>
									<g>
										<path class="st23" d="M149.9,146c0,0.8-0.7,1.5-1.5,1.5s-1.5-0.7-1.5-1.5s0.7-1.5,1.5-1.5S149.9,145.1,149.9,146z"/>
										<circle class="st23" cx="159.5" cy="136.1" r="2.5"/>
										<circle class="st23" cx="156.4" cy="134.6" r="0.6"/>
										<path class="st23" d="M168.5,122c0,0.7-0.6,1.2-1.2,1.2s-1.2-0.6-1.2-1.2c0-0.7,0.6-1.2,1.2-1.2S168.5,121.3,168.5,122z"
											/>
										<path class="st23" d="M161.6,111.4c0,0.5-0.4,0.9-0.9,0.9s-0.9-0.4-0.9-0.9s0.4-0.9,0.9-0.9
											C161.2,110.5,161.6,110.9,161.6,111.4z"/>
										<path class="st23" d="M151.5,104.6c0,0.9-0.7,1.6-1.6,1.6s-1.6-0.7-1.6-1.6s0.7-1.6,1.6-1.6S151.5,103.8,151.5,104.6z"/>
										<circle class="st23" cx="158.7" cy="93.3" r="3.2"/>
										<circle class="st23" cx="154.6" cy="91.3" r="0.9"/>
										<path class="st23" d="M162.4,97.2c0,0.6-0.5,1.1-1.1,1.1s-1.1-0.5-1.1-1.1s0.5-1.1,1.1-1.1S162.4,96.6,162.4,97.2z"/>
										<circle class="st23" cx="162.6" cy="95" r="0.5"/>
										<path class="st23" d="M169.8,84.1c0,0.8-0.7,1.5-1.5,1.5s-1.5-0.7-1.5-1.5s0.7-1.5,1.5-1.5S169.8,83.3,169.8,84.1z"/>
									</g>
								</g>
							</g>
						</g>
						<g>
							<path class="st12" d="M127.3,396.3c-2.9,0-5.8-0.7-8.1-2L52.6,356c-2.6-1.5-4-3.7-4-6s1.5-4.5,4-6l36.8-21.3
								c1.1-0.6,2.5-0.3,3.2,0.8c0.6,1.1,0.3,2.5-0.8,3.2L54.9,348c-1.1,0.6-1.7,1.4-1.7,2s0.6,1.4,1.7,2l66.7,38.3
								c3.1,1.8,8.4,1.8,11.5,0l37-21.2c1.1-0.6,2.5-0.3,3.2,0.9c0.6,1.1,0.3,2.5-0.9,3.2l-37,21.2
								C133.1,395.7,130.2,396.3,127.3,396.3z"/>
							<path class="st13" d="M127.3,394.4c-2.6,0-5.2-0.6-7.1-1.7l-66.7-38.3c-2-1.2-3.1-2.7-3.1-4.4c0-1.7,1.1-3.2,3.1-4.4
								l36.8-21.3l0.5,0.8L54,346.4c-1.7,1-2.6,2.3-2.6,3.6c0,1.3,0.9,2.6,2.6,3.6l66.7,38.3c3.7,2.1,9.7,2.1,13.4,0l37-21.2
								l0.5,0.8l-37,21.2C132.5,393.9,129.9,394.4,127.3,394.4z"/>
							<g>
								<g>
									<path class="st4" d="M79.6,331c-0.6-1-0.2-2.3,0.8-2.9s2.3-0.3,2.9,0.7s0.2,2.3-0.8,2.9C81.4,332.4,80.1,332,79.6,331z"/>
								</g>
								<g>
									<path class="st4" d="M68.5,337.4c-0.6-1-0.2-2.3,0.8-2.9s2.3-0.3,2.9,0.7s0.2,2.3-0.8,2.9
										C70.4,338.8,69.1,338.4,68.5,337.4z"/>
								</g>
								<g>
									<path class="st4" d="M57.5,343.8c-0.6-1-0.2-2.3,0.8-2.9s2.3-0.3,2.9,0.7c0.6,1,0.2,2.3-0.8,2.9S58.1,344.8,57.5,343.8z"/>
								</g>
								<g>
									<path class="st4" d="M52.2,352.8c-0.4,0.4-1,0.6-1.6,0.5s-1.2-0.7-1.6-1.6c-0.3-0.9-0.1-1.8,0.4-2.3s1.1-0.6,1.6-0.4
										c0.6,0.2,1,0.5,1.3,0.8s0.6,0.4,0.7,0.6c0.1,0.2,0,0.6-0.1,1C52.8,351.9,52.6,352.4,52.2,352.8z"/>
								</g>
								<g>
									<path class="st4" d="M63.1,359.4c-0.6,1-1.9,1.3-2.9,0.8c-1-0.6-1.4-1.9-0.8-2.9c0.6-1,1.9-1.3,2.9-0.8
										C63.3,357.1,63.7,358.4,63.1,359.4z"/>
								</g>
								<g>
									<path class="st4" d="M74.2,365.7c-0.6,1-1.9,1.3-2.9,0.8c-1-0.6-1.4-1.9-0.8-2.9s1.9-1.3,2.9-0.8
										C74.4,363.4,74.7,364.7,74.2,365.7z"/>
								</g>
								<g>
									<path class="st4" d="M85.2,372.1c-0.6,1-1.9,1.3-2.9,0.8c-1-0.6-1.4-1.9-0.8-2.9s1.9-1.3,2.9-0.8
										C85.4,369.8,85.8,371.1,85.2,372.1z"/>
								</g>
								<g>
									<path class="st4" d="M96.2,378.4c-0.6,1-1.9,1.3-2.9,0.8c-1-0.6-1.4-1.9-0.8-2.9s1.9-1.3,2.9-0.8
										C96.5,376.1,96.8,377.4,96.2,378.4z"/>
								</g>
								<g>
									<path class="st4" d="M107.3,384.8c-0.6,1-1.9,1.3-2.9,0.8c-1-0.6-1.4-1.9-0.8-2.9s1.9-1.3,2.9-0.8
										C107.5,382.5,107.8,383.8,107.3,384.8z"/>
								</g>
								<g>
									<path class="st4" d="M118.3,391.1c-0.6,1-1.9,1.3-2.9,0.8c-1-0.6-1.4-1.9-0.8-2.9s1.9-1.3,2.9-0.8
										C118.5,388.8,118.9,390.1,118.3,391.1z"/>
								</g>
								<g>
									<path class="st4" d="M130.4,393.7c0.2,1.1-0.6,2.3-2,2.4c-1.3,0.1-2.3-0.9-2.2-2.1c0.1-1.1,1-2,2-2.1
										S130.2,392.5,130.4,393.7z"/>
								</g>
								<g>
									<path class="st4" d="M141.8,388c0.6,1,0.2,2.3-0.8,2.9s-2.3,0.2-2.9-0.8c-0.6-1-0.2-2.3,0.8-2.9
										C139.9,386.7,141.2,387,141.8,388z"/>
								</g>
								<g>
									<path class="st4" d="M152.8,381.7c0.6,1,0.2,2.3-0.8,2.9s-2.3,0.2-2.9-0.8c-0.6-1-0.2-2.3,0.8-2.9
										C150.9,380.3,152.2,380.7,152.8,381.7z"/>
								</g>
								<g>
									<path class="st4" d="M163.9,375.3c0.6,1,0.2,2.3-0.8,2.9s-2.3,0.2-2.9-0.8c-0.6-1-0.2-2.3,0.8-2.9
										C162,374,163.3,374.3,163.9,375.3z"/>
								</g>
							</g>
						</g>
						<g>
							<g>
								<g>
									<path class="st61" d="M276.4,326.8L243.9,308c-2.3-1.3-2-3.7,0.6-5.2l31.2-18c2.7-1.5,6.7-1.7,9-0.4l32.5,18.8
										c2.3,1.3,2,3.7-0.6,5.2l-31.2,18C282.8,327.9,278.7,328.1,276.4,326.8z"/>
									
										<linearGradient id="SVGID_41_" gradientUnits="userSpaceOnUse" x1="276.5372" y1="171.3172" x2="284.7357" y2="119.5541" gradientTransform="matrix(1 0 0 -1 0 451)">
										<stop  offset="0" style="stop-color:#6EE8FC"/>
										<stop  offset="0.2204" style="stop-color:#6EE8FC"/>
										<stop  offset="0.4892" style="stop-color:#6EE1F8"/>
										<stop  offset="0.7742" style="stop-color:#D4088C"/>
										<stop  offset="1" style="stop-color:#D4088C"/>
									</linearGradient>
									<path class="st62" d="M280.3,332c-1.8,0-3.5-0.4-4.8-1.1l0,0l-38.3-22.1c-1.3-0.8-2-1.8-2-3c0-1.4,1-2.8,2.8-3.8l36.8-21.2
										c3.2-1.9,8.2-2.1,11-0.4l38.3,22.1c1.3,0.8,2,1.8,2,3c0,1.4-1,2.8-2.8,3.8l-36.8,21.2C284.7,331.5,282.5,332,280.3,332z
										 M275.9,330.2c2.6,1.5,7.2,1.3,10.2-0.4l36.8-21.2c1.5-0.9,2.4-2,2.4-3.1c0-0.9-0.6-1.7-1.6-2.3l-38.3-22.1
										c-2.6-1.5-7.2-1.3-10.2,0.4l-36.8,21.2c-1.5,0.9-2.4,2-2.4,3.1c0,0.9,0.6,1.7,1.6,2.3L275.9,330.2L275.9,330.2z"/>
									
										<linearGradient id="SVGID_42_" gradientUnits="userSpaceOnUse" x1="235.0964" y1="153.7" x2="328.3658" y2="153.7" gradientTransform="matrix(1 0 0 -1 0 451)">
										<stop  offset="0" style="stop-color:#A31FA9"/>
										<stop  offset="6.679147e-02" style="stop-color:#8B17A0"/>
										<stop  offset="0.1494" style="stop-color:#740F98"/>
										<stop  offset="0.2393" style="stop-color:#640A92"/>
										<stop  offset="0.3408" style="stop-color:#5B078F"/>
										<stop  offset="0.4785" style="stop-color:#58068E"/>
										<stop  offset="0.6264" style="stop-color:#4D22A3"/>
										<stop  offset="0.9436" style="stop-color:#3168DA"/>
										<stop  offset="1" style="stop-color:#2C75E4"/>
									</linearGradient>
									<path class="st63" d="M318.9,286.5h-16.1l-18-10.4c-2.3-1.3-6.4-1.2-9,0.4l-17.3,10h-16.1v10.8l0,0
										c-0.1,0.9,0.4,1.8,1.5,2.4l32.5,18.8c2.3,1.3,6.4,1.2,9-0.4l31.2-18c1.4-0.8,2.1-1.8,2.2-2.8l0,0L318.9,286.5L318.9,286.5z
										"/>
									
										<linearGradient id="SVGID_43_" gradientUnits="userSpaceOnUse" x1="235.0964" y1="143.0022" x2="328.3658" y2="143.0022" gradientTransform="matrix(1 0 0 -1 0 451)">
										<stop  offset="0" style="stop-color:#D4088C"/>
										<stop  offset="0.2258" style="stop-color:#D4088C"/>
										<stop  offset="0.5108" style="stop-color:#6EE1F8"/>
										<stop  offset="0.7796" style="stop-color:#6EE8FC"/>
										<stop  offset="1" style="stop-color:#6EE8FC"/>
									</linearGradient>
									<path class="st64" d="M316.7,299.4l-31.2,18c-2.7,1.5-6.7,1.7-9,0.4L243.9,299c-1.1-0.6-1.6-1.5-1.5-2.4l0,0v0.7l0,0
										c-0.1,0.9,0.4,1.8,1.5,2.4l32.5,18.8c2.3,1.3,6.4,1.2,9-0.4l31.2-18c1.4-0.8,2.1-1.8,2.2-2.8l0,0v-0.7l0,0
										C318.8,297.6,318.1,298.6,316.7,299.4z"/>
									<path class="st19" d="M243.4,298.1L243.4,298.1v-10.8h16.1l17.3-10c2.7-1.5,6.7-1.7,9-0.4l18,10.4h15.1v-0.7h-16.1
										l-18-10.4c-2.3-1.3-6.4-1.2-9,0.4l-17.3,10h-16.1v10.8l0,0c-0.1,0.9,0.4,1.8,1.5,2.4l0.2,0.1
										C243.6,299.3,243.3,298.7,243.4,298.1z"/>
									<path class="st13" d="M318,287.4v10.8l0,0c0,0.6-0.3,1.1-0.8,1.7c1.1-0.7,1.6-1.6,1.7-2.5l0,0v-10.7
										C318.6,286.8,318.2,287.1,318,287.4z"/>
									
										<linearGradient id="SVGID_44_" gradientUnits="userSpaceOnUse" x1="1025.5713" y1="319.4103" x2="1069.5669" y2="357.5115" gradientTransform="matrix(0.866 0.5 1 -0.5774 -965.8504 -41.8201)">
										<stop  offset="0" style="stop-color:#8D139B"/>
										<stop  offset="0.1651" style="stop-color:#851BA1"/>
										<stop  offset="0.4284" style="stop-color:#6E33B2"/>
										<stop  offset="0.7551" style="stop-color:#4958CD"/>
										<stop  offset="1" style="stop-color:#2979E4"/>
									</linearGradient>
									<path class="st65" d="M276.4,307.7l-32.5-18.8c-2.3-1.3-2-3.7,0.6-5.2l31.2-18c2.7-1.5,6.7-1.7,9-0.4l32.5,18.8
										c2.3,1.3,2,3.7-0.6,5.2l-31.2,18C282.8,308.9,278.7,309.1,276.4,307.7z"/>
									<path class="st13" d="M317.3,284.1l-32.5-18.8c-1.2-0.7-2.9-1-4.6-0.9c1.2,0.1,2.4,0.4,3.3,0.9l32.5,18.8
										c2.3,1.3,2,3.7-0.6,5.2l-31.2,18c-1.3,0.7-2.9,1.2-4.5,1.3c2,0.1,4.1-0.3,5.7-1.3l31.2-18
										C319.4,287.8,319.6,285.4,317.3,284.1z"/>
									<path class="st66" d="M280.4,303.2c-1.1,0-2.2-0.2-3.1-0.7l-24.2-14c-0.8-0.5-1.3-1.2-1.3-1.9c0-0.9,0.7-1.8,1.8-2.4
										l23.3-13.4c2.1-1.2,5.2-1.3,7-0.3l24.2,14c0.8,0.5,1.3,1.2,1.3,1.9c0,0.9-0.7,1.8-1.8,2.4l-23.3,13.4
										C283.2,302.9,281.8,303.2,280.4,303.2z M280.8,270.3c-1.3,0-2.6,0.3-3.7,0.9l-23.3,13.4c-1,0.6-1.5,1.3-1.5,2
										c0,0.5,0.4,1.1,1,1.4l24.2,14c1.6,1,4.5,0.8,6.4-0.3l23.3-13.4c1-0.6,1.5-1.3,1.5-2c0-0.6-0.4-1.1-1-1.4l-24.2-14
										C282.9,270.5,281.9,270.3,280.8,270.3z"/>
									<path class="st19" d="M277.9,307.7l-32.5-18.8c-2.3-1.3-2-3.7,0.6-5.2l31.2-18c1.3-0.7,2.8-1.2,4.4-1.2
										c-2-0.1-4.2,0.3-5.9,1.2l-31.2,18c-2.7,1.5-3,3.9-0.6,5.2l32.5,18.8c1.2,0.7,2.9,1,4.6,0.9
										C279.9,308.5,278.8,308.2,277.9,307.7z"/>
								</g>
							</g>
						</g>
						<g>
							<g>
								<g>
									<path class="st61" d="M355.6,281.8L323.1,263c-2.3-1.3-2-3.7,0.6-5.2l31.2-18c2.7-1.5,6.7-1.7,9-0.4l32.5,18.8
										c2.3,1.3,2,3.7-0.6,5.2l-31.2,18C361.9,283,357.9,283.1,355.6,281.8z"/>
									
										<linearGradient id="SVGID_45_" gradientUnits="userSpaceOnUse" x1="355.7402" y1="216.2983" x2="363.9388" y2="164.5344" gradientTransform="matrix(1 0 0 -1 0 451)">
										<stop  offset="0" style="stop-color:#6EE8FC"/>
										<stop  offset="0.2204" style="stop-color:#6EE8FC"/>
										<stop  offset="0.4892" style="stop-color:#6EE1F8"/>
										<stop  offset="0.7742" style="stop-color:#D4088C"/>
										<stop  offset="1" style="stop-color:#D4088C"/>
									</linearGradient>
									<path class="st67" d="M359.5,287c-1.8,0-3.5-0.4-4.8-1.1l-38.3-22.1c-1.3-0.8-2-1.8-2-3c0-1.4,1-2.8,2.8-3.8l36.8-21.2
										c3.2-1.9,8.2-2.1,11-0.4l38.3,22.1c1.3,0.8,2,1.8,2,3c0,1.4-1,2.8-2.8,3.8l-36.8,21.2C363.9,286.5,361.6,287,359.5,287z
										 M360.1,234.9c-2,0-4.2,0.5-5.8,1.5l-36.8,21.2c-1.5,0.9-2.4,2-2.4,3.1c0,0.9,0.6,1.7,1.6,2.3l38.3,22.1
										c2.6,1.5,7.2,1.3,10.2-0.4l36.8-21.2c1.5-0.9,2.4-2,2.4-3.1c0-0.9-0.6-1.7-1.6-2.3L364.5,236
										C363.3,235.3,361.8,234.9,360.1,234.9z"/>
									
										<linearGradient id="SVGID_46_" gradientUnits="userSpaceOnUse" x1="314.2631" y1="198.7" x2="407.5324" y2="198.7" gradientTransform="matrix(1 0 0 -1 0 451)">
										<stop  offset="0" style="stop-color:#A31FA9"/>
										<stop  offset="6.679147e-02" style="stop-color:#8B17A0"/>
										<stop  offset="0.1494" style="stop-color:#740F98"/>
										<stop  offset="0.2393" style="stop-color:#640A92"/>
										<stop  offset="0.3408" style="stop-color:#5B078F"/>
										<stop  offset="0.4785" style="stop-color:#58068E"/>
										<stop  offset="0.6264" style="stop-color:#4D22A3"/>
										<stop  offset="0.9436" style="stop-color:#3168DA"/>
										<stop  offset="1" style="stop-color:#2C75E4"/>
									</linearGradient>
									<path class="st68" d="M398.1,241.5H382l-18-10.4c-2.3-1.3-6.4-1.2-9,0.4l-17.3,10h-16.1v10.8l0,0c-0.1,0.9,0.4,1.8,1.5,2.4
										l32.5,18.8c2.3,1.3,6.4,1.2,9-0.4l31.2-18c1.4-0.8,2.1-1.8,2.2-2.8l0,0L398.1,241.5L398.1,241.5z"/>
									
										<linearGradient id="SVGID_47_" gradientUnits="userSpaceOnUse" x1="314.263" y1="188.0022" x2="407.5326" y2="188.0022" gradientTransform="matrix(1 0 0 -1 0 451)">
										<stop  offset="0" style="stop-color:#D4088C"/>
										<stop  offset="0.2258" style="stop-color:#D4088C"/>
										<stop  offset="0.5108" style="stop-color:#6EE1F8"/>
										<stop  offset="0.7796" style="stop-color:#6EE8FC"/>
										<stop  offset="1" style="stop-color:#6EE8FC"/>
									</linearGradient>
									<path class="st69" d="M395.8,254.4l-31.2,18c-2.7,1.5-6.7,1.7-9,0.4L323.1,254c-1.1-0.6-1.6-1.5-1.5-2.4l0,0v0.7l0,0
										c-0.1,0.9,0.4,1.8,1.5,2.4l32.5,18.8c2.3,1.3,6.4,1.2,9-0.4l31.2-18c1.4-0.8,2.1-1.8,2.2-2.8l0,0v-0.7l0,0
										C398,252.6,397.2,253.6,395.8,254.4z"/>
									<path class="st19" d="M322.5,253.1L322.5,253.1v-10.8h16.1l17.3-10c2.7-1.5,6.7-1.7,9-0.4l18,10.4H398v-0.7h-16.1l-18-10.4
										c-2.3-1.3-6.4-1.2-9,0.4l-17.3,10h-16.1v10.8l0,0c-0.1,0.9,0.4,1.8,1.5,2.4l0.2,0.1C322.7,254.4,322.5,253.7,322.5,253.1z"
										/>
									<path class="st13" d="M397.1,242.4v10.8l0,0c0,0.6-0.3,1.1-0.8,1.7c1.1-0.7,1.6-1.6,1.7-2.5l0,0v-10.7
										C397.7,241.9,397.4,242.1,397.1,242.4z"/>
									
										<linearGradient id="SVGID_48_" gradientUnits="userSpaceOnUse" x1="1026.3326" y1="397.9104" x2="1070.328" y2="436.0116" gradientTransform="matrix(0.866 0.5 1 -0.5774 -965.8504 -41.8201)">
										<stop  offset="0" style="stop-color:#8D139B"/>
										<stop  offset="0.1651" style="stop-color:#851BA1"/>
										<stop  offset="0.4284" style="stop-color:#6E33B2"/>
										<stop  offset="0.7551" style="stop-color:#4958CD"/>
										<stop  offset="1" style="stop-color:#2979E4"/>
									</linearGradient>
									<path class="st70" d="M355.6,262.7L323.1,244c-2.3-1.3-2-3.7,0.6-5.2l31.2-18c2.7-1.5,6.7-1.7,9-0.4l32.5,18.8
										c2.3,1.3,2,3.7-0.6,5.2l-31.2,18C361.9,263.9,357.9,264.1,355.6,262.7z"/>
									<path class="st13" d="M396.5,239.1L364,220.3c-1.2-0.7-2.9-1-4.6-0.9c1.2,0.1,2.4,0.4,3.3,0.9l32.5,18.8
										c2.3,1.3,2,3.7-0.6,5.2l-31.2,18c-1.3,0.7-2.9,1.2-4.5,1.3c2,0.1,4.1-0.3,5.7-1.3l31.2-18
										C398.5,242.8,398.8,240.5,396.5,239.1z"/>
									<path class="st66" d="M359.6,258.3c-1.1,0-2.2-0.2-3.1-0.7l-24.2-14c-0.8-0.5-1.3-1.2-1.3-1.9c0-0.9,0.6-1.8,1.8-2.4
										l23.3-13.4c2.1-1.2,5.2-1.3,7-0.3l24.2,14c0.8,0.5,1.3,1.2,1.3,1.9c0,0.9-0.6,1.8-1.8,2.4l-23.3,13.4
										C362.4,257.9,361,258.3,359.6,258.3z M356.8,257.1c1.6,0.9,4.5,0.8,6.4-0.3l23.3-13.4c1-0.6,1.5-1.3,1.5-2
										c0-0.5-0.4-1.1-1-1.4l-24.2-14c-1.6-0.9-4.5-0.8-6.4,0.3l-23.3,13.4c-1,0.6-1.5,1.3-1.5,2c0,0.5,0.4,1.1,1,1.4L356.8,257.1
										z"/>
									<path class="st19" d="M357.1,262.7L324.5,244c-2.3-1.3-2-3.7,0.6-5.2l31.2-18c1.3-0.7,2.8-1.2,4.4-1.2
										c-2-0.1-4.2,0.3-5.9,1.2l-31.2,18c-2.7,1.5-3,3.9-0.6,5.2l32.5,18.8c1.2,0.7,2.9,1,4.6,0.9
										C359,263.5,357.9,263.2,357.1,262.7z"/>
								</g>
							</g>
						</g>
						<g>
							<g>
								<g>
									<path class="st61" d="M198.3,373.5l-32.5-18.8c-2.3-1.3-2-3.7,0.6-5.2l31.2-18c2.7-1.5,6.7-1.7,9-0.4l32.5,18.8
										c2.3,1.3,2,3.7-0.6,5.2l-31.2,18C204.7,374.6,200.6,374.8,198.3,373.5z"/>
									
										<linearGradient id="SVGID_49_" gradientUnits="userSpaceOnUse" x1="198.4375" y1="124.6152" x2="206.636" y2="72.8519" gradientTransform="matrix(1 0 0 -1 0 451)">
										<stop  offset="0" style="stop-color:#6EE8FC"/>
										<stop  offset="0.2204" style="stop-color:#6EE8FC"/>
										<stop  offset="0.4892" style="stop-color:#6EE1F8"/>
										<stop  offset="0.7742" style="stop-color:#D4088C"/>
										<stop  offset="1" style="stop-color:#D4088C"/>
									</linearGradient>
									<path class="st71" d="M202.2,378.7c-1.8,0-3.5-0.4-4.8-1.1l0,0l-38.3-22.1c-1.3-0.8-2-1.8-2-3c0-1.4,1-2.8,2.8-3.8
										l36.8-21.2c3.2-1.9,8.2-2.1,11-0.4l38.3,22.1c1.3,0.8,2,1.8,2,3c0,1.4-1,2.8-2.8,3.8l-36.8,21.2
										C206.6,378.2,204.4,378.7,202.2,378.7z M197.8,376.9c2.6,1.5,7.2,1.3,10.2-0.4l36.8-21.2c1.5-0.9,2.4-2,2.4-3.1
										c0-0.9-0.6-1.7-1.6-2.3l-38.3-22.1c-2.6-1.5-7.2-1.3-10.2,0.4l-36.8,21.2c-1.5,0.9-2.4,2-2.4,3.1c0,0.9,0.6,1.7,1.6,2.3
										L197.8,376.9L197.8,376.9z"/>
									
										<linearGradient id="SVGID_50_" gradientUnits="userSpaceOnUse" x1="156.9983" y1="107" x2="250.2678" y2="107" gradientTransform="matrix(1 0 0 -1 0 451)">
										<stop  offset="0" style="stop-color:#A31FA9"/>
										<stop  offset="6.679147e-02" style="stop-color:#8B17A0"/>
										<stop  offset="0.1494" style="stop-color:#740F98"/>
										<stop  offset="0.2393" style="stop-color:#640A92"/>
										<stop  offset="0.3408" style="stop-color:#5B078F"/>
										<stop  offset="0.4785" style="stop-color:#58068E"/>
										<stop  offset="0.6264" style="stop-color:#4D22A3"/>
										<stop  offset="0.9436" style="stop-color:#3168DA"/>
										<stop  offset="1" style="stop-color:#2C75E4"/>
									</linearGradient>
									<path class="st72" d="M240.8,333.2h-16.1l-18-10.4c-2.3-1.3-6.4-1.2-9,0.4l-17.3,10h-16.1V344l0,0
										c-0.1,0.9,0.4,1.8,1.5,2.4l32.5,18.8c2.3,1.3,6.4,1.2,9-0.4l31.2-18c1.4-0.8,2.1-1.8,2.2-2.8l0,0v-10.8H240.8z"/>
									
										<linearGradient id="SVGID_51_" gradientUnits="userSpaceOnUse" x1="156.9983" y1="96.3022" x2="250.2677" y2="96.3022" gradientTransform="matrix(1 0 0 -1 0 451)">
										<stop  offset="0" style="stop-color:#D4088C"/>
										<stop  offset="0.2258" style="stop-color:#D4088C"/>
										<stop  offset="0.5108" style="stop-color:#6EE1F8"/>
										<stop  offset="0.7796" style="stop-color:#6EE8FC"/>
										<stop  offset="1" style="stop-color:#6EE8FC"/>
									</linearGradient>
									<path class="st73" d="M238.6,346.1l-31.2,18c-2.7,1.5-6.7,1.7-9,0.4l-32.5-18.8c-1.1-0.6-1.6-1.5-1.5-2.4l0,0v0.7l0,0
										c-0.1,0.9,0.4,1.8,1.5,2.4l32.5,18.8c2.3,1.3,6.4,1.2,9-0.4l31.2-18c1.4-0.8,2.1-1.8,2.2-2.8l0,0v-0.7l0,0
										C240.7,344.3,240,345.3,238.6,346.1z"/>
									<path class="st19" d="M165.3,344.8L165.3,344.8V334h16.1l17.3-10c2.7-1.5,6.7-1.7,9-0.4l18,10.4h15.1v-0.7h-16.1l-18-10.4
										c-2.3-1.3-6.4-1.2-9,0.4l-17.3,10h-16.1V344l0,0c-0.1,0.9,0.4,1.8,1.5,2.4l0.2,0.1C165.5,346,165.2,345.4,165.3,344.8z"/>
									<path class="st13" d="M239.9,334.1v10.8l0,0c0,0.6-0.3,1.1-0.8,1.7c1.1-0.7,1.6-1.6,1.7-2.5l0,0v-10.7
										C240.5,333.5,240.2,333.8,239.9,334.1z"/>
									
										<linearGradient id="SVGID_52_" gradientUnits="userSpaceOnUse" x1="1027.1779" y1="239.9216" x2="1071.1731" y2="278.0227" gradientTransform="matrix(0.866 0.5 1 -0.5774 -965.8504 -41.8201)">
										<stop  offset="0" style="stop-color:#8D139B"/>
										<stop  offset="0.1651" style="stop-color:#851BA1"/>
										<stop  offset="0.4284" style="stop-color:#6E33B2"/>
										<stop  offset="0.7551" style="stop-color:#4958CD"/>
										<stop  offset="1" style="stop-color:#2979E4"/>
									</linearGradient>
									<path class="st74" d="M198.3,354.4l-32.5-18.8c-2.3-1.3-2-3.7,0.6-5.2l31.2-18c2.7-1.5,6.7-1.7,9-0.4l32.5,18.8
										c2.3,1.3,2,3.7-0.6,5.2l-31.2,18C204.7,355.6,200.6,355.8,198.3,354.4z"/>
									<path class="st13" d="M239.2,330.8L206.7,312c-1.2-0.7-2.9-1-4.6-0.9c1.2,0.1,2.4,0.4,3.3,0.9l32.5,18.8
										c2.3,1.3,2,3.7-0.6,5.2l-31.2,18c-1.3,0.7-2.9,1.2-4.5,1.3c2,0.1,4.1-0.3,5.7-1.3l31.2-18
										C241.3,334.5,241.5,332.1,239.2,330.8z"/>
									
										<linearGradient id="SVGID_53_" gradientUnits="userSpaceOnUse" x1="1032.899" y1="244.9118" x2="1065.6534" y2="273.278" gradientTransform="matrix(0.866 0.5 1 -0.5774 -965.8504 -41.8201)">
										<stop  offset="0" style="stop-color:#630692"/>
										<stop  offset="0.2262" style="stop-color:#5B0E94"/>
										<stop  offset="0.587" style="stop-color:#432399"/>
										<stop  offset="1" style="stop-color:#2142A1"/>
									</linearGradient>
									<path class="st75" d="M199.4,349l-24.2-14c-1.7-1-1.5-2.7,0.5-3.9l23.3-13.4c2-1.1,5-1.3,6.7-0.3l24.2,14
										c1.7,1,1.5,2.7-0.5,3.9l-23.3,13.4C204.1,349.9,201.1,350,199.4,349z"/>
									<path class="st23" d="M200.3,344.7l-17.5-10.1c-1.2-0.7-1.1-2,0.3-2.8l16.8-9.7c1.4-0.8,3.6-0.9,4.9-0.2l17.5,10.1
										c1.2,0.7,1.1,2-0.3,2.8l-16.8,9.7C203.7,345.3,201.5,345.4,200.3,344.7z"/>
									<path class="st19" d="M199.8,354.4l-32.5-18.8c-2.3-1.3-2-3.7,0.6-5.2l31.2-18c1.3-0.7,2.8-1.2,4.4-1.2
										c-2-0.1-4.2,0.3-5.9,1.2l-31.2,18c-2.7,1.5-3,3.9-0.6,5.2l32.5,18.8c1.2,0.7,2.9,1,4.6,0.9
										C201.8,355.2,200.7,354.9,199.8,354.4z"/>
									<g>
										<g>
											<defs>
												<path id="SVGID_54_" d="M200.3,344.7l-17.5-10.1c-1.2-0.7-1.1-2,0.3-2.8l16.8-9.7c1.4-0.8,3.6-0.9,4.9-0.2l17.5,10.1
													c1.2,0.7,1.1,2-0.3,2.8l-16.8,9.7C203.7,345.3,201.5,345.4,200.3,344.7z"/>
											</defs>
											<clipPath id="SVGID_55_">
												<use xlink:href="#SVGID_54_"  style="overflow:visible;"/>
											</clipPath>
											<path class="st76" d="M183.1,333.1l16.9-9.7c1.4-0.8,3.6-0.9,4.9-0.2l17.6,10.1c0.3,0.2,0.5,0.3,0.6,0.6
												c0.4-0.7,0.2-1.4-0.6-1.9l-17.6-10.1c-1.2-0.7-3.4-0.6-4.9,0.2l-16.9,9.7c-1.1,0.6-1.5,1.6-1,2.3
												C182.3,333.7,182.6,333.3,183.1,333.1z"/>
										</g>
										<g>
											<defs>
												<path id="SVGID_56_" d="M200.3,344.7l-17.5-10.1c-1.2-0.7-1.1-2,0.3-2.8l16.8-9.7c1.4-0.8,3.6-0.9,4.9-0.2l17.5,10.1
													c1.2,0.7,1.1,2-0.3,2.8l-16.8,9.7C203.7,345.3,201.5,345.4,200.3,344.7z"/>
											</defs>
											<clipPath id="SVGID_57_">
												<use xlink:href="#SVGID_56_"  style="overflow:visible;"/>
											</clipPath>
											<path class="st77" d="M183.1,334.7L200,325c1.4-0.8,3.6-0.9,4.9-0.2l17.6,10.1c0.2,0.1,0.4,0.3,0.5,0.4
												c0.6-0.7,0.4-1.6-0.5-2.1l-17.6-10.1c-1.2-0.7-3.4-0.6-4.9,0.2l-16.9,9.7c-1.2,0.7-1.5,1.7-0.9,2.4
												C182.4,335.2,182.7,335,183.1,334.7z"/>
										</g>
										<g>
											<defs>
												<path id="SVGID_58_" d="M200.3,344.7l-17.5-10.1c-1.2-0.7-1.1-2,0.3-2.8l16.8-9.7c1.4-0.8,3.6-0.9,4.9-0.2l17.5,10.1
													c1.2,0.7,1.1,2-0.3,2.8l-16.8,9.7C203.7,345.3,201.5,345.4,200.3,344.7z"/>
											</defs>
											<clipPath id="SVGID_59_">
												<use xlink:href="#SVGID_58_"  style="overflow:visible;"/>
											</clipPath>
											<path class="st78" d="M182.4,337.3c0.2-0.2,0.4-0.4,0.7-0.5l16.9-9.7c1.4-0.8,3.6-0.9,4.9-0.2l17.6,10.1
												c0.1,0.1,0.2,0.2,0.3,0.3c0.7-0.8,0.7-1.7-0.3-2.3l-17.6-10.1c-1.2-0.7-3.4-0.6-4.9,0.2l-16.9,9.7
												C181.8,335.5,181.5,336.6,182.4,337.3z"/>
										</g>
									</g>
								</g>
							</g>
						</g>
						<g>
							<circle class="st23" cx="192.8" cy="326.1" r="1.5"/>
							<circle class="st23" cx="204.3" cy="315.8" r="2.6"/>
							<path class="st23" d="M201.8,314.2c0,0.4-0.3,0.7-0.7,0.7s-0.7-0.3-0.7-0.7c0-0.4,0.3-0.7,0.7-0.7S201.8,313.8,201.8,314.2z"
								/>
							<circle class="st23" cx="212.5" cy="301.1" r="1.3"/>
							<circle class="st23" cx="205.6" cy="290" r="0.9"/>
						</g>
						<circle class="st79" cx="484.3" cy="157" r="3.3"/>
						<circle class="st80" cx="484.3" cy="167.6" r="3.3"/>
						<circle class="st81" cx="484.3" cy="178.2" r="3.3"/>
						<g>
							
								<linearGradient id="SVGID_60_" gradientUnits="userSpaceOnUse" x1="55.0505" y1="338.95" x2="81.9458" y2="338.95" gradientTransform="matrix(1 0 0 -1 0 451)">
								<stop  offset="0" style="stop-color:#8D139B"/>
								<stop  offset="0.1651" style="stop-color:#851BA1"/>
								<stop  offset="0.4284" style="stop-color:#6E33B2"/>
								<stop  offset="0.7551" style="stop-color:#4958CD"/>
								<stop  offset="1" style="stop-color:#2979E4"/>
							</linearGradient>
							<path class="st82" d="M81.3,110.5l-6.8-6.8c-0.8-0.8-2.2-0.8-3.1,0l-3,3l-3-3c-0.8-0.8-2.2-0.8-3.1,0l-6.8,6.8
								c-0.8,0.8-0.8,2.2,0,3.1l6.8,6.8c0.8,0.8,2.2,0.8,3.1,0l3-3l3,3c0.8,0.8,2.2,0.8,3.1,0l6.8-6.8
								C82.2,112.7,82.2,111.4,81.3,110.5z"/>
							<path class="st83" d="M74.5,103.7l6.8,6.8c0.8,0.8,0.8,2.2,0,3.1l-6.8,6.8c-0.8,0.8-2.2,0.8-3.1,0l-6.8-6.8
								c-0.8-0.8-0.8-2.2,0-3.1l6.8-6.8C72.3,102.9,73.7,102.9,74.5,103.7z"/>
							<path class="st13" d="M81.3,110.5l-6.8-6.8c-0.5-0.5-1.2-0.7-1.9-0.6c0.4,0.1,0.9,0.3,1.2,0.6l6.8,6.8c0.8,0.8,0.8,2.2,0,3.1
								l-6.8,6.8c-0.3,0.3-0.8,0.5-1.2,0.6c0.7,0.1,1.4-0.1,1.9-0.6l6.8-6.8C82.2,112.7,82.2,111.4,81.3,110.5z"/>
							<path class="st84" d="M65.5,103.7l6.8,6.8c0.8,0.8,0.8,2.2,0,3.1l-6.8,6.8c-0.8,0.8-2.2,0.8-3.1,0l-6.8-6.8
								c-0.8-0.8-0.8-2.2,0-3.1l6.8-6.8C63.3,102.9,64.7,102.9,65.5,103.7z"/>
						</g>
					</g>
					<g id="Layer_3">
					</g>
					<g id="Layer_4">
					</g>
				</g>
			</g>
		</g>
	</g>
</g>
</svg>
