<?xml version="1.0" encoding="utf-8"?>
<!-- Generator: Adobe Illustrator 22.1.0, SVG Export Plug-In . SVG Version: 6.00 Build 0)  -->
<svg version="1.1" id="Layer_1" xmlns="http://www.w3.org/2000/svg" xmlns:xlink="http://www.w3.org/1999/xlink" x="0px" y="0px"
	 viewBox="0 0 770 800" style="enable-background:new 0 0 770 800;" xml:space="preserve">
<style type="text/css">
	.st0{display:none;}
	.st1{display:inline;}
	.st2{display:inline;clip-path:url(#SVGID_2_);}
	.st3{fill:url(#SVGID_3_);}
	.st4{fill:url(#SVGID_4_);}
	.st5{fill:url(#SVGID_5_);}
	.st6{fill:url(#SVGID_6_);}
	.st7{fill:url(#SVGID_7_);}
	.st8{fill:url(#SVGID_8_);}
	.st9{fill:url(#SVGID_9_);}
	.st10{fill:url(#SVGID_10_);}
	.st11{fill:url(#SVGID_11_);}
	.st12{fill:url(#SVGID_12_);}
	<!-- .st13{fill:url(#SVGID_13_);} -->
	.st13{fill:#d5bca7;}
	
	.st14{fill:url(#SVGID_14_);}
	.st15{opacity:0.4;fill:url(#SVGID_15_);}
	.st16{opacity:0.4;fill:url(#SVGID_16_);}
	.st17{opacity:0.4;fill:url(#SVGID_17_);}
	.st18{fill:url(#SVGID_18_);}
	.st19{opacity:0.4;fill:url(#SVGID_19_);}
	.st20{opacity:0.4;fill:url(#SVGID_20_);}
	.st21{opacity:0.4;fill:url(#SVGID_21_);}
	.st22{fill:url(#SVGID_22_);}
	.st23{fill:url(#SVGID_23_);}
	.st24{fill:url(#SVGID_24_);}
	.st25{fill:url(#SVGID_25_);}
	.st26{fill:url(#SVGID_26_);}
	.st27{fill:url(#SVGID_27_);}
	.st28{fill:url(#SVGID_28_);}
	.st29{opacity:0.3;fill:#7E2424;}
	.st30{fill:url(#SVGID_29_);}
	.st31{fill:url(#SVGID_30_);}
	.st32{opacity:0.3;fill:#7D3CD1;}
	.st33{fill:url(#SVGID_31_);}
	.st34{fill:url(#SVGID_32_);}
	.st35{fill:url(#SVGID_33_);}
	.st36{fill:url(#SVGID_34_);}
	.st37{opacity:0.3;fill:#1E1A1A;}
	.st38{fill:url(#SVGID_35_);}
	.st39{fill:url(#SVGID_36_);}
	.st40{opacity:0.3;fill:#3C95D1;}
	.st41{fill:url(#SVGID_37_);}
	.st42{fill:url(#SVGID_38_);}
	.st43{fill:url(#SVGID_39_);}
	.st44{fill:url(#SVGID_40_);}
	.st45{fill:url(#SVGID_41_);}
	.st46{fill:url(#SVGID_42_);}
	.st47{fill:url(#SVGID_43_);}
	.st48{fill:url(#SVGID_44_);}
	.st49{fill:url(#SVGID_45_);}
	.st50{fill:url(#SVGID_46_);}
	.st51{fill:url(#SVGID_47_);}
	.st52{fill:url(#SVGID_48_);}
	.st53{fill:url(#SVGID_49_);}
	.st54{fill:url(#SVGID_50_);}
	.st55{fill:url(#SVGID_51_);}
	.st56{fill:#CC6767;}
	.st57{opacity:0.4;fill:url(#SVGID_52_);}
	.st58{opacity:0.32;fill:#FFFFFF;stroke:#1F1E21;stroke-width:0.1014;stroke-miterlimit:10;}
	.st59{opacity:0.32;fill:#FFFFFF;stroke:#1F1E21;stroke-width:4.285500e-02;stroke-miterlimit:10;}
	.st60{opacity:0.4;fill:url(#SVGID_53_);}
	.st61{opacity:0.32;fill:#FFFFFF;stroke:#1F1E21;stroke-width:6.888000e-02;stroke-miterlimit:10;}
	.st62{opacity:0.32;fill:#FFFFFF;stroke:#1F1E21;stroke-width:2.912300e-02;stroke-miterlimit:10;}
	.st63{fill:#C9D9FA;}
	.st64{fill:url(#SVGID_54_);}
	
	
	
	.move {
stroke: #E83138;
    animation: link-anim 5s linear infinite;
    stroke-dasharray: 64;
    stroke-width: 2px;
}



@keyframes link-anim {
  0% {
    stroke-dashoffset: 368;
  }
  100% {
    stroke-dashoffset: 32;
  }
}


	.move2 {
stroke: #fff;
    animation: link-anim2 5s linear infinite;
    stroke-dasharray: 64;
    stroke-width: 2px;
}



@keyframes link-anim2 {
  0% {
    stroke-dashoffset: 368;
  }
  100% {
    stroke-dashoffset: 32;
  }
}
	
	
	
</style>

<style>
      .floating-island {
        animation: floatAnim 6s ease-in-out infinite;
		
      }
      #floating-balloon {
        animation: floatAnim2 5s ease-in-out infinite;
      }

      @keyframes floatAnim {
        0% {
          transform: translate(0px,1px);
        }
        50% {
          transform: translate(0px,-44px);
        }
        100% {
          transform: translate(0px,1px);
        }
      }
      @keyframes floatAnim2 {
       0% {
          transform: translate(0px,19px);
        }
        50% {
          transform: translate(0px,-18px);
        }
        100% {
          transform: translate(0px,19px);
        }
      }
    </style>


<g class="st0">
	<defs>
		<rect id="SVGID_1_" x="-29" y="115.9" width="723.6" height="485.7"/>
	</defs>
	<clipPath id="SVGID_2_" class="st1">
		<use xlink:href="#SVGID_1_"  style="overflow:visible;"/>
	</clipPath>

	
	
	
	<g class="st2">
		<g>
			<linearGradient id="SVGID_7_" gradientUnits="userSpaceOnUse" x1="318.2839" y1="521.053" x2="196.5538" y2="642.7831">
				<stop  offset="0" style="stop-color:#4D6824;stop-opacity:0"/>
				<stop  offset="1" style="stop-color:#DCEA52"/>
			</linearGradient>
			<path class="st7" d="M191,648.8L191,648.8c-1.5-1.5-1.5-3.9,0-5.3l123.5-124.4l5.3,5.3L196.3,648.8
				C194.8,650.3,192.5,650.3,191,648.8z"/>
			<linearGradient id="SVGID_8_" gradientUnits="userSpaceOnUse" x1="342.5095" y1="526.8204" x2="249.1734" y2="620.1566">
				<stop  offset="6.416330e-02" style="stop-color:#3650AE;stop-opacity:0"/>
				<stop  offset="1" style="stop-color:#8FFFFF"/>
			</linearGradient>
			<path class="st8" d="M344.3,528.6l-91.1,91.7c-1.1,1.1-2.8,1.1-3.9,0c-1.1-1.1-1.1-2.9,0-3.9l91.1-91.7L344.3,528.6z"/>
		</g>
		<g>
			<linearGradient id="SVGID_9_" gradientUnits="userSpaceOnUse" x1="530.8499" y1="-9.6625" x2="361.0904" y2="160.097">
				<stop  offset="0" style="stop-color:#641E53;stop-opacity:0"/>
				<stop  offset="1" style="stop-color:#DB34A8"/>
			</linearGradient>
			<path class="st9" d="M353.3,168.5L353.3,168.5c-2-2.1-2-5.4,0-7.4L525.6-12.4l7.4,7.4L360.7,168.5
				C358.7,170.5,355.4,170.5,353.3,168.5z"/>
			<linearGradient id="SVGID_10_" gradientUnits="userSpaceOnUse" x1="390.9548" y1="85.4978" x2="333.4652" y2="142.9874">
				<stop  offset="5.857670e-02" style="stop-color:#3650AE"/>
				<stop  offset="1" style="stop-color:#8FFFFF"/>
			</linearGradient>
			<path class="st10" d="M330.8,145.8L330.8,145.8c-0.7-0.7-0.7-1.8,0-2.5l58.3-58.7l2.5,2.5l-58.3,58.7
				C332.6,146.5,331.5,146.5,330.8,145.8z"/>
		</g>
		<g>
			<linearGradient id="SVGID_11_" gradientUnits="userSpaceOnUse" x1="256.4161" y1="16.9628" x2="16.0383" y2="257.3406">
				<stop  offset="0" style="stop-color:#476222"/>
				<stop  offset="4.189940e-02" style="stop-color:#4D6824;stop-opacity:0"/>
				<stop  offset="1" style="stop-color:#DCEA52"/>
			</linearGradient>
			<path class="st11" d="M5,269.2L5,269.2c-2.9-2.9-2.9-7.6,0-10.5L248.9,13.1l10.5,10.5L15.5,269.2C12.6,272.1,7.9,272.1,5,269.2z"
				/>
			<linearGradient id="SVGID_12_" gradientUnits="userSpaceOnUse" x1="304.254" y1="28.3516" x2="119.9451" y2="212.6604">
				<stop  offset="6.416330e-02" style="stop-color:#3650AE;stop-opacity:0"/>
				<stop  offset="1" style="stop-color:#8FFFFF"/>
			</linearGradient>
			<path class="st12" d="M307.8,31.9L128,213c-2.1,2.2-5.6,2.2-7.7,0c-2.1-2.2-2.1-5.6,0-7.8l179.8-181L307.8,31.9z"/>
		</g>
	</g>
</g>
<g>
	<g>
		<g>
			
				<linearGradient id="SVGID_13_" gradientUnits="userSpaceOnUse" x1="-131.9302" y1="929.8521" x2="18.2834" y2="1041.5151" gradientTransform="matrix(0.9887 0.1496 -0.1496 0.9887 367.2779 -561.7007)">
				<stop  offset="0" style="stop-color:#E7AD4B"/>
				<stop  offset="1" style="stop-color:#CD5113;stop-opacity:0"/>
				
			</linearGradient>
			<path class="st13" id="p_one" d="M197.3,374.5c0,1.3-0.1,2.5-0.2,3.8c25.6,5.7,42.1,11.2,41.6,14.5c-0.5,3.4-18.5,3.6-45.4,1.3
				c-15.8-1.4-34.7-3.6-54.9-6.7c-21.6-3.3-41.4-7-57.5-10.6c-24.6-5.5-40.4-10.9-39.9-14.1c0.5-3.2,16.5-3.6,40.9-1.7
				c0.2-1.3,0.5-2.5,0.9-3.7c-33.9-2.3-57.1-0.6-58,5.2c-0.9,6,22.4,14.9,57.4,23.1c16.2,3.7,34.9,7.3,54.9,10.4
				c18.8,2.9,36.6,4.9,52.4,6.2c37.6,3,63.9,1.5,64.8-4.7C255.1,391.4,232.1,382.6,197.3,374.5z"/>
				  <use class="bg" href="#p_one"></use>
                            <use class="move" href="#p_one"></use>
			<g>
				
					<linearGradient id="SVGID_14_" gradientUnits="userSpaceOnUse" x1="-131.2589" y1="895.9689" x2="-48.1994" y2="1009.6293" gradientTransform="matrix(0.9887 0.1496 -0.1496 0.9887 367.2779 -561.7007)">
					<stop  offset="0" style="stop-color:#E7AD4B"/>
					<stop  offset="1" style="stop-color:#CD5113;stop-opacity:0"/>
				</linearGradient>
				<path class="st14" d="M196.6,381.4c-4.8,32.1-34.5,54.1-66.4,49.3c-12-1.8-22.6-7.2-30.8-14.9c-8.1-7.5-14-17.3-16.8-28.1
					c-2-7.5-2.5-15.6-1.3-23.8c4-26.6,25.1-46.3,50.4-49.5c5.2-0.6,10.6-0.6,16,0.2c23.2,3.5,41.2,20.4,47.3,41.8
					C197.3,364.2,197.9,372.7,196.6,381.4z"/>
				 
					<linearGradient id="SVGID_15_" gradientUnits="userSpaceOnUse" x1="-115.4163" y1="913.5807" x2="-42.4222" y2="1017.5581" gradientTransform="matrix(0.9887 0.1496 -0.1496 0.9887 367.2779 -561.7007)">
					<stop  offset="0" style="stop-color:#FFFFFF"/>
					<stop  offset="1" style="stop-color:#FFFFFF;stop-opacity:0"/>
				</linearGradient>
				<path class="st15" d="M196.6,381.4c-4.8,32.1-34.5,54.1-66.4,49.3c-12-1.8-22.6-7.2-30.8-14.9c2-7.2,7-9.7,10.8-13.7
					c6.2-6.5,16.6-1.7,37.2-1.8c20.6,0,12.2-21.5,23.8-35.6c5.6-6.8,15.3-8.4,23.9-8.3C197.3,364.2,197.9,372.7,196.6,381.4z"/>
				
					<linearGradient id="SVGID_16_" gradientUnits="userSpaceOnUse" x1="-131.8445" y1="925.4149" x2="-58.7682" y2="1029.5092" gradientTransform="matrix(0.9887 0.1496 -0.1496 0.9887 367.2779 -561.7007)">
					<stop  offset="0" style="stop-color:#FFFFFF"/>
					<stop  offset="1" style="stop-color:#FFFFFF;stop-opacity:0"/>
				</linearGradient>
				<path class="st16" d="M130.8,349.4c-12.8,11.8-25.6-1.8-35.8,13.7c-9.6,14.4-1.7,20.4-12.4,24.5c-2-7.5-2.5-15.6-1.3-23.8
					c4-26.6,25.1-46.3,50.4-49.5C135.3,324.9,139.2,341.6,130.8,349.4z"/>
				
					<linearGradient id="SVGID_17_" gradientUnits="userSpaceOnUse" x1="-54.3753" y1="903.5449" x2="-159.5353" y2="985.3361" gradientTransform="matrix(0.9887 0.1496 -0.1496 0.9887 367.2779 -561.7007)">
					<stop  offset="0" style="stop-color:#FFFFFF"/>
					<stop  offset="1" style="stop-color:#FFFFFF;stop-opacity:0"/>
				</linearGradient>
				<path class="st17" d="M188.2,341.1c-8.8-10.4-21.2-17.8-35.7-20c-31.9-4.9-61.6,17.2-66.4,49.3c-2.2,14.6,1.2,28.8,8.5,40.3
					c-10.6-12.5-15.9-29.4-13.3-46.9c4.8-32.1,34.5-54.1,66.4-49.3C165.1,317.2,179.5,327.3,188.2,341.1z"/>
			</g>
		</g>
		<g>
			<g>
				
					<linearGradient id="SVGID_18_" gradientUnits="userSpaceOnUse" x1="1742.5016" y1="-1010.8253" x2="1805.4021" y2="-924.7509" gradientTransform="matrix(0.9011 -0.4337 0.4337 0.9011 -559.9929 2154.1599)">
					<stop  offset="0" style="stop-color:#DCEA52"/>
					<stop  offset="1" style="stop-color:#476222"/>
				</linearGradient>
				<path class="st18" d="M663,495.6c10.6,22.2,1.3,48.9-20.7,59.6c-8.3,4-17.2,5.2-25.7,3.9c-8.3-1.2-16.1-4.8-22.5-10.4
					c-4.4-3.9-8.2-8.7-10.9-14.4c-8.8-18.4-3.9-39.9,10.6-52.8c3-2.6,6.4-4.9,10.1-6.8c16.1-7.8,34.6-4.9,47.5,5.8
					C656.1,484.6,660.1,489.6,663,495.6z"/>
				
					<linearGradient id="SVGID_19_" gradientUnits="userSpaceOnUse" x1="1754.4952" y1="-997.5049" x2="1809.7841" y2="-918.7481" gradientTransform="matrix(0.9011 -0.4337 0.4337 0.9011 -559.9929 2154.1599)">
					<stop  offset="0" style="stop-color:#FFFFFF"/>
					<stop  offset="1" style="stop-color:#FFFFFF;stop-opacity:0"/>
				</linearGradient>
				<path class="st19" d="M663,495.6c10.6,22.2,1.3,48.9-20.7,59.6c-8.3,4-17.2,5.2-25.7,3.9c-1.8-5.4,0.2-9.1,0.9-13.3
					c1.2-6.8,9.7-8.2,22.6-17.1c12.9-8.9-1.5-18.8-0.2-32.7c0.6-6.7,6-11.9,11.4-15.5C656.1,484.6,660.1,489.6,663,495.6z"/>
				
					<linearGradient id="SVGID_20_" gradientUnits="userSpaceOnUse" x1="1741.9717" y1="-988.4641" x2="1797.3281" y2="-909.611" gradientTransform="matrix(0.9011 -0.4337 0.4337 0.9011 -559.9929 2154.1599)">
					<stop  offset="0" style="stop-color:#FFFFFF"/>
					<stop  offset="1" style="stop-color:#FFFFFF;stop-opacity:0"/>
				</linearGradient>
				<path class="st20" d="M608,504c-3,13-16.8,9.9-16.7,24c0.1,13.2,7.6,13.5,2.6,20.7c-4.4-3.9-8.2-8.7-10.9-14.4
					c-8.8-18.4-3.9-39.9,10.6-52.8C600.5,486.6,610,495.5,608,504z"/>
				
					<linearGradient id="SVGID_21_" gradientUnits="userSpaceOnUse" x1="1800.9904" y1="-1005.2981" x2="1720.7429" y2="-942.8833" gradientTransform="matrix(0.9011 -0.4337 0.4337 0.9011 -559.9929 2154.1599)">
					<stop  offset="0" style="stop-color:#FFFFFF"/>
					<stop  offset="1" style="stop-color:#FFFFFF;stop-opacity:0"/>
				</linearGradient>
				<path class="st21" d="M640.6,474c-10-2.8-20.9-2-30.9,2.8c-22.1,10.7-31.3,37.4-20.7,59.6c4.8,10.1,13,17.6,22.5,21.7
					c-12-3.3-22.5-11.6-28.3-23.7c-10.6-22.2-1.3-48.9,20.7-59.6C615.8,469,629.2,469.1,640.6,474z"/>
			</g>
			
				<linearGradient id="SVGID_22_" gradientUnits="userSpaceOnUse" x1="1741.9021" y1="-985.2127" x2="1855.9022" y2="-900.4694" gradientTransform="matrix(0.9011 -0.4337 0.4337 0.9011 -559.9929 2154.1599)">
				<stop  offset="0" style="stop-color:#DCEA52"/>
				<stop  offset="1" style="stop-color:#476222"/>
			</linearGradient>
			<path class="st22" id="p_two" d="M660.5,491.1c0.5,0.8,1,1.6,1.5,2.5c18.5-7.5,31.2-11.1,32.3-8.8c1.1,2.3-10.1,10.3-27.9,20.4
				c-10.5,6-23.3,12.7-37.3,19.5c-14.9,7.2-29,13.5-40.6,18.1c-17.8,7.1-30,10.6-31.1,8.4c-1.1-2.2,8.8-9.4,25-18.7
				c-0.4-0.9-0.7-1.8-1-2.7c-22.3,13.2-36.2,24.3-34.2,28.3c2,4.2,20.4-0.3,45.9-10.3c11.8-4.6,25-10.5,38.9-17.2
				c13-6.3,25.1-12.7,35.5-18.7c24.9-14.3,40.8-26.6,38.7-30.9C704,476.7,685.8,481.1,660.5,491.1z"/>
				 <use class="bg" href="#p_two"></use>
                            <use class="move" href="#p_two"></use>
		</g>
		<linearGradient id="SVGID_23_" gradientUnits="userSpaceOnUse" x1="217.5842" y1="223.0323" x2="202.5223" y2="207.9703">
			<stop  offset="0" style="stop-color:#641E53;stop-opacity:0"/>
			<stop  offset="1" style="stop-color:#DB34A8"/>
		</linearGradient>
		<ellipse class="st23" cx="210.8" cy="216.3" rx="11.3" ry="11.3"/>
		<linearGradient id="SVGID_24_" gradientUnits="userSpaceOnUse" x1="652.6451" y1="384.6858" x2="622.5359" y2="354.5766">
			<stop  offset="0" style="stop-color:#641E53;stop-opacity:0"/>
			<stop  offset="1" style="stop-color:#DB34A8"/>
		</linearGradient>
		<ellipse class="st24" cx="639.2" cy="371.2" rx="22.5" ry="22.7"/>
		<linearGradient id="SVGID_25_" gradientUnits="userSpaceOnUse" x1="265.3687" y1="445.4262" x2="250.3067" y2="430.3642">
			<stop  offset="0" style="stop-color:#51149F;stop-opacity:0"/>
			<stop  offset="1" style="stop-color:#8725F9"/>
		</linearGradient>
		<ellipse class="st25" cx="258.6" cy="438.7" rx="11.3" ry="11.3"/>
		<linearGradient id="SVGID_26_" gradientUnits="userSpaceOnUse" x1="553.3477" y1="216.5632" x2="513.2367" y2="176.4522">
			<stop  offset="0" style="stop-color:#51149F;stop-opacity:0"/>
			<stop  offset="1" style="stop-color:#8725F9"/>
		</linearGradient>
		<ellipse class="st26" cx="535.4" cy="198.6" rx="30" ry="30.2"/>
	</g>
	<g>
		<g>
			<g class="floating-island" >
				<linearGradient id="SVGID_27_" gradientUnits="userSpaceOnUse" x1="259.3654" y1="281.015" x2="379.5438" y2="477.8014">
					<stop  offset="0" style="stop-color:#E9A6A6"/>
					<stop  offset="1" style="stop-color:#CC6767"/>
				</linearGradient>
				<path class="st27" d="M368.4,417.5c-10.3,13.4-41.9,26.7-41.9,26.7c0,0,0,0,0,0c-0.8-1.3-1.7-2.8-2.5-4.4
					c-5.4-10.5-10.3-25.8-10.3-25.8l14.8-12.8l22.8-19.7c2.7,1.9,5.2,5.4,7.3,9.4C364.8,401.9,368.4,417.5,368.4,417.5z"/>
				<linearGradient id="SVGID_28_" gradientUnits="userSpaceOnUse" x1="241.5836" y1="292.3344" x2="361.5461" y2="488.7672">
					<stop  offset="0" style="stop-color:#E9A6A6"/>
					<stop  offset="1" style="stop-color:#CC6767"/>
				</linearGradient>
				<path class="st28" d="M336.1,427.7c-0.3,8.2-3.8,14.3-9.5,16.4c-2,0.7-4.3,1-6.9,0.6c-2-0.3-4.1-0.9-6.4-1.9
					c-19.9-8.7-49.5-114-49.5-114l18-9.8c0,0,33.2,55,46.8,82c1,2,1.9,3.9,2.7,5.6C334.9,414.3,336.3,421.6,336.1,427.7z"/>
				<path class="st29" d="M368.4,417.5c-10.3,13.4-41.9,26.7-41.9,26.7c0,0,0,0,0,0c-2,0.7-4.3,1-6.9,0.6c1.1-1.8,2.6-3.5,4.4-5.1
					c1.6-1.4,3.4-2.7,5.4-3.7c3-1.6,5.2-4.6,6.6-8.3c5-12,2.9-31.2,2.9-31.2l19.8-5.8C364.8,401.9,368.4,417.5,368.4,417.5z"/>
				<linearGradient id="SVGID_29_" gradientUnits="userSpaceOnUse" x1="393.3117" y1="230.5556" x2="765.4838" y2="792.9486">
					<stop  offset="0" style="stop-color:#000000;stop-opacity:0.5"/>
					<stop  offset="1" style="stop-color:#000000"/>
				</linearGradient>
				<path class="st30" d="M464.3,369c-31.7,12.4-52.2,9.5-66.2,1c-14.5-8.8-21.8-23.7-27-34c-5.9-11.7-6.9-29.3-3.4-45.1
					c1.9-8.4,5-16.3,9.3-22.6c1.5-2.2,3.2-4.3,5.1-6.1c0,0-1-0.7-2.5-2c-0.4-0.3-0.8-0.7-1.2-1.2c-1-1-2-2.2-3.1-3.6
					c-5-6.7-10.2-18.5-6.1-36.2c6.2-27,53.8-41.2,85.6-24.6c3.6,1.9,6.9,4.1,10,6.7c8.3,7.1,13.7,15.3,17.2,23.3
					c9.5,21.6,5,42.7,5,42.7s16.7,9.5,23.9,20.5C522.7,306.3,528.8,343.7,464.3,369z"/>
				<linearGradient id="SVGID_30_" gradientUnits="userSpaceOnUse" x1="381.5536" y1="191.6759" x2="434.7036" y2="244.8258">
					<stop  offset="0" style="stop-color:#FFFFFF"/>
					<stop  offset="1" style="stop-color:#FFFFFF;stop-opacity:0"/>
				</linearGradient>
				<path class="st31" d="M454.7,194.7c-20.9-2.2-47.7-6.4-71.7,10.4c-17.5,12.3-10.6,37.1-7.8,50.4c-5-6.7-10.2-18.5-6.1-36.2
					C375.4,192.3,423,178.1,454.7,194.7z"/>
				<path class="st32" d="M464.3,369c-64.4,25.3-83-12.8-93.2-33c-5.9-11.7-6.9-29.3-3.4-45.1c4.6,5,8.6,6,8.6,6s4.1,26.8,45.2,22.1
					c45.1-5.1,50.4-48.5,50.4-48.5c10.4-8.2,10.9-30.9,10-45.7c9.5,21.6,5,42.7,5,42.7s16.7,9.5,23.9,20.5
					C522.7,306.3,528.8,343.7,464.3,369z"/>
				<linearGradient id="SVGID_31_" gradientUnits="userSpaceOnUse" x1="347.6795" y1="280.313" x2="450.8083" y2="383.4418">
					<stop  offset="0" style="stop-color:#FFFFFF"/>
					<stop  offset="1" style="stop-color:#FFFFFF;stop-opacity:0"/>
				</linearGradient>
				<path class="st33" d="M408.8,367l-10.7,2.9c-14.5-8.8-21.8-23.7-27-34c-5.9-11.7-6.9-29.3-3.4-45.1c1.9-8.4,5-16.3,9.3-22.6
					l-2.7,8.3c0,0-11.5,26.8-2,56C381.8,362,408.8,367,408.8,367z"/>
				<linearGradient id="SVGID_32_" gradientUnits="userSpaceOnUse" x1="454.6504" y1="537.446" x2="399.597" y2="493.8395">
					<stop  offset="0" style="stop-color:#8FFFFF"/>
					<stop  offset="0.9414" style="stop-color:#3650AE"/>
				</linearGradient>
				<path class="st34" d="M378.6,505.6c0,0,27.7,39.5,54.5,35c26.8-4.4,17.2-40.8,17.2-40.8l-28.9-11.7l-23.1,2l-11,4
					C387.3,494.2,378.7,494.4,378.6,505.6z"/>
				<linearGradient id="SVGID_33_" gradientUnits="userSpaceOnUse" x1="386.7076" y1="501.5299" x2="378.5461" y2="733.3177">
					<stop  offset="0" style="stop-color:#926ECB"/>
					<stop  offset="1" style="stop-color:#CDB9EF"/>
				</linearGradient>
				<path class="st35" d="M472.4,525.9c-7.6,33.2-58.3,67.2-86,83.6c-10.7,6.3-17.9,10-17.9,10l-30.9,146c-16.1,2.1-47-5-47-5
					c-0.2-26.4,11.3-148.5,30.1-182.7c7-12.8,38-44.4,62.5-68.4c17.3-17,31.4-30.1,31.4-30.1C445.5,471.3,478.1,501.2,472.4,525.9z"
					/>
				<path class="st32" d="M472.4,525.9c-7.6,33.2-58.3,67.2-86,83.6c0.1-9.5,1.5-18.6,3.7-25.7c8.7-28,29.4-48.8,29.4-62
					c0-9.2-22.7-11.7-36.3-12.4c17.3-17,31.4-30.1,31.4-30.1C445.5,471.3,478.1,501.2,472.4,525.9z"/>
				<linearGradient id="SVGID_34_" gradientUnits="userSpaceOnUse" x1="424.9272" y1="532.6504" x2="531.83" y2="771.7533">
					<stop  offset="0" style="stop-color:#926ECB"/>
					<stop  offset="1" style="stop-color:#CDB9EF"/>
				</linearGradient>
				<path class="st36" d="M455.6,631.6l24.3,147.3c-3.2,1.8-7.2,3.4-11.6,4.8c-15.1,5-34,7.9-34,7.9
					c-9.8-24.5-43.4-142.3-38.4-181.2c2-15.3,21.2-59.9,35.6-91.7c8.9-19.7,16-34.6,16-34.6c25.8-18.9,67-3,70.7,22
					C525.3,552.9,455.6,631.6,455.6,631.6z"/>
				<path class="st37" d="M455.6,631.6l24.3,147.3c-3.2,1.8-7.2,3.4-11.6,4.8c-5.2-29.4-15.5-84.2-24.3-117.1
					c-12.5-46.6-1.1-48.8,16.3-69.7c17.4-20.8,17.4-49.9,4.9-59.2c-9.1-6.8-25.5-15.1-33.7-19c8.9-19.7,16-34.6,16-34.6
					c25.8-18.9,67-3,70.7,22C525.3,552.9,455.6,631.6,455.6,631.6z"/>
				<linearGradient id="SVGID_35_" gradientUnits="userSpaceOnUse" x1="364.496" y1="250.3705" x2="498.1974" y2="395.5321">
					<stop  offset="0" style="stop-color:#E9A6A6"/>
					<stop  offset="1" style="stop-color:#CC6767"/>
				</linearGradient>
				<path class="st38" d="M447.2,340.3c0,0-11.2,12.1-35.6,10.2l1-34.7l0.6-23c0,0,15.1-9.7,26.2-9.9l2.8,20.6L447.2,340.3z"/>
				<path class="st29" d="M442.3,303.5c-8.8,9.3-24,11.7-29.7,12.2l0.6-23c0,0,15.1-9.7,26.2-9.9L442.3,303.5z"/>
				<linearGradient id="SVGID_36_" gradientUnits="userSpaceOnUse" x1="316.9535" y1="361.519" x2="414.7368" y2="411.395">
					<stop  offset="4.175223e-04" style="stop-color:#FF556C"/>
					<stop  offset="0.9414" style="stop-color:#D40011"/>
				</linearGradient>
				<path class="st39" d="M409.9,406c-12.2,14.9-50.5,27.6-50.5,27.6c-3-2.3-5.9-5.2-8.4-8.5c-10.7-13.5-17.2-32.4-17.2-32.4
					c18.6-18.1,50.9-47,50.9-47l18.2,13.5l18.4,13.7C421.3,372.9,422.1,391.2,409.9,406z"/>
				<path class="st40" d="M409.9,406c-12.2,14.9-50.5,27.6-50.5,27.6c-3-2.3-5.9-5.2-8.4-8.5c4.5-4.4,12.3-9.3,20.1-12.6
					c10.9-4.7,1.6-14.6,3.3-28.2c1.6-13.6,13-24.9,13-24.9l15.4-0.3l18.4,13.7C421.3,372.9,422.1,391.2,409.9,406z"/>
				<linearGradient id="SVGID_37_" gradientUnits="userSpaceOnUse" x1="498.5576" y1="246.1695" x2="587.8897" y2="443.9418">
					<stop  offset="0" style="stop-color:#E9A6A6"/>
					<stop  offset="1" style="stop-color:#CC6767"/>
				</linearGradient>
				<path class="st41" d="M571.1,399.3c-0.8-0.3-14.3,1.8-32.2-10.8c-17.9-12.6-9.7-28-9.7-28l25.5-9l20.2,6.4l8.2,11.8L571.1,399.3
					z"/>
				<linearGradient id="SVGID_38_" gradientUnits="userSpaceOnUse" x1="367.633" y1="307.1605" x2="549.5741" y2="578.094">
					<stop  offset="0" style="stop-color:#FF5559"/>
					<stop  offset="0.9414" style="stop-color:#FF2A30"/>
				</linearGradient>
				<path class="st42" d="M524.9,542.4c0,0-20,3.6-57.5-18.4c-12.4-7.3-29.8-15-46.5-19.2c-16.4-4.2-32.2-5.1-42.2,0.8
					c0,0-4.7-5,1.1-12.4c6-7.6,22-6.9,20.7-37.3c-1.3-30.4-13.4-41.3-17.1-55.5c-6.1-23.6,1.4-54.8,1.4-54.8s5.6-6.1,19.8-13
					c0.8-0.4,1.7-0.8,2.6-1.2c0,0,0,0,0.1,0c10.8-4.9,26-10,46.7-13.3c1-0.2,2-0.3,3-0.5c0,0,0,0,0,0c11.1-1.7,23.8-2.8,38.1-3.1
					c0,0,7.1,20.6,14.9,50.2C523.6,416.9,539.9,496.9,524.9,542.4z"/>
				<path class="st40" d="M524.9,542.4c0,0-20.1,3.6-57.5-18.4c-12.4-7.3-29.8-15-46.5-19.2c3.3-2.8,7.5-3.9,11.8-2.7
					c21.2,6,15.2-19.7,30.5-27.4c15.2-7.7,43.6,14.8,43.6-26.9c0-41.7-21.3-80.1-21.3-80.1l24.3-2.9
					C523.6,416.9,539.9,496.9,524.9,542.4z"/>
				<linearGradient id="SVGID_39_" gradientUnits="userSpaceOnUse" x1="459.0862" y1="304.0546" x2="590.1339" y2="420.6146">
					<stop  offset="0" style="stop-color:#940800"/>
					<stop  offset="0.9414" style="stop-color:#FF3F5A"/>
				</linearGradient>
				<path class="st43" d="M494.9,314.5c0,0,45.7,17,76.2,40.7c0,0-15,9.9-22.3,46.5c0,0-35.1-10.2-54.8-19
					C474.4,373.9,471.7,321.2,494.9,314.5z"/>
				<linearGradient id="SVGID_40_" gradientUnits="userSpaceOnUse" x1="535.1591" y1="229.1592" x2="624.7145" y2="427.4258">
					<stop  offset="0" style="stop-color:#E9A6A6"/>
					<stop  offset="1" style="stop-color:#CC6767"/>
				</linearGradient>
				<path class="st44" d="M586.2,269c0,0-40.6,101.5-30.2,120.7c10.5,19.2,30.6,8.3,36.3-17.6c5.8-25.8,14-99.8,14-99.8L586.2,269z"
					/>
				<linearGradient id="SVGID_41_" gradientUnits="userSpaceOnUse" x1="377.1476" y1="238.6623" x2="510.8678" y2="383.8443">
					<stop  offset="0" style="stop-color:#E9A6A6"/>
					<stop  offset="1" style="stop-color:#CC6767"/>
				</linearGradient>
				<path class="st45" d="M448.9,262.2c0,0.5-0.1,1-0.1,1.4c-2.3,20.6-15.2,51.4-46,48.9c-33.3-2.7-21.5-68.8-21.5-68.8
					c4-12.7,18.2-15.7,18.2-15.7c0.2,1.9,1,3.7,2.3,5.4c7.1,9.1,27.7,14.6,27.7,14.6s1,6.2,7.5,10.7
					C441.7,262.1,446.6,262.3,448.9,262.2z"/>
				<linearGradient id="SVGID_42_" gradientUnits="userSpaceOnUse" x1="407.8516" y1="305.8004" x2="401.9964" y2="290.0644">
					<stop  offset="0" style="stop-color:#CC6767"/>
					<stop  offset="1" style="stop-color:#7E2424"/>
				</linearGradient>
				<path class="st46" d="M389.2,292.4c0,0,15.3,1,26.1-3.3c0,0-0.1,11.2-11.2,12.6C393.5,303.1,390.4,295.1,389.2,292.4z"/>
				<linearGradient id="SVGID_43_" gradientUnits="userSpaceOnUse" x1="428.4223" y1="315.4804" x2="438.9932" y2="361.1517">
					<stop  offset="0" style="stop-color:#3A1C8A"/>
					<stop  offset="1" style="stop-color:#201A4A"/>
				</linearGradient>
				<path class="st47" d="M456.9,317.7l-0.3,1.1c-2.9,13.3-10.1,31.4-27.6,41.6l-1.5,0.9l-1.5-0.9c-0.6-0.4-14.4-9-21.6-27.6
					c0.8-0.4,1.7-0.8,2.6-1.2c0,0,0,0,0.1,0c10.8-4.9,26-10,46.7-13.3C454.8,318,455.8,317.8,456.9,317.7
					C456.8,317.7,456.8,317.7,456.9,317.7z"/>
				<linearGradient id="SVGID_44_" gradientUnits="userSpaceOnUse" x1="361.7029" y1="253.2144" x2="495.2432" y2="398.2011">
					<stop  offset="0" style="stop-color:#E9A6A6"/>
					<stop  offset="1" style="stop-color:#CC6767"/>
				</linearGradient>
				<path class="st48" d="M453.8,318.2c-2.6,12-9.3,29.8-26.2,39.7c0,0-13.6-8.4-20.5-26.4C417.9,326.6,433.1,321.5,453.8,318.2z"/>
				<linearGradient id="SVGID_45_" gradientUnits="userSpaceOnUse" x1="584.9589" y1="206.6596" x2="674.4432" y2="404.7688">
					<stop  offset="0" style="stop-color:#E9A6A6"/>
					<stop  offset="1" style="stop-color:#CC6767"/>
				</linearGradient>
				<path class="st49" d="M586.2,269c0,0-10.4-27.5-6.5-30.9c3.8-3.3,9.5,10,9.5,10s1-36.8,6-38c3.7-0.9,3.5,27.1,3.5,27.1
					s5-28.6,8.3-29c5.9-0.8-0.5,28.9-0.5,28.9s6.9-20.3,9.6-20.2c3.8,0.2-2.4,22.7-2.4,22.7s6.4-13.1,8.1-11.1
					c1.9,2.3-9.9,37-15.4,43.7C606.4,272.4,595.8,275.5,586.2,269z"/>
				<linearGradient id="SVGID_46_" gradientUnits="userSpaceOnUse" x1="255.9739" y1="283.4877" x2="375.9547" y2="479.9505">
					<stop  offset="0" style="stop-color:#E9A6A6"/>
					<stop  offset="1" style="stop-color:#CC6767"/>
				</linearGradient>
				<path class="st50" d="M282.7,321.3c0,0,4.1-29.1-0.4-31.6c-4.5-2.4-7,11.9-7,11.9s-9-35.7-14.1-35.7c-3.8,0,2.5,27.2,2.5,27.2
					s-11.1-26.8-14.5-26.5c-5.9,0.5,6.8,28.1,6.8,28.1s-11.2-18.3-13.8-17.6c-3.7,1,7.3,21.6,7.3,21.6s-9.1-11.4-10.3-9
					c-1.3,2.6,17.7,33.9,24.6,39.3C263.7,329.1,274.7,329.7,282.7,321.3z"/>
				<linearGradient id="SVGID_47_" gradientUnits="userSpaceOnUse" x1="503.8526" y1="284.2303" x2="428.1949" y2="260.5567">
					<stop  offset="0" style="stop-color:#8725F9"/>
					<stop  offset="1" style="stop-color:#51149F"/>
				</linearGradient>
				<path class="st51" d="M455.3,266.1l-6.1,5.3c0,0-0.9-0.1-2.4-0.2c-2.3-0.2-5.9-0.5-10.2-0.7c-2.7-0.2-5.7-0.3-8.8-0.3
					c0,0-0.8-13.8,6.7-17.1c0,0,1.8,0.7,4.5,2c1.3,0.7,2.9,1.5,4.6,2.4C447.3,259.5,451.7,262.5,455.3,266.1z"/>
				<g>
					<linearGradient id="SVGID_48_" gradientUnits="userSpaceOnUse" x1="406.1844" y1="258.5483" x2="445.4087" y2="324.0845">
						<stop  offset="0" style="stop-color:#8725F9"/>
						<stop  offset="1" style="stop-color:#51149F"/>
					</linearGradient>
					<path class="st52" d="M426.8,281.4h-34.2c-5.5,0-9.9-4.5-9.9-9.9v-13.8c0-5.5,4.5-9.9,9.9-9.9h34.2c5.5,0,9.9,4.5,9.9,9.9v13.8
						C436.8,276.9,432.3,281.4,426.8,281.4z"/>
					<linearGradient id="SVGID_49_" gradientUnits="userSpaceOnUse" x1="390.1349" y1="256.2895" x2="485.0923" y2="547.0045">
						<stop  offset="0" style="stop-color:#CDB9EF"/>
						<stop  offset="1" style="stop-color:#926ECB"/>
					</linearGradient>
					<path class="st53" d="M409.9,281.4h-34.2c-5.5,0-9.9-4.5-9.9-9.9v-13.8c0-5.5,4.5-9.9,9.9-9.9h34.2c5.5,0,9.9,4.5,9.9,9.9v13.8
						C419.9,276.9,415.4,281.4,409.9,281.4z"/>
					<linearGradient id="SVGID_50_" gradientUnits="userSpaceOnUse" x1="370.506" y1="239.8355" x2="423.8862" y2="298.8347">
						<stop  offset="0" style="stop-color:#201A4A"/>
						<stop  offset="1" style="stop-color:#51149F"/>
					</linearGradient>
					<path class="st54" d="M417.1,257.3v14.4c0,3.8-3.1,6.8-6.8,6.8h-34.9c-3.8,0-6.8-3.1-6.8-6.8v-14.4c0-3.8,3.1-6.8,6.8-6.8h34.9
						c0.9,0,1.8,0.2,2.6,0.5C415.3,252,417.1,254.4,417.1,257.3z"/>
					<path class="st32" d="M417.1,257.3v14.4c0,3.8-3.1,6.8-6.8,6.8h-34.9c-3.8,0-6.8-3.1-6.8-6.8v-1.2c4.3,2.4,12.1,4.4,25.2,1.3
						c16.3-3.8,19-14.7,19.1-20.9C415.3,252,417.1,254.4,417.1,257.3z"/>
				</g>
				<linearGradient id="SVGID_51_" gradientUnits="userSpaceOnUse" x1="398.9626" y1="218.3193" x2="532.794" y2="363.622">
					<stop  offset="0" style="stop-color:#E9A6A6"/>
					<stop  offset="1" style="stop-color:#CC6767"/>
				</linearGradient>
				<path class="st55" d="M447.2,271.1c0,0,4.2-9,10.3-6.5c6.1,2.5,2.9,22.6-14.4,19.2C443,283.9,444.1,278.5,447.2,271.1z"/>
				<path class="st56" d="M456.9,267c-1.6-0.1-3.2,1.2-4.3,2.2c-1.2,1-2.2,2.2-3,3.6c-0.8,1.4-1.3,2.9-1.6,4.5
					c-0.1,0.7-0.2,1.6,0.3,2.2c0.5,0.4,1.2,0.5,1.6,0c0.6-0.6,0.5-1.5,0.6-2.2c0-1.2-0.1-2.4-0.3-3.6c0,0,0-0.1,0-0.1
					c0.5-1,1.2-2,2-2.8c0.1,0.1,0.1,0.3,0.2,0.4c0.1,0.3,0.2,0.6,0.3,0.9c0.1,0.2,0.4,0.4,0.6,0.3c0.3-0.1,0.4-0.3,0.3-0.6
					c-0.1-0.6-0.4-1.2-0.7-1.7c0.5-0.4,0.9-0.8,1.5-1.1c0.7-0.5,1.5-1,2.4-1C457.5,268.1,457.5,267.1,456.9,267z M449.5,278.3
					c-0.1,0.4-0.4,0.9-0.6,0.2c-0.2-0.6,0.1-1.7,0.3-2.3c0.1-0.3,0.2-0.6,0.3-0.8c0,0.6,0.1,1.2,0.1,1.7
					C449.6,277.5,449.6,277.9,449.5,278.3z"/>
			</g>
			<g>
				<g>
					
						<radialGradient id="SVGID_52_" cx="266.5208" cy="272.7369" r="257.0039" gradientTransform="matrix(0.9648 0 0 0.9714 -1.4429 22.7174)" gradientUnits="userSpaceOnUse">
						<stop  offset="0" style="stop-color:#8FFFFF"/>
						<stop  offset="0.9414" style="stop-color:#3650AE;stop-opacity:0"/>
					</radialGradient>
					<ellipse class="st57" cx="255.7" cy="287.6" rx="248" ry="249.6"/>
					<ellipse class="st58" cx="255.7" cy="287.6" rx="115.6" ry="116.4"/>
					<ellipse class="st59" cx="255.7" cy="287.6" rx="48.9" ry="49.2"/>
				</g>
				<g>
					
						<radialGradient id="SVGID_53_" cx="623.8952" cy="212.9314" r="174.6515" gradientTransform="matrix(0.9648 0 0 0.9714 -1.4429 22.7174)" gradientUnits="userSpaceOnUse">
						<stop  offset="0" style="stop-color:#8FFFFF"/>
						<stop  offset="0.9414" style="stop-color:#3650AE;stop-opacity:0"/>
					</radialGradient>
					<ellipse class="st60" cx="600.5" cy="229.6" rx="168.5" ry="169.7"/>
					<ellipse class="st61" cx="600.5" cy="229.6" rx="78.6" ry="79.1"/>
					<ellipse class="st62" cx="600.5" cy="229.6" rx="33.2" ry="33.4"/>
				</g>
			</g>
		</g>
		<g>
			<path class="st63" d="M325,332.3H204.4c-6.3,0-11.5-5.1-11.5-11.5v-67.4c0-6.3,5.1-11.5,11.5-11.5H325c6.3,0,11.5,5.1,11.5,11.5
				v67.4C336.5,327.1,331.3,332.3,325,332.3z"/>
			<path class="st63" d="M366,271h-66.9c-3.5,0-6.4-2.8-6.4-6.4v-37.4c0-3.5,2.8-6.4,6.4-6.4H366c3.5,0,6.4,2.8,6.4,6.4v37.4
				C372.4,268.2,369.6,271,366,271z"/>
			<path class="st63" d="M213.5,345.4H168c-2.4,0-4.3-1.9-4.3-4.3v-25.4c0-2.4,1.9-4.3,4.3-4.3h45.5c2.4,0,4.3,1.9,4.3,4.3v25.4
				C217.8,343.4,215.9,345.4,213.5,345.4z"/>
			<path class="st63" d="M325.4,241.9H204c-6.1,0-11.1,5-11.1,11.1v68c0,6.1,4.9,11.1,11.1,11.1h121.4c6.1,0,11.1-5,11.1-11.1v-68
				C336.5,246.9,331.5,241.9,325.4,241.9z M334.5,321.1c0,5.1-4.1,9.2-9.1,9.2H204c-5,0-9.1-4.1-9.1-9.2v-68c0-5.1,4.1-9.2,9.1-9.2
				h121.4c5,0,9.1,4.1,9.1,9.2V321.1z"/>
			<linearGradient id="SVGID_54_" gradientUnits="userSpaceOnUse" x1="245.4073" y1="287.0915" x2="290.4726" y2="287.0915">
				<stop  offset="0" style="stop-color:#FFFFFF"/>
				<stop  offset="1" style="stop-color:#FFFFFF;stop-opacity:0"/>
			</linearGradient>
			<path class="st64" d="M288.3,283.3L252,262.2c-2.9-1.7-6.6,0.4-6.6,3.8v42.1c0,3.4,3.7,5.5,6.6,3.8l36.2-21.1
				C291.2,289.2,291.2,285,288.3,283.3z"/>
		</g>
		<g>
			<path class="st63" d="M662.4,202.9v56.6c0,5.1-4.1,9.3-9.2,9.3H552.2c-3.3,0-6.2-1.7-7.8-4.4c-0.9-1.4-1.4-3.1-1.4-4.9v-56.6
				c0-5.1,4.1-9.3,9.2-9.3h100.9C658.2,193.7,662.4,197.8,662.4,202.9z"/>
			<g>
				<path class="st63" d="M602.7,200.9c-16.6,0-30.1,13.6-30.1,30.3c0,16.7,13.5,30.3,30.1,30.3s30.1-13.6,30.1-30.3
					C632.8,214.5,619.3,200.9,602.7,200.9z M602.7,257.2c-14.2,0-25.8-11.6-25.8-26c0-14.3,11.6-26,25.8-26
					c14.2,0,25.8,11.6,25.8,26C628.5,245.5,616.9,257.2,602.7,257.2z"/>
				<path class="st63" d="M602.7,211.4c-10.8,0-19.7,8.9-19.7,19.8c0,10.9,8.8,19.8,19.7,19.8s19.7-8.9,19.7-19.8
					C622.4,220.3,613.5,211.4,602.7,211.4z M602.7,246.7c-8.5,0-15.4-6.9-15.4-15.5c0-8.5,6.9-15.5,15.4-15.5
					c8.5,0,15.4,6.9,15.4,15.5C618.1,239.8,611.2,246.7,602.7,246.7z"/>
				<ellipse class="st63" cx="602.7" cy="231.2" rx="7.9" ry="7.9"/>
			</g>
			<path class="st63" d="M662.4,202.9v56.6c0,5.1-4.1,9.3-9.2,9.3h-75.1l74.6-75.1h0.5C658.2,193.7,662.4,197.8,662.4,202.9z"/>
			<path class="st63" d="M614.7,193.7l-70.3,70.7c-0.9-1.4-1.4-3.1-1.4-4.9v-56.6c0-5.1,4.1-9.3,9.2-9.3H614.7z"/>
		</g>
	</g>
</g>
</svg>
