<?xml version="1.0" encoding="utf-8"?>
<!-- Generator: Adobe Illustrator 24.2.1, SVG Export Plug-In . SVG Version: 6.00 Build 0)  -->
<svg version="1.1" id="Layer_1" xmlns="http://www.w3.org/2000/svg" xmlns:xlink="http://www.w3.org/1999/xlink" x="0px" y="0px"
	 viewBox="0 0 1500 1500" style="enable-background:new 0 0 1500 1500;" xml:space="preserve">
<style type="text/css">
	.st0{fill:url(#SVGID_1_);}
	.st1{fill:url(#SVGID_2_);}
	.st2{fill:url(#SVGID_3_);}
	.st3{fill:url(#SVGID_4_);}
	.st4{opacity:0.13;fill:#1C1F4C;}
	.st5{fill:#FFFFFF;}
	.st6{fill:#5C71A9;}
	.st7{fill:url(#SVGID_5_);}
	.st8{opacity:0.24;}
	.st9{fill:#111111;}
	.st10{opacity:0.27;}
	.st11{fill:#DAEAEE;}
	.st12{fill:#7FA8AF;}
	.st13{fill:url(#SVGID_6_);}
	.st14{fill:url(#SVGID_7_);}
	.st15{fill:url(#SVGID_8_);}
	.st16{fill:url(#SVGID_9_);}
	.st17{fill:url(#SVGID_10_);}
	.st18{fill:url(#SVGID_11_);}
	.st19{fill:url(#SVGID_12_);}
	.st20{fill:url(#SVGID_13_);}
	.st21{fill:url(#SVGID_14_);}
	.st22{opacity:0.26;}
	.st23{fill:url(#SVGID_15_);}
	.st24{fill:url(#SVGID_16_);}
	.st25{fill:url(#SVGID_17_);}
	.st26{fill:url(#SVGID_18_);}
	.st27{fill:url(#SVGID_19_);}
</style>
<g>
	<linearGradient id="SVGID_1_" gradientUnits="userSpaceOnUse" x1="417.7784" y1="1252.7256" x2="688.4074" y2="1299.1191">
		<stop  offset="1.341370e-03" style="stop-color:#FFF5DF"/>
		<stop  offset="1" style="stop-color:#D26766"/>
	</linearGradient>
	<polygon class="st0" points="857.88,1423.85 466.04,1423.85 466.04,1159.36 823.11,1159.36 	"/>
	<linearGradient id="SVGID_2_" gradientUnits="userSpaceOnUse" x1="1423.0049" y1="394.8648" x2="1047.3568" y2="543.3169">
		<stop  offset="1.341370e-03" style="stop-color:#FFF5DF"/>
		<stop  offset="1" style="stop-color:#D26766"/>
	</linearGradient>
	<path class="st1" d="M1026.66,575.39l-12.15-27.12c-9.24-20.63-0.01-44.85,20.62-54.09l224.95-100.8
		c20.63-9.24,44.85-0.01,54.09,20.62l12.15,27.12c9.24,20.63,0.01,44.85-20.62,54.09L1080.76,596
		C1060.13,605.25,1035.91,596.02,1026.66,575.39z"/>
	<linearGradient id="SVGID_3_" gradientUnits="userSpaceOnUse" x1="1260.9832" y1="532.1255" x2="1227.1545" y2="528.2593">
		<stop  offset="1.341370e-03" style="stop-color:#FFF5DF"/>
		<stop  offset="1" style="stop-color:#D26766"/>
	</linearGradient>
	<path class="st2" d="M1093.67,467.93v118.09c0,0,52.1-21.26,50.85-22.79c-1.25-1.52-1.16-117.57-1.16-117.57L1093.67,467.93z"/>
	<linearGradient id="SVGID_4_" gradientUnits="userSpaceOnUse" x1="1143.6279" y1="991.7827" x2="762.1699" y2="945.3895">
		<stop  offset="1.341370e-03" style="stop-color:#FFF5DF"/>
		<stop  offset="1" style="stop-color:#D26766"/>
	</linearGradient>
	<path class="st3" d="M605.47,804.8l211.19-162.34l153.2,433.03c0,0-71.91,167.27-307.97,167.27L605.47,804.8z"/>
	<path class="st4" d="M670.91,1068.92c0,0-0.6,24.7,128.28,23.41s161.61,0.05,161.61,0.05l9.07-16.9L670.91,1068.92z"/>
	<g>
		<path class="st5" d="M1093.67,197.18v800.73c0,41.99-34.03,76.03-76.03,76.03H698.12c-41.99,0-76.03-34.05-76.03-76.03V197.18
			c0-42,34.05-76.03,76.03-76.03h319.51C1059.63,121.15,1093.67,155.18,1093.67,197.18z"/>
		<path class="st6" d="M1017.63,1074.44H698.12c-42.2,0-76.53-34.33-76.53-76.53V197.18c0-42.2,34.33-76.53,76.53-76.53h319.51
			c42.2,0,76.53,34.33,76.53,76.53v800.73C1094.17,1040.11,1059.83,1074.44,1017.63,1074.44z M698.12,121.65
			c-41.65,0-75.53,33.88-75.53,75.53v800.73c0,20.17,7.86,39.14,22.13,53.41c14.27,14.27,33.23,22.13,53.41,22.13h319.51
			c20.18,0,39.15-7.86,53.41-22.13c14.26-14.27,22.12-33.23,22.12-53.41V197.18c0-41.65-33.88-75.53-75.53-75.53H698.12z"/>
	</g>
	<linearGradient id="SVGID_5_" gradientUnits="userSpaceOnUse" x1="1672.5449" y1="1374.3169" x2="453.4255" y2="211.8995">
		<stop  offset="0" style="stop-color:#314798"/>
		<stop  offset="1" style="stop-color:#4CBBBA"/>
	</linearGradient>
	<path class="st7" d="M1078.08,196.61v801.86c0,33.08-26.81,59.88-59.87,59.88H697.56c-33.06,0-59.87-26.81-59.87-59.88V196.61
		c0-33.06,26.81-59.87,59.87-59.87h320.65C1051.27,136.74,1078.08,163.55,1078.08,196.61z"/>
	<g class="st8">
		<g>
			<rect x="696.96" y="682.18" class="st5" width="282.64" height="11.39"/>
			<path class="st9" d="M980.1,694.06H696.46v-12.39H980.1V694.06z M697.46,693.06H979.1v-10.39H697.46V693.06z"/>
		</g>
		<g>
			<rect x="696.96" y="705.99" class="st5" width="282.64" height="11.39"/>
			<path class="st9" d="M980.1,717.88H696.46v-12.39H980.1V717.88z M697.46,716.88H979.1v-10.39H697.46V716.88z"/>
		</g>
		<g>
			<rect x="696.96" y="729.8" class="st5" width="282.64" height="11.39"/>
			<path class="st9" d="M980.1,741.69H696.46V729.3H980.1V741.69z M697.46,740.69H979.1V730.3H697.46V740.69z"/>
		</g>
	</g>
	<g class="st8">
		<g>
			<rect x="696.96" y="764.14" class="st5" width="282.64" height="11.39"/>
			<path class="st9" d="M980.1,776.03H696.46v-12.39H980.1V776.03z M697.46,775.03H979.1v-10.39H697.46V775.03z"/>
		</g>
		<g>
			<rect x="696.96" y="787.96" class="st5" width="282.64" height="11.39"/>
			<path class="st9" d="M980.1,799.84H696.46v-12.39H980.1V799.84z M697.46,798.84H979.1v-10.39H697.46V798.84z"/>
		</g>
		<g>
			<rect x="696.96" y="811.77" class="st5" width="282.64" height="11.39"/>
			<path class="st9" d="M980.1,823.66H696.46v-12.39H980.1V823.66z M697.46,822.66H979.1v-10.39H697.46V822.66z"/>
		</g>
	</g>
	<g class="st8">
		<g>
			<rect x="696.96" y="853.04" class="st5" width="123.7" height="11.39"/>
			<path class="st9" d="M821.16,864.93h-124.7v-12.39h124.7V864.93z M697.46,863.93h122.7v-10.39h-122.7V863.93z"/>
		</g>
		<g>
			<rect x="696.96" y="876.85" class="st5" width="123.7" height="11.39"/>
			<path class="st9" d="M821.16,888.74h-124.7v-12.39h124.7V888.74z M697.46,887.74h122.7v-10.39h-122.7V887.74z"/>
		</g>
		<g>
			<rect x="696.96" y="900.66" class="st5" width="123.7" height="11.39"/>
			<path class="st9" d="M821.16,912.55h-124.7v-12.39h124.7V912.55z M697.46,911.55h122.7v-10.39h-122.7V911.55z"/>
		</g>
	</g>
	<g class="st10">
		<rect x="697.15" y="515.93" class="st11" width="326.11" height="128.38"/>
		<path class="st12" d="M1023.77,644.81H696.65V515.43h327.11V644.81z M697.65,643.81h325.11V516.43H697.65V643.81z"/>
	</g>
	<g class="st10">
		<rect x="850.1" y="848.42" class="st11" width="173.17" height="159.54"/>
		<path class="st12" d="M1023.77,1008.46H849.6V847.92h174.17V1008.46z M850.6,1007.46h172.17V848.92H850.6V1007.46z"/>
	</g>
	<path class="st4" d="M1093.67,631.63v358.9l-30.86,13.83c-23.83,10.67-51.78,0.01-62.46-23.81l-6.98-15.59
		c-10.67-23.82-0.01-51.77,23.8-62.45l16.39-7.34c-18.79,0.82-37.06-9.67-45.21-27.89l-6.98-15.57
		c-9.77-21.8-1.67-47.04,18.01-59.35c-18.67,0.67-36.75-9.81-44.85-27.9l-6.98-15.59c-10.67-23.82-0.01-51.78,23.81-62.45
		L1093.67,631.63z"/>
	<path class="st4" d="M665.99,529.12c0,0,46.86-1.09,37.84,68.43c-9.02,69.52-85.05,175.19-85.05,175.19l-6.44-71.98L665.99,529.12z
		"/>
	<g>
		<g>
			<linearGradient id="SVGID_6_" gradientUnits="userSpaceOnUse" x1="1170.666" y1="939.1426" x2="1108.7184" y2="795.8885">
				<stop  offset="1.341370e-03" style="stop-color:#FFF5DF"/>
				<stop  offset="1" style="stop-color:#D26766"/>
			</linearGradient>
			<path class="st13" d="M1017.62,934.16l-12.15-27.12c-9.24-20.63-0.01-44.85,20.62-54.09l178.44-79.96
				c20.63-9.24,44.85-0.01,54.09,20.62l12.15,27.12c9.24,20.63,0.01,44.85-20.62,54.09l-178.44,79.96
				C1051.09,964.02,1026.87,954.79,1017.62,934.16z"/>
			<linearGradient id="SVGID_7_" gradientUnits="userSpaceOnUse" x1="790.5879" y1="863.7962" x2="1480.047" y2="954.0059">
				<stop  offset="1.341370e-03" style="stop-color:#FFF5DF"/>
				<stop  offset="1" style="stop-color:#D26766"/>
			</linearGradient>
			<path class="st14" d="M1086.21,932.3l-8.62,3.86c-20.77,9.31-45.16,0.03-54.46-20.75s-0.01-45.16,20.76-54.47l8.62-3.86
				L1086.21,932.3z"/>
		</g>
		<g>
			<linearGradient id="SVGID_8_" gradientUnits="userSpaceOnUse" x1="1153.2072" y1="824.3583" x2="1106.4985" y2="697.2072">
				<stop  offset="1.341370e-03" style="stop-color:#FFF5DF"/>
				<stop  offset="1" style="stop-color:#D26766"/>
			</linearGradient>
			<path class="st15" d="M1005.62,820.89l-12.15-27.12c-9.24-20.63-0.01-44.85,20.62-54.09l178.44-79.96
				c20.63-9.24,44.85-0.01,54.09,20.62l12.15,27.12c9.24,20.63,0.01,44.85-20.62,54.09l-178.44,79.96
				C1039.08,850.76,1014.86,841.53,1005.62,820.89z"/>
			<linearGradient id="SVGID_9_" gradientUnits="userSpaceOnUse" x1="804.9561" y1="753.9823" x2="1494.4153" y2="844.1919">
				<stop  offset="1.341370e-03" style="stop-color:#FFF5DF"/>
				<stop  offset="1" style="stop-color:#D26766"/>
			</linearGradient>
			<path class="st16" d="M1074.21,819.04l-8.62,3.86c-20.77,9.31-45.16,0.03-54.46-20.75c-9.31-20.77-0.01-45.16,20.76-54.47
				l8.62-3.86L1074.21,819.04z"/>
		</g>
		<g>
			<linearGradient id="SVGID_10_" gradientUnits="userSpaceOnUse" x1="1071.0724" y1="579.3042" x2="1111.4498" y2="709.5546">
				<stop  offset="1.341370e-03" style="stop-color:#FFF5DF"/>
				<stop  offset="1" style="stop-color:#D26766"/>
			</linearGradient>
			<path class="st17" d="M971.8,718.06l-12.15-27.12c-9.24-20.63-0.01-44.85,20.62-54.09l178.44-79.96
				c20.63-9.24,44.85-0.01,54.09,20.62l12.15,27.12c9.24,20.63,0.01,44.85-20.62,54.09l-178.44,79.96
				C1005.27,747.92,981.05,738.69,971.8,718.06z"/>
			<linearGradient id="SVGID_11_" gradientUnits="userSpaceOnUse" x1="817.6153" y1="657.2281" x2="1507.0745" y2="747.4377">
				<stop  offset="1.341370e-03" style="stop-color:#FFF5DF"/>
				<stop  offset="1" style="stop-color:#D26766"/>
			</linearGradient>
			<path class="st18" d="M1040.39,716.2l-8.62,3.86c-20.77,9.31-45.16,0.03-54.46-20.75c-9.31-20.77-0.01-45.16,20.76-54.47
				l8.62-3.86L1040.39,716.2z"/>
		</g>
	</g>
	<linearGradient id="SVGID_12_" gradientUnits="userSpaceOnUse" x1="432.309" y1="851.1324" x2="670.9147" y2="851.1324">
		<stop  offset="1.341370e-03" style="stop-color:#FFF5DF"/>
		<stop  offset="1" style="stop-color:#D26766"/>
	</linearGradient>
	<path class="st19" d="M618.23,716.96c0,0,134.17-242.95-38.07-257.46L466.04,791.3c-75.89,220.63,0,451.46,0,451.46h204.88V930.91
		C670.91,930.91,661.27,789.85,618.23,716.96z"/>
	<g>
		<rect x="432.75" y="1291.38" class="st5" width="424.85" height="132.76"/>
		<path class="st6" d="M858.1,1424.65H432.25v-133.76H858.1V1424.65z M433.25,1423.65H857.1v-131.76H433.25V1423.65z"/>
	</g>
	<linearGradient id="SVGID_13_" gradientUnits="userSpaceOnUse" x1="15.3256" y1="1178.0417" x2="1767.111" y2="1725.1617">
		<stop  offset="0" style="stop-color:#B23F25"/>
		<stop  offset="1" style="stop-color:#4CBBBA"/>
	</linearGradient>
	<rect x="418.32" y="1327.75" class="st20" width="459.48" height="95.82"/>
	<radialGradient id="SVGID_14_" cx="635.3057" cy="-25.9668" r="1535.907" gradientUnits="userSpaceOnUse">
		<stop  offset="0" style="stop-color:#E20882"/>
		<stop  offset="0.5464" style="stop-color:#FBAF49"/>
		<stop  offset="1" style="stop-color:#FCF5A3"/>
	</radialGradient>
	<path class="st21" d="M1078.08,196.61v167.73h-440.4V196.61c0-33.06,26.81-59.87,59.87-59.87h320.65
		C1051.27,136.74,1078.08,163.55,1078.08,196.61z"/>
	<g class="st22">
		<g>
			<rect x="693.5" y="415.59" class="st5" width="282.64" height="11.39"/>
			<path class="st9" d="M976.63,427.48H693v-12.39h283.64V427.48z M694,426.48h281.64v-10.39H694V426.48z"/>
		</g>
		<g>
			<rect x="693.5" y="439.4" class="st5" width="282.64" height="11.39"/>
			<path class="st9" d="M976.63,451.29H693V438.9h283.64V451.29z M694,450.29h281.64V439.9H694V450.29z"/>
		</g>
		<g>
			<rect x="693.5" y="463.21" class="st5" width="181.18" height="11.39"/>
			<path class="st9" d="M875.17,475.1H693v-12.39h182.18V475.1z M694,474.1h180.18v-10.39H694V474.1z"/>
		</g>
	</g>
	<g>
		<path class="st5" d="M693.33,210.39h20.75l31.51,44.22v-44.22h24.38v83.51h-20.88l-31.38-44.09v44.09h-24.38V210.39z"/>
		<path class="st5" d="M781.64,210.39h63.28v18.67h-38.9v13.62h34.1v18.93h-34.1v13.62h38.9v18.67h-63.28V210.39z"/>
		<path class="st5" d="M850.1,210.39h23.86l9.47,44.22l9.21-31.64v-12.58h19.97l12.71,44.35l9.99-44.35h23.86l-19.32,83.51h-22.04
			l-12.58-43.18l-13.62,43.18h-22.04L850.1,210.39z"/>
		<path class="st5" d="M971.08,293.83c-5.01-0.91-9.25-2.18-12.71-3.83v-20.1c3.98,1.82,8.34,3.29,13.1,4.41
			c4.75,1.12,9.16,1.69,13.23,1.69c4.67,0,8.02-0.41,10.05-1.23c2.03-0.82,3.05-2.44,3.05-4.86c0-1.56-0.5-2.83-1.49-3.82
			c-0.99-0.99-2.44-1.86-4.34-2.59c-1.9-0.73-4.93-1.75-9.08-3.05c-1.38-0.34-2.42-0.65-3.11-0.91c-5.71-1.82-10.18-3.8-13.42-5.97
			c-3.24-2.16-5.58-4.78-7-7.84c-1.43-3.07-2.14-6.89-2.14-11.48c0-8.21,2.94-14.46,8.82-18.74c5.88-4.28,14.52-6.42,25.93-6.42
			c4.41,0,9.05,0.37,13.94,1.1c4.88,0.74,8.93,1.62,12.12,2.66v20.23c-7.61-3.03-15-4.54-22.17-4.54c-4.58,0-8.02,0.35-10.31,1.04
			c-2.29,0.69-3.44,2.2-3.44,4.54c0,1.47,0.47,2.64,1.43,3.5c0.95,0.87,2.4,1.62,4.34,2.27c1.94,0.65,5.25,1.58,9.92,2.79
			c6.66,1.81,11.78,4,15.37,6.55c3.59,2.55,6.07,5.47,7.46,8.75c1.38,3.29,2.08,7.26,2.08,11.93c0,7.78-3,13.94-9.01,18.48
			c-6.01,4.54-14.85,6.81-26.52,6.81C981.45,295.19,976.09,294.74,971.08,293.83z"/>
	</g>
</g>
<g>
	<radialGradient id="SVGID_15_" cx="167.5976" cy="181.1314" r="1122.9139" gradientUnits="userSpaceOnUse">
		<stop  offset="0" style="stop-color:#E20882"/>
		<stop  offset="0.5464" style="stop-color:#FBAF49"/>
		<stop  offset="1" style="stop-color:#FCF5A3"/>
	</radialGradient>
	<path class="st23" d="M397.64,399.15H217.59c-9.31,0-16.86,7.55-16.86,16.86v98.19c0,9.31,7.55,16.86,16.86,16.86h128.57
		l26.23,26.23v-26.23h25.26c9.31,0,16.86-7.55,16.86-16.86v-98.19C414.51,406.7,406.96,399.15,397.64,399.15z"/>
	<g>
		<circle class="st5" cx="269.72" cy="463.92" r="9.79"/>
		<circle class="st5" cx="307.62" cy="463.92" r="9.79"/>
		<circle class="st5" cx="345.51" cy="463.92" r="9.79"/>
	</g>
	<linearGradient id="SVGID_16_" gradientUnits="userSpaceOnUse" x1="119.1381" y1="247.0779" x2="467.4164" y2="598.7045">
		<stop  offset="4.989920e-03" style="stop-color:#AE2E25"/>
		<stop  offset="1" style="stop-color:#FCB037"/>
	</linearGradient>
	<path class="st24" d="M361.28,506.27h106.31c5.5,0,9.96,4.46,9.96,9.96v57.98c0,5.5-4.46,9.96-9.96,9.96h-75.91l-15.49,15.48
		v-15.48h-14.91c-5.5,0-9.96-4.46-9.96-9.96v-57.98C351.32,510.73,355.78,506.27,361.28,506.27z"/>
	<g>
		<path class="st5" d="M431.03,544.51c0,3.19,2.59,5.78,5.78,5.78c3.19,0,5.78-2.59,5.78-5.78c0-3.19-2.59-5.78-5.78-5.78
			C433.62,538.73,431.03,541.32,431.03,544.51z"/>
		<path class="st5" d="M408.66,544.51c0,3.19,2.59,5.78,5.78,5.78c3.19,0,5.78-2.59,5.78-5.78c0-3.19-2.59-5.78-5.78-5.78
			C411.24,538.73,408.66,541.32,408.66,544.51z"/>
		<path class="st5" d="M386.28,544.51c0,3.19,2.59,5.78,5.78,5.78c3.19,0,5.78-2.59,5.78-5.78c0-3.19-2.59-5.78-5.78-5.78
			C388.87,538.73,386.28,541.32,386.28,544.51z"/>
	</g>
</g>
<g>
	<g>
		<linearGradient id="SVGID_17_" gradientUnits="userSpaceOnUse" x1="1221.0955" y1="700.7874" x2="1244.1401" y2="1235.7545">
			<stop  offset="4.989920e-03" style="stop-color:#AE2E25"/>
			<stop  offset="1" style="stop-color:#FCB037"/>
		</linearGradient>
		<path class="st25" d="M1113.71,1167.67v-102.5c0-15.73,12.75-28.48,28.48-28.48h193.61c15.73,0,28.48,12.75,28.48,28.48v102.5
			c-0.01,15.73-12.75,28.47-28.48,28.47h-193.61C1126.46,1196.14,1113.72,1183.4,1113.71,1167.67z"/>
		<path class="st11" d="M1335.8,1196.68h-193.61c-15.99,0-29.01-13.02-29.02-29.01v-102.5c0-16,13.02-29.02,29.02-29.02h193.61
			c16,0,29.02,13.02,29.02,29.02v102.5C1364.82,1183.66,1351.8,1196.68,1335.8,1196.68z M1114.25,1167.67
			c0.01,15.4,12.54,27.94,27.94,27.94h193.61c15.4,0,27.94-12.53,27.94-27.94v-102.5c0-15.41-12.54-27.94-27.94-27.94h-193.61
			c-15.41,0-27.94,12.54-27.94,27.94V1167.67L1114.25,1167.67z"/>
	</g>
	<g>
		<linearGradient id="SVGID_18_" gradientUnits="userSpaceOnUse" x1="1234.3842" y1="867.7954" x2="1240.9684" y2="1295.7695">
			<stop  offset="4.989920e-03" style="stop-color:#AE2E25"/>
			<stop  offset="1" style="stop-color:#FCB037"/>
		</linearGradient>
		<path class="st26" d="M1113.71,1167.67l125.29-51.25l125.29,51.25c-0.01,15.73-12.75,28.47-28.48,28.47h-193.61
			C1126.46,1196.14,1113.72,1183.4,1113.71,1167.67z"/>
		<path class="st11" d="M1335.8,1196.68h-193.61c-15.99,0-29.01-13.02-29.02-29.01l0-0.36l0.33-0.14l125.49-51.34l0.2,0.08
			l125.62,51.39l0,0.36C1364.82,1183.66,1351.8,1196.68,1335.8,1196.68z M1114.25,1168.03c0.2,15.24,12.66,27.58,27.94,27.58h193.61
			c15.28,0,27.74-12.34,27.94-27.58L1239,1116.99L1114.25,1168.03z"/>
	</g>
	<g>
		<linearGradient id="SVGID_19_" gradientUnits="userSpaceOnUse" x1="1562.8411" y1="1241.1947" x2="1294.5339" y2="1094.6956">
			<stop  offset="4.989920e-03" style="stop-color:#AE2E25"/>
			<stop  offset="1" style="stop-color:#FCB037"/>
		</linearGradient>
		<path class="st27" d="M1113.71,1080.49v-15.32c0-15.73,12.75-28.48,28.48-28.48h193.61c15.73,0,28.48,12.75,28.48,28.48v15.32
			l-124.93,59.06L1113.71,1080.49z"/>
		<path class="st11" d="M1239.36,1140.14l-0.23-0.11l-125.95-59.21v-15.66c0-16,13.02-29.02,29.02-29.02h193.61
			c16,0,29.02,13.02,29.02,29.02v15.66l-0.31,0.15L1239.36,1140.14z M1114.25,1080.14l125.1,58.81l124.39-58.81v-14.98
			c0-15.41-12.54-27.94-27.94-27.94h-193.61c-15.41,0-27.94,12.54-27.94,27.94V1080.14z"/>
	</g>
</g>
</svg>
