<?xml version="1.0" encoding="utf-8"?>
<!-- Generator: Adobe Illustrator 22.1.0, SVG Export Plug-In . SVG Version: 6.00 Build 0)  -->
<svg version="1.1" id="Layer_1" xmlns="http://www.w3.org/2000/svg" xmlns:xlink="http://www.w3.org/1999/xlink" x="0px" y="0px"
	 viewBox="0 0 3000 2000" style="enable-background:new 0 0 3000 2000;" xml:space="preserve">
<style type="text/css">
	.st0{fill-rule:evenodd;clip-rule:evenodd;fill:#3D3C3B;}
	.st1{fill:#AA2E5B;}
	.st2{fill:#FF496A;}
	.st3{fill:#CB3D66;}
	.st4{fill:#F4A0BD;}
	.st5{fill:#FCFCFC;}
	.st6{fill:#FF637D;}
	.st7{fill:#25124C;}
	.st8{fill:#43299D;}
	.st9{fill:#31185E;}
	.st10{fill:#F8BD8C;}
	.st11{fill:#261A5B;}
	.st12{fill:#351F66;}
	.st13{fill:#232729;}
	.st14{fill:#090329;}
	.st15{fill:#EAB186;}
	.st16{fill:#BBABFF;}
	.st17{fill:#AB97FF;}
	.st18{fill:#9889F4;}
	.st19{fill:#0B0635;}
	.st20{fill:#D6D6D7;}
	.st21{fill:#C7C7C9;}
	.st22{fill:#010103;}
	.st23{fill:#090516;}
	.st24{fill:#07052D;}
	.st25{fill:#C5A2FD;}
	.st26{fill:#1D134C;}
	.st27{fill:#16103D;}
	.st28{fill:#221344;}
	.st29{fill:#C6C6C6;}
	.st30{fill:#3C2A91;}
	.st31{fill:#FFFFFF;}
	.st32{fill:#FBA799;}
	.st33{fill:#BB9DF4;}
	.st34{fill:#CCCCCE;}
	.st35{fill:#EA4266;}
	.st36{fill:#B69EEF;}
	.st37{fill:#10071A;}
</style>
<g>
	<g>
		<path class="st0" d="M2720.3,961.1l-3.9-3c1.7-2.2,3.4-4.4,5-6.6l4,3C2723.7,956.7,2722,958.9,2720.3,961.1L2720.3,961.1z"/>
		<path class="st0" d="M2710.9,972.8l-3.8-3.2c1.8-2.1,3.5-4.3,5.2-6.4l3.9,3.1C2714.5,968.5,2712.7,970.7,2710.9,972.8
			L2710.9,972.8z"/>
		<path class="st0" d="M2701.1,984.2l-3.7-3.3c1.8-2,3.7-4.1,5.5-6.2l3.8,3.2C2704.8,980,2703,982.1,2701.1,984.2L2701.1,984.2z"/>
		<polygon class="st0" points="2746,924 2741.7,921.4 2743.9,917.9 2746,914.3 2750.3,916.8 2748.1,920.4 2746,924 		"/>
		<path class="st0" d="M2737.9,936.7l-4.1-2.7c0.8-1.1,1.5-2.3,2.3-3.5c0.7-1.2,1.5-2.3,2.2-3.5l4.2,2.7c-0.7,1.2-1.5,2.3-2.3,3.5
			C2739.4,934.3,2738.6,935.5,2737.9,936.7L2737.9,936.7z"/>
		<path class="st0" d="M2729.3,949l-4-2.9c1.6-2.3,3.2-4.5,4.8-6.8l4.1,2.8C2732.6,944.4,2731,946.7,2729.3,949L2729.3,949z"/>
		<polygon class="st0" points="2767.2,884.2 2762.7,882.1 2764.4,878.4 2766,874.6 2770.5,876.5 2768.9,880.3 2767.2,884.2 		"/>
		<path class="st0" d="M2760.7,897.7l-4.4-2.2c1.2-2.5,2.5-4.9,3.6-7.4l4.5,2.1C2763.2,892.7,2761.9,895.2,2760.7,897.7
			L2760.7,897.7z"/>
		<path class="st0" d="M2753.6,911l-4.3-2.4c0.7-1.2,1.3-2.4,2-3.6l2-3.6l4.4,2.3l-2,3.7C2755,908.5,2754.3,909.7,2753.6,911
			L2753.6,911z"/>
		<path class="st0" d="M2782.5,841.7l-4.8-1.3l1-4c0.3-1.3,0.7-2.7,1-4l4.8,1.1c-0.3,1.4-0.6,2.7-1,4.1L2782.5,841.7L2782.5,841.7z"
			/>
		<path class="st0" d="M2778.2,856.1l-4.7-1.6c0.5-1.3,0.8-2.6,1.3-3.9l1.2-3.9l4.8,1.4l-1.2,4
			C2779.1,853.4,2778.7,854.8,2778.2,856.1L2778.2,856.1z"/>
		<path class="st0" d="M2773.1,870.2l-4.6-1.8c1-2.5,2-5.1,2.9-7.7l4.7,1.7C2775.1,865,2774.1,867.6,2773.1,870.2L2773.1,870.2z"/>
		<polygon class="st0" points="2789.4,797 2784.5,796.8 2784.6,792.7 2784.6,788.6 2789.6,788.6 2789.6,792.8 2789.4,797 		"/>
		<path class="st0" d="M2788.2,812l-4.9-0.6l0.5-4.1c0.2-1.4,0.2-2.7,0.3-4.1l4.9,0.4c-0.1,1.4-0.2,2.8-0.3,4.2L2788.2,812
			L2788.2,812z"/>
		<path class="st0" d="M2785.9,826.9l-4.9-0.9l0.7-4c0.1-0.7,0.3-1.3,0.4-2l0.3-2l4.9,0.8l-0.3,2.1c-0.1,0.7-0.2,1.4-0.4,2.1
			L2785.9,826.9L2785.9,826.9z"/>
		<polygon class="st0" points="2785.1,751.9 2780.3,753.1 2779.9,751.1 2779.3,749.1 2778.2,745.2 2783,743.8 2784.1,747.8 
			2784.7,749.9 2785.1,751.9 		"/>
		<path class="st0" d="M2788,766.8l-4.9,0.7c-0.3-2.7-0.9-5.4-1.3-8.1l4.9-1C2787.1,761.2,2787.7,764,2788,766.8L2788,766.8z"/>
		<polygon class="st0" points="2789.4,781.8 2784.4,782 2784.3,780 2784.3,778.9 2784.2,777.9 2783.8,773.8 2788.8,773.4 
			2789.1,777.6 2789.2,778.6 2789.3,779.7 2789.4,781.8 		"/>
		<path class="st0" d="M2768.2,709.9l-4.3,2.5l-1-1.8c-0.3-0.6-0.7-1.2-1.1-1.8l-2.2-3.4l4.2-2.7l2.3,3.5c0.4,0.6,0.7,1.2,1.1,1.8
			L2768.2,709.9L2768.2,709.9z"/>
		<path class="st0" d="M2775.2,723.3l-4.5,2.1l-0.8-1.9c-0.3-0.6-0.6-1.2-0.9-1.8l-1.9-3.6l4.4-2.3l1.9,3.8c0.3,0.6,0.7,1.2,0.9,1.9
			L2775.2,723.3L2775.2,723.3z"/>
		<polygon class="st0" points="2780.8,737.3 2776.2,738.9 2775.5,737 2774.8,735.1 2773.3,731.3 2777.9,729.4 2779.4,733.3 
			2780.2,735.3 2780.8,737.3 		"/>
		<polygon class="st0" points="2740.7,674 2737.1,677.5 2735.7,676 2734.2,674.6 2731.2,671.7 2734.7,668.1 2737.7,671 
			2739.2,672.5 2740.7,674 		"/>
		<path class="st0" d="M2750.8,685.2l-3.8,3.2c-1.8-2.1-3.6-4.1-5.4-6.2l3.7-3.3C2747.1,680.9,2748.9,683.1,2750.8,685.2
			L2750.8,685.2z"/>
		<path class="st0" d="M2760,697.1l-4,2.9l-2.4-3.3c-0.4-0.6-0.8-1.1-1.2-1.6l-1.3-1.6l3.9-3l1.3,1.7c0.4,0.6,0.9,1.1,1.3,1.7
			L2760,697.1L2760,697.1z"/>
		<path class="st0" d="M2706.1,644.9l-2.8,4.1c-1.1-0.8-2.2-1.6-3.4-2.3c-1.2-0.7-2.3-1.5-3.4-2.2l2.6-4.2c1.2,0.7,2.4,1.5,3.6,2.3
			C2703.8,643.2,2704.9,644.1,2706.1,644.9L2706.1,644.9z"/>
		<path class="st0" d="M2718.2,653.9l-3.1,3.9c-1-0.9-2.2-1.7-3.3-2.5l-3.3-2.5l3-4l3.4,2.5C2716,652.1,2717.1,653,2718.2,653.9
			L2718.2,653.9z"/>
		<polygon class="st0" points="2729.7,663.5 2726.4,667.2 2723.3,664.5 2721.7,663.1 2720.1,661.8 2723.3,658 2724.9,659.4 
			2726.5,660.8 2729.7,663.5 		"/>
		<path class="st0" d="M2665,625.8l-1.3,4.8l-2-0.5l-2-0.4c-1.3-0.3-2.6-0.6-4-0.8l0.9-4.9c1.4,0.2,2.8,0.6,4.1,0.9l2.1,0.5
			L2665,625.8L2665,625.8z"/>
		<path class="st0" d="M2679.4,630.5l-1.8,4.6c-1.3-0.5-2.5-1-3.8-1.4c-1.3-0.4-2.5-0.9-3.8-1.3l1.5-4.7c1.4,0.4,2.7,0.9,4,1.4
			C2676.8,629.5,2678.1,630,2679.4,630.5L2679.4,630.5z"/>
		<path class="st0" d="M2693.1,636.9l-2.4,4.4c-2.4-1.3-4.8-2.5-7.3-3.6l2.1-4.5C2688.1,634.3,2690.6,635.5,2693.1,636.9
			L2693.1,636.9z"/>
		<path class="st0" d="M2619.9,621.9l0.3,4.9l-4.1,0.3c-1.4,0.1-2.7,0.3-4.1,0.4l-0.6-4.9c1.4-0.1,2.8-0.3,4.2-0.4L2619.9,621.9
			L2619.9,621.9z"/>
		<path class="st0" d="M2635,621.6l-0.1,5c-2.7-0.1-5.4-0.1-8.2,0l-0.1-5C2629.3,621.5,2632.2,621.5,2635,621.6L2635,621.6z"/>
		<path class="st0" d="M2650,622.8l-0.7,4.9c-1.3-0.2-2.7-0.3-4-0.5c-0.7-0.1-1.3-0.2-2-0.2l-2-0.2l0.4-4.9l2.1,0.2
			c0.7,0.1,1.4,0.1,2.1,0.2C2647.2,622.5,2648.6,622.6,2650,622.8L2650,622.8z"/>
		<path class="st0" d="M2575.3,629.9l1.3,4.8c-2.6,0.8-5.3,1.5-7.9,2.3l-1.5-4.7C2570,631.4,2572.7,630.6,2575.3,629.9L2575.3,629.9
			z"/>
		<path class="st0" d="M2590,626.2l1.1,4.8c-2.7,0.6-5.4,1.2-8,1.9l-1.2-4.8C2584.5,627.5,2587.2,626.9,2590,626.2L2590,626.2z"/>
		<path class="st0" d="M2604.7,623.5l0.7,4.9l-4.1,0.6c-1.3,0.2-2.7,0.5-4,0.7l-0.9-4.9c1.4-0.2,2.8-0.5,4.1-0.7L2604.7,623.5
			L2604.7,623.5z"/>
		<path class="st0" d="M2532.7,644.6l1.8,4.6c-2.6,1-5.1,2.1-7.7,3.2l-1.9-4.6C2527.5,646.7,2530.1,645.7,2532.7,644.6L2532.7,644.6
			z"/>
		<path class="st0" d="M2546.7,639.2l1.7,4.7c-2.6,0.9-5.2,1.9-7.8,2.9l-1.8-4.6C2541.5,641.2,2544.1,640.2,2546.7,639.2
			L2546.7,639.2z"/>
		<path class="st0" d="M2560.9,634.3l1.5,4.7c-1.3,0.4-2.6,0.9-3.9,1.3c-1.3,0.4-2.6,0.9-3.9,1.4l-1.6-4.7c1.3-0.5,2.6-0.9,4-1.4
			C2558.2,635.2,2559.5,634.7,2560.9,634.3L2560.9,634.3z"/>
		<polygon class="st0" points="2491.5,662.7 2493.5,667.2 2486,670.7 2483.9,666.2 2491.5,662.7 		"/>
		<polygon class="st0" points="2505.1,656.4 2507.1,661 2499.5,664.4 2497.5,659.9 2505.1,656.4 		"/>
		<path class="st0" d="M2518.8,650.4l2,4.6c-2.5,1.1-5.1,2.2-7.6,3.3l-2-4.5C2513.7,652.6,2516.2,651.5,2518.8,650.4L2518.8,650.4z"
			/>
		<polygon class="st0" points="2450.8,681.9 2452.9,686.4 2445.4,689.9 2443.3,685.5 2450.8,681.9 		"/>
		<polygon class="st0" points="2464.3,675.5 2466.5,679.9 2458.9,683.5 2456.8,679 2464.3,675.5 		"/>
		<polygon class="st0" points="2477.8,669.1 2479.9,673.5 2472.4,677.1 2470.3,672.6 2477.8,669.1 		"/>
		<polygon class="st0" points="2410.1,700.8 2412.1,705.3 2404.5,708.7 2402.5,704.2 2410.1,700.8 		"/>
		<polygon class="st0" points="2423.7,694.6 2425.8,699.1 2418.2,702.6 2416.1,698.1 2423.7,694.6 		"/>
		<polygon class="st0" points="2437.2,688.3 2439.3,692.8 2431.8,696.4 2429.7,691.9 2437.2,688.3 		"/>
		<path class="st0" d="M2368.7,718.1l1.8,4.6c-2.6,1-5.2,2-7.8,3l-1.7-4.7C2363.6,720.1,2366.2,719.1,2368.7,718.1L2368.7,718.1z"/>
		<path class="st0" d="M2382.6,712.6l1.9,4.6c-2.6,1.1-5.2,2.1-7.8,3.1l-1.8-4.6C2377.5,714.7,2380.1,713.7,2382.6,712.6
			L2382.6,712.6z"/>
		<path class="st0" d="M2396.3,706.9l2,4.6c-2.6,1.1-5.1,2.2-7.7,3.3l-1.9-4.6C2391.2,709.1,2393.8,708,2396.3,706.9L2396.3,706.9z"
			/>
		<path class="st0" d="M2326.3,732.4l1.4,4.8c-2.7,0.7-5.4,1.5-8.1,2.2l-1.3-4.8C2321,733.9,2323.7,733.2,2326.3,732.4L2326.3,732.4
			z"/>
		<path class="st0" d="M2340.6,728.1l1.5,4.7c-2.7,0.9-5.3,1.7-8,2.5l-1.4-4.7C2335.3,729.8,2337.9,729,2340.6,728.1L2340.6,728.1z"
			/>
		<path class="st0" d="M2354.7,723.3l1.7,4.7c-2.6,0.9-5.3,1.9-7.9,2.7l-1.6-4.7C2349.4,725.2,2352,724.3,2354.7,723.3L2354.7,723.3
			z"/>
		<path class="st0" d="M2282.7,742.1l0.7,4.9l-4.2,0.6c-1.4,0.2-2.8,0.4-4.2,0.5l-0.6-4.9c1.4-0.2,2.7-0.3,4.1-0.5L2282.7,742.1
			L2282.7,742.1z"/>
		<path class="st0" d="M2297.3,739.5l1,4.9c-1.4,0.3-2.8,0.5-4.1,0.8c-1.4,0.3-2.8,0.5-4.1,0.8l-0.8-4.9c1.4-0.2,2.7-0.5,4.1-0.7
			C2294.6,740,2296,739.8,2297.3,739.5L2297.3,739.5z"/>
		<polygon class="st0" points="2311.8,736.3 2313,741.1 2308.9,742.1 2304.8,743 2303.7,738.1 2307.8,737.2 2311.8,736.3 		"/>
		<path class="st0" d="M2238.2,745.2l-0.1,5c-2.8,0-5.6-0.2-8.4-0.3l0.2-5C2232.7,745.1,2235.4,745.2,2238.2,745.2L2238.2,745.2z"/>
		<path class="st0" d="M2253,745l0.2,5c-2.8,0.1-5.6,0.2-8.4,0.2l-0.1-5C2247.5,745.2,2250.3,745.1,2253,745L2253,745z"/>
		<path class="st0" d="M2267.8,743.9l0.5,4.9c-1.4,0.2-2.8,0.3-4.2,0.4l-4.2,0.3l-0.3-4.9l4.1-0.3
			C2265.1,744.2,2266.5,744.1,2267.8,743.9L2267.8,743.9z"/>
		<path class="st0" d="M2193.9,740.4l-1,4.9c-1.4-0.3-2.8-0.6-4.1-0.9l-4.1-1l1.2-4.8l4,0.9C2191.2,739.8,2192.6,740.1,2193.9,740.4
			L2193.9,740.4z"/>
		<polygon class="st0" points="2208.5,742.9 2207.9,747.9 2203.7,747.2 2199.5,746.5 2200.4,741.6 2204.5,742.3 2208.5,742.9 		"/>
		<polygon class="st0" points="2223.3,744.6 2222.9,749.5 2218.7,749.1 2216.6,748.9 2214.5,748.7 2215,743.8 2217.1,744 
			2219.1,744.2 2223.3,744.6 		"/>
		<path class="st0" d="M2151.4,727.2l-1.9,4.6c-2.6-1.1-5.2-2.2-7.7-3.4l2.1-4.5C2146.3,725,2148.8,726.1,2151.4,727.2L2151.4,727.2
			z"/>
		<polygon class="st0" points="2165.3,732.5 2163.6,737.2 2159.7,735.8 2155.7,734.2 2157.5,729.6 2161.4,731.1 2165.3,732.5 		"/>
		<polygon class="st0" points="2179.4,736.9 2178.1,741.7 2174,740.5 2172,739.9 2170,739.3 2171.5,734.5 2173.4,735.2 
			2175.4,735.7 2179.4,736.9 		"/>
		<path class="st0" d="M2111.9,706.5l-2.7,4.2c-1.2-0.7-2.4-1.5-3.5-2.3l-3.5-2.3l2.8-4.1l3.5,2.3
			C2109.6,705,2110.7,705.7,2111.9,706.5L2111.9,706.5z"/>
		<path class="st0" d="M2124.7,714.1l-2.4,4.3c-1.2-0.7-2.5-1.4-3.7-2.1l-3.6-2.1l2.6-4.2l3.6,2.1
			C2122.3,712.7,2123.4,713.4,2124.7,714.1L2124.7,714.1z"/>
		<polygon class="st0" points="2137.8,721 2135.6,725.4 2133.7,724.5 2131.8,723.5 2128.1,721.6 2130.4,717.2 2134.1,719.1 
			2135.9,720.1 2137.8,721 		"/>
		<path class="st0" d="M2076,679.9l-3.2,3.8c-2.1-1.8-4.3-3.6-6.4-5.5l3.3-3.7C2071.8,676.3,2073.9,678.1,2076,679.9L2076,679.9z"/>
		<path class="st0" d="M2087.5,689.3l-3,3.9c-1.1-0.9-2.2-1.7-3.3-2.6l-3.3-2.7l3.1-3.8l3.2,2.6
			C2085.3,687.6,2086.5,688.4,2087.5,689.3L2087.5,689.3z"/>
		<polygon class="st0" points="2099.5,698.1 2096.6,702.2 2094.9,701 2093.2,699.7 2089.8,697.2 2092.8,693.3 2096.1,695.7 
			2097.8,696.9 2099.5,698.1 		"/>
		<path class="st0" d="M2043.5,649.1l-3.6,3.4c-1.9-2-3.9-4-5.7-6.1l3.6-3.4C2039.7,645.1,2041.6,647.1,2043.5,649.1L2043.5,649.1z"
			/>
		<path class="st0" d="M2054,659.8l-3.5,3.5c-1-1-2-2-3-3l-2.9-3l3.5-3.5l2.9,3C2052,657.8,2053,658.8,2054,659.8L2054,659.8z"/>
		<path class="st0" d="M2064.7,670l-3.3,3.7c-2-1.9-4.1-3.8-6.1-5.7l3.4-3.6C2060.7,666.2,2062.7,668.1,2064.7,670L2064.7,670z"/>
		<path class="st0" d="M2014.2,615.3l-3.9,3.1c-1.7-2.2-3.5-4.4-5.2-6.6l3.9-3C2010.7,611,2012.4,613.2,2014.2,615.3L2014.2,615.3z"
			/>
		<path class="st0" d="M2023.6,626.9l-3.8,3.2c-1.8-2.1-3.6-4.3-5.4-6.4l3.8-3.1C2020,622.6,2021.8,624.7,2023.6,626.9L2023.6,626.9
			z"/>
		<polygon class="st0" points="2033.4,638.1 2029.7,641.4 2024.1,635.1 2027.9,631.8 2033.4,638.1 		"/>
		<polygon class="st0" points="1987.4,579.4 1983.3,582.2 1978.6,575.3 1982.7,572.5 1987.4,579.4 		"/>
		<path class="st0" d="M1996,591.6l-4,2.9c-0.8-1.1-1.7-2.3-2.5-3.4l-2.4-3.4l4-2.9l2.4,3.4C1994.4,589.3,1995.2,590.4,1996,591.6
			L1996,591.6z"/>
		<path class="st0" d="M2004.9,603.5l-3.9,3c-1.7-2.2-3.4-4.4-5-6.7l4-3C2001.6,599.1,2003.3,601.3,2004.9,603.5L2004.9,603.5z"/>
		<path class="st1" d="M1974.6,604.6l-14.1-21.1l5.1-8.9c0,0,10.7,3.2,10.9,4.2c0.2,1-0.8,13.5-1,15.6
			C1975.3,596.5,1974.6,604.6,1974.6,604.6L1974.6,604.6z"/>
		<path class="st2" d="M1905.7,498.4c0.6-0.5,1.4-0.5,2-0.1l108.1,60.3c0.7,0.4,1,1.1,1,1.8c-0.1,0.8-0.6,1.4-1.3,1.6l-22.1,6.3
			c-1.7,0.5-3.1,1.8-3.7,3.5l-11.8,32.3c-0.3,0.7-1,1.2-1.8,1.2c-0.8,0-1.5-0.5-1.8-1.2l-7.5-21.2c-0.2-0.6-0.6-1-1.2-1.2
			c-0.6-0.2-1.2-0.1-1.7,0.3l-30.4,23.7c-0.4,0.3-0.9,0.5-1.4,0.4l-0.3-0.1c-0.6-0.2-1.1-0.7-1.2-1.3L1905,500.3
			C1904.9,499.6,1905.1,498.8,1905.7,498.4L1905.7,498.4z"/>
		<path class="st3" d="M1906.6,498l84.9,71.3c-0.8,0.6-1.5,1.5-1.8,2.5l-11.8,32.3c-0.3,0.7-1,1.2-1.8,1.2c-0.8,0-1.5-0.5-1.8-1.2
			l-7.5-21.2l-0.2-0.4v-0.1l-60.8-84C1906,498.2,1906.3,498.1,1906.6,498L1906.6,498z"/>
	</g>
	<g>
		<g>
			<g>
				<path class="st4" d="M1717.7,963.9c-2.2,0-4.1-1.8-4.1-4.1v-28.7c0-2.2,1.8-4.1,4.1-4.1c2.2,0,4.1,1.8,4.1,4.1v28.7
					C1721.8,962.1,1720,963.9,1717.7,963.9L1717.7,963.9z"/>
				<path class="st4" d="M1732.1,949.5h-28.7c-2.2,0-4.1-1.8-4.1-4.1c0-2.2,1.8-4.1,4.1-4.1h28.7c2.2,0,4.1,1.8,4.1,4.1
					C1736.1,947.7,1734.3,949.5,1732.1,949.5L1732.1,949.5z"/>
			</g>
			<g>
				<path class="st5" d="M2846,1135.8c-2.2,0-4.1-1.8-4.1-4.1V1103c0-2.2,1.8-4.1,4.1-4.1c2.2,0,4.1,1.8,4.1,4.1v28.7
					C2850.1,1134,2848.3,1135.8,2846,1135.8L2846,1135.8z"/>
				<path class="st5" d="M2860.4,1121.4h-28.7c-2.2,0-4.1-1.8-4.1-4.1c0-2.2,1.8-4.1,4.1-4.1h28.7c2.2,0,4.1,1.8,4.1,4.1
					C2864.4,1119.6,2862.6,1121.4,2860.4,1121.4L2860.4,1121.4z"/>
			</g>
			<g>
				<path class="st6" d="M899.6,679.3c-2.2,2.2-5.8,2.1-8-0.1l-27.9-28.6c-2.2-2.2-2.1-5.8,0.1-8c2.2-2.2,5.8-2.1,8,0.1l27.9,28.6
					C901.9,673.6,901.8,677.2,899.6,679.3L899.6,679.3z"/>
				<path class="st6" d="M899.9,651L871.3,679c-2.2,2.2-5.8,2.1-8-0.1c-2.2-2.2-2.1-5.8,0.1-8l28.7-27.9c2.2-2.2,5.8-2.1,8,0.1
					C902.2,645.3,902.2,648.9,899.9,651L899.9,651z"/>
			</g>
		</g>
		<path class="st0" d="M274.6,1644l-2.5-4.3l1.8-1c0.6-0.3,1.2-0.7,1.8-1.1l3.4-2.2l2.7,4.1l-3.5,2.3c-0.6,0.4-1.2,0.7-1.8,1.1
			L274.6,1644L274.6,1644z"/>
		<polygon class="st0" points="310.4,1616.3 306.9,1612.8 308.4,1611.4 309.9,1609.9 312.7,1606.9 316.3,1610.3 313.4,1613.4 
			311.9,1614.9 310.4,1616.3 		"/>
		<path class="st0" d="M299.3,1626.5l-3.2-3.8c2.1-1.8,4.1-3.6,6.2-5.4l3.3,3.7C303.5,1622.8,301.4,1624.7,299.3,1626.5
			L299.3,1626.5z"/>
		<path class="st0" d="M287.3,1635.7l-2.9-4l3.3-2.4c0.6-0.4,1.1-0.8,1.6-1.2l1.6-1.3l3.1,3.9l-1.7,1.3c-0.6,0.4-1.1,0.9-1.7,1.3
			L287.3,1635.7L287.3,1635.7z"/>
		<path class="st0" d="M339.5,1581.7l-4.1-2.8c0.8-1.1,1.6-2.2,2.3-3.4c0.7-1.2,1.5-2.3,2.2-3.5l4.2,2.6c-0.7,1.2-1.5,2.4-2.2,3.6
			C341.1,1579.4,340.3,1580.6,339.5,1581.7L339.5,1581.7z"/>
		<path class="st0" d="M330.5,1593.8l-3.9-3.1c0.9-1,1.7-2.2,2.5-3.3l2.5-3.3l4,2.9l-2.5,3.4
			C332.3,1591.6,331.4,1592.8,330.5,1593.8L330.5,1593.8z"/>
		<polygon class="st0" points="320.9,1605.3 317.2,1602 319.9,1599 321.3,1597.4 322.6,1595.8 326.4,1599 325,1600.6 323.7,1602.2 
			320.9,1605.3 		"/>
		<path class="st0" d="M358.5,1540.6l-4.8-1.2l0.5-2l0.4-2c0.3-1.3,0.6-2.6,0.8-4l4.9,0.9c-0.2,1.4-0.6,2.8-0.9,4.1l-0.5,2.1
			L358.5,1540.6L358.5,1540.6z"/>
		<path class="st0" d="M353.8,1555l-4.6-1.8c0.5-1.3,1-2.5,1.4-3.8c0.4-1.3,0.9-2.6,1.3-3.8l4.7,1.5c-0.4,1.4-0.9,2.7-1.4,4
			C354.9,1552.4,354.3,1553.7,353.8,1555L353.8,1555z"/>
		<path class="st0" d="M347.5,1568.7l-4.4-2.3c1.3-2.4,2.5-4.8,3.6-7.3l4.5,2.1C350,1563.7,348.8,1566.3,347.5,1568.7L347.5,1568.7z
			"/>
		<path class="st0" d="M362.4,1495.5l-4.9,0.3l-0.3-4.1c-0.1-1.4-0.3-2.7-0.4-4.1l4.9-0.6c0.1,1.4,0.3,2.8,0.4,4.2L362.4,1495.5
			L362.4,1495.5z"/>
		<path class="st0" d="M362.7,1510.6l-5-0.1c0.1-2.7,0.1-5.4,0-8.2l5-0.1C362.8,1505,362.7,1507.8,362.7,1510.6L362.7,1510.6z"/>
		<path class="st0" d="M361.4,1525.6l-4.9-0.7c0.2-1.3,0.3-2.7,0.5-4c0.1-0.7,0.2-1.3,0.2-2l0.1-2l4.9,0.4l-0.2,2.1
			c-0.1,0.7-0.1,1.4-0.2,2.1C361.8,1522.8,361.7,1524.2,361.4,1525.6L361.4,1525.6z"/>
		<path class="st0" d="M354.3,1451l-4.8,1.3c-0.8-2.6-1.5-5.3-2.3-7.9l4.7-1.5C352.7,1445.6,353.5,1448.3,354.3,1451L354.3,1451z"/>
		<path class="st0" d="M357.9,1465.6l-4.8,1.1c-0.6-2.7-1.2-5.4-1.9-8l4.8-1.2C356.7,1460.1,357.3,1462.8,357.9,1465.6L357.9,1465.6
			z"/>
		<path class="st0" d="M360.7,1480.3l-4.9,0.7l-0.7-4.1c-0.2-1.3-0.5-2.7-0.7-4l4.9-0.9c0.2,1.4,0.5,2.8,0.8,4.1L360.7,1480.3
			L360.7,1480.3z"/>
		<path class="st0" d="M339.4,1408.4l-4.6,1.9c-1-2.6-2.1-5.1-3.2-7.7l4.6-1.9C337.3,1403.2,338.4,1405.8,339.4,1408.4L339.4,1408.4
			z"/>
		<path class="st0" d="M344.9,1422.4l-4.6,1.7c-0.9-2.6-2-5.2-2.9-7.7l4.6-1.8C342.9,1417.1,343.9,1419.7,344.9,1422.4L344.9,1422.4
			z"/>
		<path class="st0" d="M349.8,1436.5l-4.7,1.6c-0.4-1.3-0.9-2.6-1.3-3.9c-0.4-1.3-0.9-2.6-1.4-3.9l4.7-1.7c0.5,1.3,0.9,2.6,1.4,4
			C348.9,1433.8,349.4,1435.2,349.8,1436.5L349.8,1436.5z"/>
		<polygon class="st0" points="321.3,1367.1 316.8,1369.2 313.3,1361.7 317.8,1359.6 321.3,1367.1 		"/>
		<polygon class="st0" points="327.6,1380.8 323,1382.8 319.6,1375.2 324.1,1373.2 327.6,1380.8 		"/>
		<path class="st0" d="M333.6,1394.4l-4.6,2c-1.1-2.5-2.2-5.1-3.3-7.6l4.5-2C331.4,1389.3,332.5,1391.9,333.6,1394.4L333.6,1394.4z"
			/>
		<polygon class="st0" points="302,1326.5 297.6,1328.7 294,1321.1 298.4,1319 302,1326.5 		"/>
		<polygon class="st0" points="308.5,1340 304,1342.2 300.4,1334.6 304.9,1332.5 308.5,1340 		"/>
		<polygon class="st0" points="314.9,1353.5 310.4,1355.6 306.8,1348.1 311.3,1346 314.9,1353.5 		"/>
		<polygon class="st0" points="283,1285.8 278.5,1287.9 275.1,1280.2 279.6,1278.2 283,1285.8 		"/>
		<polygon class="st0" points="289.2,1299.4 284.7,1301.5 281.2,1293.9 285.8,1291.9 289.2,1299.4 		"/>
		<polygon class="st0" points="295.6,1312.9 291.1,1315 287.5,1307.5 292,1305.4 295.6,1312.9 		"/>
		<path class="st0" d="M265.6,1244.5l-4.6,1.8c-1-2.6-2-5.2-3-7.8l4.6-1.7C263.7,1239.3,264.6,1241.9,265.6,1244.5L265.6,1244.5z"/>
		<path class="st0" d="M271.2,1258.4l-4.6,1.9c-1.1-2.6-2.1-5.2-3.1-7.8l4.6-1.8C269.1,1253.3,270.1,1255.8,271.2,1258.4
			L271.2,1258.4z"/>
		<path class="st0" d="M276.9,1272.1l-4.5,2c-1.1-2.6-2.2-5.1-3.3-7.7l4.6-1.9C274.8,1267,275.9,1269.5,276.9,1272.1L276.9,1272.1z"
			/>
		<path class="st0" d="M251.3,1202.1l-4.8,1.4c-0.8-2.7-1.5-5.4-2.2-8.1l4.8-1.3C249.7,1196.8,250.5,1199.5,251.3,1202.1
			L251.3,1202.1z"/>
		<path class="st0" d="M255.6,1216.4l-4.7,1.5c-0.9-2.7-1.7-5.3-2.5-8l4.7-1.4C253.9,1211.1,254.7,1213.7,255.6,1216.4L255.6,1216.4
			z"/>
		<path class="st0" d="M260.4,1230.4l-4.7,1.7c-0.9-2.6-1.9-5.3-2.8-7.9l4.7-1.6C258.5,1225.2,259.5,1227.8,260.4,1230.4
			L260.4,1230.4z"/>
		<path class="st0" d="M241.5,1158.5l-4.9,0.8l-0.6-4.2c-0.2-1.4-0.4-2.8-0.5-4.2l4.9-0.6c0.2,1.4,0.3,2.7,0.5,4.1L241.5,1158.5
			L241.5,1158.5z"/>
		<path class="st0" d="M244.1,1173.1l-4.9,1c-0.3-1.4-0.5-2.8-0.8-4.1c-0.3-1.4-0.5-2.8-0.8-4.1l4.9-0.9c0.2,1.4,0.5,2.7,0.7,4.1
			C243.6,1170.4,243.9,1171.8,244.1,1173.1L244.1,1173.1z"/>
		<polygon class="st0" points="247.4,1187.6 242.6,1188.8 241.6,1184.7 240.7,1180.6 245.5,1179.5 246.4,1183.6 247.4,1187.6 		"/>
		<path class="st0" d="M238.3,1114l-5-0.1c0-2.8,0.1-5.6,0.2-8.4l5,0.2C238.5,1108.5,238.3,1111.3,238.3,1114L238.3,1114z"/>
		<path class="st0" d="M238.6,1128.9l-5,0.2c-0.1-2.8-0.2-5.6-0.2-8.4l5-0.1C238.3,1123.4,238.5,1126.1,238.6,1128.9L238.6,1128.9z"
			/>
		<path class="st0" d="M239.7,1143.6l-4.9,0.5c-0.2-1.4-0.3-2.8-0.4-4.2l-0.3-4.2l4.9-0.3l0.3,4.1
			C239.4,1140.9,239.5,1142.3,239.7,1143.6L239.7,1143.6z"/>
		<path class="st0" d="M243,1069.7l-4.9-1c0.3-1.4,0.6-2.8,0.9-4.1l0.9-4.1l4.8,1.2l-0.9,4C243.6,1067,243.3,1068.4,243,1069.7
			L243,1069.7z"/>
		<polygon class="st0" points="240.5,1084.4 235.6,1083.7 236.2,1079.5 236.9,1075.3 241.8,1076.2 241.1,1080.3 240.5,1084.4 		"/>
		<polygon class="st0" points="238.9,1099.1 234,1098.7 234.4,1094.5 234.6,1092.4 234.8,1090.3 239.7,1090.8 239.5,1092.9 
			239.3,1095 238.9,1099.1 		"/>
		<path class="st0" d="M256.2,1027.2l-4.6-1.9c1-2.6,2.2-5.2,3.4-7.7l4.5,2.1C258.4,1022.1,257.2,1024.6,256.2,1027.2L256.2,1027.2z
			"/>
		<polygon class="st0" points="250.9,1041.1 246.2,1039.5 247.6,1035.5 249.1,1031.5 253.8,1033.3 252.3,1037.2 250.9,1041.1 		"/>
		<polygon class="st0" points="246.5,1055.2 241.8,1053.9 242.9,1049.8 243.5,1047.8 244.2,1045.8 248.9,1047.3 248.3,1049.2 
			247.7,1051.2 246.5,1055.2 		"/>
		<path class="st0" d="M276.8,987.7l-4.2-2.7c0.7-1.2,1.5-2.4,2.3-3.5l2.3-3.5l4.1,2.8l-2.3,3.5
			C278.3,985.3,277.6,986.5,276.8,987.7L276.8,987.7z"/>
		<path class="st0" d="M269.2,1000.4l-4.3-2.4c0.7-1.2,1.4-2.5,2.1-3.7l2.1-3.6l4.3,2.6l-2.1,3.6
			C270.6,998,269.9,999.2,269.2,1000.4L269.2,1000.4z"/>
		<polygon class="st0" points="262.4,1013.6 257.9,1011.4 258.8,1009.5 259.8,1007.6 261.7,1003.9 266.1,1006.2 264.2,1009.9 
			263.3,1011.7 262.4,1013.6 		"/>
		<path class="st0" d="M303.3,951.7l-3.8-3.2c1.8-2.1,3.6-4.3,5.5-6.4l3.7,3.3C306.9,947.5,305.1,949.6,303.3,951.7L303.3,951.7z"/>
		<path class="st0" d="M294,963.3l-3.9-3c0.9-1.1,1.7-2.2,2.6-3.3l2.6-3.3l3.8,3.1l-2.6,3.2C295.6,961.1,294.8,962.2,294,963.3
			L294,963.3z"/>
		<polygon class="st0" points="285.2,975.2 281.1,972.4 282.3,970.6 283.5,968.9 286,965.5 290,968.5 287.6,971.8 286.3,973.5 
			285.2,975.2 		"/>
		<path class="st0" d="M334,919.2l-3.4-3.6c2-1.9,4-3.9,6.1-5.7l3.4,3.6C338,915.4,336.1,917.3,334,919.2L334,919.2z"/>
		<path class="st0" d="M323.4,929.7l-3.5-3.5c1-1,2-2,3-3l3-3l3.5,3.5l-3,2.9C325.4,927.7,324.4,928.6,323.4,929.7L323.4,929.7z"/>
		<path class="st0" d="M313.2,940.4l-3.7-3.3c1.9-2,3.8-4.1,5.7-6.1l3.6,3.4C317,936.4,315.1,938.4,313.2,940.4L313.2,940.4z"/>
		<path class="st0" d="M367.8,889.7l-3.1-3.9c2.2-1.8,4.4-3.5,6.6-5.2l3.1,3.9C372.1,886.3,369.9,888,367.8,889.7L367.8,889.7z"/>
		<path class="st0" d="M356.3,899.2l-3.2-3.8c2.1-1.8,4.3-3.6,6.4-5.4l3.1,3.8C360.5,895.7,358.4,897.5,356.3,899.2L356.3,899.2z"/>
		<polygon class="st0" points="345.1,909 341.8,905.3 348.1,899.8 351.3,903.5 345.1,909 		"/>
		<polygon class="st0" points="403.7,862.9 400.8,858.8 407.7,854.1 410.5,858.2 403.7,862.9 		"/>
		<path class="st0" d="M391.5,871.6l-2.9-4c1.1-0.8,2.2-1.7,3.4-2.5l3.4-2.4l2.9,4l-3.4,2.4C393.8,869.9,392.7,870.8,391.5,871.6
			L391.5,871.6z"/>
		<path class="st0" d="M379.6,880.5l-3-3.9c2.2-1.7,4.4-3.4,6.7-5.1l3,4C384,877.1,381.8,878.8,379.6,880.5L379.6,880.5z"/>
		<path class="st7" d="M416.2,867.9l21-14.3l-1.4-10.2c0,0-11.1-1-11.7-0.2c-0.5,0.8-4.3,12.8-4.9,14.9
			C418.6,860.1,416.2,867.9,416.2,867.9L416.2,867.9z"/>
		<path class="st8" d="M519.8,795.1c-0.4-0.6-1.1-1-1.8-0.9l-122.8,15.5c-0.8,0.1-1.4,0.6-1.6,1.4c-0.2,0.7,0.1,1.5,0.7,2l18.1,14.1
			c1.4,1.1,2.2,2.8,2.2,4.6l-1.1,34.4c0,0.8,0.4,1.5,1.2,1.8c0.7,0.3,1.6,0.1,2.1-0.5l14.9-16.8c0.4-0.5,1-0.7,1.6-0.6
			c0.6,0.1,1.1,0.4,1.4,0.9l19.3,33.3c0.3,0.5,0.7,0.8,1.2,0.9l0.3,0c0.6,0,1.2-0.3,1.6-0.8l62.7-87.3
			C520.1,796.6,520.2,795.8,519.8,795.1L519.8,795.1z"/>
		<path class="st9" d="M519.1,794.4l-105.4,34.4c0.5,0.9,0.8,1.9,0.8,3l-1.1,34.4c0,0.8,0.4,1.5,1.2,1.8c0.7,0.3,1.6,0.1,2.1-0.5
			l14.9-16.8l0.4-0.3l0-0.1l87.8-55.2C519.6,794.8,519.3,794.6,519.1,794.4L519.1,794.4z"/>
	</g>
	<g>
		<path class="st9" d="M1478.3,608c-2.2,0-4.1-1.8-4.1-4.1v-28.7c0-2.2,1.8-4.1,4.1-4.1c2.2,0,4.1,1.8,4.1,4.1V604
			C1482.4,606.2,1480.6,608,1478.3,608L1478.3,608z"/>
		<path class="st9" d="M1492.7,593.7H1464c-2.2,0-4.1-1.8-4.1-4.1c0-2.2,1.8-4.1,4.1-4.1h28.7c2.2,0,4.1,1.8,4.1,4.1
			C1496.8,591.9,1494.9,593.7,1492.7,593.7L1492.7,593.7z"/>
	</g>
</g>
<g>
	<polygon class="st10" points="2686,1645.1 2642.4,1609.2 2663,1586.7 2707.4,1626.5 2686.6,1647.2 2686,1645.1 	"/>
	<path class="st11" d="M2721.1,1622.1l-18-5.7c-2.6-0.8-5.5,0.6-6.5,3.2c-2.5,6.7-8.4,18.4-20,20.5c-2.2,0.4-3.8,2.2-4.1,4.4
		l-8,57.9c-0.3,2,0.6,3.9,2.2,5l0,0c2.4,1.7,5.7,1.1,7.3-1.3l51.7-74.6c1.7-2.4,1.1-5.7-1.3-7.3l-2-1.4
		C2722,1622.5,2721.6,1622.2,2721.1,1622.1z"/>
	<path class="st12" d="M2618.2,1278.2c0,0-30.3,192.9-26.8,200.9l94.2,111.7l-32.4,43.5l-110-104.2c-45-36.9-4.6-253.9-4.6-253.9
		L2618.2,1278.2L2618.2,1278.2z"/>
	<polygon class="st10" points="2579.2,1746.7 2583.5,1690.3 2613.8,1694.3 2606.7,1753.5 2577.8,1748.4 2579.2,1746.7 	"/>
	<path class="st11" d="M2618.2,1762.1l-5.6-18c-0.8-2.7-3.6-4.2-6.3-3.5c-6.9,1.8-19.9,3.7-28.3-4.5c-1.6-1.6-4-1.8-6-0.8L2520,1762
		c-1.8,0.9-2.9,2.7-2.9,4.7l0,0c0,2.9,2.4,5.3,5.3,5.2l90.8-0.5c2.9,0,5.3-2.4,5.2-5.3l0-2.4
		C2618.4,1763.2,2618.3,1762.6,2618.2,1762.1z"/>
	<path class="st9" d="M2627.8,1281.4c0,0,32.4,49.6,27.7,115.4l-35.9,321.4l-47.1-4.5l0.5-445.1L2627.8,1281.4L2627.8,1281.4z"/>
	<g>
		<path class="st13" d="M2572.5,1368c-0.1,0-0.3-0.1-0.4-0.2c-3.8-4.8-8.5-8.9-13.2-12.9c-2.8-2.4-5.7-4.8-8.3-7.4
			c-0.2-0.2-0.2-0.5,0-0.7c0.2-0.2,0.5-0.2,0.7,0c2.6,2.6,5.5,5,8.3,7.4c4.7,4,9.5,8.1,13.3,13c0.2,0.2,0.1,0.5-0.1,0.7
			C2572.7,1368,2572.6,1368,2572.5,1368z"/>
	</g>
	<path class="st14" d="M2625.1,1043.5c0,0,2.2,14.7,6.4,30.9c4.2,16.2,14.4,70.3,12.2,84.5l-113.7-4.4c0,0-2.3-58.8,0.6-73.4
		c3.6-17.9,3.6-37.1,3.6-37.1L2625.1,1043.5L2625.1,1043.5z"/>
	<path class="st10" d="M2563.3,1102.1l1.9,34.4c0.6,10.4,7.4,15.6,17.7,14.9l0,0c8.8-0.6,16.7-5.7,17.1-14.5l-5.2-51.3
		L2563.3,1102.1L2563.3,1102.1z"/>
	<polygon class="st15" points="2564.6,1126.8 2597,1098.6 2563.1,1099 2564.6,1126.8 	"/>
	<path class="st10" d="M2572.7,1111.7L2572.7,1111.7c-16.2,0.1-29.6-12.7-30-25.9l-1-31.2c-0.6-16.6,10-30.6,26.5-31.8l0,0
		c16.9-1.2,36.7,11.4,37.8,28.3l0.5,25.1C2606.9,1095.7,2589.9,1108.1,2572.7,1111.7L2572.7,1111.7z"/>
	<g>
		<path class="st14" d="M2564.1,1079.5C2564.1,1079.5,2564.1,1079.5,2564.1,1079.5l-3.1-0.2c-0.5,0-0.9-0.3-1.2-0.7
			c-0.4-0.6-0.6-1.4-0.4-2.1l1.3-5.7c0-0.1,0.2-0.2,0.3-0.2c0.1,0,0.2,0.2,0.2,0.3l-1.3,5.7c-0.1,0.6,0,1.2,0.3,1.7
			c0.2,0.3,0.5,0.5,0.8,0.5l3.1,0.2c0.1,0,0.3,0.1,0.2,0.3C2564.3,1079.4,2564.2,1079.5,2564.1,1079.5z"/>
	</g>
	<path class="st14" d="M2580.3,1055.5c0,0-7.4-0.7-7.5,2.3c0,0,0,2,6.4,2.5c6.4,0.5,8.1,0,8.7-1.9
		C2588.5,1056.5,2583.7,1055.5,2580.3,1055.5L2580.3,1055.5z"/>
	<path class="st14" d="M2548.8,1056c0,0,6.1-0.6,6.6,2.3c0,0,0.3,1.9-5.1,2.3c-5.3,0.4-7.1-0.3-7.6-1.9
		C2542.1,1056.9,2545.9,1056,2548.8,1056L2548.8,1056z"/>
	<g>
		<path class="st14" d="M2564.2,1094c-2.4,0-4.6-0.9-6.7-2.7c-0.2-0.2-0.2-0.5,0-0.7c0.2-0.2,0.5-0.2,0.7,0c2.2,1.9,4.5,2.7,7,2.4
			c1.4-0.2,4.7-0.9,5.7-3.9c0.1-0.3,0.4-0.4,0.6-0.3c0.3,0.1,0.4,0.4,0.3,0.6c-0.8,2.4-3.3,4.1-6.6,4.5
			C2565,1094,2564.6,1094,2564.2,1094z"/>
	</g>
	<path class="st14" d="M2608.3,1078.3c0,0-15-19.2-12.9-42.9c0,0,29,3.4,25.1,7.7c-3.9,4.3-11.1,27.1-11.1,27.1L2608.3,1078.3z"/>
	<path class="st14" d="M2600,1056.8c0,0-19.2-9.2-65.7-12.9c0,0,1-32.2,38.1-35.6c40.1-3.6,60.2,24,50.7,54.7l-17.4,4.6l-4.3-29.8
		L2600,1056.8z"/>
	<path class="st10" d="M2615,1072.3c0.3,4.7-3.2,8.7-7.9,9.1c-4.7,0.3-8.7-3.2-9.1-7.9s3.2-8.7,7.9-9.1
		C2610.6,1064.1,2614.7,1067.6,2615,1072.3L2615,1072.3z"/>
	<path class="st10" d="M2554,1072.3c0.3,4.7-3.2,8.7-7.9,9.1c-4.7,0.3-8.7-3.2-9.1-7.9c-0.3-4.7,3.2-8.7,7.9-9.1
		C2549.6,1064.1,2553.6,1067.6,2554,1072.3L2554,1072.3z"/>
	<path class="st14" d="M2552.1,1068.2c0.1,1.7-1.2,3.2-2.9,3.4c-1.7,0.1-3.2-1.2-3.4-2.9s1.2-3.2,2.9-3.4
		C2550.5,1065.1,2552,1066.4,2552.1,1068.2L2552.1,1068.2z"/>
	<path class="st14" d="M2577.7,1067.4c0.1,1.7-1.2,3.2-2.9,3.4c-1.7,0.1-3.2-1.2-3.4-2.9c-0.1-1.7,1.2-3.2,2.9-3.4
		C2576.1,1064.4,2577.6,1065.7,2577.7,1067.4L2577.7,1067.4z"/>
	<path class="st10" d="M2444,1235.8l-7.3,9.7c-0.1,0.2-1.7-0.2-3.2-0.6c-1.4-0.4-2.7-0.8-3-0.9c-2-0.5-4-1-6-1.5c-2-0.5-4-1-6.1-1.5
		c-1.7-0.4-3.4-0.9-5-1.3c-4.5-1.2-9-2.4-13.5-3.7c-4-1.1-8-2.3-12.2-2.7c-0.6-0.1-1.2-0.2-1.8-0.3c-0.3-0.1-0.5-0.2-0.8-0.3
		c-0.2-0.1-0.5-0.1-0.7-0.3c-0.3-0.2-0.3-0.6-0.3-0.9c0-0.7,0.3-1.2,1-1.4c2.5-0.8,5.3-0.8,7.9-0.8c1.4,0,2.8,0.1,4.1,0.1
		c0.5,0,1.2,0,1.9,0h0c1,0,2-0.2,2.4-0.5c1-0.5-3-1.5-7.1-2.3c-2.1-0.4-4.3-0.8-5.8-1.1c-2.2-0.4-5.7-0.5-7.9-1
		c-1.5-0.3-2.4-0.3-2.9-1.9c-0.7-2.4,0.7-3.2,3.3-3.2l1.5,0l20-0.2l-20.9-10c-1.6-0.9-2.6-1.6-2-3.3c0.7-2.1,2.5-1.6,4.5-0.7
		c6.2,2.8,18.6,6.6,20.1,6.4c1.6-0.2-8.6-7.2-13.7-10.6c-1.5-1-1.8-3.1-0.8-4.5c1-1.3,4.2,0.3,5.6,1.2l32,17.5l-3-9.9l9.2,5.6
		c6.4,10.1,9.1,16.3,10.2,19.9C2444.9,1234.9,2444,1235.8,2444,1235.8z"/>
	<path class="st16" d="M2570.6,1162.8c0,0-9.2,59.4-26.6,107c-4.5,12.2-17.7,18.8-30.1,14.7l0,0c-11.3-3.7-11.7-17.8-9.7-29.4
		l18.2-90.5L2570.6,1162.8L2570.6,1162.8z"/>
	<polygon class="st16" points="2536.3,1241.1 2432.5,1219.3 2430,1245.6 2514.6,1284.6 2536.3,1241.1 	"/>
	<path class="st17" d="M2608.7,1137.5c0,0,9.2-0.4,38.1,17.6l-19.1,126.3l-90.8-1.5l-14.1-106.5c-1.9-7.2,0.9-14.8,7.1-18.9l21.7-12
		l15.3-8.1h10.4l13.6-1.3L2608.7,1137.5L2608.7,1137.5z"/>
	<path class="st18" d="M2653.2,1201.3c0,45.5-5.8,83.3-18.6,83.3c-23.3,0-23.3-36.8-23.3-82.3c0-45.5,10.4-50.9,23.3-50.9
		S2653.2,1155.8,2653.2,1201.3z"/>
	<path class="st10" d="M2550.7,1235c0,0,2.7-3.6-15.3-23.9c-1.2-1.3-2.7-5.8-3.9-4.5c-1,1.1-1.3,2.7-0.7,4.1l4.3,9.5l-27.6-10.6
		c-1.2-0.6-4-1.6-4.6-0.4c-0.7,1.3-0.2,2.9,1.1,3.5c4.5,2.2,13.4,6.7,12.2,7c-1.2,0.3-11.6-1.4-16.8-3c-1.7-0.5-3.2-0.7-3.5,1
		c-0.3,1.5,0.6,1.9,2,2.5l17.8,5.8l-17.2,2.5c-2,0.3-3.1,1-2.3,2.9c0.5,1.2,1.2,1.1,2.5,1.2c1.8,0.1,4.6-0.2,6.5-0.1
		c3.7,0.2,11.9,0.5,10.8,1.4c-0.4,0.6-2.3,0.8-3.4,0.9c-1.1,0.1-2.2,0.2-3.3,0.3c-2.1,0.2-4.3,0.5-6.2,1.5c-0.5,0.3-0.7,0.7-0.7,1.3
		c0,0.3,0.1,0.5,0.3,0.7c0.2,0.1,0.4,0.1,0.6,0.2c0.2,0,0.4,0.1,0.7,0.2c0.5,0.1,1,0.1,1.5,0.1c3.4-0.1,6.7,0.4,10.1,0.9
		c3.7,0.5,7.5,1,11.2,1.5c3.1,0.4,6.1,0.8,9.2,1.1c1.7,0.2,3.3,0.4,5,0.6c0.5,0.1,5,0.8,5.2,0.5L2550.7,1235z"/>
	<polygon class="st18" points="2650.2,1241.1 2546.4,1219.3 2543.8,1245.6 2631.2,1284.3 2650.2,1241.1 	"/>
	<path class="st10" d="M2596.8,1132.7l22.3,7.7c0,0-15.3,22.7-43.6,20.3c-25.5-2.1-26.8-16.5-26.8-16.5l18.4-9.7L2596.8,1132.7
		L2596.8,1132.7z"/>
	<path class="st14" d="M2449,1223.4l-5.3,7.3l-10.3,14.2l-0.9,1.3c-0.9,1.3-2.8,1.6-4.3,0.7l-9.9-5.9l-19.3-11.6h0l-4.7-2.9
		l-11.9-7.2l-15.9-9.6c-1.4-0.9-1.9-2.6-0.9-3.9l16.5-22.9c0.9-1.3,2.8-1.6,4.3-0.7l38,22.9l9.2,5.6l14.5,8.8
		C2449.5,1220.4,2449.9,1222.1,2449,1223.4z"/>
	<path class="st10" d="M2428.5,1207.7l-9.2-5.6l-2.4,0.5c-1.8,0.4-3.2,1.8-3.6,3.6c-0.5,2.1,5.2,0.5,7.3,0.7
		C2423.5,1207.3,2426.1,1207.5,2428.5,1207.7z"/>
</g>
<g>
	<polygon class="st10" points="2141.7,1723.4 2137.4,1667 2107.1,1671 2114.2,1730.2 2143.1,1725.1 2141.7,1723.4 	"/>
	<polygon class="st10" points="2242.9,1728.1 2238.6,1671.7 2208.3,1675.7 2215.4,1735 2244.4,1729.8 2242.9,1728.1 	"/>
	<path class="st19" d="M2203.8,1754.1l6-22.6c0.9-3.4,3.7-5.3,6.4-4.4c6.9,2.4,19.8,5,28.4-5.2c1.6-1.9,4.1-2.3,6-0.9l51.4,34.6
		c1.7,1.2,2.8,3.5,2.8,6l0,0c-0.1,3.7-2.5,6.6-5.4,6.5l-90.8-2.2c-2.9-0.1-5.2-3.1-5.1-6.8l0.1-3.1
		C2203.5,1755.3,2203.6,1754.7,2203.8,1754.1z"/>
	<path class="st10" d="M2204.3,1126l26.4,104.7c3,11.7,13.9,19.9,26.1,19.4l0,0c14.9-0.6,25.8-13.5,23.7-28l-20.1-106.1L2204.3,1126
		L2204.3,1126z"/>
	<path class="st19" d="M2198.6,1108.3l17,49.4l72.5-26.3l-27.3-49.1c-6.9-13.2-20.8-19.5-38.6-19l2.5,1.4
		C2204.6,1068.3,2192.4,1088.8,2198.6,1108.3L2198.6,1108.3z"/>
	<path class="st10" d="M2242.7,1199.9c43.3-26.5,103.8-56.8,103.8-56.8l22.6,21.4l-94.1,79.9c-13.3,11.3-33.7,7.6-42.1-7.7l0,0
		C2225.9,1223.7,2230.2,1207.6,2242.7,1199.9L2242.7,1199.9z"/>
	<path class="st10" d="M2211.8,983c-0.1,6.3,4.7,11.5,10.7,11.7c6.1,0.2,11.1-4.8,11.3-11c0.1-6.3-4.7-11.5-10.7-11.7
		C2217,971.8,2212,976.7,2211.8,983L2211.8,983z"/>
	<path class="st10" d="M2205.9,1018.8l1.9,37.6c0.7,12.7-7.9,18.4-21.9,18.8l0,0c-12,0.3-25.4-4.2-25.4-15.4l0.3-57.1L2205.9,1018.8
		L2205.9,1018.8z"/>
	<path class="st15" d="M2161.7,1060.9l45-32c0.6-10.8-45.8-7.7-45.8-7.7l-0.2,37.6L2161.7,1060.9z"/>
	<path class="st10" d="M2226.9,957.9l0.5,36.8l0,1.2c0.1,18.1-9.5,35.4-31,36.2c-25.8-0.7-53.7-19-54.3-45.6l-0.5-18.8l-0.3-10.8
		c0.5-22,20.9-39.6,42.2-40.8c1.2-0.1,2.4-0.1,3.5-0.1C2209.1,916.6,2226.7,935.1,2226.9,957.9z"/>
	<path class="st14" d="M2179.4,962.5c0,0,11.6-2.2,12,1.1c0,0,0.2,2.3-6.8,3.5c-7,1.2-12.5,1.6-13.3-0.5
		C2170.5,964.6,2175.7,963,2179.4,962.5L2179.4,962.5z"/>
	<path class="st14" d="M2215.3,961.7c0,0,9.4,0.4,9.1,3.8c0,0,0.4,2.3-5.8,1.9c-7.1-0.4-9.8-1.1-10.1-3.4
		C2208.1,961.8,2211.5,961.3,2215.3,961.7L2215.3,961.7z"/>
	<path class="st14" d="M2213.5,977.7c0,2,1.6,3.5,3.6,3.5c2,0,3.5-1.6,3.5-3.6c0-2-1.6-3.5-3.6-3.5
		C2215,974.1,2213.5,975.7,2213.5,977.7L2213.5,977.7z"/>
	<path class="st14" d="M2180.4,979.3c-0.1,2,1.3,3.6,3.3,3.8c1.9,0.1,3.6-1.3,3.8-3.3c0.1-2-1.3-3.6-3.3-3.8
		C2182.3,975.9,2180.6,977.3,2180.4,979.3L2180.4,979.3z"/>
	<g>
		<path class="st14" d="M2206.1,995.3c-0.2,0-0.4-0.1-0.4-0.3c-0.1-0.2,0-0.5,0.2-0.7l3-1.6c0.3-0.3,0.4-0.8,0.1-1.2l-3.5-6.4
			c-0.1-0.2,0-0.5,0.2-0.7c0.2-0.1,0.5,0,0.7,0.2l3.5,6.3c0.5,0.8,0.3,1.9-0.4,2.5c0,0-0.1,0-0.1,0.1l-3,1.6
			C2206.3,995.3,2206.2,995.3,2206.1,995.3z M2209.2,993.2L2209.2,993.2L2209.2,993.2z"/>
	</g>
	<path class="st19" d="M2101.3,1766v-9.9c0-11.4,11.4-32,11.4-39.6c0-6.2,21,1.8,28.8,5c1.7,0.7,2.9,2.1,3.2,3.8
		c0.7,4,3,12,10.6,19.5c5.1,5.1,7,11.2,7.6,15.7c0.4,3-2.2,5.6-5.4,5.6H2101.3L2101.3,1766z"/>
	<path class="st14" d="M2224,941.6c-1.8-2.1-16.5-7.3-18.1-7.7c-7.2-1.7-14.6-2.2-22-1.4c-14.1,1.5-28.8,7.1-31.5,22.6
		c-1.6,8.9-3.1,18.3-3.8,24.9c-0.1,0.7-0.4,1.3-1,1.8c-2.3,2-5.1,8.6,4.7,30c1.1,2.5-4.3,5.7-6.6,4.3c-7.5-4.5-19-17.1-23.8-52.2
		c-5.5-40.2,15.7-45.6,21.9-46.3c1-0.1,1.9-0.7,2.3-1.7c2.2-5.2,11.1-21.5,38.4-23.8c13.8-1.2,28.5,3,38.2,13.3
		c3.8,4.1,6.8,9.2,7.9,14.8c1.5,7.7-2.5,15.2-5.4,22.1C2225.3,942,2224.3,941.9,2224,941.6z"/>
	<path class="st20" d="M2248.2,1289.4c0,0,18.6,33.4,22.8,181c4.2,148.1-1.9,238.5-1.9,238.5l-66,0.1l-28.7-410.8l17.8-14.4
		L2248.2,1289.4L2248.2,1289.4z"/>
	<path class="st21" d="M2099.7,1294.6c0,0-10.9,12.2-9.5,82.7c1.7,87,6,323.1,6,323.1l64.9,4l51-409.7l-52.5-11.4L2099.7,1294.6z"/>
	<path class="st10" d="M2135.5,985.7c-0.1,4.6,3.4,8.5,7.9,8.6c4.5,0.1,8.2-3.5,8.3-8.1c0.1-4.6-3.4-8.5-7.9-8.6
		C2139.3,977.4,2135.6,981.1,2135.5,985.7L2135.5,985.7z"/>
	<g>
		<path class="st14" d="M2196.8,1015.3c-2.2,0-3.8-0.7-4.8-2c-2.4-3.1-0.6-8.5-0.5-8.7c0.1-0.3,0.4-0.4,0.6-0.3c0,0,0,0,0,0
			c0.1,0,0.2,0,0.2,0c0.2,0,0.4,0.2,0.4,0.4c0.7,1,8.8,5.9,16.6,2c0.2-0.1,0.4-0.1,0.6,0.1c0.2,0.1,0.2,0.4,0.1,0.6
			c0,0.1-3.2,7.4-12.5,8C2197.3,1015.3,2197.1,1015.3,2196.8,1015.3z M2192.3,1005.4c-0.4,1.4-1.1,5.1,0.5,7.2
			c0.9,1.2,2.5,1.7,4.7,1.6c6.4-0.4,9.6-4.1,10.9-6.1c-6.3,2.3-12.6-0.1-15.4-2.1C2192.7,1005.8,2192.4,1005.6,2192.3,1005.4z"/>
	</g>
	<path class="st19" d="M2214,1063.2l-95.1,0c-14,0-2.4,10.6-3.9,24.6l-27.1,224.8l172.2,1.1l-18.8-225.4
		C2240.1,1074,2228.2,1063.2,2214,1063.2L2214,1063.2z"/>
	<path class="st10" d="M2146.9,1121.8c0,0,0.3-10.8,1.6-15.2c1.6-5.3,9.7-15.2,9.7-15.2s1.1-0.7,1.9,1.3c1.3,3.1-4.7,7.3-2.4,11.4
		C2160.1,1108.3,2146.9,1121.8,2146.9,1121.8L2146.9,1121.8z"/>
	<path class="st10" d="M2163.4,1151.9c0,0-21.4-9.3-21.9-17.5c0,0,8.4-19.4,10.2-25.5c1.9-6.8,16.2-25.1,21.5-26.4
		c13.9-3.4,13.9-2.6,14.4,0.7c0.5,3.3-9.4,3.6-11.8,6c-1.2,1.2-3.8,8.9-3.8,8.9c1.9-2.9,6.4-6.4,10.6-6.1c5.2,0.4,10,0.2,11,2.7
		c2,4.5-10.2,3.4-11.3,6.3c-0.4,1-3.5,7.2-3.5,7.2c2-1,4.1-3.7,6.2-4.3c2.7-0.7,12.7-0.6,12.8,1.9c0.1,3.9-9,3.6-10.8,6.1
		c-0.7,1-2.9,6-2.9,6s4.2-2.3,6-2.5c2.1-0.2,10.2,1.2,9.6,2.8c-1.6,4.3-8.7,1.6-12.9,6.4c-3.5,4-8.5,15.4-14.1,17.9
		C2167.1,1145.1,2163.4,1151.9,2163.4,1151.9L2163.4,1151.9z"/>
	<path class="st10" d="M2361.3,1115.7c0,0-6,12.8-10.1,18.4c-4.1,5.6-11.6,22.4,2.7,30c14.2,7.5,43.4-12.5,43.4-12.5
		c9.5-9.3,6.3-20.1,6.3-20.1c4.6-4.1,1.7-14,1.7-14l4.9-9.3c-10.5-5.2-9.6,5.9-21.6,15.7c-2.9,2.4-10.9,4.1-14.8,5.7l0,0
		c-5.2,2.1-9.9,3.2-9.9,3.2s0,0,0,0c0.1-0.7,1.1-9.9,0.7-14.5C2364.1,1113.3,2361.3,1115.7,2361.3,1115.7L2361.3,1115.7z"/>
	<path class="st14" d="M2225.2,941.7c0.4,1.3-5.9,5.9-33.7,5.9s-40.6,15.9-46,18.8c-5.4,2.8-8-14.1,0-22.6c8-8.5,30.4-21.1,42-19.5
		S2219.5,923.5,2225.2,941.7z"/>
	<polygon class="st14" points="2160.1,1051.1 2184.3,1063.5 2184.3,1076.2 2141.3,1063.7 	"/>
	<polygon class="st14" points="2208.1,1051.1 2182.5,1064.8 2182.5,1078.7 2228,1064.9 	"/>
	<path class="st10" d="M2074.3,1125.9l-9.7,78.5c0,11.3-1.6,36.1,7.4,42.7l8,5.5c13.2-16.7,17.4-11.3,22-24.8l14.1-97.5l-40.4-14.8
		L2074.3,1125.9z"/>
	<path class="st19" d="M2088.2,1079.8l-22.1,47.9l69.7,23.9l12.5-41.2c5.6-13.8,1.6-29.6-9.9-39l0,0
		C2122.5,1058.5,2098.9,1062.4,2088.2,1079.8L2088.2,1079.8z"/>
	<path class="st10" d="M2070.3,1222.3c23.8-32.6,71.2-87.9,71.2-87.9l24.6,14l-58.9,97.2c-6.4,12.4-22.4,15.7-33.1,6.9l0,0
		C2065.1,1245,2063.4,1231.8,2070.3,1222.3L2070.3,1222.3z"/>
</g>
<g>
	<path class="st22" d="M1194.5,1019.7c0,0-50.3-21.2-72,8.7c-15.8,21.7-16.7,62.1,11.8,77.4c27.2,14.6,29.8-79.2,29.8-79.2
		L1194.5,1019.7L1194.5,1019.7z"/>
	<path class="st10" d="M1171,1114.9l-5.9,30c-2,10.5-9.6,14.9-20,12.8l0,0c-8.8-1.8-16.2-8-15.5-17l11.5-46.7L1171,1114.9
		L1171,1114.9z"/>
	<polygon class="st15" points="1166,1139 1141.1,1101.7 1171,1115.1 1166.5,1136.4 	"/>
	<path class="st10" d="M1161,1117.5L1161,1117.5c17.9,2.4,34.3-8.8,36.6-22.2l5.3-31.8c2.9-16.9-9.2-33.1-27.3-36.6l0,0
		c-18.5-3.6-39.7,6.7-43.3,23.9l-3.9,25.6C1125.4,1096.1,1139.8,1113.3,1161,1117.5L1161,1117.5z"/>
	<polygon class="st22" points="1154.6,1049.5 1136.9,1071.3 1116.5,1040.2 1154.6,1049.5 	"/>
	<path class="st10" d="M1123,1067.8c-0.9,4.5,2,9,6.6,9.9c4.5,0.9,9-2,9.9-6.6c0.9-4.5-2-9-6.6-9.9
		C1128.4,1060.4,1123.9,1063.3,1123,1067.8L1123,1067.8z"/>
	<g>
		<path class="st23" d="M1178.8,1089.3c-0.1,0-0.1,0-0.2,0l-2.7-0.2c-0.1,0-0.2-0.1-0.2-0.3c0-0.1,0.1-0.2,0.3-0.2l2.7,0.2
			c0.5,0,0.9-0.1,1.2-0.4c0.3-0.3,0.5-0.7,0.5-1.2l0.1-6.9c0-0.1,0.1-0.2,0.3-0.2c0.1,0,0.3,0.1,0.2,0.3l-0.1,6.9
			c0,0.6-0.3,1.1-0.7,1.5C1179.9,1089.1,1179.4,1089.3,1178.8,1089.3z"/>
	</g>
	<path class="st23" d="M1164.7,1060.6c0,0,7.8-0.4,7.8,2.9c0,0-0.1,2.2-6.9,2.4c-6.8,0.2-8.5-0.4-9.1-2.5
		C1156,1061.2,1161.1,1060.4,1164.7,1060.6L1164.7,1060.6z"/>
	<path class="st23" d="M1194.8,1063.1c0,0-6.3-1.4-7.2,1.6c0,0-0.5,2,5,3.1c5.5,1.1,7.4,0.6,8.2-1
		C1201.6,1064.9,1197.8,1063.5,1194.8,1063.1L1194.8,1063.1z"/>
	<path class="st23" d="M1191.3,1075c-0.1,1.9,1.3,3.4,3.1,3.5c1.8,0.1,3.3-1.3,3.4-3.2c0.1-1.9-1.3-3.4-3.1-3.5
		C1193,1071.7,1191.4,1073.1,1191.3,1075L1191.3,1075z"/>
	<path class="st23" d="M1162.1,1072.3c-0.1,1.9,1.3,3.4,3.1,3.5c1.8,0.1,3.3-1.3,3.4-3.2c0.1-1.9-1.3-3.4-3.1-3.5
		C1163.8,1069,1162.2,1070.4,1162.1,1072.3L1162.1,1072.3z"/>
	<g>
		<path class="st23" d="M1172.5,1105.6L1172.5,1105.6c-6.1,0-9.7-9.1-9.9-9.4c0-0.1,0-0.2,0.1-0.3c0.1-0.1,0.2-0.1,0.3-0.1l16.2,5.6
			c0.1,0,0.1,0.1,0.2,0.2s0,0.2-0.1,0.2C1176.9,1104.4,1174.7,1105.6,1172.5,1105.6z M1163.3,1096.5c0.9,1.9,4.3,8.6,9.2,8.6h0
			c2,0,4-1.1,6.1-3.3L1163.3,1096.5z"/>
	</g>
	<path class="st22" d="M1194.5,1019.7c0,0,24.8,7.7,15.2,40.7c-0.2,0.6-0.8,0.9-1.4,0.8l-12.2-3.4c-0.5-0.1-0.8-0.6-0.8-1.1
		l-0.1-9.5c0-1.2-1.6-1.6-2.1-0.5l-4.9,9.6c-0.2,0.4-0.7,0.7-1.2,0.6l-53.1-6.9c-0.5-0.1-0.9-0.4-1-0.9l-4.1-25
		c-0.1-0.6,0.3-1.2,0.9-1.3l24.5-5.1c0.1,0,0.2,0,0.3,0L1194.5,1019.7L1194.5,1019.7z"/>
	<path class="st10" d="M1313.4,1321.1l26.1,8c0,0,17.4,14.5,15.5,23.2c-1.4,6.4-7.7,13.3-13.3,16.4c-2.5,1.4-5.7,0.1-6.3-2.8
		c-1-4.6-3.2-11.9-7-16.2c0,0-22.4-1.2-29.4-10.5c-3.6-4.7-3.2-27.1-3.2-27.1L1313.4,1321.1L1313.4,1321.1z"/>
	<polygon class="st10" points="1109.7,1735.3 1108.7,1669.5 1075.3,1667.7 1076.3,1738.4 1108.5,1738.6 1109.7,1735.3 	"/>
	<path class="st6" d="M1064.3,1750.6l6.8-17.6c1-2.6,3.9-4,6.6-3.1c6.8,2.3,19.6,5,28.5-2.7c1.7-1.4,4.1-1.6,6-0.4l50.1,30
		c1.7,1,2.7,2.9,2.5,4.9l0,0c-0.2,2.9-2.7,5.1-5.6,4.9l-90.6-6.4c-2.9-0.2-5.1-2.7-4.9-5.6l0.2-2.4
		C1064,1751.6,1064.1,1751.1,1064.3,1750.6z"/>
	<polygon class="st10" points="1236.2,1741 1227.4,1675.7 1194,1678 1203.3,1748 1235.3,1744.4 1236.2,1741 	"/>
	<path class="st6" d="M1192.9,1761.6l4.6-18.3c0.7-2.7,3.4-4.4,6.1-3.9c7,1.4,20,2.6,28-6.1c1.5-1.6,3.9-2.1,6-1.2l53.3,23.9
		c1.8,0.8,3,2.6,3.1,4.6l0,0c0.1,2.9-2.1,5.4-5,5.5l-90.7,4.4c-2.9,0.1-5.4-2.1-5.5-5l-0.1-2.4
		C1192.7,1762.6,1192.7,1762.1,1192.9,1761.6z"/>
	<path class="st10" d="M1169.6,1208.7l33.1-10.1l4.4,45.5c0.8,8.4-5.3,15.6-13.6,16.7c-0.1,0-0.2,0-0.3,0l0,0
		c-9.2,1.4-17.9-4.7-19.6-13.9L1169.6,1208.7L1169.6,1208.7z"/>
	<path class="st10" d="M1309.4,1320.2l-115.1-101.7c0,0-11.2,11.9-17,17.7l0,0c-6,5.8-5.8,15.4,0.4,21l120.2,79.6l6.2-16.6H1309.4z"
		/>
	<path class="st19" d="M1145.2,1480.2l36.4,230.6h72.3c-4.2-34-25.8-205.9-35-261c-24.5-146.2-40.1-181.4-40.1-181.4l-54.4-9.8
		l-6,8.8l47.1,1.5L1145.2,1480.2L1145.2,1480.2z"/>
	<path class="st24" d="M1118.4,1267.5l-21-0.7c0,0-35.9,38.3-37.7,109c-1.2,47.2-3.8,266.2-2.5,335h74.3l13.8-230.6l20.2-211.3
		L1118.4,1267.5L1118.4,1267.5z"/>
	<path class="st5" d="M1138.4,1143.4l-51.8,7.2c-6,0.8-10.1,6.5-9,12.4l17.9,105.4h83.3l21.7-101.2c1.6-9.1-4.8-17.6-13.9-18.6
		L1138.4,1143.4L1138.4,1143.4z"/>
	<path class="st10" d="M1058.9,1172.1l15,37.1c0,0-49.8,14.6-60,21.1c-3.3,2.1-6.2,4.6-9.1,7.2c-2.2,1.9-4.6,4.3-7.4,5.4
		c-2.4,0.9-4.6,0.1-6.1-1.9c-4.3-5.6-6.6-13.1-5.6-20.3c1.2-8.2,10.2-12.7,16.3-17.8L1058.9,1172.1z"/>
	<path class="st5" d="M1078,1153.7c12.3-6.8,27.7-2.9,35.4,8.8c8.3,12.7,12,30.9-1,38.8c-9.2,5.7-52,19.6-52,19.6l-18.8-52
		L1078,1153.7L1078,1153.7z"/>
	<path class="st10" d="M1074.6,1294.1l-54.4-72c-6.3-7.4-18.2-8.6-26.2-2.5l0,0c-8,6.1-6.4,17.8,0.9,24.6l63.5,60.7L1074.6,1294.1
		L1074.6,1294.1z"/>
	<path class="st6" d="M1132.4,1134.2c0,4.3-3.5,7.7-7.7,7.7c-4.3,0-7.7-3.5-7.7-7.7c0-4.3,3.5-7.7,7.7-7.7
		C1128.9,1126.5,1132.4,1129.9,1132.4,1134.2z"/>
	<path class="st6" d="M1125.9,1138.6c0,0,0.5,8.2-5.8,10.7c-6.3,2.5-10,2.5-10,2.5s-0.3-8.2,3.3-12
		C1117.1,1136,1125.9,1138.6,1125.9,1138.6z"/>
	<path class="st5" d="M1163.1,1171.1c-1.9-10.1,4.3-20.1,14.3-22.8c10.8-2.9,21.8,3.6,24.4,14.5c1.9,7.8,3.2,21.4,4.4,35.9
		l-40.7,12.4L1163.1,1171.1L1163.1,1171.1z"/>
	<path class="st25" d="M1085.5,1333.6l-14.9-14.9c-2-2-2-5.3,0-7.4l37.5-37.5c2-2,5.3-2,7.4,0l14.9,14.9c2,2,2,5.3,0,7.4l-37.5,37.5
		C1090.9,1335.6,1087.6,1335.6,1085.5,1333.6z"/>
	<path class="st10" d="M1121.7,1301.6l-21.1-12.4l2.9-4c1.1-1.5,0.8-3.3-0.5-4.6c-1.4-1.3-3.7-1.6-5.5-0.7l-23.6,11.6l-16.7,13.2
		c10.8,10.3,18.8,11.1,23.7,9.9c0.5,0.2,1,0.4,1.5,0.6l18.1,6.7c1.6,0.8,3.8,0.4,4.8-0.9c0.8-1,1.3-2.6-2.1-4.6l3.4,2
		c1.7,0.9,4,0.4,5.1-1c1-1.3,0.3-3.2-1.6-4.6l2.6,1.2c1.9,1,4.4,0.4,5.4-1.3c0.9-1.5,0.2-3.3-1.4-4.3l-3.7-2.2l4.6,1.5
		c2.1,0.9,4.7,0.2,5.7-1.7C1124.2,1304.6,1123.4,1302.7,1121.7,1301.6L1121.7,1301.6z"/>
	<path class="st6" d="M1170.9,1130.1l-13.2-2.3l-27.3,3l0,0c0,0-10.5,2-13.6,2.8"/>
</g>
<g>
	<g>
		<g>
			<polygon class="st10" points="730.1,1751.6 742.5,1682.7 780.5,1687.7 771.7,1762.1 735.3,1755.6 737.1,1753.5 			"/>
			<polygon class="st10" points="924.8,1707.4 885,1649.8 915.5,1626.6 961.7,1685.5 931.4,1706.6 931.2,1703.8 			"/>
			<path class="st11" d="M979.3,1683.5l-21-11c-3.1-1.6-7-0.6-8.8,2.5c-4.5,7.8-14.4,20.9-29.2,21.1c-2.8,0-5.2,1.9-6.1,4.6
				l-22.5,69.8c-0.8,2.4-0.1,5,1.6,6.7l0,0c2.6,2.6,6.8,2.6,9.4,0l80.3-80.9c2.6-2.6,2.6-6.8,0-9.4l-2.2-2.2
				C980.4,1684.2,979.9,1683.8,979.3,1683.5z"/>
			<path class="st26" d="M752.3,1323.5c-11.2,106,15.6,190,15.6,190l114.2,188.1l68.6-57.7l-104-173.4l-15.4-147H752.3L752.3,1323.5
				z"/>
			<path class="st27" d="M891.1,1323.5c0,0,1.2,40.1-18.2,102.6c-19.4,62.5-75.1,302.5-75.1,302.5l-80.9-4.8l74.7-400.3H891.1
				L891.1,1323.5z"/>
		</g>
		<g>
			<path class="st21" d="M763.4,1082.9c0,0-28.5,1.8-47.4,91l62.3,21.1L763.4,1082.9L763.4,1082.9z"/>
			<polygon class="st21" points="813.9,1066.5 763.4,1082.9 752.3,1323.5 895.3,1325 905,1228.2 891.1,1082.9 836.4,1066.5 
				813.9,1066.5 			"/>
			<path class="st10" d="M850.5,1035.4l-0.6,40.8c-0.2,13.8-8.5,19.4-21.6,19.1l0,0c-11.2-0.3-23.4-5.9-22.7-18l3.8-61.6
				L850.5,1035.4L850.5,1035.4z"/>
			<path class="st15" d="M805.8,1076l44.8-36.3c0.6-11.7-42.8-8.3-42.8-8.3l-2,41.1V1076z"/>
			<path class="st10" d="M829.2,1059.5L829.2,1059.5c-20.7,5-41.9-7.9-46.6-25.2l-9.8-36.4c-6-21.8,5.9-44.2,26.7-50.8l0,0
				c21.4-6.7,47.9,4.6,54.7,26.7l7.3,28.4C868.1,1027.9,853.6,1051.9,829.2,1059.5L829.2,1059.5z"/>
			<path class="st28" d="M821.4,989.3c0,0-11.7,1.3-11.1,4.5c0,0,0.4,2.2,7.4,1.2c7-0.9,12.3-2.1,12.5-4.3
				C830.5,988.6,825.1,988.7,821.4,989.3L821.4,989.3z"/>
			<path class="st28" d="M787.3,992.4c0,0-9.3,1.1-8.8,4.4c0,0-0.3,2.3,5.9,1.5c7-0.9,9.6-1.8,9.8-4.1
				C794.4,992,791,991.7,787.3,992.4L787.3,992.4z"/>
			<path class="st28" d="M851.2,999.4l-8.6-32.7c0,0-15,13.7-25.8,7.3c-10.7-6.4-26.6,5.9-26.6,5.9s-27.3,18-35.3,3.9
				c-8-14-2.5-43,28.7-51.6c25.7-7,57.8-2.3,75.1,6.5c5.1,2.6,10.2,8.2,11.8,17.9c3.2,19.5-1.8,38.7-8.5,47.7L851.2,999.4
				L851.2,999.4z"/>
			<path class="st10" d="M869.6,1002.4c1.8,5.8-1.3,11.8-6.9,13.6c-5.6,1.7-11.5-1.5-13.3-7.3c-1.8-5.8,1.3-11.8,6.9-13.6
				C861.8,993.4,867.8,996.7,869.6,1002.4L869.6,1002.4z"/>
			<path class="st10" d="M793.7,1017.5c1.8,5.8-1.3,11.8-6.9,13.6c-5.6,1.7-11.5-1.5-13.3-7.3c-1.8-5.8,1.3-11.8,6.9-13.6
				C786,1008.5,791.9,1011.7,793.7,1017.5L793.7,1017.5z"/>
			<path class="st10" d="M939.2,1170.6l6.6,70.9c1,11,4.8,35-3.4,42.1l-7.3,6c-14.3-15-24.4-29.2-30.1-41.9l-15.9-73.7l48.1-18
				L939.2,1170.6z"/>
			<path class="st10" d="M933.8,1251.3c-36.1-15.8-103.1-39.3-103.1-39.3l-13.9,23.8l97.3,53.2c11.5,7.3,26.6,2.3,31.3-10.4l0,0
				C949.4,1267.9,944.3,1255.9,933.8,1251.3L933.8,1251.3z"/>
			<path class="st29" d="M891.1,1082.9c0,0,38.4,8.5,51.6,83.5l-56.7,20.7l-1.7-40.3L891.1,1082.9L891.1,1082.9z"/>
			<path class="st10" d="M829.9,1211.3l-24-13c0,0-22.5-2.3-27.4,5.2c-3.6,5.5-4.1,14.8-2.4,21c0.8,2.8,4,4.1,6.4,2.6
				c4-2.5,10.7-6,16.5-6.4c0,0,16.6,15.1,28.1,13.6c5.9-0.8,21.6-16.7,21.6-16.7L829.9,1211.3L829.9,1211.3z"/>
			<path class="st30" d="M857.8,1237.1h-78.9v-8.9h78.9c2.5,0,4.5,2,4.5,4.5l0,0C862.3,1235.1,860.3,1237.1,857.8,1237.1
				L857.8,1237.1z"/>
			<path class="st28" d="M792.5,1006.4c0.4,1.9-0.8,3.7-2.7,4.1c-1.9,0.4-3.7-0.8-4.1-2.7c-0.4-1.9,0.8-3.7,2.7-4.1
				C790.3,1003.3,792.1,1004.5,792.5,1006.4L792.5,1006.4z"/>
			<path class="st28" d="M824.3,1000.9c0.5,1.8-0.5,3.8-2.3,4.3c-1.8,0.5-3.8-0.5-4.3-2.3c-0.5-1.8,0.5-3.8,2.3-4.3
				C821.9,998.1,823.8,999.1,824.3,1000.9L824.3,1000.9z"/>
			<g>
				<path class="st28" d="M803,1021.6l-3.2-0.9c0,0-0.1,0-0.1,0c-0.8-0.4-1.2-1.4-0.9-2.3l2-6.8c0.1-0.3,0.4-0.4,0.6-0.3
					c0.3,0.1,0.4,0.4,0.3,0.6l-2,6.8c-0.1,0.4,0,0.9,0.4,1.1l3.2,0.9c0.3,0.1,0.4,0.4,0.3,0.6c-0.1,0.2-0.2,0.3-0.4,0.4
					C803.2,1021.7,803.1,1021.7,803,1021.6z M799.9,1020.2L799.9,1020.2L799.9,1020.2z"/>
			</g>
			<g>
				<path class="st28" d="M813.4,1043.3c2.3-0.5,4.9-1.3,7.8-2.7c0.2-0.1,0.4-0.4,0.2-0.7c-0.1-0.2-0.4-0.2-0.7-0.2
					c-13.7-0.8-15,1.2-15.3,3.1c0,0.1,0,0.3,0,0.6c0,0.3,0.2,0.5,0.5,0.5C806,1044.1,809,1044.3,813.4,1043.3z"/>
			</g>
			<path class="st10" d="M740.2,1237.1l36,0c0,0-4.9,7.3-31.8,4.3L740.2,1237.1z"/>
			<path class="st8" d="M830.7,1237.1h-107c-5.7,0-10.7-3.8-12.2-9.3l-6.4-23l-3.1-11.1l-3.1-11.2l-0.2-0.6l-3.4-12.1l-4.9-17.8
				c-0.8-2.8,1.3-5.5,4.2-5.5h108.3c2.4,0,4.4,1.6,5,3.9L830.7,1237.1z"/>
		</g>
	</g>
	<path class="st11" d="M786.4,1772.4l-7.1-22.6c-1.1-3.4-4.6-5.3-8-4.4c-8.7,2.3-24.9,4.6-35.5-5.7c-2-1.9-5.1-2.3-7.5-1l-65.3,33.6
		c-2.2,1.1-3.6,3.4-3.6,5.9l0,0c0,3.7,3,6.6,6.7,6.6l114-0.7c3.7,0,6.6-3,6.6-6.7l0-3.1C786.7,1773.6,786.6,1773,786.4,1772.4z"/>
</g>
<g>
	<g>
		<path class="st31" d="M653.5,958.8h55.3v-28c0-2.3-1.9-4.2-4.2-4.2h-51.1c-2.3,0-4.2,1.9-4.2,4.2v23.8
			C649.3,956.9,651.2,958.8,653.5,958.8L653.5,958.8z"/>
		<polygon class="st31" points="708.8,952.1 708.8,966.3 696.7,952.1 708.8,952.1 		"/>
		<path class="st28" d="M669,942.3c0,1.5-1.2,2.7-2.7,2.7c-1.5,0-2.7-1.2-2.7-2.7c0-1.5,1.2-2.7,2.7-2.7
			C667.8,939.6,669,940.8,669,942.3L669,942.3z"/>
		<path class="st28" d="M680.5,942.3c0,1.5-1.2,2.7-2.7,2.7c-1.5,0-2.7-1.2-2.7-2.7c0-1.5,1.2-2.7,2.7-2.7
			C679.3,939.6,680.5,940.8,680.5,942.3L680.5,942.3z"/>
		<path class="st28" d="M692,942.2c0,1.5-1.2,2.7-2.7,2.7c-1.5,0-2.7-1.2-2.7-2.7c0-1.5,1.2-2.7,2.7-2.7
			C690.8,939.5,692,940.7,692,942.2L692,942.2z"/>
	</g>
	<g>
		<path class="st31" d="M2398,924.5h-77.8v-39.4c0-3.3,2.6-5.9,5.9-5.9h71.9c3.3,0,5.9,2.6,5.9,5.9v33.5
			C2403.9,921.8,2401.3,924.5,2398,924.5L2398,924.5z"/>
		<polygon class="st31" points="2320.2,915.1 2320.2,935.1 2337.2,915.2 2320.2,915.1 		"/>
		<path class="st14" d="M2375.8,901.3c0,2.1,1.7,3.8,3.8,3.8c2.1,0,3.8-1.7,3.8-3.8c0-2.1-1.7-3.8-3.8-3.8
			C2377.5,897.6,2375.8,899.3,2375.8,901.3L2375.8,901.3z"/>
		<path class="st14" d="M2359.7,901.3c0,2.1,1.7,3.8,3.8,3.8c2.1,0,3.8-1.7,3.8-3.8c0-2.1-1.7-3.8-3.8-3.8
			C2361.4,897.5,2359.7,899.2,2359.7,901.3L2359.7,901.3z"/>
		<path class="st14" d="M2343.5,901.2c0,2.1,1.7,3.8,3.8,3.8c2.1,0,3.8-1.7,3.8-3.8c0-2.1-1.7-3.8-3.8-3.8
			C2345.2,897.5,2343.5,899.2,2343.5,901.2L2343.5,901.2z"/>
	</g>
	<g>
		<path class="st31" d="M1386.1,1013.6h-93.8c-2.6,0-4.7-3.7-4.7-8.2v-54.2c0-4.5,2.1-8.2,4.7-8.2h93.8c2.6,0,4.7,3.7,4.7,8.2v54.2
			C1390.8,1009.9,1388.7,1013.6,1386.1,1013.6L1386.1,1013.6z"/>
		<polygon class="st31" points="1309.2,1004.2 1309.2,1036.1 1344.3,1004.2 1309.2,1004.2 		"/>
		<g>
			<path class="st9" d="M1302,971.3c-0.3,0-0.6-0.2-0.8-0.4c-0.3-0.5-0.2-1.1,0.3-1.4c0.3-0.2,1-0.7,73.1-0.2c0.6,0,1,0.5,1,1
				c0,0.5-0.5,1-1,1c0,0,0,0,0,0c-27.8-0.2-69.8-0.4-72.2,0C1302.2,971.2,1302.1,971.3,1302,971.3z"/>
		</g>
		<g>
			<path class="st9" d="M1352.8,989h-30.3c-0.6,0-1-0.4-1-1s0.4-1,1-1h30.3c0.6,0,1,0.4,1,1S1353.3,989,1352.8,989z"/>
		</g>
	</g>
</g>
<g>
	<path class="st19" d="M560.2,1216.1l53.7-1.7c-3.2,25.4-3.7,40.7-3.3,55.3c0.4,16.5-13.3,29.8-29.8,28.8l0,0
		c-15.2-0.9-26.9-13.6-26.6-28.8L560.2,1216.1L560.2,1216.1z"/>
	<path class="st19" d="M705.8,1206.9l-117.7,45c-12.1,5.9-16.8,20.6-10.3,32.4l0,0c6.5,11.9,18.5,8.3,29.9,1.1l105.6-58.4
		L705.8,1206.9L705.8,1206.9z"/>
	<polygon class="st32" points="627.8,1737.1 589.4,1734.7 584.5,1682.4 622.9,1684.8 627.8,1737.1 	"/>
	<path class="st25" d="M595.9,1267c0,0,12.2,31,21.8,182.8c9.6,153.1,14.6,254.5,14.6,254.5l-58.6,1l-54.5-427l18.2-15.3L595.9,1267
		L595.9,1267z"/>
	<polygon class="st32" points="497.3,1729.6 460.3,1730.8 462.2,1675.3 500.5,1677.7 497.3,1729.6 	"/>
	<path class="st33" d="M503.6,1260.6c0,0-33.1,39.2-39.3,111.6c-7.1,83.5-6.9,322.6-6.9,322.6l52.8,1.7l71.2-430.4L503.6,1260.6
		L503.6,1260.6z"/>
	<path class="st19" d="M462,1180.9l45.8,28.5c-12.3,22.4-21.9,34.2-27,47.8c-5.7,15.4-18.6,27.2-33.5,20.3l0,0
		c-13.8-6.4-20-22.6-14.1-36.6L462,1180.9L462,1180.9z"/>
	<path class="st19" d="M477.1,1145.4c9.6-13.4,23.1-17,36.1-12.6c14,4.7,11.7,37.8,6.6,51.6c-3.6,9.9-2.6,8.2-11.9,25.1l-46.5-27.1
		L477.1,1145.4L477.1,1145.4z"/>
	<path class="st9" d="M600.6,1018.1c0,0,30.5-1,28.5,34.9c-1.3,23.3-5.2,53.8-5,68.8c0.1,3.7,1,31-2.7,30.9
		c-23.4-0.7-58.2-20.9-97.1-21.4c-1.4,0-9.6,0.7-10-0.6c-1.8-5.9-3.6-44.8-1-66.1c3.2-26.1,16-45.1,30.3-53.1
		C558,1003.4,589.1,1005.6,600.6,1018.1L600.6,1018.1z"/>
	<path class="st9" d="M617.7,1025.1c0,0-66.1-31.7-87.2-1.9c-15.3,21.6-4.3,64.7,24,79.4c27,14.1,28.5-78.4,28.5-78.4l24.6,4.2
		L617.7,1025.1z"/>
	<path class="st10" d="M590.7,1111.2l-5.4,29.6c-1.9,10.4-9.3,14.8-19.5,12.9l0,0c-8.7-1.7-16.1-7.7-15.5-16.6l10.8-46.2
		L590.7,1111.2L590.7,1111.2z"/>
	<path class="st15" d="M587.2,1130.5c0,0-26.9-9.8-30.9-34.8l35,12.4L587.2,1130.5L587.2,1130.5z"/>
	<path class="st10" d="M577.1,1116.9L577.1,1116.9c17.4,3.5,37.9-9.7,41.3-24.2l4.4-32.3c4.2-18.2-6.3-36.4-23.9-41.2l0,0
		c-18-4.9-39.7,5.2-44.6,23.6l-6,27.6C543.8,1091.9,556.6,1111.3,577.1,1116.9L577.1,1116.9z"/>
	<path class="st19" d="M585.5,1062.9c0,0,7.6-1.5,7.9,1.5c0,0,0.2,2-6.4,3.1c-6.6,1.1-8.4,0.9-9.2-0.9
		C577,1064.8,581.9,1063.3,585.5,1062.9L585.5,1062.9z"/>
	<path class="st19" d="M617.1,1065.9c0,0-6.1-1.9-7.1,0.5c0,0-0.7,1.6,4.7,3.1s7.2,1.3,8.1,0.1
		C623.6,1068.2,620,1066.6,617.1,1065.9L617.1,1065.9z"/>
	<path class="st9" d="M607.8,1031.8c-3.2,4.2-6.7,8.2-10.3,12c-4.2,4.6-9.1,8.6-14.5,11.7c-2.7,1.5-5.6,2.9-8.5,4.1
		c-1.3,0.6-15,6.6-16.5,5.7c-1.5-0.9-4-36-3.1-35.8c0.9,0.2,28.4-15.7,28.4-15.7l18.5,1.8L607.8,1031.8z"/>
	<path class="st9" d="M605.4,1015.9c2.9,0.8,30.5,9.5,30.7,37.4c0,0.1,0,0.1,0,0.2l-0.3,4.6c-0.1,1.6-1.6,2.7-3.1,2.4l-17.6-3.6
		c-6-1.2-11.4-4.6-15.1-9.5c-1.8-2.3-3.1-4.4-2.7-4.8c0.9-0.8,1.1-17.8,1.2-24.6c0-1.5,1.3-2.7,2.8-2.5l3.6,0.3
		C605.1,1015.8,605.3,1015.8,605.4,1015.9z"/>
	<path class="st19" d="M563.9,1168c0.3-13.7,11.1-24.8,24.7-25.6c14.7-0.8,36.2,12.5,31.2,31c-4,15-5.9,41.1-5.9,41.1l-7.3,1.2
		l-45-1L563.9,1168L563.9,1168z"/>
	<path class="st19" d="M505.5,1131l46.1,0l32.3,5.8l19.3,9.5c3.1,1.5,4.9,4.8,4.5,8.3l-1.2,11.5l0,0c0,0,12.1,51.2-6.5,61.8
		l7.6,43.7l-115.1-8.5v-98.4C492.8,1158.3,499.3,1131.1,505.5,1131L505.5,1131z"/>
	<path class="st19" d="M610.1,1079.5c0.1,1.9,1.7,3.4,3.5,3.3c1.8-0.1,3.2-1.8,3-3.7c-0.1-1.9-1.7-3.4-3.5-3.3
		C611.3,1075.9,610,1077.6,610.1,1079.5L610.1,1079.5z"/>
	<path class="st19" d="M584,1076c0.1,1.9,1.7,3.4,3.5,3.3c1.8-0.1,3.2-1.8,3-3.7c-0.1-1.9-1.7-3.4-3.5-3.3
		C585.2,1072.5,583.8,1074.1,584,1076L584,1076z"/>
	<g>
		<path class="st23" d="M596.3,1092.7c-0.1,0-0.2-0.1-0.3-0.2c0-0.1,0.1-0.3,0.2-0.3l2.7-0.1c0.5,0,0.9-0.2,1.2-0.6
			c0.3-0.3,0.4-0.8,0.4-1.2l-0.7-6.9c0-0.1,0.1-0.3,0.2-0.3c0.1,0,0.3,0.1,0.3,0.2l0.7,6.9c0.1,0.6-0.1,1.2-0.5,1.6
			c-0.4,0.5-0.9,0.7-1.5,0.7L596.3,1092.7C596.3,1092.7,596.3,1092.7,596.3,1092.7z"/>
	</g>
	<polygon class="st19" points="587.2,1141.1 590.5,1129.1 558.8,1118.9 550.2,1134.6 586.7,1142.5 	"/>
	<path class="st9" d="M566,1049.4c0,0-8.7,32.3-5.5,72.5c0.5,5.7-3.8,11.9-9.2,10c-4.2-1.4-10.4-5.3-15.4-7.8
		c-3-1.5-4.7-4.9-4.2-8.3c2.2-14.7,8.7-54.9,15.8-69.5c4.4-9,9.1-10.5,12.7-9.7c3.6,0.8,6.1,4.2,6,7.9L566,1049.4L566,1049.4z"/>
	<g>
		<path class="st23" d="M592.2,1106.6c-0.1,0-0.1,0-0.2-0.1l-3.7-3c-0.1-0.1-0.1-0.2,0-0.4c0.1-0.1,0.2-0.1,0.3-0.1c0,0,0.1,0,0.1,0
			c3.9-0.3,7,0.1,9.7,0.4c0.9,0.1,1.7,0.2,2.6,0.3c0.1,0,0.2,0.1,0.2,0.2c0,0.1-0.1,0.2-0.2,0.3c-2,0.5-4,1-6,1.5L592.2,1106.6
			C592.2,1106.6,592.2,1106.6,592.2,1106.6z M589.2,1103.6l3,2.5l2.7-0.7c1.6-0.4,3.1-0.8,4.7-1.2c-0.4,0-0.8-0.1-1.2-0.1
			C595.8,1103.7,592.8,1103.4,589.2,1103.6z"/>
	</g>
	<path class="st10" d="M493.4,1352.9c0,0-4.9,0.5-7.7,29.6c-0.2,1.9-2.6,6.4-0.7,6.4c1.6,0,3.1-1,3.7-2.4l4.3-10.3l11.7,29.6
		c0.4,1.4,1.7,4.3,3.1,4c1.5-0.4,2.4-1.9,2-3.4c-1.5-5.1-4.5-15.5-3.3-14.8c1.1,0.7,7.4,10.2,9.9,15.5c0.8,1.7,1.7,3.1,3.4,2.1
		c1.4-0.8,1.1-1.9,0.5-3.4l-8.4-18.4l14.6,11.8c1.7,1.4,3.1,1.7,4-0.3c0.6-1.3,0-1.8-0.9-2.9c-1.3-1.5-3.5-3.5-4.8-5.1
		c-2.5-3.1-8.2-9.8-6.8-9.5c0.8-0.1,2.3,1.3,3.2,2c0.9,0.8,1.8,1.6,2.7,2.4c1.7,1.5,3.6,3.1,5.7,3.9c0.6,0.2,1,0.1,1.5-0.4
		c0.2-0.2,0.4-0.5,0.3-0.8c0-0.2-0.2-0.4-0.3-0.6c-0.1-0.2-0.2-0.4-0.4-0.7c-0.3-0.4-0.6-0.8-1-1.2c-2.6-2.6-4.6-5.6-6.7-8.6
		c-2.3-3.3-4.6-6.7-7-10c-1.9-2.7-3.9-5.4-5.8-8.1c-1.1-1.5-2.1-2.9-3.2-4.3c-0.3-0.5-3-4.6-3.3-4.5L493.4,1352.9z"/>
	<path class="st19" d="M509.4,1357.9l-33.7-114.4c-5.7-12.1-20.4-17-32.3-10.8l0,0c-12,6.3-16.1,21.5-9,33l53.3,106.4L509.4,1357.9
		L509.4,1357.9z"/>
	<path class="st19" d="M449.4,1748.7l7-17.6c1-2.6,4-4,6.8-3.1c7,2.3,20.2,5,29.4-2.6c1.7-1.4,4.3-1.6,6.2-0.4l51.8,30.1
		c1.8,1,2.8,2.9,2.6,4.9l0,0c-0.2,2.9-2.8,5.1-5.8,4.9l-93.4-6.6c-3-0.2-5.3-2.7-5.1-5.6l0.2-2.4
		C449.1,1749.7,449.2,1749.2,449.4,1748.7z"/>
	<path class="st19" d="M580,1755.9l5-18.3c0.7-2.7,3.6-4.5,6.5-3.9c7.4,1.4,21.2,2.5,29.7-6.2c1.6-1.6,4.2-2.1,6.3-1.2l56.5,23.7
		c1.9,0.8,3.2,2.6,3.3,4.6l0,0c0.1,2.9-2.2,5.4-5.3,5.5l-96.2,4.7c-3.1,0.2-5.7-2.1-5.8-5l-0.1-2.4
		C579.8,1756.9,579.9,1756.4,580,1755.9z"/>
</g>
<g>
	<g>
		<g>
			<path class="st9" d="M1371.4,1770.8l-7.8-1.5l36.9-187.5c1.2-6,3.5-11.7,6.7-17l6.8,4.2c-2.7,4.4-4.6,9.2-5.7,14.3L1371.4,1770.8
				z"/>
		</g>
		<g>
			<path class="st9" d="M1533.4,1770.8l-40.6-188.4c-0.5-2.5-1.3-5-2.3-7.3l7.4-3.1c1.2,2.8,2.1,5.8,2.8,8.7l40.6,188.4
				L1533.4,1770.8z"/>
		</g>
		<polygon class="st10" points="1719.2,1743 1698.2,1676.3 1664.8,1674.5 1685.7,1746.1 1718,1746.3 1719.2,1743 		"/>
		<path class="st20" d="M1601.5,1483.1l29,1.8c20.4,1.3,37.8,15.4,43.3,35.1l45.5,175.2l-63-5.9l-50.8-153.9L1601.5,1483.1
			L1601.5,1483.1z"/>
		<polygon class="st10" points="1597.4,1743 1596.5,1677.2 1563.1,1675.4 1564,1746.1 1596.2,1746.3 1597.4,1743 		"/>
		<path class="st34" d="M1448.1,1444.6l65.7,39l67.8,1.4c19.8,0,35.9,11.9,36.2,31.7c0.9,60.9-3.8,187.3-6.7,186.8
			c-3.9-0.8-59.5,0-59.5,0l-5.6-138.2l-43.6,4.7c-10.7,0.1-42.1,2.1-51.7-2.7c-19.8-10-35-20.8-17.8-74.6L1448.1,1444.6z"/>
		<path class="st10" d="M1675.9,1380l36.5-18.2c0,0,29.8-2.2,47.9,1.7c1.9,0.4,3.1,2.3,2.6,4.2l0,0c-0.4,1.7-2,2.8-3.7,2.6
			l-16.7-1.8l9,6.1c2.4,1.7,2.2,5.3-0.5,6.6l0,0c-1.1,0.5-2.4,0.5-3.5-0.1c-5-2.8-20.7-10-36-1.4l14.3,6.4c2.8,1.3,3.6,4.9,1.5,7.2
			l0,0c-1,1.1-2.5,1.6-3.9,1.4l-13.3-1.7c0,0-15.6,6.4-30.1-0.6L1675.9,1380L1675.9,1380z"/>
		<path class="st35" d="M1649.4,1475.4h110.8v-12.5h-110.8c-3.4,0-6.3,2.8-6.3,6.3l0,0C1643.1,1472.6,1645.9,1475.4,1649.4,1475.4
			L1649.4,1475.4z"/>
		<path class="st6" d="M1745.6,1475.4h159.1c8.5,0,15.9-5.6,18.1-13.8l31.4-112.7c1.2-4.1-2-8.2-6.3-8.2h-161
			c-3.5,0-6.6,2.4-7.5,5.8L1745.6,1475.4L1745.6,1475.4z"/>
		<g>
			<rect x="1789.7" y="1490.2" class="st9" width="8" height="279.8"/>
		</g>
		<g>
			<rect x="1977.5" y="1490.2" class="st9" width="8" height="279.8"/>
		</g>
		<g>
			<rect x="1671.9" y="1490.2" class="st9" width="8" height="279.8"/>
		</g>
		<polygon class="st19" points="1546.9,1505.1 2035.9,1505.1 2035.9,1475.4 1546.9,1475.4 1546.9,1505.1 		"/>
		<path class="st9" d="M1570.1,1211.8c0,0-41.1,2.4-41.1,2.4c1.6-6.5,3.2-13,4.2-19.7c1-6.5,0.9-12.8,3.6-18.9
			c1-2.3,3.9-6.2,3.8-8.7c-0.2-2.8-1.6-2.6-4.5-3.2c-4.7-1-9.6-1.6-14.4-1.4c-6.6,0.3-13.3,2.1-19.5,4.4
			c-23.9,8.6-32.3,38.7-45.3,57.8c-4,5.9-7.9,12-11.4,18.3c-19.5,35.1,1.3,81.6,1.3,81.6l95.4,4.2
			C1572.4,1276.2,1570.1,1211.8,1570.1,1211.8z"/>
		<path class="st36" d="M1568.7,1321.5c11.6,28.3,26.7,88.1,26.7,88.1l91.3-43l12.1,31.4l-77.5,52.9l-84.8-3.5l-6.3-66.3l37-56.1
			L1568.7,1321.5z"/>
		<path class="st25" d="M1553.5,1303c6.1,4.6,11.9,10.7,15.3,18.5l5.5,158.2c0,0-97.1,20.4-149.9-3.1c0,0,1.5-132.5,31.5-167.6
			c0,0,9.5-18.6,57.6-18.7C1527.8,1290.2,1542,1294.4,1553.5,1303L1553.5,1303z"/>
		<path class="st10" d="M1549.3,1232.9c-0.7,4.9,2.7,9.4,7.5,10.1c4.9,0.7,9.4-2.7,10.1-7.5c0.7-4.8-2.7-9.4-7.5-10.1
			C1554.5,1224.7,1550,1228.1,1549.3,1232.9L1549.3,1232.9z"/>
		<path class="st10" d="M1532.8,1266.4l-4.2,30.5c-1.5,10.7-8.8,15.5-19.3,14l0,0c-9-1.3-16.8-7.1-16.6-16.2l8.9-47.6L1532.8,1266.4
			L1532.8,1266.4z"/>
		<path class="st15" d="M1529.3,1286.5c-18.3,2.7-30.1-26.5-30.1-26.5l34,4.9l-3.8,23V1286.5z"/>
		<path class="st10" d="M1523.2,1270.7L1523.2,1270.7c14.7-1.2,34.1-11.8,35.7-26.5l3.6-34.8c2-18.5-10.9-35.2-29.3-37.9l0,0
			c-18.8-2.7-39.6,9.9-42.3,28.7l-2.6,28C1486.2,1249.9,1500,1268.4,1523.2,1270.7L1523.2,1270.7z"/>
		<path class="st9" d="M1521.6,1212.6c0,0,7.7-1.6,8.1,0.9c0,0,0.2,1.7-6.5,3c-6.7,1.3-8.5,1.2-9.4-0.3
			C1513,1214.7,1517.9,1213.2,1521.6,1212.6L1521.6,1212.6z"/>
		<path class="st9" d="M1553,1214.4c0,0-6.5,0-6.8,2.4c0,0-0.2,1.6,5.5,1.5c5.7-0.1,7.5-0.8,7.9-2.2
			C1560,1214.6,1556.1,1214.2,1553,1214.4L1553,1214.4z"/>
		<path class="st9" d="M1526.6,1225.3c-0.5,1.7-2.2,2.6-3.9,2.2c-1.7-0.5-2.6-2.2-2.2-3.9c0.5-1.7,2.2-2.6,3.9-2.2
			S1527.1,1223.7,1526.6,1225.3z"/>
		<path class="st9" d="M1555.5,1225.6c-0.5,1.7-2.2,2.6-3.9,2.2s-2.6-2.2-2.2-3.9s2.2-2.6,3.9-2.2S1555.9,1224,1555.5,1225.6z"/>
		<g>
			<path class="st9" d="M1537.5,1238.6c-0.1,0-0.3,0-0.4,0l-4-0.9c-0.1,0-0.2-0.2-0.2-0.3c0-0.1,0.2-0.2,0.3-0.2l4,0.9
				c0.4,0.1,0.9,0,1.3-0.3c0.6-0.5,1-1.2,1-2.1l0.4-7.6c0-0.1,0.1-0.3,0.3-0.2c0.1,0,0.3,0.1,0.2,0.3l-0.4,7.6
				c-0.1,1-0.5,1.9-1.3,2.5C1538.4,1238.5,1538,1238.6,1537.5,1238.6z"/>
		</g>
		<g>
			<path class="st9" d="M1531.8,1252.6C1531.8,1252.6,1531.8,1252.6,1531.8,1252.6c-5.7-0.6-9.2-4.2-10.3-5.4
				c-0.1-0.1-0.3-0.3-0.3-0.3c-0.1-0.1-0.2-0.2-0.1-0.3c0.1-0.1,0.2-0.2,0.4-0.1c0.1,0,0.2,0.1,0.5,0.4c1.1,1.1,4.5,4.6,10,5.2
				c0.1,0,0.2,0.1,0.2,0.3C1532.1,1252.5,1532,1252.6,1531.8,1252.6z"/>
		</g>
		<path class="st10" d="M1477.9,1228c-0.7,4.9,2.7,9.4,7.5,10.1c4.9,0.7,9.4-2.7,10.1-7.5c0.7-4.9-2.7-9.4-7.5-10.1
			C1483.1,1219.7,1478.6,1223.1,1477.9,1228L1477.9,1228z"/>
		<path class="st9" d="M1489,1220.6c-2.8,1.2,1.3-36.7,10.1-43.9c4-3.2,33.7-15.9,40.9-11.6c7.9,4.7-7.1,26.3-7.1,26.3
			S1521.6,1207,1489,1220.6z"/>
		<path class="st9" d="M1533.1,1190.7l28.9,23.2l7.8-0.8c0,0,12.2-34.1-28.7-47.9C1500.2,1151.3,1533.1,1190.7,1533.1,1190.7z"/>
		<path class="st10" d="M1646.9,1447.5l24-13c0,0,22.5-2.3,27.4,5.2c3.6,5.5,4.1,14.8,2.4,21c-0.8,2.8-4,4.1-6.4,2.6
			c-4-2.5-10.7-6-16.5-6.4c0,0-16.6,15.1-28.1,13.6c-5.9-0.8-21.6-16.7-21.6-16.7L1646.9,1447.5L1646.9,1447.5z"/>
		<path class="st25" d="M1488.3,1275.4c1.3,0.5,46.7,2.4,46.8,3.8c0.1,1.4,1.4,23.7,1.4,23.7l-6.4,14.8c0,0-19.2,2.6-20.8,2.2
			c-1.6-0.5-18.6-4.8-18.6-4.8L1488.3,1275.4z"/>
		<path class="st33" d="M1509.4,1357.1l12.9,64.8c0.8,5.2,5.2,9.1,10.4,9.3l112,4.9c5.9,0.3,10.6,5.1,10.6,11v24.7
			c0,6.2-5.1,11.2-11.3,11l-129.9-3.1c-0.2,0-0.4,0-0.6,0c-4.8,0.2-8.5-1.2-11.3-3.7c-0.5-0.4-1.2-0.5-1.8-0.3
			c-0.3,0.1-0.6,0.2-0.9,0.2c-4.5-0.5-37.1-7.9-47.9-122.4c-2-21.1,28.1-30.8,43.5-21.3c5.4,3.4,10.6,8.9,11.6,15.4L1509.4,1357.1z"
			/>
		<g>
			<path class="st37" d="M1538.3,1578.6h-90.6c-14,0-27.1-2.4-39.1-7.1c-32.2-12.6-54.4-41.8-60.8-80.1l-22.5-133.4
				c-0.5-2.7,1.4-5.3,4.1-5.8c2.7-0.5,5.3,1.4,5.8,4.1l22.5,133.4c5.9,35.3,25.3,61,54.6,72.5c10.8,4.2,22.7,6.4,35.4,6.4h90.6
				c2.8,0,5,2.2,5,5S1541.1,1578.6,1538.3,1578.6z"/>
		</g>
		<path class="st11" d="M1556.4,1762.3l3.7-18.5c0.6-2.7,3.2-4.6,5.9-4.2c7.1,1.1,20.1,1.6,27.7-7.4c1.4-1.7,3.8-2.3,5.9-1.5
			l54.4,21.2c1.9,0.7,3.1,2.4,3.3,4.4l0,0c0.3,2.9-1.8,5.5-4.7,5.8l-90.4,8.9c-2.9,0.3-5.5-1.8-5.8-4.7l-0.2-2.4
			C1556.3,1763.3,1556.3,1762.8,1556.4,1762.3z"/>
		<path class="st33" d="M2001.5,1423.7h-33c-0.9,0-1.6,0.7-1.6,1.6v48.6c0,0.9,0.7,1.6,1.6,1.6h33c0.9,0,1.6-0.7,1.6-1.6v-7.6
			c0-0.7,0.5-1.4,1.3-1.5c7.1-1.4,12.4-7.7,12.4-15.1s-5.3-13.7-12.4-15.1c-0.7-0.1-1.3-0.8-1.3-1.5v-7.6
			C2003.1,1424.4,2002.4,1423.7,2001.5,1423.7z M2005.3,1457.3c-1,0.5-2.2-0.3-2.2-1.4v-12.8c0-1.1,1.2-1.9,2.2-1.4
			c2.8,1.5,4.8,4.4,4.8,7.8S2008.1,1455.9,2005.3,1457.3z"/>
	</g>
	<path class="st11" d="M1672.2,1760.5l5.6-18c0.8-2.7,3.6-4.2,6.3-3.5c6.9,1.8,19.9,3.7,28.3-4.5c1.6-1.6,4-1.8,6-0.8l51.9,26.7
		c1.8,0.9,2.9,2.7,2.9,4.7l0,0c0,2.9-2.4,5.3-5.3,5.2l-90.8-0.5c-2.9,0-5.3-2.4-5.2-5.3l0-2.4C1672,1761.5,1672,1761,1672.2,1760.5z
		"/>
</g>
</svg>
