<?xml version="1.0" encoding="utf-8"?>
<!-- Generator: Adobe Illustrator 22.1.0, SVG Export Plug-In . SVG Version: 6.00 Build 0)  -->
<svg version="1.1" id="Layer_1" xmlns="http://www.w3.org/2000/svg" xmlns:xlink="http://www.w3.org/1999/xlink" x="0px" y="0px"
	 viewBox="0 0 1366 875" style="enable-background:new 0 0 1366 875;" xml:space="preserve">
<style type="text/css">
	.st0{fill:#CAE1E5;}
	.st1{enable-background:new    ;}
	.st2{fill:#93BEC4;stroke:#32303D;stroke-linecap:round;stroke-linejoin:round;stroke-miterlimit:10;}
	.st3{fill:#CAE1E5;stroke:#32303D;stroke-linecap:round;stroke-linejoin:round;stroke-miterlimit:10;}
	.st4{fill:#F2684E;stroke:#32303D;stroke-linecap:round;stroke-linejoin:round;stroke-miterlimit:10;}
	.st5{fill:#FF927D;stroke:#47474A;stroke-linecap:round;stroke-linejoin:round;stroke-miterlimit:10;}
	.st6{fill:#333333;}

	.st9{fill:#333333;stroke:#0A0A0A;stroke-miterlimit:10;}
	.st10{fill:none;stroke:#32303D;stroke-linecap:round;stroke-linejoin:round;stroke-miterlimit:10;}
	.st11{fill:#E6B05C;stroke:#32303D;stroke-linecap:round;stroke-linejoin:round;stroke-miterlimit:10;}
	.st12{fill:#FFD491;stroke:#47474A;stroke-linecap:round;stroke-linejoin:round;stroke-miterlimit:10;}
	.st13{fill:#34C1AD;stroke:#32303D;stroke-linecap:round;stroke-linejoin:round;stroke-miterlimit:10;}
	.st14{fill:#5ACEBE;stroke:#47474A;stroke-linecap:round;stroke-linejoin:round;stroke-miterlimit:10;}
	.st15{fill:#333366;stroke:#0A0A0A;stroke-miterlimit:10;}
	.st16{fill:#3E3B5B;stroke:#32303D;stroke-linecap:round;stroke-linejoin:round;stroke-miterlimit:10;}
	.st17{fill:#646094;stroke:#32303D;stroke-linecap:round;stroke-linejoin:round;stroke-miterlimit:10;}
	
	.floating-island {
        animation: floatAnim 6s ease-in-out infinite;
		
      }
      #floating-balloon {
        animation: floatAnim2 5s ease-in-out infinite;
      }

      @keyframes floatAnim {
        0% {
          transform: translate(0px,1px);
        }
        50% {
              transform: translate(0px,-10px);
        }
        100% {
          transform: translate(0px,1px);
        }
      }
      @keyframes floatAnim2 {
       0% {
          transform: translate(0px,19px);
        }
        50% {
          transform: translate(0px,-18px);
        }
        100% {
          transform: translate(0px,19px);
        }
      }
	
	
	.st19{letter-spacing:1;}
	
	.st21{fill:#32303D;}
.st6.st7.st8{
	text-alignment:justify;
}

.st6{
	text-alignment:justify;
}
st7{
	text-alignment:justify;
}
.st8{
	text-alignment:justify;
}

.st56{
	text-alignment:justify;
}


	svg{
		font-family: Arial, sans-serif;
		letter-spacing:3px;
		font-weight:normal;
		font-size:20px;
		line-height:25px;
		text-alignment:justify;
	}

	 .animate{
    animation: pulse 1s infinite;
}
.anim{
    animation: pulse 1s infinite;
}
.mapsmall-circle2{
    width: 5px;
    height: 5px;
    background-color: #00abe6;
    border-radius: 50%;
    position: absolute;
       top: 181px;
    left: 131px;
}
.mapsmall-circle3{
     width: 5px;
    height: 5px;
    background-color: #00abe6;
    border-radius: 50%;
    position: absolute;
    top: 120px;
left: 184px;
}
.mapsmall-circle4{
   width: 5px;
    height: 5px;
    background-color: #00abe6;
    border-radius: 50%;
    position: absolute;
    top: 87px;
    left: 133px;
}
.mapsmall-circle5{
      width: 5px;
    height: 5px;
    background-color: #00abe6;
    border-radius: 50%;
    position: absolute;
        top: 71px;
    left: 234px;
}
.mapsmall-circle6{
     width: 5px;
    height: 5px;
    background-color: #00abe6;
    border-radius: 50%;
    position: absolute;
        top: 100px;
    left: 197px;
}
.mapsmall-circle7{
      width: 5px;
    height: 5px;
    background-color: #00abe6;
    border-radius: 50%;
    position: absolute;
       top: 309px;
   left: 191px;
}
.mapsmall-circle8{
    width: 5px;
    height: 5px;
    background-color: #00abe6;
    border-radius: 50%;
    position: absolute;
     top: 257px;
left: 241px;
}
.mapsmall-circle9{
     width: 5px;
    height: 5px;
    background-color: #00abe6;
    border-radius: 50%;
    position: absolute;
      top: 164px;
left: 322px;
}
.mapsmall-circle10{
     width: 5px;
    height: 5px;
    background-color: #00abe6;
    border-radius: 50%;
    position: absolute;
       top: 119px;
    left: 332px;
}
.mapsmall-circle11{
     width: 5px;
    height: 5px;
    background-color: #00abe6;
    border-radius: 50%;
    position: absolute;
      top: 83px;
    left: 344px;
}
.mapsmall-circle12{
     width: 5px;
    height: 5px;
    background-color: #00abe6;
    border-radius: 50%;
    position: absolute;
    top: 100px;
    left: 150px;
}
.mapsmall-circle13{
     width: 5px;
    height: 5px;
    background-color: #00abe6;
    border-radius: 50%;
    position: absolute;
top: 89px;
left: 586px;
}

.mapsmall-circle14{
     width: 5px;
    height: 5px;
    background-color: #00abe6;
    border-radius: 50%;
    position: absolute;
top: 124px;
left: 456px;
}


.mapsmall-circle15{
     width: 5px;
    height: 5px;
    background-color: #00abe6;
    border-radius: 50%;
    position: absolute;
top: 182px;
left: 416px;
}


.mapsmall-circle16{
     width: 5px;
    height: 5px;
    background-color: #00abe6;
    border-radius: 50%;
    position: absolute;
top: 150px;
left: 486px;
}


.mapsmall-circle17{
     width: 5px;
    height: 5px;
    background-color: #00abe6;
    border-radius: 50%;
    position: absolute;
top: 274px;
left: 568px;
}
.first-arc{
    position: absolute;
    top:0px;
    left: 0px;
}

.map-image > div {
    z-index: 99999999;
}
.small-circle2 > div{
    padding: 20px;
    background-color: #34b8d8;
    border:1px solid #34b8d8;
    border-radius: 8px;
    color: white;
    width: 250px;
    text-align: center;
}
.inner-circle-para{
    font-size: 12px !important;
    color: white;
    text-align: left;
}
.small-circle7 > div{
    padding: 20px;
    background-color: #34b8d8;
    border:1px solid #34b8d8;
    border-radius: 8px;
    color: white;
    width: 250px;
    text-align: center;
}
.small-circle9 > div{
    padding: 20px;
    background-color: #34b8d8;
    border:1px solid #34b8d8;
    border-radius: 8px;
    color: white;
    width: 250px;
    text-align: center;
}
.circle-within{
    width: 30px;
    height: 30px;
    background-color: white;
    border-radius: 50%;
    text-align: left !important;
    position: relative;
    left: -40px;
}
.circle-within2{
    width: 25px;
    height: 25px;
    background-color: white;
    border-radius: 50%;
    position: relative;
    left:90px;
}
.circle-inner-h{
    position: relative;
    top: -10px;
    left: -40px;
}
@-webkit-keyframes pulse {
    0% {
      -webkit-box-shadow: 0 0 0 0 #00abe6;
    }
    70% {
        -webkit-box-shadow: 0px 0px  10px 3px #00abe6;
    }
    100% {
        -webkit-box-shadow: 0 0 0 0 #00abe6;
    }
  }
  @keyframes pulse {
    0% {
      -moz-box-shadow: 0 0 0 0 #00abe6;
      box-shadow: 0 0 0 0 #00abe6;
    }
    70% {
        -moz-box-shadow: 0px 0px  10px 3px #00abe6;
        box-shadow: 0px 0px  10px 3px #00abe6;
    }
    100% {
        -moz-box-shadow: 0 0 0 0 #00abe6;
        box-shadow: 0 0 0 0 #00abe6;
    }
  }


#main {
    position: absolute;
    background: #00abe6;
    width: 26%;
    top: 149px;
    left: -45px;
    box-shadow: 0px 0px 5px 1px black;
   padding: 15px 8px;
    z-index: 999999999999;
    border-radius: 5px;
     opacity: 0;
      -moz-transition: all 1s ease;
  -webkit-transition: all 1s ease;
  -ms-transition: all 1s ease;
  -o-transition: all 1s ease;
  transition: all 1s ease;
}
#main p {
  color: #fff;
font-size: 13px;
padding: 5px 0px;
text-align: left;
}

#main img {
    max-width: 33%;
    top: -34px;
    position: absolute;
    left: 0px;
}
.mapsmall-circle1:hover ~#main {
	 opacity: 1;
     
}

.bg {
    stroke: #8d8d8d;
    stroke-dasharray: 4 12;
}


.move {
stroke: #333;
    animation: link-anim 5s linear infinite;
    stroke-dasharray: 64;
    stroke-width: 4px;
}



@keyframes link-anim {
  0% {
    stroke-dashoffset: 368;
  }
  100% {
    stroke-dashoffset: 32;
  }
}

#my-svg > path {
    stroke-width: 2px;
    fill: transparent;
}



#main {
    position: absolute;
    background: #00abe6;
    width: 26%;
    top: 149px;
    left: -45px;
    box-shadow: 0px 0px 5px 1px black;
    padding: 15px 8px;
    z-index: 999999999999;
    border-radius: 5px;
    opacity: 0;
    -moz-transition: all 1s ease;
    -webkit-transition: all 1s ease;
    -ms-transition: all 1s ease;
    -o-transition: all 1s ease;
    transition: all 1s ease;
}



#main {
    position: absolute;
    background: #00abe6;
    width: 26%;
    top: 149px;
    left: -45px;
    box-shadow: 0px 0px 5px 1px black;
   padding: 15px 8px;
    z-index: 999999999999;
    border-radius: 5px;
     opacity: 0;
      -moz-transition: all 1s ease;
  -webkit-transition: all 1s ease;
  -ms-transition: all 1s ease;
  -o-transition: all 1s ease;
  transition: all 1s ease;
}
#main p {
  color: #fff;
font-size: 13px;
padding: 5px 0px;
text-align: left;
}

#main img {
    max-width: 33%;
    top: -34px;
    position: absolute;
    left: 0px;
}
.mapsmall-circle1:hover ~#main {
    opacity: 1 !important;
}
</style>
<g>
	<g>
		<g>
			<path id="p_one" class="st0" d="M1281.6,115.8L1281.6,115.8c-4.4,2.3-9.8,2.3-14.2,0l-25.8-13.4c-68.1-35.4-178.5-35.4-246.1,0
				c-67.6,35.4-67.3,93.1,0.8,128.4l66,34.3c83.8,43.5,84.3,114.5,0.9,158c-83.2,43.5-219.1,43.5-302.9,0l-66-34.3
				c-68.1-35.4-178.5-35.4-246.1,0s-67.3,93.1,0.8,128.4l66,34.3c83.8,43.5,84.3,114.5,0.9,158c-83.2,43.5-219.1,43.5-302.9,0
				l-11.8-6.2c-9.5-4.9-9.5-17.2,0-22.1l0,0c4.4-2.3,9.8-2.3,14.2,0l25.8,13.4c68.1,35.4,178.5,35.4,246.1,0
				c67.6-35.4,67.3-93.1-0.8-128.4l-66-34.3c-83.8-43.5-84.3-114.5-0.9-158c83.2-43.5,219.1-43.5,302.9,0l66,34.3
				c68.1,35.4,178.5,35.4,246.1,0c67.6-35.4,67.3-93.1-0.8-128.4l-66-34.3c-83.8-43.5-84.3-114.5-0.9-158
				c83.2-43.5,219.1-43.5,302.9,0l11.8,6.2C1291,98.5,1291,110.9,1281.6,115.8z"/>
   <!-- <path d="M147 149 C147, 149  137,92 197 100  " stroke-width="1" fill="none"></path> -->
				  <use class="bg" href="#p_one"></use>
                            <use class="move" href="#p_one"></use>
		</g>
		<g>
			<g>
				<path d="M198.5,687.2c0.4,0.3,0.4,0.6,0,0.8c-0.4,0.3-1.1,0.3-1.6,0l-5.5-2.9c-0.4-0.3-0.4-0.6,0-0.8c0.4-0.3,1.1-0.3,1.6,0
					L198.5,687.2z"/>
			</g>
			<g>
				<path d="M1054.5,412c-2.4,1.4-5,2.9-7.6,4.2c-1,0.5-2.1,1-3.2,1.6c-0.4,0.2-1.1,0.2-1.6,0c-0.4-0.3-0.4-0.6,0-0.9
					c1-0.5,2.1-1,3.1-1.6c2.6-1.4,5.1-2.8,7.5-4.2c0.4-0.3,1.1-0.3,1.6,0c0,0,0,0,0.1,0C1054.8,411.4,1054.9,411.7,1054.5,412z"/>
			</g>
			<g>
				<path d="M497.4,703c0.4,0.3,0.4,0.6,0,0.8c-3.7,1.9-7.6,3.6-11.5,5.4c-0.4,0.2-1.1,0.2-1.5,0h-0.1c-0.4-0.3-0.3-0.6,0.2-0.8
					c3.9-1.6,7.8-3.5,11.5-5.3C496.4,702.7,497.1,702.7,497.4,703z"/>
			</g>
			<g>
				<path d="M473.8,713.2c0.3,0.3,0.3,0.6-0.3,0.8c-4.3,1.6-8.6,2.9-13.1,4.3c-0.4,0.2-0.9,0.1-1.3-0.1c-0.1,0-0.2-0.1-0.2-0.1
					c-0.3-0.3-0.2-0.6,0.4-0.8c4.4-1.3,8.7-2.8,12.9-4.2C472.8,712.9,473.4,713,473.8,713.2C473.7,713.1,473.8,713.1,473.8,713.2z"
					/>
			</g>
			<g>
				<path d="M525,685.1c-0.3-0.2-0.4-0.5-0.2-0.7c2.8-2.3,5.3-4.6,7.7-6.9c0.3-0.3,0.9-0.3,1.5-0.3c0.1,0,0.2,0.1,0.3,0.1
					c0.3,0.2,0.4,0.4,0.2,0.7c-2.4,2.3-5,4.7-7.8,7C526.3,685.3,525.6,685.4,525,685.1C525.1,685.2,525.1,685.1,525,685.1z"/>
			</g>
			<g>
				<path d="M447.3,721.4c0.3,0.3,0,0.6-0.5,0.8c-4.7,1.1-9.4,2.3-14.2,3.2c-0.4,0.1-0.9,0-1.2-0.1c-0.1-0.1-0.2-0.1-0.3-0.2
					c-0.2-0.3,0.1-0.6,0.6-0.8c4.7-1,9.5-2,14-3.1c0.4-0.1,0.9-0.1,1.3,0.1C447.2,721.2,447.3,721.3,447.3,721.4z"/>
			</g>
			<g>
				<path d="M539.4,670.9c-0.3-0.2-0.4-0.4-0.3-0.6c2-2.4,3.8-4.9,5.4-7.5c0.2-0.3,0.9-0.4,1.4-0.3c0.2,0,0.3,0.1,0.4,0.2
					c0.3,0.2,0.4,0.3,0.3,0.6c-1.6,2.5-3.4,5-5.5,7.5c-0.3,0.3-0.9,0.4-1.5,0.3C539.5,671,539.4,671,539.4,670.9z"/>
			</g>
			<g>
				<path d="M418.3,726.9c0.1,0.1,0.3,0.2,0.3,0.3c0.2,0.3-0.2,0.6-0.8,0.7c-5,0.8-10,1.4-15,2c-0.3,0-0.8,0-1-0.2
					c-0.2-0.1-0.3-0.2-0.3-0.3c-0.2-0.3,0.3-0.6,0.9-0.7c5-0.5,9.9-1.2,14.8-1.9C417.6,726.6,418.1,726.7,418.3,726.9z"/>
			</g>
			<g>
				<path d="M549.1,655.7c-0.3-0.2-0.4-0.3-0.3-0.5c1.2-2.6,2.2-5.2,3.1-7.8c0.1-0.3,0.7-0.5,1.3-0.4c0.3,0,0.4,0.1,0.6,0.2
					c0.3,0.1,0.3,0.3,0.3,0.5c-0.9,2.7-1.9,5.3-3.1,7.9c-0.2,0.3-0.8,0.5-1.3,0.4C549.4,655.8,549.2,655.7,549.1,655.7z"/>
			</g>
			<g>
				<path d="M388.2,730.2c0.2,0.1,0.3,0.2,0.3,0.3c0.1,0.3-0.3,0.6-0.9,0.6c-5.2,0.3-10.3,0.6-15.4,0.7c-0.3,0-0.6-0.1-0.9-0.2
					c-0.2-0.1-0.3-0.3-0.3-0.3c0-0.3,0.4-0.6,1-0.6c5.1-0.2,10.2-0.3,15.2-0.7C387.6,729.9,388,730,388.2,730.2z"/>
			</g>
			<g>
				<path d="M554.1,639.8c-0.3-0.1-0.3-0.3-0.3-0.4c0.4-2.7,0.7-5.3,0.7-8c0-0.3,0.5-0.6,1.1-0.6c0.3,0,0.6,0.1,0.8,0.2
					s0.3,0.3,0.3,0.4c0,2.7-0.3,5.4-0.7,8.1c0,0.3-0.6,0.5-1.2,0.5C554.5,640,554.3,639.9,554.1,639.8z"/>
			</g>
			<g>
				<path d="M357.5,731c0.2,0.1,0.3,0.3,0.3,0.4c0,0.3-0.5,0.6-1.1,0.5c-5.2-0.1-10.3-0.3-15.5-0.5c-0.3,0-0.5-0.1-0.7-0.2
					c-0.3-0.1-0.3-0.3-0.3-0.4c0.1-0.3,0.6-0.5,1.2-0.5c5.1,0.3,10.2,0.4,15.3,0.5C357,730.8,357.2,730.8,357.5,731z"/>
			</g>
			<g>
				<path d="M554.3,623.7c-0.2-0.1-0.3-0.3-0.3-0.3c-0.3-2.7-0.9-5.3-1.7-8c-0.1-0.3,0.3-0.6,0.9-0.7c0.3,0,0.7,0,0.9,0.2
					c0.2,0.1,0.3,0.2,0.3,0.3c0.8,2.7,1.4,5.4,1.7,8.1c0.1,0.3-0.4,0.6-1,0.6C554.9,623.9,554.5,623.9,554.3,623.7z"/>
			</g>
			<g>
				<path d="M326.8,729.2c0.3,0.2,0.3,0.3,0.3,0.5c-0.1,0.3-0.7,0.5-1.3,0.4c-5.1-0.5-10.1-1.1-15.1-1.8c-0.2,0-0.3-0.1-0.5-0.2
					c-0.3-0.2-0.4-0.3-0.3-0.5c0.2-0.3,0.8-0.5,1.4-0.4c4.9,0.7,9.9,1.3,14.9,1.8C326.5,729.1,326.6,729.2,326.8,729.2z"/>
			</g>
			<g>
				<path d="M549.7,607.8c-0.2-0.1-0.3-0.2-0.3-0.3c-1.2-2.6-2.5-5.2-4-7.7c-0.2-0.3,0.2-0.6,0.7-0.7c0.4-0.1,0.9,0,1.1,0.2
					c0.1,0.1,0.3,0.2,0.3,0.3c1.6,2.6,2.9,5.2,4.1,7.8c0.2,0.3-0.3,0.6-0.9,0.7C550.3,608,550,608,549.7,607.8z"/>
			</g>
			<g>
				<path d="M297.1,725c0.3,0.2,0.4,0.3,0.3,0.6c-0.2,0.3-0.9,0.4-1.4,0.3c-4.8-0.9-9.6-1.9-14.4-3c-0.1,0-0.3-0.1-0.3-0.1
					c-0.3-0.2-0.4-0.4-0.3-0.6c0.3-0.3,0.9-0.4,1.5-0.3c4.7,1.1,9.4,2.1,14.2,3C296.8,724.8,296.9,724.9,297.1,725z"/>
			</g>
			<g>
				<path d="M540.3,592.5c-0.1-0.1-0.2-0.1-0.3-0.2c-2-2.4-4-4.9-6.4-7.3c-0.3-0.3-0.1-0.6,0.5-0.8c0.4-0.1,0.9-0.1,1.3,0.1
					c0.1,0,0.2,0.1,0.2,0.2c2.3,2.4,4.5,4.9,6.5,7.4c0.3,0.3,0,0.6-0.6,0.8C541.1,592.7,540.7,592.6,540.3,592.5z"/>
			</g>
			<g>
				<path d="M268.9,718.3c0.3,0.2,0.4,0.4,0.2,0.7c-0.3,0.3-0.9,0.3-1.5,0.3c-4.5-1.3-9-2.7-13.3-4.2c-0.1,0-0.1-0.1-0.2-0.1
					c-0.3-0.2-0.4-0.5-0.2-0.7c0.3-0.3,1-0.3,1.6-0.2c4.3,1.5,8.7,2.9,13.1,4.2C268.7,718.2,268.8,718.3,268.9,718.3z"/>
			</g>
			<g>
				<path d="M526.4,578.2c-0.1,0-0.1-0.1-0.2-0.1c-2.7-2.3-5.5-4.5-8.5-6.7c-0.3-0.3-0.3-0.6,0.3-0.8c0.4-0.2,1-0.2,1.5,0.1l0.1,0.1
					c3,2.2,5.9,4.4,8.6,6.8c0.3,0.3,0.2,0.6-0.3,0.8C527.3,578.4,526.8,578.3,526.4,578.2z"/>
			</g>
			<g>
				<path d="M243.2,709.4c0.4,0.2,0.4,0.5,0.1,0.8c-0.3,0.3-1,0.3-1.6,0.1c-4-1.6-8-3.4-11.8-5.3c-0.4-0.3-0.4-0.6-0.1-0.8
					c0.4-0.3,1.1-0.3,1.6,0C235.2,706,239.1,707.7,243.2,709.4C243.2,709.4,243.2,709.4,243.2,709.4z"/>
			</g>
			<g>
				<path d="M508.3,565.2C508.3,565.2,508.3,565.1,508.3,565.2c-3.4-2.1-6.8-4-10.5-5.9c-0.4-0.3-0.4-0.6,0-0.8
					c0.4-0.3,1.1-0.3,1.6,0c3.7,1.9,7.2,3.9,10.5,6c0.4,0.3,0.3,0.6-0.1,0.8C509.4,565.3,508.7,565.3,508.3,565.2z"/>
			</g>
			<g>
				<path d="M220.4,698.5c0.4,0.3,0.4,0.6,0,0.8c-0.4,0.3-1.1,0.3-1.6,0l-10.9-5.7c-0.4-0.3-0.4-0.6,0-0.8c0.4-0.3,1.1-0.3,1.6,0
					L220.4,698.5z"/>
			</g>
			<g>
				<path d="M488.4,553.5c-0.4,0.3-1.1,0.3-1.6,0l-10.9-5.7c-0.4-0.3-0.4-0.6,0-0.8c0.4-0.3,1.1-0.3,1.6,0l10.9,5.7
					C488.9,552.9,488.9,553.3,488.4,553.5z"/>
			</g>
			<g>
				<path d="M755.8,407.4c-0.4,0.3-1.1,0.3-1.6,0l-10.9-5.7c-0.4-0.3-0.4-0.6,0-0.8c0.4-0.3,1.1-0.3,1.6,0l10.9,5.7
					C756.2,406.8,756.2,407.1,755.8,407.4z"/>
			</g>
			<g>
				<path d="M466.6,541.3c0.4,0.3,0.4,0.6,0,0.8c-0.4,0.3-1.1,0.3-1.6,0l-0.2-0.1l-10.8-5.6c-0.4-0.3-0.4-0.6,0-0.8
					c0.4-0.3,1.1-0.3,1.6,0l10.8,5.6L466.6,541.3z"/>
			</g>
			<g>
				<path d="M734,396c-0.4,0.3-1.1,0.3-1.6,0l-10.9-5.7c-0.4-0.3-0.4-0.6,0-0.8c0.4-0.3,1.1-0.3,1.6,0l10.9,5.7
					C734.3,395.4,734.3,395.8,734,396z"/>
			</g>
			<g>
				<path d="M444.7,529.9c0.4,0.3,0.4,0.6,0,0.8c-0.4,0.3-1.1,0.3-1.6,0l-10.9-5.7c-0.4-0.3-0.4-0.6,0-0.8c0.4-0.3,1.1-0.3,1.6,0
					L444.7,529.9z"/>
			</g>
			<g>
				<path d="M710.5,384.6l-5.3-2.8c-1.9-1-3.8-1.9-5.7-2.9c-0.4-0.3-0.4-0.6-0.1-0.8c0.4-0.3,1.1-0.3,1.6,0c2,1,3.9,1.9,5.8,2.9
					l5.3,2.8c0.4,0.3,0.4,0.6,0,0.8C711.7,384.8,710.9,384.8,710.5,384.6z"/>
			</g>
			<g>
				<path d="M423.3,518.4c0.3,0.3,0.3,0.6-0.1,0.8c-0.4,0.2-1.1,0.2-1.5,0h-0.1c-3.4-2.1-6.6-4.2-9.6-6.3c-0.3-0.3-0.3-0.6,0.3-0.8
					c0.4-0.2,1-0.2,1.5,0.1c0,0,0.1,0,0.1,0.1C416.8,514.2,419.9,516.4,423.3,518.4z"/>
			</g>
			<g>
				<path d="M689.4,373.7c-0.3,0.3-1,0.3-1.6,0.1c-4-1.6-8.2-3.2-12.5-4.7c-0.1,0-0.2-0.1-0.2-0.1c-0.3-0.2-0.4-0.5-0.1-0.7
					c0.3-0.3,1-0.3,1.6-0.2c4.3,1.5,8.5,3,12.6,4.7c0,0,0.1,0,0.1,0.1C689.6,373.1,689.7,373.5,689.4,373.7z"/>
			</g>
			<g>
				<path d="M405.2,505.5c0.3,0.3,0.2,0.6-0.3,0.8c-0.4,0.2-1,0.1-1.4-0.1c-0.1,0-0.1-0.1-0.2-0.1c-2.8-2.3-5.3-4.7-7.6-7.1
					c-0.3-0.3-0.1-0.6,0.5-0.8c0.4-0.1,0.9-0.1,1.3,0.1c0.1,0.1,0.2,0.1,0.2,0.2C400,500.9,402.5,503.2,405.2,505.5z"/>
			</g>
			<g>
				<path d="M663.7,364.8c-0.3,0.3-0.9,0.3-1.5,0.3c-4.5-1.3-9-2.5-13.8-3.6c-0.1,0-0.3-0.1-0.3-0.1c-0.3-0.2-0.4-0.4-0.3-0.6
					c0.3-0.3,0.9-0.4,1.5-0.3c4.7,1.1,9.3,2.3,13.9,3.6c0.1,0,0.2,0.1,0.3,0.1C663.9,364.3,663.9,364.5,663.7,364.8z"/>
			</g>
			<g>
				<path d="M386,483.7c1.6,2.5,3.3,5,5.3,7.5c0.3,0.3,0,0.6-0.6,0.8c-0.4,0.1-0.9,0-1.2-0.2c-0.1-0.1-0.2-0.1-0.3-0.2
					c-2-2.5-3.7-5-5.3-7.6c-0.2-0.3,0.2-0.6,0.7-0.7c0.4-0.1,0.9,0,1.1,0.2C385.9,483.5,386,483.6,386,483.7z"/>
			</g>
			<g>
				<path d="M635.7,358.1c-0.2,0.3-0.9,0.4-1.4,0.3c-4.8-0.9-9.7-1.7-14.6-2.4c-0.2,0-0.3-0.1-0.5-0.2c-0.3-0.2-0.4-0.3-0.3-0.5
					c0.2-0.3,0.8-0.5,1.4-0.4c5,0.7,9.9,1.5,14.8,2.4c0.2,0,0.3,0.1,0.4,0.2C635.7,357.6,635.8,357.9,635.7,358.1z"/>
			</g>
			<g>
				<path d="M379,468.1c0.8,2.6,1.7,5.3,2.9,7.9c0.2,0.3-0.3,0.6-0.9,0.7c-0.3,0.1-0.8,0-1-0.2c-0.2-0.1-0.3-0.2-0.3-0.3
					c-1.2-2.6-2.2-5.3-2.9-8c-0.1-0.3,0.3-0.6,0.9-0.7c0.3,0,0.7,0,0.9,0.2C378.9,467.8,378.9,468,379,468.1z"/>
			</g>
			<g>
				<path d="M606,353.8c-0.1,0.3-0.7,0.5-1.3,0.4c-5.1-0.5-10.1-0.9-15.2-1.1c-0.3,0-0.5-0.1-0.7-0.2c-0.3-0.1-0.3-0.3-0.3-0.4
					c0.1-0.3,0.6-0.5,1.2-0.5c5.2,0.3,10.3,0.7,15.3,1.2c0.3,0,0.4,0.1,0.6,0.2C605.9,353.4,606,353.6,606,353.8z"/>
			</g>
			<g>
				<path d="M376.8,452.1c0,2.7,0.2,5.4,0.5,8c0,0.3-0.4,0.6-1,0.6c-0.3,0-0.6-0.1-0.9-0.2c-0.2-0.1-0.3-0.3-0.3-0.3
					c-0.3-2.7-0.6-5.4-0.5-8.1c0-0.3,0.5-0.6,1.1-0.6c0.3,0,0.6,0.1,0.8,0.2C376.6,451.9,376.8,452,376.8,452.1z"/>
			</g>
			<g>
				<path d="M574.2,352.6c-5.1-0.1-10.3-0.1-15.3,0.1c-0.3,0-0.6-0.1-0.9-0.2c-0.2-0.1-0.3-0.3-0.3-0.3c0-0.3,0.4-0.6,1-0.6
					c5.2-0.2,10.3-0.2,15.5-0.1c0.3,0,0.6,0.1,0.8,0.2c0.2,0.1,0.3,0.3,0.3,0.4C575.3,352.3,574.8,352.6,574.2,352.6z"/>
			</g>
			<g>
				<path d="M379.3,436.3c-0.8,2.6-1.5,5.3-1.9,8c-0.1,0.3-0.6,0.5-1.2,0.5c-0.3,0-0.5-0.1-0.7-0.2c-0.3-0.1-0.3-0.3-0.3-0.4
					c0.4-2.7,1-5.4,1.9-8.1c0.1-0.3,0.7-0.5,1.3-0.4c0.3,0,0.4,0.1,0.6,0.2C379.3,435.8,379.4,436,379.3,436.3z"/>
			</g>
			<g>
				<path d="M544.5,352.8c0.1,0.3-0.3,0.6-0.9,0.6c-5.1,0.3-10.1,0.8-15.1,1.3c-0.3,0-0.8,0-1-0.2c-0.2-0.1-0.3-0.2-0.3-0.3
					c-0.1-0.3,0.3-0.6,0.9-0.7c5.1-0.5,10.2-1,15.2-1.4c0.3,0,0.7,0,0.9,0.2C544.4,352.5,544.5,352.6,544.5,352.8z"/>
			</g>
			<g>
				<path d="M386.6,420.7c-1.6,2.5-3,5.1-4.2,7.7c-0.2,0.3-0.8,0.5-1.3,0.4c-0.2,0-0.3-0.1-0.5-0.2c-0.3-0.2-0.4-0.3-0.3-0.5
					c1.2-2.6,2.7-5.2,4.3-7.7c0.2-0.3,0.8-0.4,1.4-0.3c0.2,0,0.3,0.1,0.4,0.2C386.6,420.3,386.8,420.5,386.6,420.7z"/>
			</g>
			<g>
				<path d="M514.4,356c0.2,0.3-0.2,0.6-0.8,0.7c-4.9,0.8-9.7,1.6-14.5,2.6c-0.4,0.1-0.9,0-1.2-0.2c-0.1-0.1-0.2-0.1-0.3-0.2
					c-0.3-0.3,0.1-0.6,0.6-0.8c4.8-1,9.7-1.8,14.6-2.6c0.4-0.1,0.9,0,1.1,0.2C514.2,355.8,514.3,355.9,514.4,356z"/>
			</g>
			<g>
				<path d="M398.3,405.4c0.3,0.2,0.4,0.4,0.2,0.7c-2.3,2.3-4.6,4.8-6.5,7.2c-0.3,0.3-0.9,0.4-1.5,0.3c-0.2,0-0.3-0.1-0.3-0.1
					c-0.3-0.2-0.4-0.4-0.3-0.6c2-2.5,4.2-4.9,6.5-7.3c0.3-0.3,0.9-0.3,1.5-0.3C398.2,405.3,398.2,405.3,398.3,405.4z"/>
			</g>
			<g>
				<path d="M485.6,361.6c0.3,0.3,0.1,0.6-0.5,0.8c-4.6,1.1-9,2.4-13.5,3.7c-0.4,0.1-0.9,0.1-1.3-0.1c-0.1,0-0.1-0.1-0.2-0.1
					c-0.3-0.3-0.2-0.6,0.3-0.8c4.5-1.4,9-2.6,13.7-3.8c0.4-0.1,0.9-0.1,1.3,0.1C485.4,361.5,485.5,361.6,485.6,361.6z"/>
			</g>
			<g>
				<path d="M414.7,391.8c0.4,0.2,0.4,0.5,0.1,0.8c-3.1,2.2-5.9,4.3-8.7,6.6c-0.3,0.3-1,0.3-1.6,0.2c-0.1,0-0.1-0.1-0.2-0.1
					c-0.3-0.2-0.4-0.5-0.2-0.7c2.8-2.3,5.7-4.5,8.8-6.7c0.3-0.3,1-0.3,1.6-0.1C414.6,391.8,414.7,391.8,414.7,391.8z"/>
			</g>
			<g>
				<path d="M424.4,386.3c-0.4,0.3-1.1,0.3-1.6,0c0,0,0,0-0.1,0c-0.4-0.2-0.4-0.5-0.1-0.8c2.6-1.6,5.3-3,8.2-4.5
					c0.9-0.4,1.7-0.9,2.5-1.3c0.4-0.3,1.1-0.2,1.6,0c0.4,0.3,0.4,0.6,0,0.8c-0.9,0.4-1.6,0.9-2.5,1.3
					C429.8,383.4,427,384.8,424.4,386.3z"/>
			</g>
			<g>
				<path d="M979.8,94.6c-0.4-0.3-0.4-0.6,0-0.9c3.7-1.9,7.6-3.6,11.5-5.4c0.4-0.2,1.1-0.2,1.5,0h0.1c0.4,0.3,0.3,0.6-0.2,0.8
					c-3.9,1.6-7.7,3.5-11.4,5.3C980.9,94.8,980.2,94.8,979.8,94.6z"/>
			</g>
			<g>
				<path d="M1003.4,84.3c-0.3-0.3-0.3-0.6,0.3-0.8c4.2-1.6,8.6-3,13-4.3c0.4-0.2,1-0.1,1.4,0.1c0.1,0,0.1,0.1,0.2,0.1
					c0.3,0.3,0.2,0.6-0.4,0.8c-4.4,1.3-8.7,2.8-12.8,4.3c-0.4,0.2-1,0.1-1.4-0.1C1003.4,84.3,1003.4,84.3,1003.4,84.3z"/>
			</g>
			<g>
				<path d="M943.2,120.2c-0.3-0.2-0.4-0.4-0.2-0.7c2.4-2.3,4.9-4.7,7.7-7c0.3-0.3,1-0.3,1.6-0.2c0.1,0,0.2,0.1,0.2,0.1
					c0.3,0.2,0.4,0.5,0.2,0.7c-2.7,2.3-5.3,4.6-7.6,6.9c-0.3,0.3-0.9,0.3-1.5,0.3C943.3,120.3,943.3,120.3,943.2,120.2z"/>
			</g>
			<g>
				<path d="M959.5,106.6c-0.3-0.2-0.4-0.5-0.1-0.8c3.1-2.2,6.3-4.2,9.7-6.2c0.4-0.3,1.1-0.3,1.6-0.1c0,0,0,0,0.1,0
					c0.4,0.2,0.4,0.5,0.1,0.8c-3.4,2-6.6,4.1-9.6,6.2c-0.3,0.3-1,0.3-1.6,0.1C959.6,106.7,959.5,106.7,959.5,106.6z"/>
			</g>
			<g>
				<path d="M444.9,375.2c-0.4-0.3-0.3-0.6,0.2-0.8c4-1.7,8.1-3.4,12.3-4.9c0.4-0.2,1-0.2,1.4,0.1c0.1,0,0.1,0.1,0.2,0.1
					c0.3,0.3,0.3,0.6-0.3,0.8c-4.1,1.5-8.2,3.1-12.1,4.9C446,375.5,445.4,375.4,444.9,375.2L444.9,375.2z"/>
			</g>
			<g>
				<path d="M1029.8,76.1c-0.3-0.3,0-0.6,0.5-0.8c4.7-1.2,9.4-2.3,14.2-3.2c0.4-0.1,0.9,0,1.2,0.2c0.1,0.1,0.2,0.1,0.3,0.2
					c0.3,0.3-0.1,0.6-0.6,0.8c-4.7,1-9.5,2-14,3.2c-0.4,0.1-0.9,0.1-1.3-0.1C1029.9,76.2,1029.8,76.2,1029.8,76.1z"/>
			</g>
			<g>
				<path d="M938.3,126.7c0.3,0.2,0.4,0.4,0.3,0.6c-2,2.4-3.8,4.9-5.3,7.5c-0.2,0.3-0.8,0.4-1.4,0.3c-0.2,0-0.3-0.1-0.4-0.2
					c-0.3-0.2-0.4-0.3-0.3-0.6c1.6-2.5,3.4-5,5.4-7.5c0.3-0.3,0.9-0.4,1.5-0.3C938,126.6,938.2,126.6,938.3,126.7z"/>
			</g>
			<g>
				<path d="M1058.7,70.4c-0.1-0.1-0.3-0.2-0.3-0.3c-0.2-0.3,0.2-0.6,0.7-0.7c5-0.8,10-1.5,15-2c0.3,0,0.8,0,1,0.2
					c0.2,0.1,0.3,0.2,0.3,0.3c0.1,0.3-0.3,0.6-0.9,0.7c-5,0.5-9.9,1.2-14.8,2C1059.4,70.6,1059.1,70.6,1058.7,70.4z"/>
			</g>
			<g>
				<path d="M928.6,141.9c0.3,0.2,0.4,0.3,0.3,0.5c-1.2,2.6-2.2,5.2-3,7.8c-0.1,0.3-0.7,0.5-1.3,0.4c-0.3,0-0.4-0.1-0.6-0.2
					c-0.3-0.1-0.3-0.3-0.3-0.5c0.8-2.7,1.8-5.3,3-7.9c0.2-0.3,0.8-0.5,1.4-0.4C928.3,141.8,928.4,141.9,928.6,141.9z"/>
			</g>
			<g>
				<path d="M1088.9,67.1c-0.2-0.1-0.3-0.2-0.3-0.3c-0.1-0.3,0.3-0.6,0.9-0.6c5.1-0.3,10.3-0.6,15.4-0.8c0.3,0,0.6,0.1,0.9,0.2
					c0.2,0.1,0.3,0.3,0.3,0.3c0,0.3-0.4,0.6-1,0.6c-5.1,0.2-10.2,0.3-15.2,0.7C1089.4,67.2,1089.1,67.2,1088.9,67.1z"/>
			</g>
			<g>
				<path d="M923.7,157.8c0.3,0.1,0.3,0.3,0.3,0.4c-0.4,2.7-0.6,5.3-0.6,8c0,0.3-0.5,0.6-1.1,0.6c-0.3,0-0.6-0.1-0.8-0.2
					c-0.2-0.1-0.3-0.3-0.3-0.4c0-2.7,0.3-5.4,0.7-8.1c0-0.3,0.6-0.5,1.2-0.5C923.3,157.6,923.5,157.7,923.7,157.8z"/>
			</g>
			<g>
				<path d="M1119.6,66.2c-0.2-0.1-0.3-0.3-0.3-0.4c0-0.3,0.5-0.6,1.1-0.5c5.2,0.1,10.3,0.3,15.5,0.5c0.3,0,0.5,0.1,0.7,0.2
					c0.3,0.1,0.3,0.3,0.3,0.4c0,0.3-0.6,0.5-1.2,0.5c-5.1-0.3-10.2-0.4-15.2-0.5C1120,66.4,1119.8,66.4,1119.6,66.2z"/>
			</g>
			<g>
				<path d="M923.6,173.9c0.2,0.1,0.3,0.3,0.3,0.3c0.3,2.7,0.9,5.3,1.7,8c0.1,0.3-0.3,0.6-0.9,0.7c-0.3,0-0.7,0-0.9-0.2
					c-0.2-0.1-0.3-0.2-0.3-0.3c-0.8-2.7-1.4-5.4-1.8-8.1c-0.1-0.3,0.4-0.6,1-0.6C923.1,173.7,923.4,173.7,923.6,173.9z"/>
			</g>
			<g>
				<path d="M1150.3,67.9c-0.3-0.2-0.3-0.3-0.3-0.5c0.1-0.3,0.7-0.5,1.3-0.4c5.1,0.5,10.1,1,15.2,1.8c0.2,0,0.3,0.1,0.5,0.2
					c0.3,0.2,0.4,0.3,0.3,0.5c-0.2,0.3-0.8,0.5-1.4,0.4c-4.9-0.7-9.9-1.3-14.9-1.7C1150.6,68,1150.4,68,1150.3,67.9z"/>
			</g>
			<g>
				<path d="M928.4,189.8c0.2,0.1,0.3,0.2,0.3,0.3c1.2,2.6,2.6,5.2,4.1,7.7c0.2,0.3-0.2,0.6-0.7,0.7c-0.4,0.1-0.9,0-1.1-0.2
					c-0.1-0.1-0.3-0.2-0.3-0.3c-1.6-2.6-3-5.2-4.2-7.8c-0.1-0.3,0.3-0.6,0.9-0.7C927.7,189.6,928.1,189.6,928.4,189.8z"/>
			</g>
			<g>
				<path d="M1180,72.1c-0.3-0.2-0.4-0.3-0.3-0.6s0.8-0.4,1.4-0.3c4.8,0.9,9.6,1.9,14.4,3c0.1,0,0.3,0.1,0.3,0.1
					c0.3,0.2,0.4,0.4,0.3,0.6c-0.3,0.3-0.9,0.4-1.5,0.3c-4.7-1.1-9.4-2.1-14.2-2.9C1180.3,72.2,1180.2,72.1,1180,72.1z"/>
			</g>
			<g>
				<path d="M937.8,205.1c0.1,0.1,0.2,0.1,0.3,0.2c2,2.4,4.1,4.9,6.5,7.3c0.3,0.3,0.1,0.6-0.5,0.8c-0.4,0.1-0.9,0.1-1.3-0.1
					c-0.1-0.1-0.2-0.1-0.2-0.2c-2.3-2.4-4.6-4.9-6.5-7.4c-0.3-0.3,0-0.6,0.6-0.8C937.1,204.9,937.6,205,937.8,205.1z"/>
			</g>
			<g>
				<path d="M1208.2,78.7c-0.3-0.2-0.4-0.4-0.2-0.7c0.3-0.3,0.9-0.3,1.5-0.3c4.5,1.3,9,2.7,13.4,4.2c0.1,0,0.1,0.1,0.2,0.1
					c0.3,0.2,0.4,0.5,0.2,0.7c-0.3,0.3-1,0.3-1.6,0.2c-4.3-1.5-8.7-2.9-13.2-4.2C1208.3,78.7,1208.3,78.7,1208.2,78.7z"/>
			</g>
			<g>
				<path d="M952,219.4c0.1,0,0.1,0.1,0.2,0.1c2.7,2.3,5.5,4.5,8.5,6.7c0.3,0.3,0.3,0.6-0.3,0.8c-0.4,0.2-1.1,0.2-1.5-0.1
					c0,0-0.1,0-0.1-0.1c-3.1-2.2-5.9-4.4-8.7-6.8c-0.3-0.3-0.2-0.6,0.3-0.8C951,219.2,951.5,219.3,952,219.4z"/>
			</g>
			<g>
				<path d="M1233.9,87.4c-0.4-0.2-0.4-0.5-0.1-0.8c0.3-0.3,1-0.3,1.6-0.1c4,1.6,8,3.4,11.9,5.2c0,0,0,0,0.1,0
					c0.4,0.2,0.4,0.5,0,0.8c-0.4,0.3-1.1,0.3-1.6,0c-3.8-1.8-7.8-3.6-11.7-5.2C1234,87.5,1233.9,87.5,1233.9,87.4z"/>
			</g>
			<g>
				<path d="M970.1,232.4C970.1,232.5,970.2,232.5,970.1,232.4c3.2,1.9,6.5,3.7,9.9,5.6l0.6,0.3c0.4,0.3,0.4,0.6,0,0.8
					c-0.4,0.3-1.1,0.3-1.6,0l-0.6-0.3c-3.4-1.8-6.8-3.6-10-5.6c-0.4-0.3-0.3-0.6,0.1-0.8C969.1,232.2,969.7,232.2,970.1,232.4z"/>
			</g>
			<g>
				<path d="M1256.8,98.3c-0.4-0.3-0.4-0.6,0-0.8c0.4-0.3,1.1-0.3,1.6,0l10.9,5.7c0.4,0.3,0.4,0.6,0,0.8c-0.4,0.3-1.1,0.3-1.6,0
					L1256.8,98.3z"/>
			</g>
			<g>
				<path d="M990,244c0.4-0.3,1.1-0.3,1.6,0l10.9,5.7c0.4,0.3,0.4,0.6,0,0.8c-0.4,0.3-1.1,0.3-1.6,0l-10.9-5.7
					C989.6,244.6,989.6,244.2,990,244z"/>
			</g>
			<g>
				<path d="M1011.9,256.1c-0.4-0.3-0.4-0.6,0-0.8c0.4-0.3,1.1-0.3,1.6,0l10.9,5.7c0.4,0.3,0.4,0.6,0,0.8c-0.4,0.3-1.1,0.3-1.6,0
					L1011.9,256.1z"/>
			</g>
			<g>
				<path d="M1033.8,267.6c-0.4-0.3-0.4-0.6,0-0.8c0.4-0.3,1.1-0.3,1.6,0l10.6,5.6l0.3,0.2c0.4,0.3,0.4,0.6,0,0.8
					c-0.4,0.3-1.1,0.3-1.6,0l-0.3-0.2L1033.8,267.6z"/>
			</g>
			<g>
				<path d="M766.7,412.2l5.9,3.1c1.6,0.9,3.4,1.7,5.1,2.5c0.4,0.3,0.4,0.6,0.1,0.8c-0.4,0.3-1.1,0.3-1.6,0
					c-1.7-0.9-3.4-1.7-5.2-2.6l-5.9-3.1c-0.4-0.3-0.4-0.6,0-0.8C765.6,412,766.3,412,766.7,412.2z"/>
			</g>
			<g>
				<path d="M1055.2,279.1c-0.3-0.3-0.3-0.6,0.1-0.8c0.4-0.2,1.1-0.2,1.5,0h0.1c3.4,2.1,6.5,4.2,9.6,6.3c0.3,0.3,0.3,0.6-0.3,0.8
					c-0.4,0.2-1,0.2-1.5-0.1l-0.1-0.1C1061.7,283.3,1058.5,281.2,1055.2,279.1z"/>
			</g>
			<g>
				<path d="M787.8,423.2c0.3-0.3,1.1-0.3,1.6-0.1c4,1.6,8.2,3.2,12.4,4.7c0.1,0,0.1,0.1,0.2,0.1c0.3,0.2,0.4,0.5,0.2,0.7
					c-0.3,0.3-1,0.3-1.6,0.2c-4.3-1.5-8.4-3-12.6-4.8c0,0-0.1,0-0.1-0.1C787.6,423.7,787.5,423.4,787.8,423.2z"/>
			</g>
			<g>
				<path d="M1073.2,292.1c-0.3-0.3-0.2-0.6,0.3-0.8c0.4-0.2,1-0.1,1.4,0.1c0.1,0,0.1,0.1,0.2,0.1c2.7,2.3,5.2,4.7,7.5,7.1
					c0.3,0.3,0.1,0.6-0.4,0.8c-0.4,0.1-0.9,0.1-1.3-0.1c-0.1,0-0.2-0.1-0.2-0.2C1078.3,296.7,1075.9,294.4,1073.2,292.1z"/>
			</g>
			<g>
				<path d="M813.4,432.2c0.3-0.3,0.9-0.3,1.6-0.3c4.5,1.3,9,2.5,13.7,3.6c0.1,0,0.3,0.1,0.3,0.1c0.3,0.2,0.4,0.4,0.2,0.6
					c-0.3,0.3-0.9,0.4-1.5,0.3c-4.7-1.1-9.3-2.3-13.9-3.6c-0.1,0-0.2-0.1-0.3-0.1C813.2,432.7,813.2,432.5,813.4,432.2z"/>
			</g>
			<g>
				<path d="M1092.1,313.9c-1.6-2.5-3.3-5-5.2-7.5c-0.3-0.3,0.1-0.6,0.6-0.8c0.4-0.1,0.9,0,1.2,0.2c0.1,0.1,0.2,0.1,0.3,0.2
					c2,2.5,3.7,5,5.3,7.6c0.2,0.3-0.1,0.6-0.7,0.7c-0.4,0.1-0.8,0-1.1-0.2C1092.2,314.1,1092.1,314,1092.1,313.9z"/>
			</g>
			<g>
				<path d="M841.4,439c0.2-0.3,0.9-0.4,1.4-0.3c4.8,1,9.7,1.7,14.6,2.4c0.2,0,0.3,0.1,0.5,0.2c0.3,0.2,0.4,0.3,0.3,0.5
					c-0.2,0.3-0.8,0.5-1.4,0.4c-5-0.7-9.9-1.6-14.8-2.4c-0.2,0-0.3-0.1-0.4-0.2C841.4,439.4,841.2,439.1,841.4,439z"/>
			</g>
			<g>
				<path d="M1099,329.5c-0.8-2.6-1.7-5.3-2.8-7.9c-0.2-0.3,0.3-0.6,0.9-0.7c0.3-0.1,0.8,0,1,0.2c0.2,0.1,0.3,0.2,0.3,0.3
					c1.1,2.6,2.2,5.3,2.8,8c0.1,0.3-0.3,0.6-0.9,0.7c-0.3,0-0.7,0-0.9-0.2C1099.1,329.8,1099,329.6,1099,329.5z"/>
			</g>
			<g>
				<path d="M871.1,443.3c0.1-0.3,0.7-0.5,1.3-0.4c5,0.5,10.1,0.9,15.2,1.2c0.3,0,0.5,0.1,0.7,0.2c0.3,0.1,0.3,0.3,0.3,0.4
					c-0.1,0.3-0.6,0.5-1.2,0.5c-5.2-0.3-10.3-0.7-15.3-1.2c-0.3,0-0.4-0.1-0.6-0.2C871.2,443.7,871.1,443.5,871.1,443.3z"/>
			</g>
			<g>
				<path d="M1101.1,345.5c0.1-2.7-0.1-5.3-0.4-8c-0.1-0.3,0.4-0.6,1-0.6c0.3,0,0.6,0.1,0.9,0.2c0.2,0.1,0.3,0.3,0.3,0.3
					c0.3,2.7,0.5,5.4,0.4,8.1c0,0.3-0.5,0.6-1.1,0.6c-0.3,0-0.6-0.1-0.8-0.2C1101.3,345.7,1101.1,345.6,1101.1,345.5z"/>
			</g>
			<g>
				<path d="M902.9,444.6c5.1,0.1,10.3,0.1,15.3-0.1c0.3,0,0.6,0.1,0.9,0.2c0.2,0.1,0.3,0.3,0.3,0.3c0,0.3-0.4,0.6-1,0.6
					c-5.2,0.1-10.3,0.2-15.5,0.1c-0.3,0-0.6-0.1-0.8-0.2c-0.2-0.1-0.3-0.3-0.3-0.4C901.7,444.9,902.2,444.6,902.9,444.6z"/>
			</g>
			<g>
				<path d="M1098.4,361.3c0.9-2.6,1.5-5.3,1.9-7.9c0.1-0.3,0.6-0.5,1.2-0.5c0.3,0,0.5,0.1,0.7,0.2c0.3,0.1,0.3,0.3,0.3,0.4
					c-0.4,2.7-1.1,5.4-2,8.1c-0.1,0.3-0.7,0.5-1.3,0.4c-0.3,0-0.4-0.1-0.6-0.2C1098.5,361.8,1098.3,361.6,1098.4,361.3z"/>
			</g>
			<g>
				<path d="M932.5,444.5c-0.1-0.3,0.3-0.6,0.9-0.6c5.1-0.3,10.1-0.8,15.1-1.3c0.3,0,0.8,0,1,0.2c0.2,0.1,0.3,0.2,0.3,0.3
					c0.1,0.3-0.3,0.6-0.9,0.7c-5.1,0.5-10.2,1-15.2,1.3c-0.3,0-0.7,0-0.9-0.2C932.7,444.8,932.6,444.7,932.5,444.5z"/>
			</g>
			<g>
				<path d="M1091,376.9c1.6-2.5,3.1-5.1,4.3-7.6c0.2-0.3,0.8-0.5,1.3-0.4c0.2,0,0.3,0.1,0.5,0.2c0.3,0.2,0.4,0.3,0.3,0.5
					c-1.3,2.6-2.7,5.2-4.4,7.7c-0.2,0.3-0.8,0.4-1.4,0.3c-0.2,0-0.3-0.1-0.4-0.2C1091,377.3,1090.8,377.1,1091,376.9z"/>
			</g>
			<g>
				<path d="M962.7,441.4c-0.2-0.3,0.2-0.6,0.8-0.7c4.9-0.8,9.7-1.6,14.5-2.5c0.4-0.1,0.9,0,1.2,0.2c0.1,0.1,0.2,0.1,0.3,0.2
					c0.3,0.3-0.1,0.6-0.6,0.7c-4.8,1-9.7,1.8-14.6,2.6c-0.4,0.1-0.8,0-1.1-0.2C962.9,441.6,962.7,441.5,962.7,441.4z"/>
			</g>
			<g>
				<path d="M1079.1,392.2c-0.3-0.2-0.4-0.4-0.2-0.7c2.4-2.3,4.6-4.8,6.6-7.2c0.3-0.3,0.9-0.4,1.5-0.3c0.1,0,0.3,0.1,0.3,0.1
					c0.3,0.2,0.4,0.4,0.3,0.6c-2.1,2.4-4.2,4.9-6.7,7.3c-0.3,0.3-0.9,0.3-1.5,0.3C1079.3,392.3,1079.2,392.3,1079.1,392.2z"/>
			</g>
			<g>
				<path d="M992,435c4.6-1.1,9.1-2.3,13.5-3.7c0.4-0.2,1-0.1,1.4,0.1c0.1,0,0.1,0.1,0.2,0.1c0.3,0.3,0.1,0.6-0.4,0.8
					c-4.5,1.4-9,2.6-13.7,3.7c-0.4,0.1-0.9,0.1-1.2-0.1c-0.1-0.1-0.2-0.1-0.3-0.2C991.2,435.5,991.5,435.1,992,435z"/>
			</g>
			<g>
				<path d="M517.8,690.9c0.3,0.2,0.4,0.5,0.1,0.8c-3.1,2.2-6.3,4.2-9.8,6.2c-0.4,0.3-1.1,0.3-1.6,0.1l0,0c-0.4-0.3-0.4-0.6-0.1-0.8
					c3.4-2,6.6-4.1,9.6-6.2c0.3-0.3,1-0.3,1.6-0.1C517.7,690.9,517.8,690.9,517.8,690.9z"/>
			</g>
			<g>
				<path d="M1032.3,422.3c0.4,0.3,0.3,0.6-0.2,0.8c-4,1.7-8.2,3.3-12.4,4.9c-0.4,0.2-1,0.1-1.4-0.1l-0.1-0.1
					c-0.3-0.3-0.3-0.6,0.3-0.8c4.2-1.5,8.3-3.1,12.2-4.8C1031.1,422,1031.7,422,1032.3,422.3
					C1032.3,422.3,1032.3,422.3,1032.3,422.3z"/>
			</g>
			<g>
				<path d="M1062.7,405.7c-0.4-0.2-0.4-0.5-0.1-0.8c3.1-2.2,6-4.3,8.7-6.6c0.3-0.3,1-0.3,1.6-0.2c0.1,0,0.1,0.1,0.2,0.1
					c0.3,0.2,0.4,0.5,0.2,0.7c-2.8,2.3-5.7,4.5-8.8,6.6c-0.3,0.3-1,0.3-1.6,0.1C1062.7,405.8,1062.7,405.8,1062.7,405.7z"/>
			</g>
			<g>
				<path d="M1286.3,112.1c0.4,0.3,0.4,0.6,0,0.8c-0.4,0.3-1.1,0.3-1.6,0l-5.5-2.9c-0.4-0.3-0.4-0.6,0-0.8c0.4-0.3,1.1-0.3,1.6,0
					L1286.3,112.1z"/>
			</g>
		</g>
	</g>
	<g>
		<g class="st1">
			<g>
				<path class="st2" d="M239.1,682.2v8.2c0,4.4-3.3,8.8-9.7,12.3c-13,6.9-34.3,6.9-47.4,0c-6.6-3.5-9.9-8-9.9-12.5V682
					c0,4.5,3.3,9,9.9,12.5c13.1,6.9,34.4,6.9,47.4,0C235.8,691,239.1,686.6,239.1,682.2z"/>
					
			</g>
			<g>
				
					<ellipse transform="matrix(2.331568e-03 -1 1 2.331568e-03 -476.8917 886.1163)" class="st3" cx="205.6" cy="682.1" rx="17.5" ry="33.5"/>
			</g>
		</g>
	</g>
	<g>
		<g class="st1">
			<g>
				<path class="st2" d="M462.5,511.6v8.2c0,4.4-3.3,8.8-9.7,12.3c-13,6.9-34.3,6.9-47.4,0c-6.6-3.5-9.9-8-9.9-12.5v-8.2
					c0,4.5,3.3,9,9.9,12.5c13.1,6.9,34.4,6.9,47.4,0C459.2,520.5,462.5,516.1,462.5,511.6z"/>
					
			</g>
			<g>
				<path class="st3" d="M452.6,499.2c13.1,6.9,13.2,17.9,0.2,24.7c-13,6.9-34.3,6.9-47.4,0c-13.1-6.9-13.2-17.9-0.2-24.7
					C418.2,492.3,439.4,492.3,452.6,499.2z"/>
			</g>
		</g>
	</g>
	<g>
		<g class="st1">
			<g>
				<path class="st2" d="M767.8,390v8.2c0,4.4-3.3,8.8-9.7,12.3c-13,6.9-34.3,6.9-47.4,0c-6.6-3.5-9.9-8-9.9-12.5v-8.2
					c0,4.5,3.3,9,9.9,12.5c13.1,6.9,34.4,6.9,47.4,0C764.6,398.9,767.8,394.5,767.8,390z"/>
			</g>
			<g>
				
					<ellipse transform="matrix(2.331722e-03 -1 1 2.331722e-03 342.6357 1123.3647)" class="st3" cx="734.3" cy="390" rx="17.5" ry="33.5"/>
			</g>
		</g>
	</g>
	<g>
		<g class="st1">
			<g>
				<path class="st2" d="M1019.9,231.7v8.2c0,4.4-3.3,8.8-9.7,12.3c-13,6.9-34.3,6.9-47.4,0c-6.6-3.5-9.9-8-9.9-12.5v-8.2
					c0,4.5,3.3,9,9.9,12.5c13.1,6.9,34.4,6.9,47.4,0C1016.6,240.6,1019.9,236.2,1019.9,231.7z"/>
					
			</g>
			<g>
				
					<ellipse transform="matrix(2.331725e-03 -1 1 2.331725e-03 752.3888 1217.3363)" class="st3" cx="986.3" cy="231.6" rx="17.5" ry="33.5"/>
			</g>
		</g>
	</g>
	<g>
		<g>
			<g class="st1">
				<g>
					<path class="st4" d="M589.6,681.8l-0.1,18.3c0,9.8-7.2,19.6-21.5,27.1c-28.9,15.1-75.7,15.1-104.8,0
						c-14.6-7.6-21.9-17.5-21.9-27.5l0.1-18.3c0,10,7.2,19.9,21.9,27.5c29,15.1,75.9,15.1,104.8,0
						C582.4,701.4,589.6,691.6,589.6,681.8z"/>
				</g>
				<g>
					
						<ellipse transform="matrix(2.331681e-03 -1 1 2.331681e-03 -167.179 1195.5638)" class="st5" cx="515.6" cy="681.6" rx="38.7" ry="74.1"/>
				</g>
			</g>
		</g>
	
	
	
		<line class="st10" x1="516.1" y1="677.6" x2="642" y2="677.6"/>
		<path class="st10" d="M649,684c-3.9,0-7.1-2.9-7.1-6.3c0-3.5,3.2-6.3,7.1-6.3s7.1,2.9,7.1,6.3C656.1,681.1,652.9,684,649,684z"/>
	</g>
	<g>
		<g>
			<g class="st1">
				<g>
					<path class="st11" d="M480,355.6l-0.1,40.7c0,9.8-7.2,19.6-21.5,27.1c-28.9,15.1-75.7,15.1-104.8,0
						c-14.6-7.6-21.9-17.5-21.9-27.5l0.1-40.7c0,10,7.2,19.9,21.9,27.5c29,15.1,75.9,15.1,104.8,0C472.8,375.2,480,365.4,480,355.6z
						"/>
				</g>
				<g>
					
						<ellipse transform="matrix(2.331605e-03 -1 1 2.331605e-03 49.6411 760.5657)" class="st12" cx="406" cy="355.4" rx="38.7" ry="74.1"/>
				</g>
			</g>
		</g>
	
	
	
		<line class="st10" x1="404.9" y1="349.9" x2="276" y2="349.9"/>
		<path class="st10" d="M269,343.6c3.9,0,7.1,2.9,7.1,6.3s-3.2,6.3-7.1,6.3s-7.1-2.9-7.1-6.3S265,343.6,269,343.6z"/>
	</g>
	<g>
		<g>
			<g class="st1">
				<g>
					<path class="st13" d="M1136.8,355.3l-0.1,63.1c0,9.8-7.2,19.6-21.5,27.1c-28.9,15.1-75.7,15.1-104.8,0
						c-14.6-7.6-21.9-17.5-21.9-27.5l0.1-63.1c0,10,7.2,19.9,21.9,27.5c29,15.1,75.9,15.1,104.8,0
						C1129.6,374.9,1136.8,365.1,1136.8,355.3z"/>
				</g>
				<g>
					
						<ellipse transform="matrix(2.333753e-03 -1 1 2.333753e-03 705.2189 1416.9536)" class="st14" cx="1062.7" cy="355" rx="38.7" ry="74.1"/>
				</g>
			</g>
		</g>

		
		<line class="st10" x1="1056.5" y1="354.9" x2="1174.3" y2="354.9"/>
	 <path class="st10" d="M1181.4,361.3c-3.9,0-7.1-2.9-7.1-6.3c0-3.5,3.2-6.3,7.1-6.3c3.9,0,7.1,2.9,7.1,6.3
			C1188.5,358.4,1185.3,361.3,1181.4,361.3z"/> 
	</g>
	<g>
		<g>
			<g class="st1">
				<g>
					<path class="st16" d="M1024.8,50.9l-0.1,67.6c0,9.8-7.2,19.6-21.5,27.1c-28.9,15.1-75.7,15.1-104.8,0
						c-14.6-7.6-21.9-17.5-21.9-27.5l0.1-67.6c0,10,7.2,19.9,21.9,27.5c29,15.1,75.9,15.1,104.8,0
						C1017.6,70.5,1024.8,60.7,1024.8,50.9z"/>
				</g>
				<g class="floating-island">
					
						<ellipse transform="matrix(2.331688e-03 -1 1 2.331688e-03 897.8606 1001.3201)" class="st17" cx="950.8" cy="50.7" rx="38.7" ry="74.1"/>
				</g>
			</g>
		</g>
		
		
		<line class="st10" x1="948.3" y1="47" x2="744.4" y2="47"/>
		<path class="st10" d="M737.3,40.7c3.9,0,7.1,2.9,7.1,6.3s-3.2,6.3-7.1,6.3s-7.1-2.9-7.1-6.3C730.3,43.6,733.5,40.7,737.3,40.7z"/>
	</g>
	<path class="st10" d="M969.6,216"/>
	<g>
		<g>
			<path class="st21" d="M734.9,390c-0.4,0-0.8-0.2-1-0.5c-0.3-0.5-0.3-1.2,0.3-1.6l225.1-132.4c0.6-0.3,1.4-0.2,1.7,0.3
				c0.3,0.5,0.3,1.2-0.3,1.6L735.6,389.8C735.4,389.9,735.2,390,734.9,390z"/>
		</g>
		<g>
			<path class="st21" d="M944.6,288.7c-0.2,0-0.3,0-0.5-0.1c-0.6-0.3-0.9-1-0.6-1.5L958,258l-51.1,11c-0.7,0.2-1.4-0.3-1.5-0.9
				c-0.2-0.6,0.3-1.2,0.9-1.4l53.6-11.5c0.4-0.1,0.9,0.1,1.2,0.3c0.3,0.3,0.3,0.8,0.2,1.2l-15.5,31.3
				C945.6,288.5,945.1,288.7,944.6,288.7z"/>
		</g>
	</g>
</g>
</svg>
