<?xml version="1.0" encoding="utf-8"?>
<!-- Generator: Adobe Illustrator 22.1.0, SVG Export Plug-In . SVG Version: 6.00 Build 0)  -->
<svg version="1.1" id="Layer_1" xmlns="http://www.w3.org/2000/svg" xmlns:xlink="http://www.w3.org/1999/xlink" x="0px" y="0px"
	 viewBox="0 0 1366 875" style="enable-background:new 0 0 1366 875;" xml:space="preserve">
<style type="text/css">
	.st0{fill:#CAE1E5;}
	.st1{enable-background:new    ;}
	.st2{fill:#93BEC4;stroke:#32303D;stroke-linecap:round;stroke-linejoin:round;stroke-miterlimit:10;}
	.st3{fill:#CAE1E5;stroke:#32303D;stroke-linecap:round;stroke-linejoin:round;stroke-miterlimit:10;}
	.st4{fill:none;stroke:#32303D;stroke-linecap:round;stroke-linejoin:round;stroke-miterlimit:10;}
	.st5{fill:#32303D;}
</style>
<g>
	<g>
		<g>
			<path class="st0" d="M1324.8,139.6L1324.8,139.6c-5.1,2.7-11.4,2.7-16.5,0l-30-15.5c-79-40.8-207.2-40.8-285.7,0
				s-78.1,107.3,0.9,148.1l76.6,39.6c97.3,50.2,97.8,132,1.1,182.2c-96.6,50.2-254.3,50.2-351.6,0L643,454.4
				c-79-40.8-207.2-40.8-285.7,0s-78.1,107.3,0.9,148.1l76.6,39.6c97.3,50.2,97.8,132,1.1,182.2c-96.6,50.2-254.3,50.2-351.6,0
				l-13.7-7.1c-11-5.7-11-19.8,0-25.5l0,0c5.1-2.7,11.4-2.7,16.5,0l30,15.5c79.1,40.8,207.2,40.8,285.7,0s78.1-107.3-0.9-148.1
				l-76.6-39.6c-97.3-50.2-97.8-132-1.1-182.2c96.6-50.2,254.3-50.2,351.6,0l76.6,39.6c79.1,40.8,207.2,40.8,285.7,0
				s78.1-107.3-0.9-148.1l-76.6-39.6c-97.3-50.2-97.8-132-1.1-182.2c96.6-50.2,254.3-50.2,351.6,0l13.7,7.1
				C1335.7,119.7,1335.7,133.9,1324.8,139.6z"/>
		</g>
		<g>
			<g>
				<path d="M67.7,798.4c0.5,0.3,0.5,0.7,0,0.9c-0.5,0.3-1.3,0.3-1.8,0l-6.4-3.3c-0.5-0.3-0.5-0.7,0-0.9c0.5-0.3,1.3-0.3,1.8,0
					L67.7,798.4z"/>
			</g>
			<g>
				<path d="M1061.2,481.1c-2.8,1.6-5.8,3.3-8.8,4.8c-1.2,0.6-2.4,1.2-3.7,1.9c-0.5,0.2-1.3,0.2-1.8,0c-0.5-0.3-0.5-0.7,0-1
					c1.2-0.6,2.4-1.2,3.6-1.8c3-1.6,5.9-3.2,8.7-4.8c0.5-0.3,1.3-0.3,1.8,0c0,0,0,0,0.1,0C1061.6,480.4,1061.7,480.8,1061.2,481.1z"
					/>
			</g>
			<g>
				<path d="M414.6,816.6c0.5,0.3,0.5,0.7,0,0.9c-4.3,2.2-8.8,4.2-13.4,6.2c-0.5,0.2-1.3,0.2-1.7,0h-0.1c-0.5-0.3-0.4-0.7,0.2-0.9
					c4.5-1.9,9-4,13.3-6.1C413.4,816.3,414.2,816.3,414.6,816.6z"/>
			</g>
			<g>
				<path d="M387.2,828.4c0.4,0.3,0.3,0.7-0.3,0.9c-5,1.8-10,3.4-15.2,5c-0.5,0.2-1.1,0.1-1.5-0.1c-0.1,0-0.2-0.1-0.2-0.1
					c-0.4-0.3-0.2-0.7,0.5-0.9c5.1-1.5,10.1-3.2,15-4.9c0.5-0.2,1.2-0.1,1.6,0.1C387.1,828.3,387.2,828.3,387.2,828.4z"/>
			</g>
			<g>
				<path d="M446.6,796c-0.4-0.2-0.5-0.6-0.2-0.8c3.2-2.6,6.1-5.3,8.9-8c0.3-0.3,1.1-0.4,1.7-0.3c0.1,0,0.2,0.1,0.3,0.1
					c0.4,0.2,0.5,0.5,0.2,0.8c-2.8,2.7-5.8,5.4-9,8.1c-0.4,0.3-1.2,0.4-1.8,0.2C446.8,796.1,446.7,796,446.6,796z"/>
			</g>
			<g>
				<path d="M356.4,837.8c0.3,0.3,0,0.7-0.6,0.9c-5.4,1.3-10.9,2.6-16.5,3.7c-0.5,0.1-1,0-1.4-0.1c-0.1-0.1-0.2-0.1-0.3-0.2
					c-0.2-0.3,0.1-0.7,0.7-0.9c5.5-1.1,11-2.3,16.3-3.6c0.5-0.1,1.1-0.1,1.5,0.1C356.3,837.6,356.4,837.7,356.4,837.8z"/>
			</g>
			<g>
				<path d="M463.3,779.6c-0.4-0.2-0.5-0.5-0.3-0.7c2.3-2.8,4.4-5.7,6.3-8.6c0.2-0.3,1-0.5,1.6-0.4c0.2,0,0.4,0.1,0.5,0.2
					c0.3,0.2,0.5,0.4,0.3,0.7c-1.9,2.9-4,5.8-6.4,8.7c-0.3,0.3-1,0.5-1.7,0.3C463.5,779.7,463.4,779.7,463.3,779.6z"/>
			</g>
			<g>
				<path d="M322.8,844.2c0.1,0.1,0.3,0.2,0.3,0.3c0.2,0.3-0.2,0.7-0.9,0.8c-5.8,0.9-11.6,1.6-17.4,2.3c-0.4,0-0.9,0-1.2-0.2
					c-0.2-0.1-0.3-0.2-0.4-0.3c-0.2-0.4,0.3-0.7,1-0.8c5.8-0.6,11.5-1.4,17.2-2.2C322,843.9,322.5,844,322.8,844.2z"/>
			</g>
			<g>
				<path d="M474.6,762.1c-0.3-0.2-0.5-0.4-0.3-0.6c1.4-3,2.6-6,3.6-9c0.1-0.4,0.8-0.6,1.5-0.5c0.3,0,0.5,0.1,0.7,0.2
					c0.3,0.1,0.4,0.4,0.4,0.6c-1,3.1-2.2,6.1-3.6,9.1c-0.2,0.4-0.9,0.6-1.5,0.5C474.9,762.2,474.7,762.1,474.6,762.1z"/>
			</g>
			<g>
				<path d="M287.9,848c0.2,0.1,0.3,0.2,0.4,0.4c0.1,0.4-0.4,0.7-1.1,0.7c-6,0.4-11.9,0.7-17.9,0.8c-0.4,0-0.7-0.1-1-0.2
					c-0.2-0.1-0.4-0.3-0.4-0.4c0-0.4,0.5-0.7,1.2-0.7c5.9-0.2,11.8-0.4,17.7-0.8C287.2,847.7,287.6,847.8,287.9,848z"/>
			</g>
			<g>
				<path d="M480.4,743.8c-0.3-0.1-0.4-0.3-0.4-0.5c0.5-3.1,0.8-6.1,0.8-9.2c0-0.4,0.6-0.7,1.3-0.7c0.3,0,0.7,0.1,0.9,0.2
					c0.2,0.1,0.4,0.3,0.4,0.5c0,3.1-0.3,6.2-0.8,9.3c0,0.4-0.7,0.6-1.4,0.6C480.9,744,480.6,743.9,480.4,743.8z"/>
			</g>
			<g>
				<path d="M252.2,848.9c0.2,0.1,0.4,0.3,0.4,0.5c0,0.4-0.6,0.7-1.3,0.6c-6-0.1-12-0.3-18-0.6c-0.3,0-0.6-0.1-0.8-0.2
					c-0.3-0.1-0.4-0.3-0.4-0.5c0.1-0.4,0.7-0.6,1.4-0.6c5.9,0.3,11.8,0.5,17.8,0.6C251.6,848.7,251.9,848.7,252.2,848.9z"/>
			</g>
			<g>
				<path d="M480.6,725.2c-0.2-0.1-0.3-0.3-0.4-0.4c-0.4-3.1-1.1-6.1-2-9.2c-0.1-0.4,0.4-0.7,1.1-0.8c0.4,0,0.8,0,1.1,0.2
					c0.2,0.1,0.3,0.2,0.4,0.4c0.9,3.1,1.6,6.2,2,9.3c0.1,0.4-0.5,0.7-1.2,0.7C481.3,725.4,480.9,725.4,480.6,725.2z"/>
			</g>
			<g>
				<path d="M216.6,846.9c0.3,0.2,0.4,0.4,0.4,0.6c-0.1,0.4-0.8,0.6-1.5,0.5c-5.9-0.6-11.7-1.3-17.5-2.1c-0.2,0-0.4-0.1-0.6-0.2
					c-0.3-0.2-0.5-0.4-0.3-0.6c0.2-0.3,0.9-0.6,1.6-0.5c5.7,0.8,11.5,1.5,17.3,2.1C216.2,846.7,216.4,846.8,216.6,846.9z"/>
			</g>
			<g>
				<path d="M475.3,706.9c-0.2-0.1-0.3-0.2-0.4-0.3c-1.4-3-2.9-6-4.7-8.9c-0.2-0.4,0.2-0.7,0.8-0.8c0.5-0.1,1,0,1.3,0.2
					c0.1,0.1,0.3,0.2,0.3,0.3c1.8,3,3.4,6,4.8,9c0.2,0.4-0.3,0.7-1,0.8C476,707.1,475.6,707.1,475.3,706.9z"/>
			</g>
			<g>
				<path d="M182.1,842c0.3,0.2,0.5,0.4,0.3,0.7s-1,0.5-1.6,0.4c-5.6-1-11.2-2.2-16.7-3.5c-0.1,0-0.3-0.1-0.4-0.1
					c-0.4-0.2-0.5-0.5-0.3-0.7c0.3-0.3,1.1-0.5,1.7-0.3c5.4,1.3,10.9,2.4,16.5,3.5C181.8,841.8,181.9,841.9,182.1,842z"/>
			</g>
			<g>
				<path d="M464.4,689.2c-0.1-0.1-0.2-0.1-0.3-0.2c-2.3-2.8-4.7-5.6-7.4-8.4c-0.3-0.3-0.1-0.7,0.6-0.9c0.5-0.1,1.1-0.1,1.5,0.1
					c0.1,0,0.2,0.1,0.2,0.2c2.7,2.8,5.2,5.6,7.5,8.5c0.3,0.3,0,0.7-0.7,0.9C465.3,689.5,464.8,689.4,464.4,689.2z"/>
			</g>
			<g>
				<path d="M149.4,834.3c0.4,0.2,0.5,0.5,0.2,0.8c-0.4,0.3-1.1,0.4-1.7,0.3c-5.2-1.5-10.4-3.1-15.4-4.8c-0.1,0-0.1-0.1-0.2-0.1
					c-0.4-0.2-0.5-0.6-0.2-0.8c0.4-0.3,1.2-0.4,1.8-0.2c5,1.7,10.1,3.3,15.2,4.8C149.2,834.2,149.3,834.3,149.4,834.3z"/>
			</g>
			<g>
				<path d="M448.3,672.7c-0.1,0-0.1-0.1-0.2-0.1c-3.1-2.6-6.4-5.2-9.9-7.7c-0.4-0.3-0.3-0.7,0.3-0.9c0.5-0.2,1.2-0.2,1.7,0.1
					l0.1,0.1c3.5,2.5,6.9,5.1,10,7.8c0.4,0.3,0.2,0.7-0.4,0.9C449.3,673,448.7,672.9,448.3,672.7z"/>
			</g>
			<g>
				<path d="M119.6,824c0.5,0.2,0.5,0.6,0.1,0.9c-0.4,0.3-1.2,0.3-1.8,0.1c-4.7-1.9-9.3-3.9-13.7-6.1c-0.5-0.3-0.5-0.7-0.1-0.9
					c0.5-0.3,1.3-0.3,1.8,0C110.3,820.1,114.8,822.1,119.6,824C119.5,824,119.5,824,119.6,824z"/>
			</g>
			<g>
				<path d="M427.2,657.7C427.2,657.7,427.2,657.6,427.2,657.7c-3.9-2.4-7.9-4.6-12.2-6.8c-0.5-0.3-0.5-0.7,0-0.9
					c0.5-0.3,1.3-0.3,1.8,0c4.3,2.2,8.4,4.5,12.2,6.9c0.5,0.3,0.4,0.7-0.1,0.9C428.5,657.9,427.7,657.9,427.2,657.7z"/>
			</g>
			<g>
				<path d="M93.1,811.5c0.5,0.3,0.5,0.7,0,0.9c-0.5,0.3-1.3,0.3-1.8,0l-12.7-6.6c-0.5-0.3-0.5-0.7,0-0.9c0.5-0.3,1.3-0.3,1.8,0
					L93.1,811.5z"/>
			</g>
			<g>
				<path d="M404.2,644.3c-0.5,0.3-1.3,0.3-1.8,0l-12.7-6.6c-0.5-0.3-0.5-0.7,0-0.9c0.5-0.3,1.3-0.3,1.8,0l12.7,6.6
					C404.7,643.6,404.7,644,404.2,644.3z"/>
			</g>
			<g>
				<path d="M714.5,475.8c-0.5,0.3-1.3,0.3-1.8,0l-12.7-6.6c-0.5-0.3-0.5-0.7,0-0.9c0.5-0.3,1.3-0.3,1.8,0l12.7,6.6
					C715,475.1,715,475.5,714.5,475.8z"/>
			</g>
			<g>
				<path d="M378.8,630.2c0.5,0.3,0.5,0.7,0,0.9c-0.5,0.3-1.3,0.3-1.8,0l-0.2-0.1l-12.5-6.5c-0.5-0.3-0.5-0.7,0-0.9
					c0.5-0.3,1.3-0.3,1.8,0l12.5,6.5L378.8,630.2z"/>
			</g>
			<g>
				<path d="M689.2,462.7c-0.5,0.3-1.3,0.3-1.8,0l-12.7-6.6c-0.5-0.3-0.5-0.7,0-0.9c0.5-0.3,1.3-0.3,1.8,0l12.7,6.6
					C689.6,462,689.6,462.4,689.2,462.7z"/>
			</g>
			<g>
				<path d="M353.4,617.1c0.5,0.3,0.5,0.7,0,0.9c-0.5,0.3-1.3,0.3-1.8,0l-12.7-6.6c-0.5-0.3-0.5-0.7,0-0.9c0.5-0.3,1.3-0.3,1.8,0
					L353.4,617.1z"/>
			</g>
			<g>
				<path d="M661.9,449.5l-6.2-3.2c-2.2-1.1-4.4-2.2-6.6-3.3c-0.5-0.3-0.5-0.7-0.1-0.9c0.5-0.3,1.3-0.3,1.8,0
					c2.3,1.1,4.5,2.2,6.7,3.3l6.2,3.2c0.5,0.3,0.5,0.7,0,0.9C663.3,449.8,662.4,449.8,661.9,449.5z"/>
			</g>
			<g>
				<path d="M328.6,603.8c0.4,0.3,0.4,0.7-0.1,0.9s-1.3,0.2-1.7,0h-0.1c-3.9-2.4-7.7-4.8-11.2-7.3c-0.4-0.3-0.3-0.7,0.3-0.9
					c0.5-0.2,1.2-0.2,1.7,0.1c0,0,0.1,0,0.1,0.1C321,599,324.6,601.5,328.6,603.8z"/>
			</g>
			<g>
				<path d="M637.4,437c-0.4,0.3-1.2,0.3-1.8,0.1c-4.7-1.9-9.5-3.7-14.5-5.4c-0.1,0-0.2-0.1-0.2-0.1c-0.4-0.2-0.5-0.6-0.1-0.8
					c0.4-0.3,1.2-0.4,1.8-0.2c5,1.7,9.9,3.5,14.6,5.4c0,0,0.1,0,0.1,0.1C637.7,436.3,637.8,436.7,637.4,437z"/>
			</g>
			<g>
				<path d="M307.6,588.9c0.4,0.3,0.2,0.7-0.4,0.9c-0.5,0.2-1.2,0.1-1.6-0.1c-0.1,0-0.1-0.1-0.2-0.1c-3.2-2.7-6.1-5.4-8.8-8.2
					c-0.3-0.3-0.1-0.7,0.6-0.9c0.5-0.1,1.1-0.1,1.5,0.1c0.1,0.1,0.2,0.1,0.2,0.2C301.6,583.6,304.5,586.3,307.6,588.9z"/>
			</g>
			<g>
				<path d="M607.6,426.7c-0.3,0.3-1.1,0.4-1.7,0.3c-5.2-1.5-10.5-2.9-16-4.1c-0.1,0-0.3-0.1-0.4-0.1c-0.4-0.2-0.5-0.5-0.3-0.7
					c0.3-0.3,1-0.5,1.7-0.3c5.5,1.3,10.8,2.7,16.1,4.2c0.1,0,0.2,0.1,0.3,0.1C607.8,426.1,607.9,426.4,607.6,426.7z"/>
			</g>
			<g>
				<path d="M285.3,563.8c1.8,2.9,3.8,5.8,6.1,8.7c0.3,0.3,0,0.7-0.7,0.9c-0.5,0.1-1.1,0-1.4-0.2c-0.1-0.1-0.2-0.1-0.3-0.2
					c-2.3-2.9-4.3-5.8-6.2-8.8c-0.2-0.4,0.2-0.7,0.8-0.8c0.5-0.1,1,0,1.3,0.2C285.2,563.6,285.3,563.7,285.3,563.8z"/>
			</g>
			<g>
				<path d="M575.1,419c-0.2,0.3-1,0.5-1.6,0.4c-5.6-1-11.3-2-17-2.8c-0.2,0-0.4-0.1-0.6-0.2c-0.3-0.2-0.5-0.4-0.3-0.6
					c0.2-0.4,0.9-0.6,1.6-0.5c5.8,0.8,11.5,1.7,17.2,2.8c0.2,0,0.4,0.1,0.5,0.2C575.1,418.4,575.2,418.7,575.1,419z"/>
			</g>
			<g>
				<path d="M277.2,545.8c0.9,3,2,6.1,3.4,9.1c0.2,0.4-0.3,0.7-1,0.8c-0.4,0.1-0.9,0-1.2-0.2c-0.2-0.1-0.3-0.2-0.3-0.3
					c-1.4-3-2.5-6.1-3.4-9.2c-0.1-0.4,0.4-0.7,1.1-0.8c0.4,0,0.8,0,1.1,0.2C277,545.5,277.1,545.7,277.2,545.8z"/>
			</g>
			<g>
				<path d="M540.6,414c-0.1,0.4-0.8,0.6-1.5,0.5c-5.9-0.6-11.7-1-17.6-1.3c-0.3,0-0.6-0.1-0.8-0.2c-0.3-0.1-0.4-0.3-0.4-0.5
					c0.1-0.4,0.7-0.6,1.4-0.6c6,0.3,11.9,0.8,17.8,1.4c0.3,0,0.5,0.1,0.7,0.2C540.5,413.6,540.7,413.8,540.6,414z"/>
			</g>
			<g>
				<path d="M274.6,527.4c0,3.1,0.2,6.2,0.6,9.2c0,0.4-0.5,0.7-1.2,0.7c-0.4,0-0.7-0.1-1-0.2c-0.2-0.1-0.4-0.3-0.4-0.4
					c-0.4-3.1-0.7-6.2-0.6-9.3c0-0.4,0.6-0.7,1.3-0.7c0.4,0,0.7,0.1,0.9,0.2C274.4,527.1,274.6,527.2,274.6,527.4z"/>
			</g>
			<g>
				<path d="M503.7,412.6c-5.9-0.1-11.9-0.1-17.8,0.1c-0.4,0-0.7-0.1-1-0.2c-0.2-0.1-0.4-0.3-0.4-0.4c0-0.4,0.5-0.7,1.2-0.7
					c6-0.2,12-0.2,18-0.1c0.3,0,0.7,0.1,0.9,0.2c0.2,0.1,0.4,0.3,0.4,0.5C505,412.3,504.4,412.6,503.7,412.6z"/>
			</g>
			<g>
				<path d="M277.5,509.1c-0.9,3-1.7,6.1-2.2,9.2c-0.1,0.4-0.7,0.6-1.4,0.6c-0.3,0-0.6-0.1-0.8-0.2c-0.3-0.1-0.4-0.3-0.4-0.5
					c0.5-3.1,1.2-6.2,2.2-9.3c0.1-0.4,0.8-0.6,1.5-0.5c0.3,0,0.5,0.1,0.7,0.2C277.5,508.6,277.6,508.8,277.5,509.1z"/>
			</g>
			<g>
				<path d="M469.3,412.8c0.1,0.4-0.4,0.7-1.1,0.7c-5.9,0.4-11.7,0.9-17.5,1.5c-0.4,0-0.9,0-1.2-0.2c-0.2-0.1-0.3-0.2-0.4-0.3
					c-0.1-0.4,0.3-0.7,1-0.8c5.9-0.6,11.8-1.2,17.7-1.6c0.4,0,0.8,0,1.1,0.2C469.1,412.5,469.3,412.6,469.3,412.8z"/>
			</g>
			<g>
				<path d="M286,491.2c-1.9,2.9-3.5,5.9-4.9,8.9c-0.2,0.3-0.9,0.6-1.5,0.5c-0.2,0-0.4-0.1-0.6-0.2c-0.3-0.2-0.5-0.4-0.3-0.6
					c1.4-3,3.1-6,5-8.9c0.2-0.3,0.9-0.5,1.6-0.4c0.2,0,0.4,0.1,0.5,0.2C286,490.7,286.2,490.9,286,491.2z"/>
			</g>
			<g>
				<path d="M434.3,416.5c0.2,0.4-0.2,0.7-0.9,0.8c-5.7,0.9-11.3,1.9-16.8,3c-0.5,0.1-1,0-1.4-0.2c-0.1-0.1-0.2-0.1-0.3-0.2
					c-0.3-0.3,0.1-0.7,0.7-0.9c5.6-1.1,11.3-2.1,17-3c0.5-0.1,1,0,1.3,0.2C434.1,416.3,434.2,416.4,434.3,416.5z"/>
			</g>
			<g>
				<path d="M299.6,473.5c0.4,0.2,0.5,0.5,0.2,0.8c-2.7,2.7-5.3,5.5-7.6,8.3c-0.3,0.3-1,0.5-1.7,0.3c-0.2,0-0.3-0.1-0.4-0.1
					c-0.4-0.2-0.5-0.5-0.3-0.7c2.3-2.9,4.9-5.7,7.6-8.4c0.3-0.3,1.1-0.4,1.7-0.3C299.4,473.4,299.5,473.4,299.6,473.5z"/>
			</g>
			<g>
				<path d="M400.9,423c0.3,0.3,0.1,0.7-0.6,0.9c-5.3,1.3-10.5,2.8-15.7,4.3c-0.5,0.1-1.1,0.1-1.5-0.1c-0.1,0-0.1-0.1-0.2-0.1
					c-0.4-0.3-0.2-0.7,0.4-0.9c5.2-1.6,10.5-3,15.9-4.4c0.5-0.1,1.1-0.1,1.5,0.1C400.7,422.9,400.8,423,400.9,423z"/>
			</g>
			<g>
				<path d="M318.6,457.8c0.5,0.2,0.5,0.6,0.1,0.9c-3.6,2.5-6.9,5-10.1,7.6c-0.4,0.3-1.2,0.4-1.8,0.2c-0.1,0-0.1-0.1-0.2-0.1
					c-0.4-0.2-0.5-0.6-0.2-0.8c3.2-2.6,6.6-5.2,10.2-7.7c0.4-0.3,1.2-0.4,1.8-0.1C318.5,457.8,318.6,457.8,318.6,457.8z"/>
			</g>
			<g>
				<path d="M329.9,451.5c-0.5,0.3-1.3,0.3-1.8,0c0,0,0,0-0.1,0c-0.5-0.2-0.5-0.6-0.1-0.9c3-1.8,6.2-3.5,9.5-5.2c1-0.5,2-1,2.9-1.5
					c0.5-0.3,1.3-0.2,1.8,0c0.5,0.3,0.5,0.7,0,0.9c-1,0.5-1.9,1-2.9,1.5C336.1,448.1,332.9,449.8,329.9,451.5z"/>
			</g>
			<g>
				<path d="M974.5,115.1c-0.5-0.3-0.5-0.7,0-1c4.3-2.2,8.8-4.2,13.4-6.2c0.5-0.2,1.3-0.2,1.7,0h0.1c0.5,0.3,0.4,0.7-0.2,0.9
					c-4.5,1.9-8.9,4-13.2,6.1C975.8,115.4,975,115.4,974.5,115.1z"/>
			</g>
			<g>
				<path d="M1001.9,103.3c-0.4-0.3-0.3-0.7,0.3-0.9c4.9-1.8,10-3.5,15.1-5c0.5-0.2,1.2-0.1,1.6,0.1c0.1,0,0.1,0.1,0.2,0.1
					c0.4,0.3,0.2,0.7-0.5,0.9c-5.1,1.5-10.1,3.2-14.9,5c-0.5,0.2-1.2,0.1-1.6-0.1C1001.9,103.3,1001.9,103.3,1001.9,103.3z"/>
			</g>
			<g>
				<path d="M932,144.7c-0.4-0.2-0.5-0.5-0.2-0.8c2.8-2.7,5.7-5.4,8.9-8.1c0.4-0.3,1.2-0.4,1.8-0.2c0.1,0,0.2,0.1,0.2,0.1
					c0.4,0.2,0.5,0.6,0.2,0.8c-3.1,2.6-6.1,5.3-8.8,8c-0.3,0.3-1.1,0.4-1.7,0.3C932.2,144.8,932.1,144.8,932,144.7z"/>
			</g>
			<g>
				<path d="M951,129c-0.4-0.2-0.5-0.6-0.1-0.9c3.6-2.5,7.3-4.9,11.3-7.2c0.5-0.3,1.3-0.3,1.8-0.1c0,0,0,0,0.1,0
					c0.5,0.2,0.5,0.6,0.1,0.9c-4,2.3-7.7,4.7-11.2,7.2c-0.4,0.3-1.2,0.4-1.8,0.1C951.1,129.1,951,129.1,951,129z"/>
			</g>
			<g>
				<path d="M353.7,438.7c-0.5-0.3-0.4-0.7,0.2-0.9c4.7-2,9.4-3.9,14.3-5.6c0.5-0.2,1.2-0.2,1.6,0.1c0.1,0,0.1,0.1,0.2,0.1
					c0.4,0.3,0.3,0.7-0.3,0.9c-4.8,1.7-9.5,3.6-14.1,5.6C354.9,439,354.2,438.9,353.7,438.7L353.7,438.7z"/>
			</g>
			<g>
				<path d="M1032.5,93.8c-0.3-0.3,0-0.7,0.6-0.9c5.4-1.4,10.9-2.6,16.5-3.7c0.5-0.1,1,0,1.4,0.2c0.1,0.1,0.2,0.1,0.3,0.2
					c0.3,0.3-0.1,0.7-0.7,0.9c-5.5,1.1-11,2.3-16.3,3.7c-0.5,0.1-1.1,0.1-1.5-0.1C1032.7,93.9,1032.6,93.9,1032.5,93.8z"/>
			</g>
			<g>
				<path d="M926.3,152.2c0.4,0.2,0.5,0.5,0.3,0.7c-2.3,2.8-4.4,5.7-6.2,8.6c-0.2,0.3-0.9,0.5-1.6,0.4c-0.2,0-0.4-0.1-0.5-0.2
					c-0.3-0.2-0.5-0.4-0.3-0.7c1.9-2.9,4-5.8,6.3-8.7c0.3-0.3,1-0.5,1.7-0.3C926,152.1,926.2,152.1,926.3,152.2z"/>
			</g>
			<g>
				<path d="M1066.1,87.3c-0.1-0.1-0.3-0.2-0.3-0.3c-0.2-0.3,0.2-0.7,0.8-0.8c5.8-0.9,11.6-1.7,17.4-2.3c0.4,0,0.9,0,1.2,0.2
					c0.2,0.1,0.3,0.2,0.4,0.3c0.1,0.4-0.3,0.7-1,0.8c-5.8,0.6-11.5,1.4-17.2,2.3C1066.9,87.5,1066.5,87.5,1066.1,87.3z"/>
			</g>
			<g>
				<path d="M915.1,169.7c0.3,0.2,0.5,0.4,0.4,0.6c-1.4,3-2.6,6-3.5,9c-0.1,0.4-0.8,0.6-1.5,0.5c-0.3,0-0.5-0.1-0.7-0.2
					c-0.3-0.1-0.4-0.4-0.4-0.6c0.9-3.1,2.1-6.1,3.5-9.1c0.2-0.4,0.9-0.6,1.6-0.5C914.7,169.6,914.9,169.7,915.1,169.7z"/>
			</g>
			<g>
				<path d="M1101.1,83.4c-0.2-0.1-0.3-0.2-0.4-0.4c-0.1-0.4,0.4-0.7,1.1-0.7c5.9-0.4,11.9-0.7,17.9-0.9c0.4,0,0.7,0.1,1,0.2
					c0.2,0.1,0.4,0.3,0.4,0.4c0,0.4-0.5,0.7-1.2,0.7c-5.9,0.2-11.8,0.4-17.7,0.8C1101.7,83.6,1101.4,83.6,1101.1,83.4z"/>
			</g>
			<g>
				<path d="M909.4,188c0.3,0.1,0.4,0.3,0.4,0.5c-0.5,3.1-0.7,6.1-0.7,9.2c0,0.4-0.6,0.7-1.3,0.7c-0.4,0-0.7-0.1-0.9-0.2
					c-0.2-0.1-0.4-0.3-0.4-0.5c0-3.1,0.3-6.2,0.8-9.3c0-0.4,0.7-0.6,1.4-0.6C908.9,187.8,909.2,187.9,909.4,188z"/>
			</g>
			<g>
				<path d="M1136.8,82.4c-0.2-0.1-0.4-0.3-0.4-0.5c0-0.4,0.6-0.7,1.3-0.6c6,0.1,12,0.3,18,0.6c0.3,0,0.6,0.1,0.8,0.2
					c0.3,0.1,0.4,0.3,0.4,0.5c0,0.4-0.7,0.6-1.4,0.6c-5.9-0.3-11.8-0.5-17.7-0.6C1137.3,82.6,1137,82.6,1136.8,82.4z"/>
			</g>
			<g>
				<path d="M909.3,206.6c0.2,0.1,0.4,0.3,0.4,0.4c0.4,3.1,1.1,6.1,2,9.2c0.1,0.4-0.4,0.7-1.1,0.8c-0.4,0-0.8,0-1.1-0.2
					c-0.2-0.1-0.3-0.2-0.4-0.4c-0.9-3.1-1.6-6.2-2.1-9.3c-0.1-0.4,0.5-0.7,1.2-0.7C908.7,206.4,909.1,206.4,909.3,206.6z"/>
			</g>
			<g>
				<path d="M1172.4,84.4c-0.3-0.2-0.4-0.4-0.4-0.6c0.1-0.4,0.8-0.6,1.5-0.5c5.9,0.6,11.7,1.2,17.6,2.1c0.2,0,0.4,0.1,0.6,0.2
					c0.3,0.2,0.5,0.4,0.3,0.6c-0.2,0.4-0.9,0.6-1.6,0.5c-5.7-0.8-11.5-1.5-17.3-2C1172.8,84.5,1172.5,84.5,1172.4,84.4z"/>
			</g>
			<g>
				<path d="M914.8,224.9c0.2,0.1,0.3,0.2,0.3,0.3c1.4,3,3,6,4.8,8.9c0.2,0.4-0.2,0.7-0.8,0.8c-0.5,0.1-1,0-1.3-0.2
					c-0.1-0.1-0.3-0.2-0.3-0.3c-1.8-3-3.5-6-4.9-9c-0.1-0.4,0.3-0.7,1-0.8C914.1,224.7,914.5,224.7,914.8,224.9z"/>
			</g>
			<g>
				<path d="M1206.9,89.2c-0.3-0.2-0.5-0.4-0.3-0.7c0.2-0.3,0.9-0.5,1.6-0.4c5.6,1,11.2,2.2,16.7,3.5c0.1,0,0.3,0.1,0.4,0.1
					c0.4,0.2,0.5,0.5,0.3,0.7c-0.3,0.3-1.1,0.5-1.7,0.3c-5.4-1.3-10.9-2.4-16.5-3.4C1207.2,89.3,1207.1,89.2,1206.9,89.2z"/>
			</g>
			<g>
				<path d="M925.8,242.5c0.1,0.1,0.2,0.1,0.3,0.2c2.3,2.8,4.8,5.6,7.5,8.4c0.3,0.3,0.1,0.7-0.6,0.9c-0.5,0.1-1.1,0.1-1.5-0.1
					c-0.1-0.1-0.2-0.1-0.2-0.2c-2.7-2.8-5.3-5.6-7.6-8.5c-0.3-0.3,0-0.7,0.7-0.9C924.9,242.3,925.5,242.4,925.8,242.5z"/>
			</g>
			<g>
				<path d="M1239.6,96.8c-0.4-0.2-0.5-0.5-0.2-0.8s1.1-0.4,1.7-0.3c5.2,1.5,10.4,3.1,15.5,4.8c0.1,0,0.1,0.1,0.2,0.1
					c0.4,0.2,0.5,0.6,0.2,0.8c-0.4,0.3-1.2,0.4-1.8,0.2c-5-1.7-10.1-3.3-15.3-4.8C1239.7,96.8,1239.7,96.8,1239.6,96.8z"/>
			</g>
			<g>
				<path d="M942.2,259.1c0.1,0,0.1,0.1,0.2,0.1c3.1,2.6,6.4,5.2,9.9,7.7c0.4,0.3,0.3,0.7-0.3,0.9c-0.5,0.2-1.3,0.2-1.7-0.1
					c0,0-0.1,0-0.1-0.1c-3.6-2.5-6.9-5.1-10.1-7.8c-0.4-0.3-0.2-0.7,0.4-0.9C941.1,258.8,941.7,258.9,942.2,259.1z"/>
			</g>
			<g>
				<path d="M1269.5,106.9c-0.5-0.2-0.5-0.6-0.1-0.9s1.2-0.3,1.8-0.1c4.7,1.9,9.3,3.9,13.8,6c0,0,0,0,0.1,0c0.5,0.2,0.5,0.6,0,0.9
					s-1.3,0.3-1.8,0c-4.4-2.1-9-4.1-13.6-6C1269.6,107,1269.5,107,1269.5,106.9z"/>
			</g>
			<g>
				<path d="M963.3,274C963.3,274.1,963.4,274.1,963.3,274c3.7,2.2,7.5,4.3,11.5,6.4l0.7,0.4c0.5,0.3,0.5,0.7,0,0.9
					c-0.5,0.3-1.3,0.3-1.8,0l-0.7-0.4c-4-2.1-7.9-4.2-11.6-6.4c-0.5-0.3-0.4-0.7,0.1-0.9C962.1,273.8,962.8,273.8,963.3,274z"/>
			</g>
			<g>
				<path d="M1296,119.4c-0.5-0.3-0.5-0.7,0-0.9c0.5-0.3,1.3-0.3,1.8,0l12.7,6.6c0.5,0.3,0.5,0.7,0,0.9c-0.5,0.3-1.3,0.3-1.8,0
					L1296,119.4z"/>
			</g>
			<g>
				<path d="M986.4,287.4c0.5-0.3,1.3-0.3,1.8,0l12.7,6.6c0.5,0.3,0.5,0.7,0,0.9c-0.5,0.3-1.3,0.3-1.8,0l-12.7-6.6
					C985.9,288.1,985.9,287.6,986.4,287.4z"/>
			</g>
			<g>
				<path d="M1011.8,301.4c-0.5-0.3-0.5-0.7,0-0.9c0.5-0.3,1.3-0.3,1.8,0l12.7,6.6c0.5,0.3,0.5,0.7,0,0.9c-0.5,0.3-1.3,0.3-1.8,0
					L1011.8,301.4z"/>
			</g>
			<g>
				<path d="M1037.2,314.6c-0.5-0.3-0.5-0.7,0-0.9c0.5-0.3,1.3-0.3,1.8,0l12.3,6.4l0.4,0.2c0.5,0.3,0.5,0.7,0,0.9
					c-0.5,0.3-1.3,0.3-1.8,0l-0.4-0.2L1037.2,314.6z"/>
			</g>
			<g>
				<path d="M727.2,481.4l6.9,3.6c1.9,1,3.9,2,5.9,2.9c0.5,0.3,0.5,0.7,0.1,0.9c-0.5,0.3-1.3,0.3-1.8,0c-2-1-4-2-6-3l-6.9-3.6
					c-0.5-0.3-0.5-0.7,0-0.9S726.7,481.1,727.2,481.4z"/>
			</g>
			<g>
				<path d="M1062,327.9c-0.4-0.3-0.4-0.7,0.1-0.9c0.5-0.2,1.3-0.2,1.7,0h0.1c3.9,2.4,7.6,4.8,11.1,7.3c0.4,0.3,0.3,0.7-0.3,0.9
					c-0.5,0.2-1.2,0.2-1.7-0.1l-0.1-0.1C1069.6,332.7,1065.9,330.3,1062,327.9z"/>
			</g>
			<g>
				<path d="M751.7,494c0.4-0.3,1.3-0.3,1.8-0.1c4.7,1.9,9.5,3.7,14.4,5.4c0.1,0,0.1,0.1,0.2,0.1c0.4,0.2,0.5,0.6,0.2,0.8
					c-0.4,0.3-1.2,0.4-1.8,0.2c-5-1.7-9.8-3.5-14.6-5.5c0,0-0.1,0-0.1-0.1C751.4,494.6,751.3,494.3,751.7,494z"/>
			</g>
			<g>
				<path d="M1082.9,342.9c-0.4-0.3-0.2-0.7,0.4-0.9c0.5-0.2,1.2-0.1,1.6,0.1c0.1,0,0.1,0.1,0.2,0.1c3.1,2.7,6,5.4,8.7,8.2
					c0.3,0.3,0.1,0.7-0.5,0.9c-0.5,0.1-1.1,0.1-1.5-0.1c-0.1,0-0.2-0.1-0.2-0.2C1088.8,348.2,1086,345.5,1082.9,342.9z"/>
			</g>
			<g>
				<path d="M781.4,504.4c0.3-0.3,1.1-0.4,1.8-0.3c5.2,1.5,10.5,2.9,15.9,4.2c0.1,0,0.3,0.1,0.4,0.1c0.4,0.2,0.5,0.5,0.2,0.7
					c-0.3,0.3-1,0.5-1.7,0.3c-5.5-1.3-10.8-2.7-16.1-4.2c-0.1,0-0.2-0.1-0.3-0.1C781.2,505,781.1,504.7,781.4,504.4z"/>
			</g>
			<g>
				<path d="M1104.9,368c-1.8-2.9-3.8-5.8-6-8.7c-0.3-0.3,0.1-0.7,0.7-0.9c0.5-0.1,1,0,1.4,0.2c0.1,0.1,0.2,0.1,0.3,0.2
					c2.3,2.9,4.3,5.8,6.1,8.8c0.2,0.3-0.1,0.7-0.8,0.8c-0.5,0.1-0.9,0-1.3-0.2C1105,368.2,1104.9,368.1,1104.9,368z"/>
			</g>
			<g>
				<path d="M813.9,512.2c0.2-0.3,1-0.5,1.6-0.4c5.6,1.1,11.3,2,17,2.8c0.2,0,0.4,0.1,0.6,0.2c0.3,0.2,0.5,0.4,0.3,0.6
					c-0.2,0.3-0.9,0.6-1.6,0.5c-5.8-0.8-11.5-1.8-17.2-2.8c-0.2,0-0.3-0.1-0.5-0.2C813.9,512.7,813.7,512.4,813.9,512.2z"/>
			</g>
			<g>
				<path d="M1112.9,386c-0.9-3-2-6.1-3.3-9.1c-0.2-0.4,0.3-0.7,1-0.8c0.4-0.1,0.9,0,1.2,0.2c0.2,0.1,0.3,0.2,0.3,0.3
					c1.3,3,2.5,6.1,3.3,9.2c0.1,0.4-0.4,0.7-1.1,0.8c-0.4,0-0.8,0-1.1-0.2C1113,386.3,1112.9,386.1,1112.9,386z"/>
			</g>
			<g>
				<path d="M848.4,517.2c0.1-0.4,0.8-0.6,1.5-0.5c5.8,0.6,11.7,1,17.6,1.4c0.3,0,0.6,0.1,0.8,0.2c0.3,0.1,0.4,0.3,0.4,0.5
					c-0.1,0.4-0.7,0.6-1.4,0.6c-6-0.3-11.9-0.8-17.8-1.4c-0.3,0-0.5-0.1-0.7-0.2C848.5,517.7,848.3,517.4,848.4,517.2z"/>
			</g>
			<g>
				<path d="M1115.3,404.4c0.1-3.1-0.1-6.1-0.5-9.2c-0.1-0.4,0.5-0.7,1.2-0.7c0.4,0,0.7,0.1,1,0.2c0.2,0.1,0.4,0.3,0.4,0.4
					c0.4,3.1,0.6,6.2,0.5,9.3c0,0.4-0.6,0.7-1.3,0.7c-0.3,0-0.7-0.1-0.9-0.2C1115.5,404.7,1115.3,404.6,1115.3,404.4z"/>
			</g>
			<g>
				<path d="M885.2,518.7c5.9,0.1,11.9,0.1,17.8-0.1c0.4,0,0.7,0.1,1,0.2c0.2,0.1,0.4,0.3,0.4,0.4c0,0.4-0.5,0.7-1.2,0.7
					c-6,0.1-12,0.2-18,0.1c-0.3,0-0.7-0.1-0.9-0.2c-0.2-0.1-0.4-0.3-0.4-0.5C883.9,519,884.5,518.7,885.2,518.7z"/>
			</g>
			<g>
				<path d="M1112.2,422.7c1-3,1.7-6.1,2.2-9.1c0.1-0.4,0.7-0.6,1.4-0.6c0.3,0,0.6,0.1,0.8,0.2c0.3,0.1,0.4,0.3,0.4,0.5
					c-0.5,3.1-1.3,6.2-2.3,9.3c-0.1,0.4-0.8,0.6-1.5,0.5c-0.3,0-0.5-0.1-0.7-0.2C1112.3,423.2,1112.1,423,1112.2,422.7z"/>
			</g>
			<g>
				<path d="M919.6,518.6c-0.1-0.4,0.4-0.7,1.1-0.7c5.9-0.4,11.7-0.9,17.5-1.5c0.4,0,0.9,0,1.2,0.2c0.2,0.1,0.3,0.2,0.3,0.3
					c0.1,0.4-0.3,0.7-1,0.8c-5.9,0.6-11.8,1.1-17.7,1.5c-0.4,0-0.8,0-1.1-0.2C919.8,518.9,919.7,518.8,919.6,518.6z"/>
			</g>
			<g>
				<path d="M1103.6,440.6c1.9-2.9,3.6-5.9,5-8.8c0.2-0.4,0.9-0.6,1.5-0.5c0.2,0,0.4,0.1,0.6,0.2c0.3,0.2,0.5,0.4,0.3,0.6
					c-1.5,3-3.1,6-5.1,8.9c-0.2,0.4-0.9,0.5-1.6,0.4c-0.2,0-0.4-0.1-0.5-0.2C1103.6,441.1,1103.4,440.9,1103.6,440.6z"/>
			</g>
			<g>
				<path d="M954.7,515c-0.2-0.3,0.2-0.7,0.9-0.8c5.7-0.9,11.3-1.8,16.8-2.9c0.5-0.1,1,0,1.4,0.2c0.1,0.1,0.2,0.1,0.3,0.2
					c0.3,0.3-0.1,0.7-0.7,0.8c-5.6,1.1-11.3,2.1-17,3c-0.5,0.1-0.9,0-1.3-0.2C954.9,515.2,954.7,515.1,954.7,515z"/>
			</g>
			<g>
				<path d="M1089.8,458.3c-0.4-0.2-0.5-0.5-0.2-0.8c2.8-2.7,5.3-5.5,7.7-8.3c0.3-0.3,1-0.5,1.7-0.3c0.1,0,0.3,0.1,0.4,0.1
					c0.4,0.2,0.5,0.5,0.3,0.7c-2.4,2.8-4.9,5.7-7.8,8.4c-0.3,0.3-1.1,0.4-1.7,0.3C1090,458.4,1089.9,458.4,1089.8,458.3z"/>
			</g>
			<g>
				<path d="M988.7,507.6c5.3-1.3,10.6-2.7,15.7-4.3c0.5-0.2,1.2-0.1,1.6,0.1c0.1,0,0.1,0.1,0.2,0.1c0.4,0.3,0.1,0.7-0.5,0.9
					c-5.2,1.6-10.5,3-15.9,4.3c-0.5,0.1-1.1,0.1-1.4-0.1c-0.1-0.1-0.2-0.1-0.3-0.2C987.8,508.2,988.1,507.8,988.7,507.6z"/>
			</g>
			<g>
				<path d="M438.3,802.7c0.4,0.2,0.5,0.6,0.1,0.9c-3.6,2.5-7.3,4.9-11.4,7.2c-0.5,0.3-1.3,0.3-1.8,0.1l0,0
					c-0.5-0.3-0.5-0.7-0.1-0.9c4-2.3,7.7-4.7,11.2-7.1c0.4-0.3,1.2-0.3,1.8-0.1C438.2,802.7,438.3,802.7,438.3,802.7z"/>
			</g>
			<g>
				<path d="M1035.4,493c0.5,0.3,0.4,0.7-0.2,0.9c-4.7,2-9.5,3.8-14.4,5.6c-0.5,0.2-1.2,0.1-1.6-0.1l-0.1-0.1
					c-0.4-0.3-0.3-0.7,0.3-0.9c4.9-1.7,9.6-3.6,14.2-5.5c0.5-0.2,1.2-0.2,1.7,0C1035.4,493,1035.4,493,1035.4,493z"/>
			</g>
			<g>
				<path d="M1070.7,473.9c-0.5-0.2-0.5-0.6-0.1-0.9c3.6-2.5,7-5,10.1-7.6c0.4-0.3,1.2-0.4,1.8-0.2c0.1,0,0.1,0.1,0.2,0.1
					c0.4,0.2,0.5,0.6,0.2,0.8c-3.2,2.6-6.6,5.2-10.2,7.6c-0.4,0.3-1.2,0.4-1.8,0.1C1070.7,474,1070.7,474,1070.7,473.9z"/>
			</g>
			<g>
				<path d="M1330.3,135.3c0.5,0.3,0.5,0.7,0,0.9c-0.5,0.3-1.3,0.3-1.8,0l-6.4-3.3c-0.5-0.3-0.5-0.7,0-0.9c0.5-0.3,1.3-0.3,1.8,0
					L1330.3,135.3z"/>
			</g>
		</g>
	</g>
	<g>
		<g class="st1">
			<g>
				<path class="st2" d="M114.8,792.6v9.5c0,5.1-3.8,10.2-11.3,14.2c-15.1,7.9-39.8,7.9-55,0c-7.7-4-11.5-9.2-11.5-14.4v-9.5
					c0,5.2,3.8,10.4,11.5,14.4c15.2,7.9,39.9,7.9,55,0C111,802.8,114.8,797.7,114.8,792.6z"/>
			</g>
			<g>
				
					<ellipse transform="matrix(2.304713e-03 -1 1 2.304713e-03 -716.705 866.6313)" class="st3" cx="76" cy="792.5" rx="20.2" ry="38.9"/>
			</g>
		</g>
	</g>
	<g>
		<g class="st1">
			<g>
				<path class="st2" d="M374.1,595.9v9.5c0,5.1-3.8,10.2-11.3,14.2c-15.1,7.9-39.8,7.9-55,0c-7.7-4-11.5-9.2-11.5-14.4v-9.5
					c0,5.2,3.8,10.4,11.5,14.4c15.2,7.9,39.9,7.9,55,0C370.3,606.2,374.1,601.1,374.1,595.9z"/>
			</g>
			<g>
				<path class="st3" d="M362.6,581.6c15.2,7.9,15.3,20.6,0.2,28.5c-15.1,7.9-39.8,7.9-55,0s-15.3-20.6-0.2-28.5
					C322.7,573.7,347.3,573.7,362.6,581.6z"/>
			</g>
		</g>
	</g>
	<g>
		<g class="st1">
			<g>
				<path class="st2" d="M728.4,455.8v9.5c0,5.1-3.8,10.2-11.3,14.2c-15.1,7.9-39.8,7.9-55,0c-7.7-4-11.5-9.2-11.5-14.4v-9.5
					c0,5.2,3.8,10.4,11.5,14.4c15.2,7.9,39.9,7.9,55,0C724.7,466,728.4,460.9,728.4,455.8z"/>
			</g>
			<g>
				
					<ellipse transform="matrix(2.304866e-03 -1 1 2.304866e-03 232.2848 1144.2317)" class="st3" cx="689.6" cy="455.7" rx="20.2" ry="38.9"/>
			</g>
		</g>
	</g>
	<g>
		<g class="st1">
			<g>
				<path class="st2" d="M1021,273.2v9.5c0,5.1-3.8,10.2-11.3,14.2c-15.1,7.9-39.8,7.9-55,0c-7.7-4-11.5-9.2-11.5-14.4V273
					c0,5.2,3.8,10.4,11.5,14.4c15.2,7.9,39.9,7.9,55,0C1017.2,283.5,1021,278.4,1021,273.2z"/>
			</g>
			<g>
				
					<ellipse transform="matrix(2.304869e-03 -1 1 2.304869e-03 706.6724 1254.5118)" class="st3" cx="982" cy="273.1" rx="20.2" ry="38.9"/>
			</g>
		</g>
	</g>
	<path class="st4" d="M962.7,255.1"/>
	<g>
		<g>
			<path class="st5" d="M690.3,455.7c-0.5,0-0.9-0.2-1.2-0.6c-0.4-0.6-0.3-1.4,0.4-1.8l261.3-152.7c0.7-0.4,1.6-0.2,2,0.4
				s0.3,1.4-0.4,1.8L691.1,455.5C690.8,455.6,690.6,455.7,690.3,455.7z"/>
		</g>
		<g>
			<path class="st5" d="M933.7,339c-0.2,0-0.4,0-0.6-0.1c-0.7-0.3-1.1-1.1-0.7-1.7l16.8-33.7l-59.3,12.7c-0.8,0.2-1.6-0.3-1.7-1
				c-0.2-0.7,0.3-1.4,1.1-1.6l62.2-13.3c0.5-0.1,1.1,0.1,1.4,0.4c0.3,0.4,0.4,0.9,0.2,1.4l-18,36.1C934.8,338.7,934.2,339,933.7,339
				z"/>
		</g>
	</g>
</g>
</svg>
